<?xml version="1.0" encoding="UTF-8"?>
<svg version="1.1" viewBox="0 0 2048 2048" width="512" height="512" xmlns="http://www.w3.org/2000/svg">
<path transform="translate(1467,67)" d="m0 0h270l24 2 15 4 16 8 11 7 13 12 8 9 8 13 5 11 4 13 2 10 1 23v1037l5 2 12 7 20 14 13 10 14 12 10 9 15 14 1 3h2l7 8 9 10 11 14 14 19 14 22 12 22 13 27 11 29 9 30 8 39 2 13h2v97l-2 2-5 30-6 27-8 27-8 21-8 18-9 19-12 21-7 11-8 12-12 16-8 10-11 13-16 17-7 7-8 7-10 9-10 8-20 15-20 13-23 13-22 11-19 8-22 8-28 8-34 7-32 4-14 1h-43l-33-3-29-5-32-8-30-10-30-13-22-11-17-10-21-14-16-12-16-13-15-14-23-23-9-11-10-12-11-15-10-15-11-18-14-27-10-22-10-28-7-24-6-28-4-26-2-22v-53l4-36 6-31 8-29 9-26 11-25 8-16 11-20 14-22 14-19 9-11 9-10 7-8 9-10 9-9h2v-2l11-9 11-10 16-12 17-12 25-15 23-12 20-9 24-9 26-8 32-7 26-4 23-2 26-1-1-66-176-1-11-4-10-9-6-11-1-4v-12l4-11 6-8 10-7 10-3h174v-67h-171l-10-2-8-4-7-6-6-10-2-6v-13l4-11 9-10 10-6 3-1 15-1h162l1-7 1-60h-177l-11-4-10-9-6-12-1-3v-12l4-11 6-8 8-6 6-3 5-1h175v-66l-1-1h-172l-13-4-9-7-7-11-2-7v-12l4-11 6-8 9-6 7-3 11-1h120l47 1v-68h-175l-10-3-9-7-6-8-4-10v-13l5-12 7-8 7-5 9-3h176v-62l1-5h-171l-11-2-8-4-9-9-5-10-1-4v-12l5-13 6-7 10-6 5-2 11-1h166l1-6v-60l-175-1-11-4-8-6-6-8-4-10v-12l4-12 9-10 11-6 6-1h174v-24l1-43h-167l-15-2-9-5-5-4-6-9-3-8v-13l5-13 9-9 10-5zm240 70v1028l5 2 24 5 28 8 11 3-1-1019-4-11-7-8-9-6-7-2zm-90 1092-30 3-34 7-26 8-21 8-16 7-22 12-18 11-18 13-11 9-14 12-22 22-7 8-8 10-14 19-7 11-11 19-14 29-9 24-7 23-5 23-4 27-1 14v46l3 27 5 26 6 23 8 23 10 23 10 20 14 23 12 16 10 13 11 12 7 8 12 12 11 9 9 8 19 14 17 11 22 12 19 9 26 10 19 6 27 6 28 4 12 1h46l28-3 26-5 29-8 24-9 24-11 22-12 21-14 16-12 13-11 10-9 19-19 9-11 4-5v-2h2l12-17 11-17 12-22 10-21 8-21 8-28 6-28 3-25 1-14v-33l-3-31-4-23-7-28-9-26-11-25-11-21-14-22-10-14-9-11-9-10-7-8-18-18-22-18-14-10-19-12-18-10-23-11-27-10-25-7-25-5-23-3-15-1z"/>
<path transform="translate(435,68)" d="m0 0h17l9 4 8 6 9 14 15 32 16 38 11 29 9 26 11 34 11 41 9 39 8 43 6 43 4 40 2 33 1 38 1 727 16 29 25 45 13 23 13 24 14 25 13 23 13 24 9 16 20 36 2 3 26 6 24 8 18 8 17 9 15 10 12 9 14 12 16 16 9 11 11 15 12 20 11 23 9 27 5 23 3 27v29l-3 25-6 25-9 27-10 21-11 18-8 11-10 13-14 15-14 13-13 10-18 12-27 14-21 8-27 7-27 4-17 1h-13l-23-2-26-5-26-8-23-10-15-8-18-12-13-10-15-14-13-13-11-14-12-17-10-18-7-15v-2h-2l-2 6-10 20-10 16-14 19-4 5h-2l-2 4-18 18-14 11-14 10-21 12-19 9-20 7-23 6-26 4-15 1h-15l-24-2-26-5-26-8-23-10-20-11-17-12-11-9-12-11-13-13-9-11-13-18-13-23-9-21-8-24-7-31v-60l2-8 6-27 8-24 9-20 9-16 8-12 8-11 11-13 8-9 8-7 12-11 18-13 20-12 19-9 13-5h3l2-4 9-17 13-23 16-29 30-54 14-25 16-29 13-23 13-24 13-23 4-7 1-5v-723l1-36 3-43 4-37 6-42 8-42 9-39 12-43 16-49 15-39 15-35 14-30 6-11 6-7 8-5zm8 120-7 18-9 25-13 40-12 45-10 45-7 43-5 41-3 41-1 22v742l11 12 7 8 9 10 7 8 9 10 7 8 9 10 7 8 9 10 7 8 9 10 7 8 9 10 7 8 9 10 7 8 9 10 7 8 9 10 7 8 9 10 7 8 10 11 7 8 12 14 12 13 14 16 10-2 21-5-2-7-13-23-13-24-9-16-45-81-13-23-13-24-13-23-5-11-2-13-1-761-3-46-4-37-7-46-9-44-10-39-11-37-14-41-8-20zm-96 1135-6 10-4 8-13 23-9 17-13 23-16 29-13 23-13 24-10 17-1 4 32 4 4-1 7-7 7-8 11-12v-2h2l7-8 12-14 11-12v-2h2l7-8 12-14 11-12v-2h2l7-8 5-6v-2h2l7-9-4-6-12-13-7-8-12-14-13-14zm95 108-9 10-7 8-12 14-10 11-7 8-11 12-7 8-10 11-14 16 1 3 19 12 13 10 15 13 14 14 1 2h2l2 4 11 14 11 17 7 12 8 17 3 2 7-15 9-17 8-12 12-16v-2h2l5-6v-2l3-1 7-8 14-13 16-12-3-5-3-4h-2l-2-4-9-10-7-8-11-12-9-11-14-15-7-8-9-10-9-11-7-7-7-8zm-208 139-23 2-21 5-17 6-16 8-12 7-12 9-10 9-6 5-7 8-10 13-10 16-8 16-7 20-4 17-2 18v25l3 21 5 19 8 20 10 18 11 15 9 10 14 14 18 13 16 9 16 7 15 5 20 4 9 1h32l20-3 18-5 19-8 17-9 17-12 12-11 10-10 13-17 9-16 8-17 6-19 4-21 1-14v-16l-2-18-3-15-5-17-8-18-8-15-10-14-9-11h-2l-2-4-12-11-15-11-16-9-17-8-19-6-15-3-26-2zm445 0-24 2-25 6-20 8-15 8-12 8-11 9-12 11v2l-3 1-7 8-12 17-12 23-7 20-4 17-2 16v31l3 20 6 21 7 16 9 17 10 14 9 10 7 8 10 9 18 13 23 12 16 6 21 5 14 2h32l20-3 15-4 19-7 19-10 13-9 10-8 10-9 12-13 12-17 9-17 8-21 5-20 2-12 1-24-2-21-5-23-7-19-8-16-9-15-13-16-14-14-17-13-19-11-18-8-21-6-18-3z"/>
<path transform="translate(1008,67)" d="m0 0h16l22 2 23 5 16 5 15 6 17 8 18 11 14 10 10 8 11 10 8 7 8 8 7 8 12 14 12 16 16 24 12 21 12 23 13 29 10 27 9 28 8 30 7 33 6 39 4 42 1 17v62l-3 41-5 39-5 28-8 35-10 34-11 31-11 26-11 23-12 22-15 24-13 18-9 11-9 10-7 8-16 16h-2v2l-11 9-6 5-3 14-28 168v9l23 230v24l-5 25-6 15-9 17-9 12-9 10-10 9-17 11-15 7-15 5-22 4h-21l-22-4-18-6-17-9-12-9-10-9-7-7-9-12-7-11-7-16-5-16-3-20v-16l13-131 10-100v-14l-25-151-4-25-2-5-10-8-15-14-17-17-9-11-10-12-12-17-13-21-10-18-10-19-11-25-13-34-11-36-9-38-5-27-5-37-3-34-1-20v-49l2-33 3-30 5-33 6-31 9-36 13-40 12-30 17-35 14-25 14-21 11-15 13-16 11-12 20-20 11-9 15-11 19-12 15-8 20-8 19-6 21-4zm-7 70-18 3-21 7-16 8-13 8-11 8-14 12-19 19-11 14-10 13-12 19-10 17-8 16-9 19-9 23-12 36-8 31-5 26-4 25-3 24-2 32v65l2 30 5 39 5 27 7 30 11 36 11 29 13 28 10 19 13 21 12 17 9 11 9 10 7 8 8 8 11 9 13 10 21 12 16 7 18 5 12 2 11 1h12l21-3 15-4 20-8 16-9 17-12 14-12 16-16 9-11 4-5v-2h2l11-16 12-19 13-24 12-26 13-35 9-30 7-30 6-32 4-32 2-27 1-25v-29l-2-38-4-37-6-36-9-38-11-35-8-21-10-23-12-24-15-25-12-17-9-11-11-13-15-15-14-11-14-10-16-9-20-8-15-4-13-2zm-43 845 23 137v16l-6 59-8 80-6 61-3 29v20l3 11 6 12 7 9 12 9 11 5 9 2h19l14-4 12-7 9-8 7-10 5-12 2-13-1-19-13-128-10-100v-9l23-138v-2l-27 5-17 2h-27l-23-3z"/>
<path transform="translate(1629,1535)" d="m0 0h19l17 3 14 5 17 9 11 9 11 11 7 10 7 12 5 12v2l10 3 15 8 12 9 12 12 10 14 7 15 5 17 2 16-1 18-3 15-6 16-9 15-9 11-7 7-14 10-16 8-16 5-14 2h-155l-17-3-16-6-15-8-13-11-8-8-10-14-8-17-5-19-1-7v-20l4-20 7-17 8-13 9-11 8-8 13-9 16-8 7-3 12-24 8-11 9-10 10-8 11-7 13-6 13-4zm6 69-9 2-10 6-6 7-4 9-3 19-6 12-3 3v2l-4 2-13 5-18 3-8 4-3 2v2h-2v2h-2l-6 12-1 3v14l4 11 8 9 10 5 10 2h139l10-2 9-5 5-4 6-10 2-7v-11l-3-9-4-7-5-5-8-5-6-2-16-2-12-6-7-7-5-10-3-19-7-14-9-7-13-4z"/>
<path transform="translate(238,1637)" d="m0 0 22 2 16 5 16 8 13 9 7 6 7 8 10 15 7 15 4 14 2 12v19l-4 20-6 16-10 16-12 13-9 8-13 8-13 6-14 4-9 2h-26l-18-4-17-7-14-9-12-11-9-10-8-13-6-13-4-13-2-12v-22l3-15 5-15 9-16 10-13 7-7 15-11 16-8 17-5zm-6 70-10 4-8 6-6 9-2 7v15l4 10 9 10 10 5 13 1 9-2 10-6 7-8 4-11v-14l-5-12-4-5-9-6-8-3z"/>
<path transform="translate(681,1637)" d="m0 0 23 2 16 5 16 8 10 7 12 11 7 8 10 16 6 15 4 17 1 9v10l-3 20-5 15-7 14-8 11-9 10-8 7-14 9-16 7-20 5h-26l-18-4-15-6-12-7-10-8-12-12-9-13-8-16-4-13-2-11v-26l5-21 9-19 8-11 9-10 9-8 14-9 16-7 12-3zm-5 70-9 3-9 7-6 9-3 11v7l4 13 5 7 8 6 7 3 13 1 8-2 8-4 7-6 4-7 3-9v-11l-3-9-5-8-8-7-10-4z"/>
<path transform="translate(1635,1330)" d="m0 0 18 1 15 4 16 8 13 10 7 7 9 13 7 15 3 11 1 7v21l-3 14-6 15-7 11-9 10-10 9-14 8-13 5-15 3h-18l-18-4-14-6-14-10-12-12-9-14-5-11-4-15-1-8v-12l3-17 5-13 6-11 7-9 13-13 15-9 13-5 9-2zm-2 70-6 4-4 5-1 3v8l3 6 5 5 10 2 9-4 4-5 2-5-1-9-6-8-4-2z"/>
<path transform="translate(1814,1433)" d="m0 0h24l16 4 12 5 11 7 10 9 9 10 8 14 5 13 2 7 1 8v19l-4 17-5 12-10 15-6 7-14 11-16 8-14 4-7 1h-22l-16-4-14-6-14-10-10-10-9-13-6-13-4-14-1-8v-15l4-20 8-17 10-13 10-10 14-9 11-5zm9 69-7 3-5 6-1 2v10l3 6 4 4 6 2h7l8-5 4-6 1-6-3-9-7-6-3-1z"/>
<path transform="translate(1438,1433)" d="m0 0h25l16 4 17 8 14 11 10 11 8 13 6 16 2 10v25l-4 17-8 16-9 12-9 9-14 9-13 6-11 3-7 1h-23l-16-4-16-8-10-7-8-7-10-13-8-16-4-13-2-18 2-17 5-16 7-13 11-14 9-8 11-7 10-5 14-4zm9 69-8 4-3 4-2 6 1 9 4 6 8 4h7l8-4 5-8v-9l-5-8-7-4z"/>
<path transform="translate(1051,272)" d="m0 0h66l2 3v65l-1 1-65 1-4-1v-68z"/>
<path transform="translate(1050,682)" d="m0 0h67l2 2v65l-3 2h-66l-1-1v-67z"/>
<path transform="translate(410,1091)" d="m0 0h67l1 1v68l-7 1h-59l-3-1v-68z"/>
<path transform="translate(1049,409)" d="m0 0h68l2 2v65l-2 2h-67l-1-1z"/>
<path transform="translate(1050,545)" d="m0 0h42l26 1 1 5v61l-1 2h-68l-1-1v-67z"/>
<path transform="translate(913,682)" d="m0 0h68l1 1v67l-2 1h-67z"/>
<path transform="translate(913,409)" d="m0 0h68l1 1v67l-1 1h-67l-1-1z"/>
<path transform="translate(914,272)" d="m0 0h56l12 1v68l-64 1-5-1-1-59 1-9z"/>
<path transform="translate(914,545)" d="m0 0h38l29 1 1 1v67h-69v-68z"/>
</svg>
