<svg xmlns="http://www.w3.org/2000/svg" xmlns:xlink="http://www.w3.org/1999/xlink" width="500" zoomAndPan="magnify" viewBox="0 0 375 374.999991" height="500" preserveAspectRatio="xMidYMid meet" version="1.0"><defs><g/><clipPath id="bffb33467b"><path d="M 90.703125 90.777344 L 283.828125 90.777344 L 283.828125 283.902344 L 90.703125 283.902344 Z M 90.703125 90.777344 " clip-rule="nonzero"/></clipPath><clipPath id="c297a1d3dd"><path d="M 187.265625 90.777344 C 133.933594 90.777344 90.703125 134.011719 90.703125 187.339844 C 90.703125 240.671875 133.933594 283.902344 187.265625 283.902344 C 240.59375 283.902344 283.828125 240.671875 283.828125 187.339844 C 283.828125 134.011719 240.59375 90.777344 187.265625 90.777344 Z M 187.265625 90.777344 " clip-rule="nonzero"/></clipPath><clipPath id="0048ba654e"><path d="M 131 128.5 L 244.765625 128.5 L 244.765625 244.75 L 131 244.75 Z M 131 128.5 " clip-rule="nonzero"/></clipPath><clipPath id="018a7006af"><path d="M 140 178 L 205 178 L 205 244.75 L 140 244.75 Z M 140 178 " clip-rule="nonzero"/></clipPath><clipPath id="752d876201"><path d="M 131.921875 90.777344 L 242.308594 90.777344 L 242.308594 122.492188 L 131.921875 122.492188 Z M 131.921875 90.777344 " clip-rule="nonzero"/></clipPath><clipPath id="f1bfffaa3b"><path d="M 147.78125 90.777344 L 226.40625 90.777344 C 235.164062 90.777344 242.265625 97.878906 242.265625 106.636719 C 242.265625 115.394531 235.164062 122.492188 226.40625 122.492188 L 147.78125 122.492188 C 139.023438 122.492188 131.921875 115.394531 131.921875 106.636719 C 131.921875 97.878906 139.023438 90.777344 147.78125 90.777344 Z M 147.78125 90.777344 " clip-rule="nonzero"/></clipPath><clipPath id="28d9b84c03"><path d="M 134.753906 247.425781 L 228.414062 247.425781 L 228.414062 287.386719 L 134.753906 287.386719 Z M 134.753906 247.425781 " clip-rule="nonzero"/></clipPath><clipPath id="4a2e2d3360"><path d="M 208.433594 287.386719 L 154.84375 287.386719 C 143.808594 287.386719 134.863281 278.441406 134.863281 267.40625 C 134.863281 256.371094 143.808594 247.425781 154.84375 247.425781 L 208.433594 247.425781 C 219.46875 247.425781 228.414062 256.371094 228.414062 267.40625 C 228.414062 278.441406 219.46875 287.386719 208.433594 287.386719 Z M 208.433594 287.386719 " clip-rule="nonzero"/></clipPath><clipPath id="1d08da8534"><path d="M 214.710938 220.617188 L 265.914062 220.617188 L 265.914062 261.199219 L 214.710938 261.199219 Z M 214.710938 220.617188 " clip-rule="nonzero"/></clipPath><clipPath id="baa6f04584"><path d="M 245.625 261.199219 L 235.140625 261.199219 C 223.933594 261.199219 214.847656 252.117188 214.847656 240.910156 C 214.847656 229.703125 223.933594 220.617188 235.140625 220.617188 L 245.625 220.617188 C 256.832031 220.617188 265.914062 229.703125 265.914062 240.910156 C 265.914062 252.117188 256.832031 261.199219 245.625 261.199219 Z M 245.625 261.199219 " clip-rule="nonzero"/></clipPath><clipPath id="56a01bb598"><path d="M 118 240 L 164 240 L 164 286 L 118 286 Z M 118 240 " clip-rule="nonzero"/></clipPath><clipPath id="db76722f0f"><path d="M 141.921875 285.65625 L 118.90625 262.644531 L 140.648438 240.902344 L 163.660156 263.917969 Z M 141.921875 285.65625 " clip-rule="nonzero"/></clipPath><clipPath id="9dc9fe674e"><path d="M 214 214 L 289 214 L 289 284 L 214 284 Z M 214 214 " clip-rule="nonzero"/></clipPath><clipPath id="a5d84d2538"><path d="M 288.722656 227.300781 L 225.910156 283.730469 L 214.625 271.171875 L 277.441406 214.738281 Z M 288.722656 227.300781 " clip-rule="nonzero"/></clipPath><clipPath id="400c24accd"><path d="M 252 231 L 277 231 L 277 256 L 252 256 Z M 252 231 " clip-rule="nonzero"/></clipPath><clipPath id="dd7962f981"><path d="M 225.464844 240.753906 L 256.863281 205.445312 L 284.882812 230.363281 L 253.488281 265.671875 Z M 225.464844 240.753906 " clip-rule="nonzero"/></clipPath><clipPath id="c034a4b6aa"><path d="M 225.464844 240.753906 L 256.863281 205.445312 L 284.882812 230.363281 L 253.488281 265.671875 Z M 225.464844 240.753906 " clip-rule="nonzero"/></clipPath><clipPath id="d87cf23bc9"><path d="M 244.769531 243.792969 L 263.289062 222.96875 L 279.054688 236.984375 L 260.535156 257.8125 Z M 244.769531 243.792969 " clip-rule="nonzero"/></clipPath><clipPath id="35cdcde3b8"><path d="M 236 243 L 249 243 L 249 253 L 236 253 Z M 236 243 " clip-rule="nonzero"/></clipPath><clipPath id="8ebfed39a2"><path d="M 225.464844 240.753906 L 256.863281 205.445312 L 284.882812 230.363281 L 253.488281 265.671875 Z M 225.464844 240.753906 " clip-rule="nonzero"/></clipPath><clipPath id="bed116b76e"><path d="M 225.464844 240.753906 L 256.863281 205.445312 L 284.882812 230.363281 L 253.488281 265.671875 Z M 225.464844 240.753906 " clip-rule="nonzero"/></clipPath><clipPath id="e3984a1500"><path d="M 235 229 L 249 229 L 249 240 L 235 240 Z M 235 229 " clip-rule="nonzero"/></clipPath><clipPath id="21dd297c48"><path d="M 225.464844 240.753906 L 256.863281 205.445312 L 284.882812 230.363281 L 253.488281 265.671875 Z M 225.464844 240.753906 " clip-rule="nonzero"/></clipPath><clipPath id="6670d5d620"><path d="M 225.464844 240.753906 L 256.863281 205.445312 L 284.882812 230.363281 L 253.488281 265.671875 Z M 225.464844 240.753906 " clip-rule="nonzero"/></clipPath><clipPath id="9b134dbff6"><path d="M 246 216 L 257 216 L 257 230 L 246 230 Z M 246 216 " clip-rule="nonzero"/></clipPath><clipPath id="fb17991436"><path d="M 225.464844 240.753906 L 256.863281 205.445312 L 284.882812 230.363281 L 253.488281 265.671875 Z M 225.464844 240.753906 " clip-rule="nonzero"/></clipPath><clipPath id="8e6724a68c"><path d="M 225.464844 240.753906 L 256.863281 205.445312 L 284.882812 230.363281 L 253.488281 265.671875 Z M 225.464844 240.753906 " clip-rule="nonzero"/></clipPath><clipPath id="a4d45355e6"><path d="M 261 214 L 271 214 L 271 229 L 261 229 Z M 261 214 " clip-rule="nonzero"/></clipPath><clipPath id="3bea261567"><path d="M 225.464844 240.753906 L 256.863281 205.445312 L 284.882812 230.363281 L 253.488281 265.671875 Z M 225.464844 240.753906 " clip-rule="nonzero"/></clipPath><clipPath id="6f7056ae48"><path d="M 225.464844 240.753906 L 256.863281 205.445312 L 284.882812 230.363281 L 253.488281 265.671875 Z M 225.464844 240.753906 " clip-rule="nonzero"/></clipPath></defs><g clip-path="url(#bffb33467b)"><g clip-path="url(#c297a1d3dd)"><path stroke-linecap="butt" transform="matrix(0.75, 0, 0, 0.75, 90.701725, 90.778112)" fill="none" stroke-linejoin="miter" d="M 128.751875 -0.00102492 C 57.642496 -0.00102492 0.00186674 57.644812 0.00186674 128.748984 C 0.00186674 199.858363 57.642496 257.498992 128.751875 257.498992 C 199.856047 257.498992 257.501884 199.858363 257.501884 128.748984 C 257.501884 57.644812 199.856047 -0.00102492 128.751875 -0.00102492 Z M 128.751875 -0.00102492 " stroke="#df86c6" stroke-width="6" stroke-opacity="1" stroke-miterlimit="4"/></g></g><g clip-path="url(#0048ba654e)"><path fill="#a2128f" d="M 243.390625 244.605469 C 242.832031 244.605469 242.316406 244.246094 242.140625 243.6875 C 238.777344 232.933594 232.21875 216.605469 220.039062 199.84375 C 219.183594 198.867188 208.75 186.992188 205.808594 182.09375 C 202.691406 176.902344 200.15625 171.695312 200.664062 160.53125 C 201.128906 150.265625 199.023438 142.902344 194.21875 138.011719 C 189.664062 133.371094 182.640625 131.15625 173.339844 131.40625 C 169.730469 131.507812 166.300781 132.742188 163.679688 134.886719 C 163.339844 135.164062 163.023438 135.449219 162.738281 135.734375 C 162.675781 135.796875 162.609375 135.851562 162.535156 135.898438 C 162.351562 136.019531 158 138.914062 154.023438 140.910156 C 153.382812 141.304688 148.417969 144.214844 141.964844 144.097656 C 141.25 144.085938 140.558594 143.960938 139.90625 143.726562 C 138.140625 143.101562 136.59375 143.242188 135.546875 144.125 C 134.410156 145.078125 133.960938 146.785156 134.3125 148.800781 C 134.359375 149.070312 134.355469 149.347656 134.296875 149.609375 C 134.125 150.375 133.425781 154.425781 136.320312 158.835938 C 139.738281 164.042969 146.707031 167.699219 157.03125 169.703125 C 157.628906 169.761719 160.914062 170.1875 162.972656 172.578125 C 164.210938 174.015625 164.761719 175.839844 164.605469 177.996094 L 164.605469 189.351562 C 164.605469 190.074219 164.015625 190.664062 163.292969 190.664062 C 162.570312 190.664062 161.980469 190.074219 161.980469 189.351562 L 161.980469 177.945312 C 161.980469 177.910156 161.980469 177.878906 161.984375 177.847656 C 162.097656 176.367188 161.769531 175.207031 160.984375 174.292969 C 159.488281 172.554688 156.777344 172.316406 156.75 172.3125 C 156.699219 172.308594 156.648438 172.300781 156.597656 172.292969 C 145.515625 170.152344 137.953125 166.109375 134.121094 160.277344 C 130.777344 155.167969 131.472656 150.335938 131.714844 149.152344 C 131.234375 146.234375 132.011719 143.675781 133.859375 142.117188 C 135.621094 140.632812 138.148438 140.316406 140.789062 141.253906 C 141.175781 141.390625 141.585938 141.464844 142.015625 141.472656 C 147.972656 141.589844 152.632812 138.6875 152.679688 138.65625 C 152.71875 138.632812 152.757812 138.613281 152.796875 138.589844 C 156.3125 136.832031 160.292969 134.238281 160.980469 133.78125 C 161.300781 133.46875 161.648438 133.15625 162.019531 132.851562 C 165.089844 130.339844 169.085938 128.894531 173.273438 128.78125 C 183.332031 128.503906 191.007812 130.992188 196.097656 136.171875 C 201.4375 141.609375 203.789062 149.617188 203.289062 160.652344 C 202.8125 171.101562 205.066406 175.75 208.058594 180.742188 C 210.941406 185.542969 221.941406 198.027344 222.050781 198.152344 C 222.078125 198.183594 222.101562 198.214844 222.125 198.25 C 234.539062 215.316406 241.222656 231.953125 244.644531 242.902344 C 244.859375 243.597656 244.476562 244.332031 243.785156 244.546875 C 243.652344 244.589844 243.519531 244.605469 243.390625 244.605469 Z M 184.636719 172.664062 C 186.71875 172.558594 190.5625 172.070312 192.917969 170.011719 C 197.335938 166.148438 199.90625 151.585938 197.214844 145.671875 C 196.917969 145.007812 196.136719 144.71875 195.480469 145.019531 C 194.820312 145.320312 194.527344 146.097656 194.828125 146.757812 C 197.027344 151.597656 194.753906 164.921875 191.191406 168.035156 C 188.441406 170.441406 180.941406 170.644531 177.140625 169.042969 C 175.875 168.511719 174.820312 167.8125 174.003906 166.964844 C 170.90625 163.753906 171.417969 158.617188 172.394531 154.875 C 173.820312 149.398438 176.515625 144.117188 180.183594 139.605469 C 180.640625 139.042969 180.558594 138.214844 179.992188 137.757812 C 179.429688 137.300781 178.605469 137.386719 178.148438 137.949219 C 174.242188 142.753906 171.375 148.375 169.851562 154.21875 C 168.210938 160.519531 168.992188 165.558594 172.113281 168.789062 C 173.179688 169.894531 174.527344 170.796875 176.121094 171.464844 C 178 172.253906 180.636719 172.699219 183.367188 172.699219 C 183.789062 172.695312 184.214844 172.6875 184.636719 172.664062 Z M 169.433594 142.074219 C 169.945312 141.5625 169.945312 140.730469 169.433594 140.21875 C 168.921875 139.707031 168.089844 139.707031 167.578125 140.21875 C 166.539062 141.253906 165.488281 141.765625 164.449219 141.730469 C 162.816406 141.679688 161.597656 140.324219 161.5625 140.285156 C 161.089844 139.742188 160.265625 139.679688 159.71875 140.148438 C 159.167969 140.621094 159.105469 141.449219 159.574219 142 C 159.65625 142.09375 161.53125 144.246094 164.332031 144.351562 C 164.410156 144.355469 164.480469 144.359375 164.554688 144.359375 C 166.277344 144.359375 167.914062 143.589844 169.433594 142.074219 Z M 169.433594 142.074219 " fill-opacity="1" fill-rule="nonzero"/></g><g clip-path="url(#018a7006af)"><path fill="#dd81ce" d="M 163.808594 244.605469 C 163.664062 244.605469 163.519531 244.582031 163.375 244.535156 C 162.691406 244.292969 162.332031 243.546875 162.570312 242.863281 C 163.210938 241.023438 163.6875 239.132812 163.984375 237.242188 C 164.222656 235.734375 163.746094 232.34375 163.117188 231.089844 C 161.832031 228.523438 159.6875 227.191406 157.753906 226.226562 C 155.765625 225.230469 151.375 224.875 147.925781 224.875 C 146.863281 224.875 144.9375 224.351562 143.96875 220.84375 C 143.875 220.503906 143.675781 220.03125 143.273438 219.707031 C 141.1875 218.050781 140.347656 213.800781 140.203125 212.964844 C 139.226562 209.746094 142.96875 207.402344 145.414062 206.492188 C 148.121094 205.078125 149.355469 200.3125 149.601562 198.585938 C 149.605469 198.546875 149.613281 198.507812 149.621094 198.46875 C 150.425781 195.058594 153.121094 192.246094 156.492188 191.300781 C 158.191406 190.824219 159.730469 190.894531 161.21875 190.960938 C 161.738281 190.984375 162.269531 191.011719 162.800781 191.011719 C 164.582031 191.011719 166.882812 190.359375 167.632812 189.152344 C 167.707031 189.035156 173.128906 180.28125 173.128906 180.28125 C 173.59375 179.523438 174.371094 179.023438 175.25 178.90625 C 176.132812 178.789062 177.011719 179.070312 177.660156 179.675781 C 179.75 181.625 183.171875 186.386719 182.628906 196.394531 C 182.585938 197.210938 182.933594 198 183.585938 198.554688 C 197.273438 210.234375 202.859375 231.453125 204.96875 243.058594 C 205.097656 243.773438 204.625 244.453125 203.914062 244.582031 C 203.203125 244.714844 202.519531 244.238281 202.390625 243.527344 C 200.34375 232.265625 194.953125 211.703125 181.886719 200.554688 C 180.605469 199.460938 179.921875 197.898438 180.011719 196.257812 C 180.175781 193.167969 180.109375 185.554688 175.871094 181.597656 C 175.777344 181.507812 175.671875 181.503906 175.601562 181.511719 C 175.53125 181.519531 175.429688 181.554688 175.363281 181.664062 C 175.363281 181.664062 169.941406 190.417969 169.867188 190.539062 C 168.347656 192.988281 164.714844 193.636719 162.804688 193.636719 C 162.214844 193.636719 161.648438 193.609375 161.105469 193.585938 C 159.707031 193.523438 158.5 193.464844 157.207031 193.832031 C 154.757812 194.515625 152.796875 196.554688 152.195312 199.023438 C 152.070312 199.820312 150.894531 206.695312 146.53125 208.871094 C 146.488281 208.894531 146.441406 208.914062 146.394531 208.933594 C 145.0625 209.421875 142.292969 210.933594 142.726562 212.242188 C 142.746094 212.308594 142.765625 212.375 142.777344 212.441406 C 143.058594 214.128906 143.90625 216.863281 144.910156 217.65625 C 145.667969 218.261719 146.21875 219.121094 146.5 220.152344 C 146.78125 221.167969 147.304688 222.257812 147.929688 222.257812 C 150.257812 222.257812 155.992188 222.414062 158.929688 223.882812 C 161.113281 224.976562 163.828125 226.648438 165.464844 229.921875 C 166.421875 231.835938 166.878906 235.773438 166.582031 237.65625 C 166.257812 239.703125 165.746094 241.746094 165.054688 243.730469 C 164.859375 244.269531 164.351562 244.605469 163.808594 244.605469 Z M 161.496094 204.90625 C 162.007812 204.394531 162.007812 203.5625 161.496094 203.050781 C 160.984375 202.539062 160.152344 202.539062 159.640625 203.050781 C 158.851562 203.839844 158.054688 204.222656 157.289062 204.207031 C 156.070312 204.171875 155.144531 203.148438 155.113281 203.117188 C 154.640625 202.574219 153.816406 202.511719 153.269531 202.980469 C 152.71875 203.453125 152.652344 204.28125 153.125 204.832031 C 153.292969 205.027344 154.828125 206.742188 157.167969 206.828125 C 157.234375 206.832031 157.296875 206.832031 157.359375 206.832031 C 158.828125 206.835938 160.21875 206.1875 161.496094 204.90625 Z M 161.496094 204.90625 " fill-opacity="1" fill-rule="nonzero"/></g><g clip-path="url(#752d876201)"><g clip-path="url(#f1bfffaa3b)"><path fill="#ffffff" d="M 131.921875 90.777344 L 242.308594 90.777344 L 242.308594 122.492188 L 131.921875 122.492188 Z M 131.921875 90.777344 " fill-opacity="1" fill-rule="nonzero"/></g></g><g clip-path="url(#28d9b84c03)"><g clip-path="url(#4a2e2d3360)"><path fill="#ffffff" d="M 228.414062 287.386719 L 134.910156 287.386719 L 134.910156 247.425781 L 228.414062 247.425781 Z M 228.414062 287.386719 " fill-opacity="1" fill-rule="nonzero"/></g></g><g clip-path="url(#1d08da8534)"><g clip-path="url(#baa6f04584)"><path fill="#ffffff" d="M 265.914062 261.199219 L 214.867188 261.199219 L 214.867188 220.617188 L 265.914062 220.617188 Z M 265.914062 261.199219 " fill-opacity="1" fill-rule="nonzero"/></g></g><g clip-path="url(#56a01bb598)"><g clip-path="url(#db76722f0f)"><path fill="#ffffff" d="M 141.921875 285.65625 L 118.90625 262.644531 L 140.648438 240.902344 L 163.660156 263.917969 Z M 141.921875 285.65625 " fill-opacity="1" fill-rule="nonzero"/></g></g><g clip-path="url(#9dc9fe674e)"><g clip-path="url(#a5d84d2538)"><path fill="#ffffff" d="M 288.722656 227.300781 L 225.925781 283.714844 L 214.644531 271.15625 L 277.441406 214.738281 Z M 288.722656 227.300781 " fill-opacity="1" fill-rule="nonzero"/></g></g><g fill="#720c68" fill-opacity="1"><g transform="translate(132.386454, 268.514918)"><g><path d="M 4.359375 -1.203125 L 3.1875 0.78125 C 3.03125 1.0625 2.816406 1.207031 2.546875 1.21875 C 2.273438 1.238281 2.03125 1.1875 1.8125 1.0625 C 1.582031 0.925781 1.414062 0.738281 1.3125 0.5 C 1.207031 0.257812 1.226562 0.0078125 1.375 -0.25 L 6.3125 -8.6875 C 6.457031 -8.9375 6.660156 -9.082031 6.921875 -9.125 C 7.191406 -9.164062 7.453125 -9.113281 7.703125 -8.96875 L 10.921875 -7.09375 C 11.796875 -6.582031 12.453125 -5.988281 12.890625 -5.3125 C 13.328125 -4.632812 13.546875 -3.925781 13.546875 -3.1875 C 13.554688 -2.445312 13.34375 -1.707031 12.90625 -0.96875 C 12.289062 0.09375 11.421875 0.734375 10.296875 0.953125 C 9.179688 1.179688 7.960938 0.90625 6.640625 0.125 Z M 7.6875 -6.890625 L 5.265625 -2.765625 L 7.546875 -1.4375 C 8.316406 -0.976562 9.007812 -0.804688 9.625 -0.921875 C 10.25 -1.046875 10.738281 -1.410156 11.09375 -2.015625 C 11.476562 -2.660156 11.582031 -3.296875 11.40625 -3.921875 C 11.226562 -4.554688 10.769531 -5.09375 10.03125 -5.53125 Z M 7.6875 -6.890625 "/></g></g></g><g fill="#720c68" fill-opacity="1"><g transform="translate(146.086125, 276.160181)"><g><path d="M 9.53125 1.75 C 9.820312 1.863281 10.007812 2.046875 10.09375 2.296875 C 10.1875 2.546875 10.191406 2.78125 10.109375 3 C 10.035156 3.195312 9.890625 3.351562 9.671875 3.46875 C 9.453125 3.582031 9.1875 3.578125 8.875 3.453125 L 2.109375 0.828125 C 1.773438 0.691406 1.539062 0.484375 1.40625 0.203125 C 1.28125 -0.0664062 1.269531 -0.34375 1.375 -0.625 L 4.8125 -9.453125 C 4.914062 -9.722656 5.109375 -9.914062 5.390625 -10.03125 C 5.679688 -10.15625 5.992188 -10.148438 6.328125 -10.015625 L 13.09375 -7.390625 C 13.394531 -7.273438 13.585938 -7.109375 13.671875 -6.890625 C 13.753906 -6.671875 13.753906 -6.453125 13.671875 -6.234375 C 13.585938 -6.035156 13.429688 -5.867188 13.203125 -5.734375 C 12.984375 -5.609375 12.726562 -5.601562 12.4375 -5.71875 L 6.484375 -8.03125 L 5.328125 -5.0625 L 10.96875 -2.875 C 11.257812 -2.757812 11.445312 -2.582031 11.53125 -2.34375 C 11.613281 -2.113281 11.613281 -1.890625 11.53125 -1.671875 C 11.445312 -1.460938 11.296875 -1.300781 11.078125 -1.1875 C 10.867188 -1.082031 10.617188 -1.085938 10.328125 -1.203125 L 4.6875 -3.390625 L 3.578125 -0.5625 Z M 9.53125 1.75 "/></g></g></g><g fill="#720c68" fill-opacity="1"><g transform="translate(160.782375, 281.509727)"><g><path d="M 11.765625 -9.3125 C 12.097656 -9.238281 12.332031 -9.085938 12.46875 -8.859375 C 12.601562 -8.628906 12.644531 -8.398438 12.59375 -8.171875 C 12.550781 -7.941406 12.414062 -7.75 12.1875 -7.59375 C 11.957031 -7.4375 11.675781 -7.394531 11.34375 -7.46875 L 8.015625 -8.203125 L 6.140625 0.359375 C 6.066406 0.691406 5.898438 0.90625 5.640625 1 C 5.378906 1.101562 5.125 1.128906 4.875 1.078125 C 4.632812 1.023438 4.421875 0.898438 4.234375 0.703125 C 4.046875 0.503906 3.988281 0.238281 4.0625 -0.09375 L 5.953125 -8.65625 L 2.640625 -9.390625 C 2.296875 -9.472656 2.066406 -9.625 1.953125 -9.84375 C 1.847656 -10.070312 1.816406 -10.300781 1.859375 -10.53125 C 1.910156 -10.757812 2.035156 -10.953125 2.234375 -11.109375 C 2.441406 -11.273438 2.71875 -11.316406 3.0625 -11.234375 Z M 11.765625 -9.3125 "/></g></g></g><g fill="#720c68" fill-opacity="1"><g transform="translate(175.035947, 284.255792)"><g/></g></g><g fill="#720c68" fill-opacity="1"><g transform="translate(183.786543, 285.105113)"><g><path d="M 0.0625 -2.765625 C -0.03125 -3.109375 0.046875 -3.382812 0.296875 -3.59375 C 0.546875 -3.8125 0.828125 -3.925781 1.140625 -3.9375 C 1.390625 -3.9375 1.609375 -3.878906 1.796875 -3.765625 C 1.992188 -3.660156 2.117188 -3.488281 2.171875 -3.25 C 2.316406 -2.863281 2.578125 -2.566406 2.953125 -2.359375 C 3.328125 -2.148438 3.742188 -2.015625 4.203125 -1.953125 C 4.671875 -1.890625 5.101562 -1.859375 5.5 -1.859375 C 5.820312 -1.867188 6.171875 -1.898438 6.546875 -1.953125 C 6.921875 -2.015625 7.28125 -2.113281 7.625 -2.25 C 7.96875 -2.382812 8.242188 -2.566406 8.453125 -2.796875 C 8.671875 -3.035156 8.773438 -3.335938 8.765625 -3.703125 C 8.753906 -4.097656 8.582031 -4.382812 8.25 -4.5625 C 7.925781 -4.738281 7.515625 -4.859375 7.015625 -4.921875 C 6.515625 -4.992188 5.984375 -5.039062 5.421875 -5.0625 C 4.804688 -5.09375 4.179688 -5.148438 3.546875 -5.234375 C 2.921875 -5.316406 2.347656 -5.460938 1.828125 -5.671875 C 1.304688 -5.878906 0.878906 -6.1875 0.546875 -6.59375 C 0.222656 -7.007812 0.0507812 -7.5625 0.03125 -8.25 C 0.0195312 -8.875 0.164062 -9.414062 0.46875 -9.875 C 0.78125 -10.34375 1.1875 -10.722656 1.6875 -11.015625 C 2.195312 -11.304688 2.75 -11.53125 3.34375 -11.6875 C 3.9375 -11.84375 4.519531 -11.925781 5.09375 -11.9375 C 5.71875 -11.957031 6.378906 -11.898438 7.078125 -11.765625 C 7.785156 -11.640625 8.429688 -11.394531 9.015625 -11.03125 C 9.597656 -10.675781 10.039062 -10.171875 10.34375 -9.515625 C 10.445312 -9.171875 10.378906 -8.882812 10.140625 -8.65625 C 9.910156 -8.425781 9.640625 -8.304688 9.328125 -8.296875 C 9.128906 -8.296875 8.9375 -8.335938 8.75 -8.421875 C 8.570312 -8.503906 8.445312 -8.625 8.375 -8.78125 C 8.21875 -9.164062 7.953125 -9.441406 7.578125 -9.609375 C 7.210938 -9.785156 6.8125 -9.894531 6.375 -9.9375 C 5.9375 -9.976562 5.53125 -9.992188 5.15625 -9.984375 C 4.90625 -9.984375 4.613281 -9.953125 4.28125 -9.890625 C 3.945312 -9.835938 3.625 -9.75 3.3125 -9.625 C 3 -9.5 2.738281 -9.328125 2.53125 -9.109375 C 2.320312 -8.890625 2.21875 -8.617188 2.21875 -8.296875 C 2.226562 -7.910156 2.390625 -7.617188 2.703125 -7.421875 C 3.015625 -7.234375 3.425781 -7.109375 3.9375 -7.046875 C 4.445312 -6.984375 5 -6.941406 5.59375 -6.921875 C 6.226562 -6.867188 6.859375 -6.8125 7.484375 -6.75 C 8.109375 -6.6875 8.679688 -6.554688 9.203125 -6.359375 C 9.722656 -6.171875 10.140625 -5.878906 10.453125 -5.484375 C 10.765625 -5.085938 10.929688 -4.523438 10.953125 -3.796875 C 10.960938 -3.054688 10.796875 -2.441406 10.453125 -1.953125 C 10.117188 -1.472656 9.675781 -1.085938 9.125 -0.796875 C 8.582031 -0.515625 7.992188 -0.304688 7.359375 -0.171875 C 6.722656 -0.0351562 6.117188 0.0390625 5.546875 0.0625 C 5.078125 0.0703125 4.5625 0.0351562 4 -0.046875 C 3.4375 -0.128906 2.890625 -0.273438 2.359375 -0.484375 C 1.828125 -0.691406 1.351562 -0.984375 0.9375 -1.359375 C 0.519531 -1.734375 0.226562 -2.203125 0.0625 -2.765625 Z M 0.0625 -2.765625 "/></g></g></g><g fill="#720c68" fill-opacity="1"><g transform="translate(199.60105, 284.426692)"><g><path d="M 7.28125 -13.234375 C 7.539062 -13.273438 7.796875 -13.238281 8.046875 -13.125 C 8.304688 -13.019531 8.46875 -12.8125 8.53125 -12.5 L 10.328125 -2.96875 C 10.390625 -2.644531 10.320312 -2.378906 10.125 -2.171875 C 9.9375 -1.960938 9.710938 -1.835938 9.453125 -1.796875 C 9.191406 -1.742188 8.9375 -1.773438 8.6875 -1.890625 C 8.445312 -2.015625 8.296875 -2.238281 8.234375 -2.5625 L 7.53125 -6.265625 L 2.1875 -5.25 L 2.890625 -1.546875 C 2.953125 -1.203125 2.890625 -0.929688 2.703125 -0.734375 C 2.515625 -0.546875 2.300781 -0.429688 2.0625 -0.390625 C 1.800781 -0.335938 1.539062 -0.375 1.28125 -0.5 C 1.03125 -0.625 0.875 -0.84375 0.8125 -1.15625 L -0.984375 -10.6875 C -1.046875 -11 -0.988281 -11.253906 -0.8125 -11.453125 C -0.644531 -11.648438 -0.425781 -11.769531 -0.15625 -11.8125 C 0.101562 -11.863281 0.359375 -11.832031 0.609375 -11.71875 C 0.867188 -11.601562 1.03125 -11.390625 1.09375 -11.078125 L 1.859375 -6.984375 L 7.203125 -8 L 6.4375 -12.09375 C 6.375 -12.40625 6.429688 -12.660156 6.609375 -12.859375 C 6.796875 -13.054688 7.019531 -13.179688 7.28125 -13.234375 Z M 7.28125 -13.234375 "/></g></g></g><g fill="#720c68" fill-opacity="1"><g transform="translate(215.815846, 281.044734)"><g><path d="M 9.484375 -9.78125 C 9.898438 -8.65625 10.035156 -7.585938 9.890625 -6.578125 C 9.742188 -5.566406 9.34375 -4.671875 8.6875 -3.890625 C 8.039062 -3.109375 7.160156 -2.503906 6.046875 -2.078125 C 4.929688 -1.660156 3.863281 -1.523438 2.84375 -1.671875 C 1.820312 -1.828125 0.914062 -2.234375 0.125 -2.890625 C -0.65625 -3.554688 -1.253906 -4.453125 -1.671875 -5.578125 C -2.097656 -6.703125 -2.234375 -7.773438 -2.078125 -8.796875 C -1.929688 -9.816406 -1.523438 -10.71875 -0.859375 -11.5 C -0.191406 -12.28125 0.695312 -12.878906 1.8125 -13.296875 C 2.925781 -13.722656 3.984375 -13.859375 4.984375 -13.703125 C 5.992188 -13.554688 6.890625 -13.144531 7.671875 -12.46875 C 8.453125 -11.800781 9.054688 -10.90625 9.484375 -9.78125 Z M 5.390625 -3.828125 C 6.109375 -4.097656 6.671875 -4.492188 7.078125 -5.015625 C 7.492188 -5.546875 7.738281 -6.15625 7.8125 -6.84375 C 7.882812 -7.53125 7.773438 -8.257812 7.484375 -9.03125 C 7.191406 -9.800781 6.789062 -10.421875 6.28125 -10.890625 C 5.769531 -11.359375 5.1875 -11.65625 4.53125 -11.78125 C 3.875 -11.90625 3.1875 -11.832031 2.46875 -11.5625 C 1.75 -11.289062 1.179688 -10.890625 0.765625 -10.359375 C 0.347656 -9.828125 0.0976562 -9.21875 0.015625 -8.53125 C -0.0546875 -7.84375 0.0507812 -7.113281 0.34375 -6.34375 C 0.632812 -5.570312 1.035156 -4.953125 1.546875 -4.484375 C 2.066406 -4.015625 2.65625 -3.71875 3.3125 -3.59375 C 3.976562 -3.476562 4.671875 -3.554688 5.390625 -3.828125 Z M 5.390625 -3.828125 "/></g></g></g><g fill="#720c68" fill-opacity="1"><g transform="translate(232.189762, 274.420612)"><g><path d="M 1.078125 -4.390625 L 2.25 -2.40625 C 2.40625 -2.125 2.425781 -1.859375 2.3125 -1.609375 C 2.195312 -1.367188 2.03125 -1.1875 1.8125 -1.0625 C 1.582031 -0.925781 1.335938 -0.867188 1.078125 -0.890625 C 0.816406 -0.910156 0.613281 -1.050781 0.46875 -1.3125 L -4.46875 -9.75 C -4.613281 -10 -4.640625 -10.253906 -4.546875 -10.515625 C -4.460938 -10.773438 -4.296875 -10.976562 -4.046875 -11.125 L -0.828125 -13 C 0.046875 -13.507812 0.882812 -13.789062 1.6875 -13.84375 C 2.488281 -13.894531 3.210938 -13.738281 3.859375 -13.375 C 4.515625 -13.007812 5.0625 -12.457031 5.5 -11.71875 C 6.113281 -10.65625 6.238281 -9.582031 5.875 -8.5 C 5.519531 -7.425781 4.679688 -6.5 3.359375 -5.71875 Z M -2.25 -10.078125 L 0.171875 -5.953125 L 2.453125 -7.28125 C 3.222656 -7.738281 3.707031 -8.265625 3.90625 -8.859375 C 4.113281 -9.460938 4.039062 -10.066406 3.6875 -10.671875 C 3.300781 -11.316406 2.789062 -11.710938 2.15625 -11.859375 C 1.519531 -12.015625 0.832031 -11.875 0.09375 -11.4375 Z M -2.25 -10.078125 "/></g></g></g><g clip-path="url(#400c24accd)"><g clip-path="url(#dd7962f981)"><g clip-path="url(#c034a4b6aa)"><g clip-path="url(#d87cf23bc9)"><path fill="#5d5d5d" d="M 254.316406 244.066406 C 254.515625 247.214844 252.203125 251.582031 257.277344 254.636719 C 262.453125 257.746094 266.773438 250.585938 269.519531 247.296875 C 270.984375 245.546875 278.519531 239.703125 276.230469 235.191406 C 274.226562 231.246094 270.394531 231.410156 265.285156 232.277344 C 260.71875 233.046875 256.441406 230.617188 253.691406 233.769531 C 251.113281 236.726562 254.195312 242.136719 254.316406 244.066406 " fill-opacity="1" fill-rule="nonzero"/></g></g></g></g><g clip-path="url(#35cdcde3b8)"><g clip-path="url(#8ebfed39a2)"><g clip-path="url(#bed116b76e)"><path fill="#5d5d5d" d="M 242.664062 243.875 C 246.125 243.878906 248.863281 245.730469 248.785156 248.015625 C 248.703125 250.296875 245.835938 252.144531 242.378906 252.140625 C 238.917969 252.136719 236.179688 250.28125 236.257812 248 C 236.339844 245.71875 239.207031 243.871094 242.664062 243.875 " fill-opacity="1" fill-rule="nonzero"/></g></g></g><g clip-path="url(#e3984a1500)"><g clip-path="url(#21dd297c48)"><g clip-path="url(#6670d5d620)"><path fill="#5d5d5d" d="M 244.007812 230.09375 C 247.519531 231.742188 249.488281 234.878906 248.402344 237.089844 C 247.3125 239.304688 243.582031 239.761719 240.066406 238.109375 C 236.554688 236.457031 234.585938 233.324219 235.675781 231.109375 C 236.761719 228.894531 240.492188 228.441406 244.007812 230.09375 " fill-opacity="1" fill-rule="nonzero"/></g></g></g><g clip-path="url(#9b134dbff6)"><g clip-path="url(#fb17991436)"><g clip-path="url(#8e6724a68c)"><path fill="#5d5d5d" d="M 254.765625 220.414062 C 256.753906 223.660156 256.742188 227.351562 254.734375 228.65625 C 252.726562 229.960938 249.484375 228.382812 247.492188 225.136719 C 245.503906 221.890625 245.515625 218.199219 247.523438 216.894531 C 249.53125 215.589844 252.773438 217.164062 254.765625 220.414062 " fill-opacity="1" fill-rule="nonzero"/></g></g></g><g clip-path="url(#a4d45355e6)"><g clip-path="url(#3bea261567)"><g clip-path="url(#6f7056ae48)"><path fill="#5d5d5d" d="M 270.132812 220.738281 C 270.613281 224.394531 269.078125 227.675781 266.703125 228.066406 C 264.332031 228.460938 262.015625 225.816406 261.535156 222.160156 C 261.054688 218.503906 262.589844 215.222656 264.964844 214.828125 C 267.339844 214.4375 269.652344 217.082031 270.132812 220.738281 " fill-opacity="1" fill-rule="nonzero"/></g></g></g><g fill="#720c68" fill-opacity="1"><g transform="translate(140.718662, 108.172372)"><g><path d="M 3.46875 -12.015625 C 3.632812 -12.046875 3.804688 -12.035156 3.984375 -11.984375 C 4.160156 -11.941406 4.304688 -11.847656 4.421875 -11.703125 L 10.984375 -3.21875 C 11.171875 -2.976562 11.25 -2.757812 11.21875 -2.5625 C 11.1875 -2.375 11.085938 -2.207031 10.921875 -2.0625 C 10.753906 -1.914062 10.5625 -1.820312 10.34375 -1.78125 C 10.1875 -1.75 10.015625 -1.757812 9.828125 -1.8125 C 9.648438 -1.875 9.5 -1.972656 9.375 -2.109375 L 7.765625 -4.234375 L 2.3125 -3.203125 L 1.5625 -0.640625 C 1.507812 -0.429688 1.410156 -0.273438 1.265625 -0.171875 C 1.117188 -0.0664062 0.96875 0 0.8125 0.03125 C 0.613281 0.0625 0.410156 0.0390625 0.203125 -0.03125 C 0.00390625 -0.101562 -0.15625 -0.222656 -0.28125 -0.390625 C -0.40625 -0.554688 -0.429688 -0.757812 -0.359375 -1 L 2.671875 -11.359375 C 2.722656 -11.578125 2.8125 -11.726562 2.9375 -11.8125 C 3.070312 -11.90625 3.25 -11.972656 3.46875 -12.015625 Z M 4.015625 -9.140625 L 2.828125 -5 L 6.625 -5.71875 Z M 4.015625 -9.140625 "/></g></g></g><g fill="#720c68" fill-opacity="1"><g transform="translate(155.044927, 105.530194)"><g><path d="M 8.09375 -11.09375 C 8.050781 -11.40625 8.128906 -11.648438 8.328125 -11.828125 C 8.523438 -12.003906 8.742188 -12.101562 8.984375 -12.125 C 9.242188 -12.15625 9.484375 -12.109375 9.703125 -11.984375 C 9.921875 -11.859375 10.050781 -11.644531 10.09375 -11.34375 L 10.703125 -6.15625 C 10.828125 -5.15625 10.71875 -4.253906 10.375 -3.453125 C 10.03125 -2.660156 9.5 -2.007812 8.78125 -1.5 C 8.0625 -1 7.179688 -0.6875 6.140625 -0.5625 C 5.117188 -0.4375 4.195312 -0.535156 3.375 -0.859375 C 2.550781 -1.179688 1.878906 -1.6875 1.359375 -2.375 C 0.847656 -3.070312 0.53125 -3.921875 0.40625 -4.921875 L -0.203125 -10.140625 C -0.242188 -10.429688 -0.171875 -10.660156 0.015625 -10.828125 C 0.203125 -11.003906 0.421875 -11.109375 0.671875 -11.140625 C 0.929688 -11.171875 1.175781 -11.125 1.40625 -11 C 1.632812 -10.882812 1.769531 -10.675781 1.8125 -10.375 L 2.421875 -5.171875 C 2.535156 -4.210938 2.910156 -3.472656 3.546875 -2.953125 C 4.191406 -2.441406 4.984375 -2.242188 5.921875 -2.359375 C 6.867188 -2.460938 7.597656 -2.84375 8.109375 -3.5 C 8.617188 -4.15625 8.816406 -4.960938 8.703125 -5.921875 Z M 8.09375 -11.09375 "/></g></g></g><g fill="#720c68" fill-opacity="1"><g transform="translate(170.559345, 103.762224)"><g><path d="M 1.53125 -11.0625 C 1.894531 -11.082031 2.191406 -10.925781 2.421875 -10.59375 L 6.296875 -5.125 L 9.59375 -10.9375 C 9.707031 -11.101562 9.84375 -11.234375 10 -11.328125 C 10.164062 -11.421875 10.332031 -11.46875 10.5 -11.46875 C 10.75 -11.476562 10.972656 -11.40625 11.171875 -11.25 C 11.378906 -11.09375 11.492188 -10.859375 11.515625 -10.546875 L 11.921875 -1.4375 C 11.941406 -1.144531 11.84375 -0.914062 11.625 -0.75 C 11.414062 -0.59375 11.191406 -0.507812 10.953125 -0.5 C 10.691406 -0.488281 10.457031 -0.550781 10.25 -0.6875 C 10.050781 -0.832031 9.941406 -1.050781 9.921875 -1.34375 L 9.65625 -7.15625 L 7.28125 -3.03125 C 7.195312 -2.851562 7.070312 -2.71875 6.90625 -2.625 C 6.75 -2.539062 6.585938 -2.492188 6.421875 -2.484375 C 6.242188 -2.472656 6.0625 -2.515625 5.875 -2.609375 C 5.695312 -2.703125 5.554688 -2.828125 5.453125 -2.984375 L 2.734375 -6.828125 L 3 -1.03125 C 3.019531 -0.738281 2.925781 -0.507812 2.71875 -0.34375 C 2.507812 -0.1875 2.285156 -0.101562 2.046875 -0.09375 C 1.796875 -0.0820312 1.5625 -0.144531 1.34375 -0.28125 C 1.132812 -0.425781 1.019531 -0.644531 1 -0.9375 L 0.59375 -10.03125 C 0.570312 -10.320312 0.660156 -10.5625 0.859375 -10.75 C 1.054688 -10.945312 1.28125 -11.050781 1.53125 -11.0625 Z M 1.53125 -11.0625 "/></g></g></g><g fill="#720c68" fill-opacity="1"><g transform="translate(187.011304, 103.206738)"><g><path d="M 0.84375 -10.046875 C 0.84375 -10.367188 0.941406 -10.601562 1.140625 -10.75 C 1.347656 -10.894531 1.582031 -10.96875 1.84375 -10.96875 C 2.09375 -10.96875 2.320312 -10.890625 2.53125 -10.734375 C 2.75 -10.585938 2.859375 -10.351562 2.859375 -10.03125 L 2.796875 -0.859375 C 2.796875 -0.578125 2.6875 -0.359375 2.46875 -0.203125 C 2.257812 -0.0546875 2.03125 0.015625 1.78125 0.015625 C 1.519531 0.015625 1.285156 -0.0546875 1.078125 -0.203125 C 0.878906 -0.359375 0.78125 -0.582031 0.78125 -0.875 Z M 0.84375 -10.046875 "/></g></g></g><g fill="#720c68" fill-opacity="1"><g transform="translate(193.471275, 103.210097)"><g><path d="M 10.703125 -2.078125 C 10.703125 -1.960938 10.679688 -1.84375 10.640625 -1.71875 C 10.597656 -1.59375 10.523438 -1.476562 10.421875 -1.375 C 10.054688 -0.988281 9.613281 -0.644531 9.09375 -0.34375 C 8.582031 -0.0507812 8.046875 0.164062 7.484375 0.3125 C 6.921875 0.457031 6.367188 0.515625 5.828125 0.484375 C 4.703125 0.421875 3.734375 0.128906 2.921875 -0.390625 C 2.117188 -0.921875 1.515625 -1.628906 1.109375 -2.515625 C 0.710938 -3.410156 0.550781 -4.421875 0.625 -5.546875 C 0.6875 -6.660156 0.972656 -7.617188 1.484375 -8.421875 C 1.992188 -9.234375 2.679688 -9.847656 3.546875 -10.265625 C 4.410156 -10.691406 5.394531 -10.875 6.5 -10.8125 C 7.257812 -10.769531 8 -10.59375 8.71875 -10.28125 C 9.445312 -9.96875 10.050781 -9.523438 10.53125 -8.953125 C 10.757812 -8.691406 10.851562 -8.429688 10.8125 -8.171875 C 10.78125 -7.921875 10.664062 -7.722656 10.46875 -7.578125 C 10.269531 -7.429688 10.035156 -7.367188 9.765625 -7.390625 C 9.492188 -7.421875 9.238281 -7.578125 9 -7.859375 C 8.65625 -8.265625 8.253906 -8.566406 7.796875 -8.765625 C 7.347656 -8.960938 6.882812 -9.070312 6.40625 -9.09375 C 5.707031 -9.132812 5.078125 -9.007812 4.515625 -8.71875 C 3.953125 -8.425781 3.503906 -7.992188 3.171875 -7.421875 C 2.835938 -6.847656 2.648438 -6.171875 2.609375 -5.390625 C 2.578125 -4.628906 2.691406 -3.941406 2.953125 -3.328125 C 3.222656 -2.710938 3.613281 -2.21875 4.125 -1.84375 C 4.644531 -1.476562 5.25 -1.28125 5.9375 -1.25 C 6.445312 -1.21875 6.957031 -1.300781 7.46875 -1.5 C 7.988281 -1.695312 8.425781 -1.984375 8.78125 -2.359375 L 8.875 -4.109375 L 6.359375 -4.25 C 6.035156 -4.257812 5.800781 -4.351562 5.65625 -4.53125 C 5.519531 -4.71875 5.457031 -4.910156 5.46875 -5.109375 C 5.476562 -5.335938 5.5625 -5.535156 5.71875 -5.703125 C 5.882812 -5.878906 6.128906 -5.960938 6.453125 -5.953125 L 9.875 -5.765625 C 10.28125 -5.742188 10.546875 -5.640625 10.671875 -5.453125 C 10.804688 -5.273438 10.867188 -5.046875 10.859375 -4.765625 Z M 10.703125 -2.078125 "/></g></g></g><g fill="#720c68" fill-opacity="1"><g transform="translate(208.151781, 104.087031)"><g><path d="M 12.21875 -4.015625 C 12.082031 -2.898438 11.726562 -1.945312 11.15625 -1.15625 C 10.59375 -0.363281 9.863281 0.210938 8.96875 0.578125 C 8.082031 0.941406 7.082031 1.050781 5.96875 0.90625 C 4.851562 0.769531 3.898438 0.421875 3.109375 -0.140625 C 2.328125 -0.710938 1.753906 -1.453125 1.390625 -2.359375 C 1.023438 -3.265625 0.910156 -4.273438 1.046875 -5.390625 C 1.179688 -6.523438 1.535156 -7.484375 2.109375 -8.265625 C 2.679688 -9.046875 3.421875 -9.617188 4.328125 -9.984375 C 5.234375 -10.359375 6.242188 -10.476562 7.359375 -10.34375 C 8.472656 -10.195312 9.414062 -9.835938 10.1875 -9.265625 C 10.957031 -8.691406 11.519531 -7.957031 11.875 -7.0625 C 12.238281 -6.164062 12.351562 -5.148438 12.21875 -4.015625 Z M 6.171875 -0.828125 C 6.898438 -0.734375 7.546875 -0.816406 8.109375 -1.078125 C 8.679688 -1.347656 9.148438 -1.753906 9.515625 -2.296875 C 9.878906 -2.847656 10.109375 -3.503906 10.203125 -4.265625 C 10.296875 -5.046875 10.234375 -5.742188 10.015625 -6.359375 C 9.796875 -6.972656 9.441406 -7.472656 8.953125 -7.859375 C 8.472656 -8.242188 7.867188 -8.484375 7.140625 -8.578125 C 6.429688 -8.660156 5.78125 -8.570312 5.1875 -8.3125 C 4.601562 -8.0625 4.125 -7.664062 3.75 -7.125 C 3.382812 -6.582031 3.15625 -5.921875 3.0625 -5.140625 C 2.96875 -4.378906 3.03125 -3.6875 3.25 -3.0625 C 3.476562 -2.445312 3.84375 -1.941406 4.34375 -1.546875 C 4.851562 -1.148438 5.460938 -0.910156 6.171875 -0.828125 Z M 6.171875 -0.828125 "/></g></g></g><g fill="#720c68" fill-opacity="1"><g transform="translate(223.427645, 106.088892)"><g><path d="M 0.609375 -2.53125 C 0.585938 -2.875 0.710938 -3.117188 0.984375 -3.265625 C 1.253906 -3.410156 1.539062 -3.457031 1.84375 -3.40625 C 2.0625 -3.363281 2.25 -3.269531 2.40625 -3.125 C 2.5625 -2.976562 2.644531 -2.789062 2.65625 -2.5625 C 2.707031 -2.175781 2.882812 -1.851562 3.1875 -1.59375 C 3.488281 -1.332031 3.847656 -1.125 4.265625 -0.96875 C 4.691406 -0.8125 5.085938 -0.695312 5.453125 -0.625 C 5.753906 -0.570312 6.078125 -0.535156 6.421875 -0.515625 C 6.773438 -0.492188 7.125 -0.507812 7.46875 -0.5625 C 7.8125 -0.625 8.101562 -0.742188 8.34375 -0.921875 C 8.59375 -1.097656 8.75 -1.351562 8.8125 -1.6875 C 8.875 -2.050781 8.773438 -2.34375 8.515625 -2.5625 C 8.253906 -2.789062 7.894531 -2.988281 7.4375 -3.15625 C 6.988281 -3.320312 6.515625 -3.46875 6.015625 -3.59375 C 5.453125 -3.75 4.882812 -3.925781 4.3125 -4.125 C 3.75 -4.320312 3.25 -4.566406 2.8125 -4.859375 C 2.382812 -5.160156 2.054688 -5.53125 1.828125 -5.96875 C 1.609375 -6.414062 1.5625 -6.960938 1.6875 -7.609375 C 1.789062 -8.179688 2.03125 -8.644531 2.40625 -9 C 2.789062 -9.363281 3.238281 -9.632812 3.75 -9.8125 C 4.269531 -9.988281 4.816406 -10.085938 5.390625 -10.109375 C 5.972656 -10.140625 6.53125 -10.101562 7.0625 -10 C 7.65625 -9.882812 8.257812 -9.695312 8.875 -9.4375 C 9.488281 -9.1875 10.03125 -8.835938 10.5 -8.390625 C 10.976562 -7.941406 11.289062 -7.378906 11.4375 -6.703125 C 11.445312 -6.378906 11.320312 -6.132812 11.0625 -5.96875 C 10.8125 -5.800781 10.546875 -5.742188 10.265625 -5.796875 C 10.078125 -5.828125 9.910156 -5.898438 9.765625 -6.015625 C 9.617188 -6.128906 9.519531 -6.269531 9.46875 -6.4375 C 9.40625 -6.8125 9.21875 -7.113281 8.90625 -7.34375 C 8.601562 -7.582031 8.253906 -7.765625 7.859375 -7.890625 C 7.472656 -8.015625 7.097656 -8.113281 6.734375 -8.1875 C 6.515625 -8.226562 6.242188 -8.253906 5.921875 -8.265625 C 5.609375 -8.285156 5.289062 -8.265625 4.96875 -8.203125 C 4.65625 -8.148438 4.378906 -8.039062 4.140625 -7.875 C 3.910156 -7.71875 3.765625 -7.488281 3.703125 -7.1875 C 3.640625 -6.832031 3.726562 -6.535156 3.96875 -6.296875 C 4.21875 -6.066406 4.570312 -5.875 5.03125 -5.71875 C 5.488281 -5.570312 5.988281 -5.421875 6.53125 -5.265625 C 7.113281 -5.097656 7.6875 -4.921875 8.25 -4.734375 C 8.8125 -4.546875 9.3125 -4.3125 9.75 -4.03125 C 10.1875 -3.757812 10.507812 -3.40625 10.71875 -2.96875 C 10.925781 -2.539062 10.96875 -1.988281 10.84375 -1.3125 C 10.71875 -0.632812 10.445312 -0.109375 10.03125 0.265625 C 9.625 0.640625 9.140625 0.90625 8.578125 1.0625 C 8.015625 1.226562 7.425781 1.3125 6.8125 1.3125 C 6.207031 1.3125 5.640625 1.257812 5.109375 1.15625 C 4.671875 1.070312 4.203125 0.9375 3.703125 0.75 C 3.203125 0.5625 2.722656 0.316406 2.265625 0.015625 C 1.816406 -0.273438 1.441406 -0.632812 1.140625 -1.0625 C 0.835938 -1.488281 0.660156 -1.976562 0.609375 -2.53125 Z M 0.609375 -2.53125 "/></g></g></g></svg>