<svg width="200" height="200" viewBox="0 0 200 200" fill="none" xmlns="http://www.w3.org/2000/svg">
<mask id="mask0_960_322" style="mask-type:luminance" maskUnits="userSpaceOnUse" x="0" y="0" width="195" height="197">
<path d="M0 0H194.784V196.455H0V0Z" fill="white"/>
</mask>
<g mask="url(#mask0_960_322)">
<mask id="mask1_960_322" style="mask-type:luminance" maskUnits="userSpaceOnUse" x="0" y="0" width="195" height="197">
<path d="M97.3918 0C43.6017 0 0 43.9799 0 98.2277C0 152.479 43.6017 196.455 97.3918 196.455C151.178 196.455 194.784 152.479 194.784 98.2277C194.784 43.9799 151.178 0 97.3918 0Z" fill="white"/>
</mask>
<g mask="url(#mask1_960_322)">
<path d="M97.3918 0C43.6018 0 0 43.9799 0 98.2277C0 152.479 43.6018 196.455 97.3918 196.455C151.178 196.455 194.784 152.479 194.784 98.2277C194.784 43.9799 151.178 0 97.3918 0Z" stroke="white" stroke-width="6"/>
</g>
</g>
<mask id="mask2_960_322" style="mask-type:luminance" maskUnits="userSpaceOnUse" x="40" y="38" width="116" height="119">
<path d="M40.6426 38.3728H155.385V156.627H40.6426V38.3728Z" fill="white"/>
</mask>
<g mask="url(#mask2_960_322)">
<path d="M153.998 156.48C153.435 156.48 152.915 156.115 152.737 155.547C149.345 144.607 142.73 127.998 130.446 110.947C129.583 109.953 119.06 97.8737 116.093 92.8908C112.949 87.6098 110.392 82.313 110.904 70.9564C111.373 60.5138 109.25 53.0235 104.404 48.0486C99.81 43.3279 92.7262 41.0749 83.3455 41.3292C79.7052 41.4325 76.246 42.6882 73.6024 44.8697C73.2597 45.1518 72.9405 45.4419 72.6529 45.732C72.5899 45.7955 72.5229 45.8512 72.4481 45.8988C72.2629 46.022 67.874 48.9665 63.8632 50.997C63.2171 51.3983 58.2096 54.3587 51.7011 54.2395C50.9801 54.2275 50.2828 54.1004 49.6248 53.862C47.844 53.2262 46.2839 53.3692 45.228 54.2673C44.0815 55.2368 43.6284 56.9733 43.983 59.0237C44.0303 59.2979 44.0264 59.58 43.9673 59.8462C43.7939 60.625 43.0887 64.7457 46.0081 69.2319C49.4554 74.5287 56.484 78.248 66.8969 80.2865C67.4997 80.3461 70.813 80.7792 72.8893 83.211C74.1382 84.6733 74.6937 86.529 74.5362 88.7224V100.274C74.5362 101.009 73.9412 101.609 73.2124 101.609C72.4835 101.609 71.8886 101.009 71.8886 100.274V88.6708C71.8886 88.635 71.8886 88.6032 71.8925 88.5714C72.0068 87.0654 71.6759 85.8853 70.884 84.9555C69.375 83.1872 66.6408 82.9448 66.6132 82.9408C66.562 82.9369 66.5108 82.9289 66.4596 82.921C55.2824 80.7434 47.6549 76.6307 43.79 70.6981C40.4175 65.5007 41.1188 60.5853 41.363 59.3813C40.8785 56.413 41.6625 53.8103 43.526 52.2248C45.3028 50.7149 47.8519 50.393 50.5152 51.3467C50.9052 51.4857 51.3189 51.5612 51.7523 51.5692C57.7605 51.6884 62.4607 48.736 62.5079 48.7042C62.5473 48.6804 62.5867 48.6605 62.6261 48.6367C66.172 46.8485 70.1866 44.2101 70.88 43.7451C71.2031 43.4273 71.5537 43.1094 71.928 42.7994C75.0247 40.2444 79.0551 38.7742 83.2786 38.6589C93.4235 38.3768 101.165 40.908 106.299 46.177C111.685 51.7083 114.056 59.8542 113.552 71.0796C113.071 81.709 115.345 86.4376 118.362 91.5159C121.27 96.3995 132.365 109.099 132.475 109.226C132.502 109.258 132.526 109.29 132.55 109.326C145.07 126.686 151.811 143.61 155.263 154.748C155.479 155.455 155.093 156.202 154.396 156.421C154.262 156.465 154.128 156.48 153.998 156.48ZM94.7394 83.2985C96.8394 83.1912 100.716 82.6945 103.092 80.6004C107.548 76.6705 110.14 61.8569 107.426 55.8408C107.126 55.1653 106.338 54.8713 105.676 55.1772C105.01 55.4832 104.715 56.2739 105.018 56.9455C107.236 61.8688 104.944 75.4228 101.35 78.5897C98.5768 81.0375 91.0124 81.2441 87.179 79.6149C85.9025 79.0745 84.8387 78.3632 84.0153 77.501C80.891 74.2347 81.4072 69.0094 82.3921 65.2026C83.8301 59.6316 86.5486 54.2593 90.2481 49.6698C90.709 49.0976 90.6263 48.2552 90.055 47.7903C89.4877 47.3254 88.6564 47.4128 88.1954 47.985C84.2556 52.8725 81.3638 58.5906 79.8273 64.5351C78.1726 70.9445 78.9605 76.0705 82.1084 79.3566C83.184 80.4812 84.5432 81.3991 86.1507 82.0786C88.0457 82.8812 90.7051 83.3342 93.459 83.3342C93.8845 83.3302 94.3139 83.3223 94.7394 83.2985ZM79.4057 52.1811C79.9219 51.6606 79.9219 50.8142 79.4057 50.2937C78.8896 49.7731 78.0505 49.7731 77.5343 50.2937C76.4864 51.3467 75.4265 51.8672 74.3786 51.8314C72.7317 51.7798 71.5025 50.4009 71.4671 50.3612C70.9903 49.8089 70.159 49.7453 69.6075 50.2221C69.052 50.7029 68.9889 51.5453 69.4617 52.1056C69.5444 52.201 71.4355 54.3904 74.2604 54.4977C74.3392 54.5017 74.4101 54.5057 74.4849 54.5057C76.2224 54.5057 77.8732 53.7229 79.4057 52.1811Z" fill="white"/>
</g>
<mask id="mask3_960_322" style="mask-type:luminance" maskUnits="userSpaceOnUse" x="49" y="88" width="67" height="69">
<path d="M49.7217 88.7271H115.28V156.628H49.7217V88.7271Z" fill="white"/>
</mask>
<g mask="url(#mask3_960_322)">
<path d="M73.7342 156.482C73.5884 156.482 73.4427 156.458 73.2969 156.41C72.6074 156.164 72.245 155.405 72.4853 154.709C73.1314 152.838 73.6121 150.914 73.9115 148.991C74.1518 147.457 73.6712 144.008 73.0369 142.733C71.7407 140.122 69.5777 138.767 67.6275 137.786C65.6222 136.772 61.1938 136.411 57.715 136.411C56.6434 136.411 54.701 135.878 53.724 132.31C53.6294 131.964 53.4285 131.484 53.0227 131.154C50.9188 129.469 50.0718 125.146 49.926 124.295C48.941 121.021 52.7154 118.637 55.1817 117.711C57.912 116.273 59.1569 111.425 59.4052 109.668C59.4091 109.629 59.417 109.589 59.4249 109.549C60.2364 106.08 62.9549 103.219 66.355 102.258C68.0688 101.773 69.621 101.844 71.1221 101.912C71.6461 101.936 72.1819 101.964 72.7177 101.964C74.5143 101.964 76.8348 101.3 77.5913 100.072C77.6661 99.9529 83.1346 91.0481 83.1346 91.0481C83.6034 90.2772 84.3874 89.7686 85.2739 89.6493C86.1643 89.5301 87.0507 89.8162 87.7047 90.4321C89.8125 92.415 93.2638 97.2588 92.7161 107.439C92.6728 108.27 93.0235 109.072 93.6814 109.637C107.486 121.518 113.12 143.102 115.248 154.908C115.378 155.635 114.901 156.327 114.184 156.458C113.467 156.593 112.778 156.108 112.648 155.385C110.583 143.929 105.146 123.012 91.9676 111.671C90.6753 110.558 89.9859 108.969 90.0765 107.3C90.242 104.157 90.175 96.4124 85.9003 92.3872C85.8057 92.2958 85.6994 92.2918 85.6284 92.2997C85.5575 92.3077 85.4551 92.3435 85.3881 92.4547C85.3881 92.4547 79.9197 101.36 79.8448 101.483C78.3122 103.974 74.6482 104.634 72.7217 104.634C72.1268 104.634 71.5555 104.606 71.0079 104.582C69.5974 104.519 68.38 104.459 67.0759 104.833C64.6057 105.528 62.6279 107.602 62.0212 110.113C61.8951 110.924 60.7092 117.918 56.3085 120.131C56.2651 120.155 56.2179 120.175 56.1706 120.194C54.8271 120.691 52.0338 122.229 52.4711 123.56C52.4908 123.628 52.5105 123.695 52.5223 123.763C52.806 125.479 53.6609 128.261 54.6735 129.068C55.4378 129.683 55.9933 130.558 56.277 131.607C56.5606 132.64 57.0885 133.748 57.7189 133.748C60.067 133.748 65.8507 133.907 68.8134 135.402C71.0157 136.514 73.7539 138.215 75.4047 141.545C76.3699 143.492 76.8309 147.497 76.5315 149.412C76.2045 151.495 75.6883 153.573 74.991 155.591C74.794 156.14 74.2818 156.482 73.7342 156.482ZM71.4018 116.098C71.918 115.577 71.918 114.731 71.4018 114.21C70.8857 113.69 70.0465 113.69 69.5304 114.21C68.7346 115.013 67.9309 115.402 67.1587 115.386C65.9295 115.351 64.9957 114.31 64.9642 114.278C64.4875 113.725 63.6562 113.662 63.1046 114.139C62.5491 114.62 62.4821 115.462 62.9588 116.022C63.1283 116.221 64.6766 117.965 67.0365 118.053C67.1035 118.057 67.1666 118.057 67.2296 118.057C68.711 118.061 70.1135 117.401 71.4018 116.098Z" fill="white"/>
</g>
<mask id="mask4_960_322" style="mask-type:luminance" maskUnits="userSpaceOnUse" x="41" y="0" width="112" height="33">
<path d="M41.5723 0H152.907V32.2617H41.5723V0Z" fill="white"/>
</mask>
<g mask="url(#mask4_960_322)">
<mask id="mask5_960_322" style="mask-type:luminance" maskUnits="userSpaceOnUse" x="41" y="0" width="112" height="33">
<path d="M57.5678 0H136.868C145.701 0 152.864 7.22402 152.864 16.1329C152.864 25.0417 145.701 32.2617 136.868 32.2617H57.5678C48.7348 32.2617 41.5723 25.0417 41.5723 16.1329C41.5723 7.22402 48.7348 0 57.5678 0Z" fill="white"/>
</mask>
<g mask="url(#mask5_960_322)">
<path d="M41.5723 0H152.907V32.2617H41.5723V0Z" fill="#720C68"/>
</g>
</g>
<mask id="mask6_960_322" style="mask-type:luminance" maskUnits="userSpaceOnUse" x="44" y="159" width="95" height="42">
<path d="M44.4287 159.35H138.893V200H44.4287V159.35Z" fill="white"/>
</mask>
<g mask="url(#mask6_960_322)">
<mask id="mask7_960_322" style="mask-type:luminance" maskUnits="userSpaceOnUse" x="44" y="159" width="95" height="42">
<path d="M118.742 200H64.6921C53.5622 200 44.54 190.901 44.54 179.675C44.54 168.45 53.5622 159.35 64.6921 159.35H118.742C129.872 159.35 138.894 168.45 138.894 179.675C138.894 190.901 129.872 200 118.742 200Z" fill="white"/>
</mask>
<g mask="url(#mask7_960_322)">
<path d="M138.894 200H44.5869V159.35H138.894V200Z" fill="#720C68"/>
</g>
</g>
<mask id="mask8_960_322" style="mask-type:luminance" maskUnits="userSpaceOnUse" x="125" y="132" width="52" height="42">
<path d="M125.073 132.079H176.716V173.361H125.073V132.079Z" fill="white"/>
</mask>
<g mask="url(#mask8_960_322)">
<mask id="mask9_960_322" style="mask-type:luminance" maskUnits="userSpaceOnUse" x="125" y="132" width="52" height="42">
<path d="M156.254 173.361H145.679C134.376 173.361 125.212 164.122 125.212 152.722C125.212 141.322 134.376 132.079 145.679 132.079H156.254C167.557 132.079 176.717 141.322 176.717 152.722C176.717 164.122 167.557 173.361 156.254 173.361Z" fill="white"/>
</mask>
<g mask="url(#mask9_960_322)">
<path d="M176.718 173.361H125.232V132.079H176.718V173.361Z" fill="#720C68"/>
</g>
</g>
<mask id="mask10_960_322" style="mask-type:luminance" maskUnits="userSpaceOnUse" x="27" y="151" width="47" height="48">
<path d="M27.5322 151.796H73.9273V198.589H27.5322V151.796Z" fill="white"/>
</mask>
<g mask="url(#mask10_960_322)">
<mask id="mask11_960_322" style="mask-type:luminance" maskUnits="userSpaceOnUse" x="28" y="152" width="46" height="47">
<path d="M51.6606 198.24L28.4473 174.831L50.3762 152.714L73.5855 176.126L51.6606 198.24Z" fill="white"/>
</mask>
<g mask="url(#mask11_960_322)">
<path d="M51.6606 198.24L28.4473 174.831L50.3762 152.714L73.5855 176.126L51.6606 198.24Z" fill="#720C68"/>
</g>
</g>
<mask id="mask12_960_322" style="mask-type:luminance" maskUnits="userSpaceOnUse" x="124" y="125" width="77" height="72">
<path d="M124.356 125.348H200.001V196.555H124.356V125.348Z" fill="white"/>
</mask>
<g mask="url(#mask12_960_322)">
<mask id="mask13_960_322" style="mask-type:luminance" maskUnits="userSpaceOnUse" x="124" y="126" width="76" height="71">
<path d="M199.72 138.878L136.368 196.281L124.986 183.505L188.342 126.099L199.72 138.878Z" fill="white"/>
</mask>
<g mask="url(#mask13_960_322)">
<path d="M199.72 138.878L136.384 196.265L125.006 183.489L188.342 126.099L199.72 138.878Z" fill="#720C68"/>
</g>
</g>
<path d="M46.4379 179.578L45.256 181.597C45.0984 181.883 44.8817 182.03 44.6099 182.042C44.3341 182.062 44.0898 182.01 43.8692 181.883C43.6367 181.744 43.4673 181.553 43.3649 181.311C43.2585 181.065 43.2782 180.81 43.4279 180.548L48.4078 171.965C48.5536 171.711 48.7585 171.564 49.0224 171.52C49.2943 171.48 49.5582 171.532 49.8104 171.679L53.0568 173.586C53.9393 174.107 54.6012 174.711 55.0424 175.398C55.4837 176.09 55.7043 176.809 55.7043 177.56C55.7122 178.315 55.4995 179.066 55.0582 179.817C54.4357 180.898 53.5611 181.549 52.4264 181.772C51.2996 182.002 50.0704 181.724 48.7388 180.93L46.4379 179.578ZM49.7946 173.793L47.352 177.989L49.6528 179.34C50.4289 179.809 51.1263 179.984 51.7488 179.865C52.3791 179.737 52.8716 179.368 53.2301 178.752C53.6162 178.096 53.7226 177.449 53.5453 176.813C53.3641 176.169 52.9031 175.621 52.1585 175.176L49.7946 173.793Z" fill="#CBCBCB"/>
<path d="M65.4713 190.36C65.7629 190.475 65.952 190.662 66.0386 190.916C66.1332 191.171 66.1371 191.409 66.0544 191.632C65.9796 191.83 65.8338 191.989 65.6132 192.109C65.3925 192.224 65.1246 192.22 64.8094 192.093L57.9857 189.422C57.6469 189.283 57.4105 189.073 57.2765 188.787C57.1505 188.512 57.1386 188.23 57.245 187.944L60.712 178.964C60.8145 178.69 61.0115 178.495 61.2951 178.376C61.5867 178.249 61.9019 178.257 62.2407 178.392L69.0644 181.062C69.3678 181.181 69.5608 181.348 69.6475 181.571C69.7302 181.793 69.7302 182.016 69.6475 182.238C69.5608 182.441 69.4032 182.612 69.1747 182.747C68.9541 182.874 68.6941 182.882 68.4025 182.763L62.3983 180.41L61.2321 183.43L66.9212 185.655C67.2127 185.775 67.4018 185.953 67.4885 186.196C67.5712 186.43 67.5712 186.657 67.4885 186.879C67.4018 187.094 67.2521 187.257 67.0315 187.372C66.8187 187.479 66.5666 187.475 66.275 187.356L60.586 185.131L59.4671 188.008L65.4713 190.36Z" fill="#CBCBCB"/>
<path d="M82.5492 184.548C82.8841 184.624 83.1205 184.779 83.2584 185.009C83.3923 185.244 83.4357 185.478 83.3844 185.709C83.3411 185.943 83.2032 186.138 82.9747 186.297C82.7423 186.456 82.4586 186.499 82.1237 186.424L78.767 185.677L76.8759 194.387C76.801 194.725 76.6316 194.943 76.3716 195.039C76.1076 195.142 75.8516 195.17 75.5994 195.118C75.3551 195.062 75.1424 194.935 74.9533 194.737C74.7642 194.534 74.7051 194.264 74.7799 193.926L76.6868 185.216L73.3458 184.469C72.9991 184.385 72.7667 184.23 72.6524 184.008C72.5461 183.777 72.5145 183.543 72.5579 183.308C72.6091 183.078 72.7352 182.879 72.9361 182.72C73.1449 182.553 73.4246 182.51 73.7713 182.593L82.5492 184.548Z" fill="#CBCBCB"/>
<path d="M93.9469 194.866C93.8523 194.516 93.9311 194.238 94.1833 194.023C94.4354 193.801 94.7191 193.685 95.0343 193.673C95.2864 193.673 95.507 193.733 95.6962 193.848C95.8931 193.956 96.0192 194.13 96.0744 194.373C96.2201 194.766 96.4841 195.068 96.8623 195.279C97.2406 195.493 97.6582 195.628 98.1231 195.692C98.5958 195.756 99.0292 195.787 99.4311 195.787C99.7541 195.779 100.109 195.748 100.487 195.692C100.865 195.628 101.228 195.529 101.574 195.39C101.921 195.255 102.197 195.068 102.41 194.834C102.63 194.591 102.733 194.285 102.725 193.912C102.713 193.511 102.54 193.22 102.205 193.038C101.878 192.859 101.464 192.736 100.96 192.672C100.455 192.601 99.9196 192.553 99.3523 192.529C98.7298 192.497 98.0994 192.442 97.4612 192.354C96.8308 192.271 96.2517 192.124 95.7277 191.909C95.1997 191.699 94.7703 191.385 94.4354 190.971C94.1084 190.55 93.9351 189.986 93.9154 189.287C93.9035 188.651 94.0493 188.102 94.3566 187.634C94.6718 187.157 95.0815 186.771 95.5858 186.473C96.098 186.179 96.6575 185.949 97.2563 185.79C97.8552 185.631 98.4422 185.547 99.0213 185.535C99.6517 185.516 100.318 185.575 101.023 185.71C101.736 185.837 102.386 186.088 102.977 186.457C103.564 186.819 104.009 187.332 104.316 187.999C104.419 188.349 104.352 188.643 104.112 188.873C103.879 189.108 103.607 189.231 103.292 189.239C103.091 189.239 102.898 189.199 102.709 189.112C102.528 189.028 102.402 188.905 102.331 188.746C102.173 188.357 101.905 188.075 101.527 187.904C101.157 187.725 100.755 187.614 100.314 187.57C99.8723 187.53 99.4626 187.514 99.0844 187.522C98.8322 187.522 98.5368 187.554 98.2019 187.618C97.863 187.673 97.54 187.761 97.2248 187.888C96.9096 188.015 96.6456 188.19 96.4368 188.412C96.2241 188.635 96.1217 188.913 96.1217 189.239C96.1295 189.632 96.295 189.93 96.6102 190.129C96.9254 190.32 97.3391 190.447 97.8552 190.51C98.3673 190.574 98.9268 190.618 99.5256 190.638C100.164 190.693 100.802 190.749 101.433 190.812C102.063 190.876 102.638 191.011 103.166 191.21C103.69 191.401 104.112 191.699 104.427 192.1C104.742 192.505 104.907 193.077 104.931 193.816C104.939 194.571 104.773 195.195 104.427 195.692C104.088 196.181 103.643 196.574 103.087 196.868C102.54 197.154 101.945 197.369 101.306 197.504C100.664 197.643 100.054 197.719 99.4784 197.742C99.0056 197.75 98.4855 197.715 97.9182 197.631C97.3509 197.548 96.7993 197.401 96.2635 197.186C95.7277 196.975 95.247 196.677 94.8294 196.296C94.4078 195.915 94.1124 195.438 93.9469 194.866Z" fill="#CBCBCB"/>
<path d="M117.178 183.526C117.438 183.487 117.699 183.522 117.951 183.638C118.211 183.745 118.376 183.956 118.439 184.273L120.252 193.969C120.315 194.299 120.244 194.569 120.047 194.78C119.858 194.994 119.629 195.121 119.369 195.161C119.105 195.217 118.849 195.185 118.597 195.066C118.353 194.939 118.203 194.712 118.14 194.382L117.431 190.615L112.041 191.648L112.75 195.415C112.813 195.765 112.75 196.043 112.561 196.242C112.372 196.433 112.155 196.552 111.915 196.592C111.651 196.647 111.387 196.607 111.127 196.48C110.875 196.353 110.717 196.131 110.654 195.813L108.842 186.117C108.779 185.799 108.838 185.541 109.015 185.338C109.185 185.14 109.405 185.016 109.677 184.973C109.937 184.921 110.197 184.953 110.449 185.068C110.709 185.187 110.875 185.402 110.938 185.72L111.71 189.884L117.1 188.851L116.327 184.687C116.264 184.369 116.32 184.11 116.501 183.908C116.69 183.709 116.915 183.582 117.178 183.526Z" fill="#CBCBCB"/>
<path d="M135.753 183.599C136.171 184.743 136.309 185.832 136.163 186.857C136.013 187.886 135.611 188.796 134.95 189.591C134.296 190.385 133.409 191.001 132.286 191.435C131.159 191.86 130.084 191.999 129.056 191.848C128.023 191.689 127.109 191.276 126.313 190.608C125.526 189.933 124.923 189.019 124.501 187.874C124.072 186.73 123.934 185.641 124.091 184.6C124.241 183.563 124.651 182.645 125.321 181.85C125.994 181.055 126.889 180.447 128.015 180.022C129.138 179.589 130.206 179.45 131.215 179.609C132.231 179.76 133.137 180.177 133.925 180.865C134.713 181.544 135.32 182.454 135.753 183.599ZM131.624 189.654C132.349 189.38 132.917 188.979 133.326 188.446C133.744 187.906 133.992 187.286 134.067 186.587C134.138 185.887 134.028 185.148 133.736 184.362C133.441 183.579 133.035 182.947 132.523 182.47C132.006 181.993 131.419 181.691 130.758 181.564C130.096 181.437 129.402 181.512 128.677 181.787C127.952 182.065 127.377 182.47 126.96 183.01C126.538 183.551 126.286 184.171 126.203 184.87C126.132 185.569 126.239 186.313 126.534 187.095C126.826 187.882 127.231 188.51 127.748 188.987C128.272 189.464 128.866 189.766 129.528 189.893C130.198 190.012 130.899 189.933 131.624 189.654Z" fill="#CBCBCB"/>
<path d="M143.79 182.344L144.972 184.362C145.129 184.648 145.149 184.919 145.035 185.173C144.917 185.419 144.751 185.602 144.531 185.729C144.298 185.868 144.05 185.928 143.79 185.904C143.526 185.884 143.321 185.741 143.175 185.475L138.195 176.892C138.05 176.638 138.022 176.379 138.117 176.113C138.203 175.851 138.369 175.644 138.621 175.493L141.867 173.586C142.75 173.069 143.593 172.783 144.405 172.728C145.212 172.676 145.941 172.835 146.595 173.204C147.257 173.578 147.809 174.138 148.25 174.889C148.868 175.97 148.994 177.063 148.628 178.163C148.27 179.256 147.422 180.198 146.091 180.993L143.79 182.344ZM140.433 176.558L142.876 180.754L145.177 179.403C145.953 178.938 146.441 178.402 146.642 177.798C146.851 177.186 146.776 176.57 146.422 175.954C146.032 175.298 145.516 174.897 144.877 174.746C144.235 174.587 143.542 174.73 142.797 175.175L140.433 176.558Z" fill="#CBCBCB"/>
<mask id="mask14_960_322" style="mask-type:luminance" maskUnits="userSpaceOnUse" x="162" y="142" width="26" height="27">
<path d="M162.683 142.64H187.897V168.071H162.683V142.64Z" fill="white"/>
</mask>
<g mask="url(#mask14_960_322)">
<mask id="mask15_960_322" style="mask-type:luminance" maskUnits="userSpaceOnUse" x="135" y="116" width="61" height="62">
<path d="M135.92 152.562L167.588 116.645L195.848 141.993L164.184 177.91L135.92 152.562Z" fill="white"/>
</mask>
<g mask="url(#mask15_960_322)">
<mask id="mask16_960_322" style="mask-type:luminance" maskUnits="userSpaceOnUse" x="135" y="116" width="61" height="62">
<path d="M135.92 152.562L167.588 116.645L195.848 141.993L164.184 177.91L135.92 152.562Z" fill="white"/>
</mask>
<g mask="url(#mask16_960_322)">
<mask id="mask17_960_322" style="mask-type:luminance" maskUnits="userSpaceOnUse" x="155" y="134" width="35" height="36">
<path d="M155.391 155.654L174.069 134.47L189.97 148.728L171.292 169.915L155.391 155.654Z" fill="white"/>
</mask>
<g mask="url(#mask17_960_322)">
<path d="M165.02 155.932C165.221 159.135 162.888 163.578 168.006 166.685C173.227 169.848 177.584 162.564 180.354 159.219C181.831 157.438 189.431 151.494 187.122 146.904C185.101 142.891 181.236 143.058 176.083 143.94C171.477 144.723 167.163 142.251 164.39 145.458C161.789 148.466 164.898 153.97 165.02 155.932Z" fill="#CBCBCB"/>
</g>
</g>
</g>
</g>
<mask id="mask18_960_322" style="mask-type:luminance" maskUnits="userSpaceOnUse" x="146" y="154" width="14" height="12">
<path d="M146.545 154.848H159.657V165.02H146.545V154.848Z" fill="white"/>
</mask>
<g mask="url(#mask18_960_322)">
<mask id="mask19_960_322" style="mask-type:luminance" maskUnits="userSpaceOnUse" x="135" y="116" width="61" height="62">
<path d="M135.92 152.563L167.588 116.646L195.848 141.993L164.184 177.911L135.92 152.563Z" fill="white"/>
</mask>
<g mask="url(#mask19_960_322)">
<mask id="mask20_960_322" style="mask-type:luminance" maskUnits="userSpaceOnUse" x="135" y="116" width="61" height="62">
<path d="M135.921 152.563L167.589 116.646L195.849 141.993L164.185 177.911L135.921 152.563Z" fill="white"/>
</mask>
<g mask="url(#mask20_960_322)">
<path d="M153.268 155.738C156.758 155.742 159.52 157.625 159.441 159.95C159.359 162.27 156.467 164.15 152.98 164.146C149.489 164.142 146.728 162.255 146.806 159.934C146.889 157.613 149.781 155.734 153.268 155.738Z" fill="#CBCBCB"/>
</g>
</g>
</g>
<mask id="mask21_960_322" style="mask-type:luminance" maskUnits="userSpaceOnUse" x="145" y="140" width="15" height="12">
<path d="M145.537 140.606H159.657V151.796H145.537V140.606Z" fill="white"/>
</mask>
<g mask="url(#mask21_960_322)">
<mask id="mask22_960_322" style="mask-type:luminance" maskUnits="userSpaceOnUse" x="135" y="116" width="61" height="62">
<path d="M135.92 152.563L167.588 116.646L195.848 141.993L164.184 177.911L135.92 152.563Z" fill="white"/>
</mask>
<g mask="url(#mask22_960_322)">
<mask id="mask23_960_322" style="mask-type:luminance" maskUnits="userSpaceOnUse" x="135" y="116" width="61" height="62">
<path d="M135.92 152.563L167.588 116.646L195.848 141.993L164.184 177.911L135.92 152.563Z" fill="white"/>
</mask>
<g mask="url(#mask23_960_322)">
<path d="M154.623 141.719C158.165 143.396 160.15 146.586 159.055 148.836C157.956 151.089 154.193 151.553 150.647 149.873C147.105 148.192 145.12 145.005 146.219 142.752C147.314 140.499 151.077 140.038 154.623 141.719Z" fill="#CBCBCB"/>
</g>
</g>
</g>
<mask id="mask24_960_322" style="mask-type:luminance" maskUnits="userSpaceOnUse" x="156" y="127" width="12" height="15">
<path d="M156.632 127.382H167.726V141.624H156.632V127.382Z" fill="white"/>
</mask>
<g mask="url(#mask24_960_322)">
<mask id="mask25_960_322" style="mask-type:luminance" maskUnits="userSpaceOnUse" x="135" y="116" width="61" height="62">
<path d="M135.92 152.563L167.588 116.646L195.848 141.993L164.184 177.911L135.92 152.563Z" fill="white"/>
</mask>
<g mask="url(#mask25_960_322)">
<mask id="mask26_960_322" style="mask-type:luminance" maskUnits="userSpaceOnUse" x="135" y="116" width="61" height="62">
<path d="M135.92 152.563L167.588 116.646L195.848 141.993L164.184 177.911L135.92 152.563Z" fill="white"/>
</mask>
<g mask="url(#mask26_960_322)">
<path d="M165.472 131.872C167.478 135.174 167.466 138.929 165.441 140.257C163.416 141.584 160.146 139.979 158.136 136.676C156.131 133.374 156.143 129.619 158.168 128.292C160.193 126.965 163.463 128.566 165.472 131.872Z" fill="#CBCBCB"/>
</g>
</g>
</g>
<mask id="mask27_960_322" style="mask-type:luminance" maskUnits="userSpaceOnUse" x="171" y="125" width="11" height="16">
<path d="M171.761 125.348H181.847V140.606H171.761V125.348Z" fill="white"/>
</mask>
<g mask="url(#mask27_960_322)">
<mask id="mask28_960_322" style="mask-type:luminance" maskUnits="userSpaceOnUse" x="135" y="116" width="61" height="62">
<path d="M135.92 152.563L167.588 116.646L195.848 141.993L164.184 177.911L135.92 152.563Z" fill="white"/>
</mask>
<g mask="url(#mask28_960_322)">
<mask id="mask29_960_322" style="mask-type:luminance" maskUnits="userSpaceOnUse" x="135" y="116" width="61" height="62">
<path d="M135.92 152.563L167.588 116.646L195.848 141.993L164.184 177.911L135.92 152.563Z" fill="white"/>
</mask>
<g mask="url(#mask29_960_322)">
<path d="M180.972 132.202C181.457 135.922 179.908 139.259 177.513 139.657C175.122 140.058 172.785 137.368 172.301 133.649C171.816 129.929 173.364 126.592 175.76 126.19C178.155 125.793 180.488 128.483 180.972 132.202Z" fill="#CBCBCB"/>
</g>
</g>
</g>
<path d="M53.9454 5.47213C54.1109 5.44034 54.2842 5.45226 54.4655 5.50391C54.6428 5.54762 54.7885 5.64299 54.9067 5.79001L61.5256 14.4207C61.7147 14.6671 61.7935 14.8896 61.762 15.0883C61.7304 15.279 61.628 15.4499 61.4625 15.5969C61.2931 15.7479 61.1001 15.8432 60.8795 15.883C60.7219 15.9148 60.5485 15.9068 60.3594 15.8512C60.1782 15.7876 60.0285 15.6883 59.9024 15.5492L58.2792 13.3876L52.7792 14.4366L52.0228 17.0433C51.9676 17.2579 51.8691 17.4168 51.7234 17.5201C51.5737 17.6274 51.4239 17.695 51.2663 17.7267C51.0654 17.7585 50.8605 17.7347 50.6517 17.6632C50.4508 17.5916 50.2893 17.4685 50.1632 17.2976C50.0371 17.1307 50.0135 16.9241 50.0844 16.6777L53.1417 6.13969C53.1929 5.91717 53.2835 5.76617 53.4096 5.67875C53.5435 5.58339 53.7248 5.51584 53.9454 5.47213ZM54.497 8.3967L53.2993 12.6087L57.1288 11.8776L54.497 8.3967Z" fill="#CBCBCB"/>
<path d="M73.0574 3.72214C73.014 3.40426 73.0928 3.15789 73.2937 2.97511C73.4907 2.79629 73.7114 2.69695 73.9556 2.67311C74.2157 2.64132 74.4599 2.68901 74.6805 2.81616C74.9012 2.94332 75.0312 3.16187 75.0745 3.46783L75.6891 8.74479C75.8152 9.76203 75.7049 10.6799 75.3582 11.4945C75.0115 12.3012 74.4757 12.9648 73.7508 13.4813C73.0258 13.99 72.1354 14.3078 71.0875 14.435C70.0552 14.5622 69.1254 14.4628 68.2981 14.133C67.4668 13.8072 66.7891 13.2906 66.2651 12.5912C65.749 11.8839 65.4299 11.0177 65.3038 10.0004L64.6892 4.6917C64.6498 4.39766 64.7207 4.16321 64.9098 3.99235C65.099 3.81354 65.3196 3.70625 65.5717 3.67446C65.8318 3.64267 66.08 3.69036 66.3124 3.81751C66.5409 3.93672 66.6788 4.14732 66.7222 4.45329L67.3368 9.74614C67.451 10.7236 67.8292 11.4747 68.4714 12.0031C69.1215 12.5237 69.9213 12.7263 70.8668 12.6071C71.8203 12.5038 72.557 12.1144 73.0731 11.4468C73.5853 10.7793 73.7862 9.96071 73.672 8.9832L73.0574 3.72214Z" fill="#CBCBCB"/>
<path d="M82.0869 1.95535C82.4533 1.93549 82.7527 2.09443 82.9852 2.43219L86.8935 7.99524L90.2187 2.08251C90.3329 1.91562 90.4708 1.78052 90.6284 1.68515C90.7939 1.58978 90.9633 1.5421 91.1327 1.5421C91.3848 1.53415 91.6094 1.60568 91.8103 1.76462C92.0192 1.92357 92.1334 2.16198 92.157 2.47987L92.5668 11.7463C92.5865 12.0444 92.488 12.2788 92.2674 12.4457C92.0546 12.6046 91.83 12.6921 91.5897 12.7C91.3257 12.7119 91.0894 12.6483 90.8805 12.5093C90.6796 12.3622 90.5693 12.1397 90.5496 11.8417L90.2817 5.92897L87.8863 10.1251C87.7996 10.3079 87.6736 10.443 87.5081 10.5384C87.3505 10.6258 87.185 10.6735 87.0195 10.6814C86.8383 10.6933 86.6571 10.6496 86.468 10.5542C86.2867 10.4589 86.1449 10.3317 86.0425 10.1728L83.3004 6.26275L83.5683 12.1596C83.588 12.4576 83.4934 12.6921 83.2846 12.8589C83.0719 13.0179 82.8473 13.1053 82.607 13.1133C82.3548 13.1252 82.1184 13.0616 81.8978 12.9225C81.6851 12.7755 81.5708 12.553 81.5511 12.255L81.1414 3.00439C81.1177 2.71034 81.2083 2.46398 81.4093 2.27324C81.6063 2.07456 81.8348 1.96728 82.0869 1.95535Z" fill="#CBCBCB"/>
<path d="M97.9878 2.42337C97.9878 2.09753 98.0863 1.85912 98.2873 1.70812C98.4961 1.56109 98.7325 1.4856 98.9964 1.4856C99.2486 1.4856 99.4771 1.56507 99.6898 1.72401C99.9105 1.87501 100.021 2.11343 100.021 2.43926L99.9577 11.7693C99.9577 12.0554 99.8474 12.2779 99.6268 12.4369C99.414 12.5879 99.1855 12.6594 98.9334 12.6594C98.6694 12.6594 98.433 12.5879 98.2242 12.4369C98.0233 12.2779 97.9248 12.0514 97.9248 11.7534L97.9878 2.42337Z" fill="#CBCBCB"/>
<path d="M114.447 10.5333C114.447 10.6526 114.423 10.7718 114.384 10.8989C114.341 11.0261 114.266 11.1453 114.163 11.2486C113.793 11.642 113.348 11.9917 112.824 12.2976C112.308 12.5956 111.768 12.8142 111.201 12.9652C110.633 13.1122 110.074 13.1718 109.53 13.14C108.396 13.0765 107.418 12.7784 106.599 12.2499C105.787 11.7095 105.181 10.9903 104.771 10.0883C104.369 9.17834 104.208 8.14918 104.282 7.00478C104.345 5.8723 104.633 4.89876 105.149 4.0802C105.661 3.25369 106.355 2.62983 107.229 2.20465C108.1 1.77153 109.093 1.58477 110.208 1.64835C110.972 1.69206 111.721 1.87087 112.446 2.18876C113.178 2.50665 113.789 2.95964 114.274 3.53979C114.502 3.80602 114.597 4.07225 114.557 4.33451C114.526 4.58882 114.408 4.79148 114.211 4.9385C114.01 5.0895 113.773 5.15307 113.502 5.12923C113.226 5.09744 112.97 4.9385 112.729 4.6524C112.383 4.23914 111.977 3.93318 111.516 3.73052C111.063 3.53184 110.594 3.42058 110.113 3.39674C109.408 3.357 108.774 3.48416 108.206 3.7782C107.639 4.07623 107.186 4.5173 106.851 5.09744C106.512 5.68156 106.323 6.369 106.284 7.16372C106.252 7.93858 106.367 8.63793 106.631 9.26179C106.902 9.88962 107.296 10.3903 107.812 10.7718C108.336 11.1453 108.947 11.344 109.641 11.3757C110.153 11.4075 110.669 11.3241 111.185 11.1214C111.709 10.9228 112.15 10.6287 112.509 10.2472L112.603 8.46707L110.066 8.32402C109.739 8.31607 109.503 8.2207 109.357 8.03792C109.219 7.84718 109.156 7.65248 109.168 7.44982C109.176 7.21935 109.262 7.0167 109.42 6.84583C109.585 6.66702 109.834 6.58357 110.161 6.59152L113.612 6.78225C114.022 6.8061 114.29 6.90941 114.416 7.10014C114.55 7.28293 114.613 7.5134 114.605 7.7995L114.447 10.5333Z" fill="#CBCBCB"/>
<path d="M130.782 9.45431C130.644 10.5908 130.286 11.5603 129.711 12.363C129.143 13.1696 128.407 13.7538 127.504 14.1273C126.61 14.4968 125.601 14.6081 124.479 14.4611C123.352 14.322 122.391 13.9683 121.595 13.3961C120.807 12.816 120.228 12.061 119.861 11.1391C119.491 10.2172 119.377 9.19205 119.514 8.0556C119.648 6.90325 120.007 5.92574 120.586 5.13102C121.161 4.3363 121.91 3.75615 122.824 3.38263C123.738 3.00117 124.754 2.88196 125.881 3.01706C127.004 3.16806 127.954 3.53363 128.734 4.11378C129.51 4.6979 130.077 5.44494 130.436 6.35489C130.802 7.26882 130.916 8.30196 130.782 9.45431ZM124.684 12.6968C125.416 12.7921 126.07 12.7087 126.638 12.4425C127.213 12.1683 127.686 11.755 128.056 11.2027C128.422 10.6424 128.655 9.97485 128.749 9.2C128.844 8.40528 128.781 7.69797 128.56 7.07014C128.34 6.44629 127.981 5.93766 127.489 5.54428C127.004 5.15486 126.393 4.9085 125.661 4.81313C124.944 4.72969 124.29 4.82108 123.691 5.08334C123.1 5.33765 122.619 5.74296 122.241 6.29132C121.87 6.84365 121.642 7.51519 121.547 8.30991C121.453 9.08476 121.516 9.78809 121.737 10.4239C121.965 11.0517 122.335 11.5643 122.84 11.9656C123.352 12.3709 123.966 12.6133 124.684 12.6968Z" fill="#CBCBCB"/>
<path d="M134.478 13.0007C134.455 12.6511 134.581 12.4047 134.857 12.2537C135.128 12.1067 135.416 12.059 135.723 12.1107C135.944 12.1544 136.133 12.2497 136.291 12.3968C136.448 12.5477 136.531 12.7385 136.543 12.969C136.594 13.3623 136.771 13.6921 137.079 13.9544C137.382 14.2206 137.744 14.4312 138.166 14.5902C138.595 14.7491 138.993 14.8683 139.364 14.9399C139.667 14.9955 139.994 15.0313 140.341 15.0511C140.695 15.075 141.05 15.0591 141.397 15.0034C141.743 14.9399 142.035 14.8207 142.279 14.6379C142.531 14.4591 142.689 14.2008 142.752 13.859C142.815 13.4895 142.713 13.1915 142.453 12.969C142.189 12.7385 141.826 12.5358 141.365 12.365C140.912 12.1981 140.435 12.0471 139.931 11.9199C139.364 11.761 138.789 11.5822 138.213 11.3795C137.646 11.1808 137.142 10.9305 136.7 10.6325C136.267 10.3265 135.936 9.94901 135.708 9.50396C135.487 9.05097 135.44 8.49467 135.566 7.83505C135.668 7.2549 135.912 6.78204 136.291 6.42044C136.677 6.0509 137.13 5.77672 137.646 5.59393C138.17 5.41512 138.722 5.31578 139.301 5.29194C139.888 5.26015 140.451 5.29988 140.987 5.4032C141.586 5.52241 142.193 5.71314 142.815 5.9754C143.434 6.22971 143.981 6.58733 144.454 7.04032C144.935 7.49729 145.25 8.06949 145.4 8.75692C145.407 9.08673 145.281 9.33707 145.021 9.50396C144.769 9.67483 144.501 9.73443 144.218 9.6788C144.028 9.64701 143.859 9.57549 143.713 9.45628C143.564 9.34104 143.465 9.198 143.414 9.02713C143.351 8.64566 143.162 8.3397 142.847 8.10525C142.539 7.86286 142.189 7.6761 141.791 7.54895C141.401 7.42179 141.022 7.32245 140.656 7.24695C140.435 7.20722 140.16 7.1794 139.837 7.16748C139.521 7.14761 139.198 7.16748 138.875 7.23106C138.56 7.28669 138.28 7.39795 138.04 7.56484C137.808 7.72379 137.662 7.95823 137.599 8.2642C137.536 8.6258 137.622 8.92779 137.867 9.17018C138.119 9.40462 138.473 9.59933 138.938 9.75827C139.399 9.90927 139.903 10.0603 140.451 10.2192C141.038 10.3901 141.617 10.5689 142.185 10.7596C142.752 10.9504 143.256 11.1888 143.698 11.4749C144.139 11.753 144.462 12.1107 144.675 12.5557C144.883 12.9928 144.927 13.5531 144.801 14.2405C144.675 14.9319 144.399 15.4644 143.981 15.8458C143.571 16.2273 143.083 16.4975 142.516 16.6565C141.948 16.8234 141.353 16.9108 140.735 16.9108C140.124 16.9108 139.553 16.8551 139.017 16.7518C138.576 16.6644 138.103 16.5293 137.599 16.3386C137.094 16.1478 136.61 15.8975 136.149 15.5915C135.696 15.2975 135.318 14.9319 135.014 14.4948C134.707 14.0617 134.53 13.565 134.478 13.0007Z" fill="#CBCBCB"/>
</svg>
