<svg width="80" height="80" viewBox="0 0 80 80" fill="none" xmlns="http://www.w3.org/2000/svg">
<mask id="mask0_1227_2" style="mask-type:luminance" maskUnits="userSpaceOnUse" x="0" y="0" width="78" height="79">
<path d="M0 0H77.9125V78.5824H0V0Z" fill="white"/>
</mask>
<g mask="url(#mask0_1227_2)">
<mask id="mask1_1227_2" style="mask-type:luminance" maskUnits="userSpaceOnUse" x="0" y="0" width="78" height="79">
<path d="M38.9562 0C17.4405 0 0 17.592 0 39.2912C0 60.9919 17.4405 78.5824 38.9562 78.5824C60.4704 78.5824 77.9125 60.9919 77.9125 39.2912C77.9125 17.592 60.4704 0 38.9562 0Z" fill="white"/>
</mask>
<g mask="url(#mask1_1227_2)">
<path d="M38.9562 0C17.4405 0 0 17.592 0 39.2912C0 60.9919 17.4405 78.5824 38.9562 78.5824C60.4704 78.5824 77.9125 60.9919 77.9125 39.2912C77.9125 17.592 60.4704 0 38.9562 0Z" stroke="#DF86C6" stroke-width="6"/>
</g>
</g>
<mask id="mask2_1227_2" style="mask-type:luminance" maskUnits="userSpaceOnUse" x="16" y="15" width="47" height="48">
<path d="M16.2581 15.3494H62.1546V62.6514H16.2581V15.3494Z" fill="white"/>
</mask>
<g mask="url(#mask2_1227_2)">
<path d="M61.6003 62.5926C61.375 62.5926 61.1669 62.4463 61.096 62.219C59.7392 57.8433 57.0932 51.1994 52.1796 44.3791C51.8345 43.9817 47.6252 39.1498 46.4386 37.1566C45.181 35.0442 44.1583 32.9255 44.3631 28.3829C44.5507 24.2058 43.7013 21.2097 41.7629 19.2197C39.9254 17.3314 37.0919 16.4302 33.3397 16.5319C31.8836 16.5732 30.4999 17.0755 29.4425 17.9481C29.3054 18.061 29.1778 18.177 29.0627 18.293C29.0375 18.3185 29.0107 18.3407 28.9808 18.3598C28.9067 18.4091 27.1512 19.5868 25.5469 20.3991C25.2884 20.5596 23.2855 21.7437 20.6821 21.696C20.3937 21.6913 20.1148 21.6404 19.8516 21.545C19.1393 21.2907 18.5152 21.348 18.0929 21.7072C17.6343 22.095 17.4531 22.7896 17.5949 23.6097C17.6138 23.7194 17.6122 23.8323 17.5886 23.9388C17.5193 24.2503 17.2372 25.8985 18.4049 27.693C19.7838 29.8118 22.5952 31.2995 26.7603 32.1149C27.0014 32.1387 28.3268 32.312 29.1573 33.2847C29.6568 33.8696 29.879 34.6119 29.816 35.4893V40.1098C29.816 40.4039 29.578 40.6439 29.2865 40.6439C28.995 40.6439 28.757 40.4039 28.757 40.1098V35.4686C28.757 35.4543 28.757 35.4416 28.7586 35.4289C28.8043 34.8265 28.6719 34.3544 28.3551 33.9825C27.7516 33.2752 26.6579 33.1782 26.6469 33.1766C26.6264 33.175 26.6059 33.1719 26.5854 33.1687C22.1146 32.2977 19.0636 30.6526 17.5177 28.2795C16.1687 26.2005 16.4492 24.2344 16.5469 23.7528C16.3531 22.5655 16.6667 21.5244 17.4121 20.8902C18.1228 20.2862 19.1424 20.1575 20.2077 20.5389C20.3638 20.5946 20.5292 20.6248 20.7026 20.6279C23.1058 20.6756 24.9859 19.4947 25.0048 19.4819C25.0205 19.4724 25.0363 19.4645 25.0521 19.4549C26.4704 18.7397 28.0762 17.6843 28.3536 17.4983C28.4828 17.3712 28.623 17.244 28.7728 17.12C30.0114 16.098 31.6236 15.5099 33.3129 15.4638C37.3709 15.351 40.4675 16.3634 42.5209 18.4711C44.6752 20.6836 45.6239 23.9419 45.4221 28.4321C45.2299 32.6839 46.1392 34.5753 47.3463 36.6067C48.5093 38.5601 52.9471 43.64 52.9912 43.6908C53.0022 43.7035 53.0117 43.7163 53.0211 43.7306C58.0293 50.6749 60.7257 57.4443 62.1062 61.8996C62.1929 62.1825 62.0384 62.4813 61.7595 62.5687C61.7059 62.5862 61.6523 62.5926 61.6003 62.5926ZM37.8972 33.3197C38.7372 33.2768 40.2879 33.0781 41.2381 32.2404C43.0205 30.6685 44.0574 24.743 42.9716 22.3366C42.8518 22.0664 42.5367 21.9488 42.2719 22.0712C42.0056 22.1935 41.8874 22.5098 42.0087 22.7785C42.896 24.7478 41.9788 30.1694 40.5416 31.4362C39.4321 32.4153 36.4064 32.4979 34.8731 31.8463C34.3625 31.6301 33.937 31.3456 33.6076 31.0007C32.3579 29.6941 32.5644 27.604 32.9583 26.0813C33.5335 23.8529 34.6209 21.704 36.1007 19.8682C36.2851 19.6393 36.252 19.3023 36.0235 19.1164C35.7965 18.9304 35.464 18.9654 35.2796 19.1942C33.7037 21.1493 32.547 23.4365 31.9324 25.8143C31.2706 28.3781 31.5857 30.4285 32.8449 31.7429C33.2751 32.1928 33.8188 32.5599 34.4618 32.8317C35.2198 33.1528 36.2835 33.334 37.385 33.334C37.5552 33.3324 37.727 33.3292 37.8972 33.3197ZM31.7638 20.8727C31.9703 20.6645 31.9703 20.3259 31.7638 20.1177C31.5574 19.9095 31.2217 19.9095 31.0153 20.1177C30.5961 20.5389 30.1722 20.7471 29.753 20.7328C29.0942 20.7122 28.6026 20.1606 28.5884 20.1447C28.3977 19.9238 28.0652 19.8984 27.8446 20.0891C27.6223 20.2814 27.5971 20.6184 27.7862 20.8425C27.8193 20.8807 28.5758 21.7564 29.7057 21.7994C29.7372 21.8009 29.7656 21.8025 29.7955 21.8025C30.4905 21.8025 31.1508 21.4894 31.7638 20.8727Z" fill="#A2128F"/>
</g>
<mask id="mask3_1227_2" style="mask-type:luminance" maskUnits="userSpaceOnUse" x="19" y="35" width="28" height="28">
<path d="M19.8884 35.491H46.1114V62.6515H19.8884V35.491Z" fill="white"/>
</mask>
<g mask="url(#mask3_1227_2)">
<path d="M29.4928 62.5924C29.4345 62.5924 29.3762 62.5829 29.3179 62.5638C29.0421 62.4653 28.8971 62.1617 28.9933 61.8835C29.2517 61.1349 29.444 60.3656 29.5637 59.5963C29.6599 58.9828 29.4676 57.6032 29.2139 57.0929C28.6954 56.0487 27.8303 55.5067 27.0502 55.1141C26.248 54.7088 24.4767 54.5641 23.0852 54.5641C22.6566 54.5641 21.8797 54.3511 21.4888 52.9238C21.451 52.7855 21.3706 52.5932 21.2083 52.4613C20.3668 51.7874 20.028 50.058 19.9697 49.7179C19.5757 48.4082 21.0854 47.4545 22.0719 47.0842C23.164 46.5088 23.662 44.5697 23.7613 43.8671C23.7629 43.8512 23.766 43.8353 23.7692 43.8195C24.0938 42.4319 25.1812 41.2875 26.5412 40.9028C27.2267 40.7089 27.8476 40.7375 28.448 40.7645C28.6576 40.7741 28.8719 40.7852 29.0862 40.7852C29.8049 40.7852 30.7331 40.5198 31.0356 40.0286C31.0656 39.9809 33.2529 36.419 33.2529 36.419C33.4405 36.1106 33.7541 35.9072 34.1086 35.8595C34.4648 35.8118 34.8194 35.9263 35.081 36.1726C35.9241 36.9658 37.3046 38.9033 37.0855 42.9755C37.0682 43.3077 37.2084 43.6287 37.4716 43.8544C42.9936 48.6069 45.2471 57.2408 46.0981 61.963C46.1501 62.2539 45.9594 62.5304 45.6726 62.5829C45.3858 62.6369 45.11 62.443 45.058 62.1537C44.2322 57.5714 42.0575 49.2045 36.7861 44.6682C36.2692 44.2232 35.9934 43.5874 36.0297 42.9198C36.0958 41.6626 36.0691 38.5647 34.3592 36.9546C34.3214 36.9181 34.2788 36.9165 34.2505 36.9197C34.2221 36.9228 34.1811 36.9371 34.1543 36.9816C34.1543 36.9816 31.967 40.5436 31.937 40.5929C31.324 41.5895 29.8584 41.8533 29.0878 41.8533C28.8499 41.8533 28.6214 41.8422 28.4023 41.8326C27.8381 41.8072 27.3512 41.7834 26.8296 41.9328C25.8415 42.2109 25.0504 43.0406 24.8077 44.0452C24.7572 44.3694 24.2829 47.1668 22.5226 48.0522C22.5053 48.0617 22.4864 48.0696 22.4675 48.0776C21.9301 48.2763 20.8128 48.8914 20.9877 49.4239C20.9956 49.4509 21.0035 49.4779 21.0082 49.5049C21.1216 50.1916 21.4636 51.3042 21.8686 51.6268C22.1743 51.8732 22.3966 52.2229 22.51 52.6425C22.6235 53.0557 22.8347 53.4992 23.0868 53.4992C24.026 53.4992 26.3395 53.5628 27.5245 54.1604C28.4055 54.6055 29.5007 55.2857 30.161 56.6177C30.5471 57.3965 30.7315 58.9987 30.6117 59.7648C30.4809 60.5977 30.2745 61.429 29.9955 62.2364C29.9167 62.4557 29.7119 62.5924 29.4928 62.5924ZM28.5599 46.4389C28.7663 46.2306 28.7663 45.8921 28.5599 45.6839C28.3535 45.4757 28.0178 45.4757 27.8113 45.6839C27.493 46.0049 27.1715 46.1607 26.8627 46.1544C26.371 46.14 25.9975 45.7236 25.9849 45.7109C25.7942 45.49 25.4617 45.4645 25.241 45.6553C25.0188 45.8476 24.9921 46.1846 25.1827 46.4087C25.2505 46.4881 25.8698 47.1859 26.8138 47.2209C26.8406 47.2225 26.8658 47.2225 26.891 47.2225C27.4836 47.2241 28.0446 46.9602 28.5599 46.4389Z" fill="#DD81CE"/>
</g>
<mask id="mask4_1227_2" style="mask-type:luminance" maskUnits="userSpaceOnUse" x="16" y="0" width="46" height="13">
<path d="M16.6287 0H61.162V12.9047H16.6287V0Z" fill="white"/>
</mask>
<g mask="url(#mask4_1227_2)">
<mask id="mask5_1227_2" style="mask-type:luminance" maskUnits="userSpaceOnUse" x="16" y="0" width="46" height="13">
<path d="M23.0268 0H54.7465C58.2797 0 61.1447 2.88962 61.1447 6.45316C61.1447 10.0167 58.2797 12.9047 54.7465 12.9047H23.0268C19.4936 12.9047 16.6287 10.0167 16.6287 6.45316C16.6287 2.88962 19.4936 0 23.0268 0Z" fill="white"/>
</mask>
<g mask="url(#mask5_1227_2)">
<path d="M16.6287 0H61.162V12.9047H16.6287V0Z" fill="white"/>
</g>
</g>
<mask id="mask6_1227_2" style="mask-type:luminance" maskUnits="userSpaceOnUse" x="17" y="63" width="39" height="17">
<path d="M17.7722 63.74H55.5576V80.0001H17.7722V63.74Z" fill="white"/>
</mask>
<g mask="url(#mask6_1227_2)">
<mask id="mask7_1227_2" style="mask-type:luminance" maskUnits="userSpaceOnUse" x="17" y="63" width="39" height="17">
<path d="M47.4979 80.0001H25.8781C21.4262 80.0001 17.8174 76.3602 17.8174 71.87C17.8174 67.3798 21.4262 63.74 25.8781 63.74H47.4979C51.9498 63.74 55.5586 67.3798 55.5586 71.87C55.5586 76.3602 51.9498 80.0001 47.4979 80.0001Z" fill="white"/>
</mask>
<g mask="url(#mask7_1227_2)">
<path d="M55.5585 80.0001H17.8362V63.74H55.5585V80.0001Z" fill="white"/>
</g>
</g>
<mask id="mask8_1227_2" style="mask-type:luminance" maskUnits="userSpaceOnUse" x="50" y="52" width="21" height="18">
<path d="M50.0293 52.8318H70.6862V69.3446H50.0293V52.8318Z" fill="white"/>
</mask>
<g mask="url(#mask8_1227_2)">
<mask id="mask9_1227_2" style="mask-type:luminance" maskUnits="userSpaceOnUse" x="50" y="52" width="21" height="18">
<path d="M62.502 69.3446H58.2722C53.751 69.3446 50.0854 65.6491 50.0854 61.089C50.0854 56.5288 53.751 52.8318 58.2722 52.8318H62.502C67.0232 52.8318 70.6872 56.5288 70.6872 61.089C70.6872 65.6491 67.0232 69.3446 62.502 69.3446Z" fill="white"/>
</mask>
<g mask="url(#mask9_1227_2)">
<path d="M70.6871 69.3446H50.0933V52.8318H70.6871V69.3446Z" fill="white"/>
</g>
</g>
<mask id="mask10_1227_2" style="mask-type:luminance" maskUnits="userSpaceOnUse" x="11" y="60" width="19" height="20">
<path d="M11.0127 60.7188H29.5705V79.4361H11.0127V60.7188Z" fill="white"/>
</mask>
<g mask="url(#mask10_1227_2)">
<mask id="mask11_1227_2" style="mask-type:luminance" maskUnits="userSpaceOnUse" x="11" y="61" width="19" height="19">
<path d="M20.6644 79.2965L11.3792 69.9331L20.1506 61.0862L29.4342 70.4512L20.6644 79.2965Z" fill="white"/>
</mask>
<g mask="url(#mask11_1227_2)">
<path d="M20.6644 79.2965L11.3792 69.9331L20.1506 61.0862L29.4342 70.4512L20.6644 79.2965Z" fill="white"/>
</g>
</g>
<mask id="mask12_1227_2" style="mask-type:luminance" maskUnits="userSpaceOnUse" x="49" y="50" width="31" height="29">
<path d="M49.7427 50.1389H79.9999V78.6218H49.7427V50.1389Z" fill="white"/>
</mask>
<g mask="url(#mask12_1227_2)">
<mask id="mask13_1227_2" style="mask-type:luminance" maskUnits="userSpaceOnUse" x="49" y="50" width="31" height="29">
<path d="M79.8874 55.5514L54.5469 78.5125L49.9941 73.4025L75.3362 50.4397L79.8874 55.5514Z" fill="white"/>
</mask>
<g mask="url(#mask13_1227_2)">
<path d="M79.8878 55.5514L54.5536 78.5062L50.0024 73.3961L75.3366 50.4397L79.8878 55.5514Z" fill="white"/>
</g>
</g>
<path d="M18.5761 71.8314L18.1033 72.6388C18.0403 72.7532 17.9536 72.812 17.8449 72.8168C17.7345 72.8248 17.6368 72.8041 17.5486 72.7532C17.4556 72.6976 17.3879 72.6213 17.3469 72.5244C17.3043 72.4258 17.3122 72.3241 17.3721 72.2192L19.364 68.786C19.4223 68.6842 19.5043 68.6254 19.6099 68.6079C19.7186 68.5921 19.8242 68.6127 19.925 68.6715L21.2236 69.4345C21.5766 69.6427 21.8413 69.8843 22.0178 70.1593C22.1943 70.4358 22.2826 70.7235 22.2826 71.0239C22.2857 71.3259 22.2006 71.6263 22.0241 71.9267C21.7752 72.359 21.4253 72.6197 20.9714 72.7087C20.5207 72.8009 20.0291 72.6897 19.4964 72.3718L18.5761 71.8314ZM19.9187 69.5171L18.9417 71.1956L19.862 71.736C20.1725 71.9235 20.4514 71.9935 20.7004 71.9458C20.9525 71.8949 21.1495 71.7471 21.2929 71.5007C21.4474 71.2385 21.4899 70.9794 21.419 70.7251C21.3465 70.4676 21.1621 70.2483 20.8643 70.0702L19.9187 69.5171Z" fill="#720C68"/>
<path d="M26.1895 76.1442C26.3061 76.1903 26.3817 76.265 26.4164 76.3668C26.4542 76.4685 26.4558 76.5638 26.4227 76.6529C26.3928 76.7323 26.3344 76.7959 26.2462 76.8436C26.1579 76.8897 26.0508 76.8881 25.9247 76.8372L23.1953 75.7691C23.0597 75.7135 22.9652 75.6292 22.9116 75.5148C22.8612 75.4051 22.8564 75.2923 22.899 75.1778L24.2858 71.5857C24.3267 71.476 24.4055 71.3981 24.519 71.3505C24.6356 71.2996 24.7617 71.3028 24.8972 71.3568L27.6267 72.4249C27.748 72.4726 27.8252 72.5394 27.8599 72.6284C27.893 72.7174 27.893 72.8064 27.8599 72.8954C27.8252 72.9765 27.7622 73.0448 27.6708 73.0988C27.5826 73.1497 27.4785 73.1529 27.3619 73.1052L24.9603 72.1642L24.4938 73.3722L26.7694 74.2623C26.886 74.31 26.9617 74.3815 26.9963 74.4785C27.0294 74.5723 27.0294 74.6629 26.9963 74.7519C26.9617 74.8377 26.9018 74.9029 26.8135 74.949C26.7284 74.9919 26.6276 74.9903 26.5109 74.9426L24.2353 74.0525L23.7878 75.2033L26.1895 76.1442Z" fill="#720C68"/>
<path d="M33.0191 73.8197C33.1531 73.8499 33.2477 73.9119 33.3028 74.0041C33.3564 74.0979 33.3737 74.1917 33.3532 74.2839C33.3359 74.3776 33.2807 74.4555 33.1893 74.5191C33.0964 74.5827 32.9829 74.6002 32.8489 74.57L31.5063 74.2711L30.7498 77.7552C30.7199 77.8903 30.6521 77.9777 30.5481 78.0159C30.4425 78.0572 30.3401 78.0683 30.2393 78.0477C30.1416 78.0254 30.0565 77.9746 29.9808 77.8951C29.9052 77.814 29.8815 77.7059 29.9115 77.5708L30.6742 74.0868L29.3378 73.7879C29.1992 73.7546 29.1062 73.6926 29.0605 73.6036C29.0179 73.5114 29.0053 73.4176 29.0227 73.3238C29.0432 73.2316 29.0936 73.1522 29.174 73.0886C29.2575 73.0218 29.3694 73.0043 29.508 73.0377L33.0191 73.8197Z" fill="#720C68"/>
<path d="M37.5785 77.9464C37.5406 77.8065 37.5722 77.6953 37.673 77.6094C37.7739 77.5204 37.8873 77.4743 38.0134 77.4696C38.1143 77.4696 38.2025 77.4934 38.2782 77.5395C38.357 77.5824 38.4074 77.6524 38.4294 77.7493C38.4878 77.9067 38.5933 78.0275 38.7446 78.1117C38.8959 78.1975 39.063 78.2516 39.2489 78.277C39.438 78.3024 39.6114 78.3152 39.7721 78.3152C39.9013 78.312 40.0432 78.2993 40.1945 78.277C40.3457 78.2516 40.4907 78.2118 40.6294 78.1562C40.7681 78.1022 40.8784 78.0275 40.9635 77.9337C41.0517 77.8367 41.0927 77.7144 41.0896 77.5649C41.0848 77.4044 41.0155 77.2884 40.8815 77.2153C40.7507 77.1437 40.5853 77.0945 40.3836 77.069C40.1818 77.0404 39.9675 77.0214 39.7406 77.0118C39.4916 76.9991 39.2395 76.9768 38.9842 76.9419C38.732 76.9085 38.5004 76.8497 38.2908 76.7639C38.0796 76.6796 37.9078 76.5541 37.7739 76.3888C37.6431 76.2203 37.5737 75.9946 37.5659 75.7148C37.5611 75.4605 37.6194 75.2412 37.7424 75.0536C37.8684 74.8629 38.0323 74.7087 38.234 74.5895C38.4389 74.4719 38.6627 74.3797 38.9022 74.3161C39.1418 74.2525 39.3766 74.2192 39.6082 74.2144C39.8604 74.2064 40.1267 74.2303 40.4088 74.2843C40.694 74.3352 40.954 74.4353 41.1904 74.5831C41.4252 74.7278 41.6033 74.9328 41.7262 75.1998C41.7672 75.3397 41.7404 75.4573 41.6443 75.5495C41.5513 75.6433 41.4426 75.6926 41.3165 75.6958C41.2361 75.6958 41.1589 75.6799 41.0833 75.6449C41.0108 75.6115 40.9603 75.5622 40.932 75.4987C40.8689 75.3429 40.7618 75.23 40.6105 75.1617C40.4624 75.0902 40.3016 75.0457 40.1251 75.0282C39.9486 75.0123 39.7847 75.0059 39.6334 75.0091C39.5326 75.0091 39.4144 75.0218 39.2804 75.0473C39.1449 75.0695 39.0157 75.1045 38.8896 75.1553C38.7635 75.2062 38.658 75.2761 38.5744 75.3651C38.4893 75.4542 38.4484 75.5654 38.4484 75.6958C38.4515 75.8531 38.5177 75.9723 38.6438 76.0518C38.7698 76.1281 38.9353 76.1789 39.1418 76.2044C39.3466 76.2298 39.5704 76.2473 39.8099 76.2552C40.0652 76.2775 40.3205 76.2997 40.5727 76.3252C40.8248 76.3506 41.0549 76.4046 41.2661 76.4841C41.4757 76.5604 41.6443 76.6796 41.7704 76.8402C41.8964 77.0023 41.9626 77.2312 41.9721 77.5268C41.9752 77.8288 41.909 78.0783 41.7704 78.277C41.6348 78.4725 41.4567 78.6299 41.2345 78.7475C41.0155 78.8619 40.7775 78.9478 40.5222 79.0018C40.2654 79.0574 40.0211 79.0876 39.791 79.0972C39.6019 79.1004 39.3939 79.086 39.167 79.0527C38.94 79.0193 38.7194 78.9605 38.5051 78.8746C38.2908 78.7904 38.0985 78.6712 37.9315 78.5186C37.7628 78.366 37.6446 78.1753 37.5785 77.9464Z" fill="#720C68"/>
<path d="M46.8717 73.4108C46.9757 73.3949 47.0798 73.4092 47.1806 73.4553C47.2846 73.4982 47.3508 73.5824 47.376 73.7096L48.1009 77.5879C48.1262 77.7198 48.0978 77.8279 48.019 77.9121C47.9433 77.9979 47.8519 78.0488 47.7479 78.0647C47.6423 78.0869 47.5399 78.0742 47.4391 78.0265C47.3414 77.9757 47.2815 77.8851 47.2563 77.7532L46.9726 76.2464L44.8168 76.6596L45.1004 78.1664C45.1256 78.3063 45.1004 78.4176 45.0248 78.497C44.9491 78.5733 44.8625 78.621 44.7663 78.6369C44.6607 78.6591 44.5552 78.6433 44.4512 78.5924C44.3503 78.5415 44.2873 78.4525 44.262 78.3254L43.5371 74.4471C43.5119 74.32 43.5356 74.2166 43.6065 74.1356C43.6742 74.0561 43.7625 74.0068 43.8712 73.9893C43.9752 73.9687 44.0792 73.9814 44.1801 74.0275C44.2841 74.0752 44.3503 74.161 44.3755 74.2882L44.6844 75.9539L46.8402 75.5406L46.5313 73.8749C46.5061 73.7477 46.5282 73.6444 46.6007 73.5634C46.6763 73.4839 46.7661 73.433 46.8717 73.4108Z" fill="#720C68"/>
<path d="M54.3017 73.4394C54.4688 73.8971 54.5239 74.3327 54.4656 74.7427C54.4057 75.1544 54.245 75.5184 53.9802 75.8363C53.7186 76.1542 53.3641 76.4005 52.9149 76.5738C52.4642 76.7438 52.034 76.7995 51.6227 76.7391C51.2098 76.6755 50.8442 76.5102 50.5259 76.2432C50.2107 75.973 49.9696 75.6074 49.801 75.1496C49.6292 74.6919 49.574 74.2564 49.6371 73.8399C49.6969 73.4251 49.8608 73.0579 50.1287 72.74C50.3982 72.4221 50.7559 72.179 51.2067 72.0089C51.6558 71.8356 52.0829 71.78 52.4863 71.8436C52.8929 71.904 53.2553 72.0709 53.5705 72.3458C53.8857 72.6176 54.1284 72.9816 54.3017 73.4394ZM52.6502 75.8617C52.9401 75.752 53.1671 75.5915 53.331 75.3785C53.498 75.1623 53.5973 74.9144 53.6272 74.6346C53.6556 74.3549 53.6115 74.0593 53.4949 73.7446C53.3767 73.4314 53.2144 73.1787 53.0095 72.988C52.803 72.7972 52.5682 72.6764 52.3035 72.6256C52.0387 72.5747 51.7614 72.6049 51.4714 72.7146C51.1814 72.8259 50.9514 72.988 50.7843 73.2041C50.6157 73.4203 50.5148 73.6683 50.4817 73.948C50.4534 74.2278 50.4959 74.525 50.6141 74.8381C50.7307 75.1528 50.8931 75.4039 51.0995 75.5947C51.3091 75.7854 51.5471 75.9062 51.8118 75.9571C52.0797 76.0048 52.3602 75.973 52.6502 75.8617Z" fill="#720C68"/>
<path d="M57.5164 72.9379L57.9892 73.7454C58.0523 73.8598 58.0601 73.9679 58.0144 74.0696C57.9672 74.1681 57.901 74.2413 57.8127 74.2921C57.7197 74.3478 57.6205 74.3716 57.5164 74.3621C57.4109 74.3541 57.3289 74.2969 57.2706 74.1904L55.2787 70.7572C55.2204 70.6555 55.2093 70.5522 55.2472 70.4457C55.2818 70.3408 55.348 70.2581 55.4489 70.1977L56.7474 69.4348C57.1004 69.2281 57.4377 69.1137 57.7623 69.0914C58.0853 69.0708 58.3769 69.1344 58.6385 69.2822C58.9032 69.4316 59.1239 69.6557 59.3004 69.9561C59.5478 70.3884 59.5982 70.8255 59.4517 71.2658C59.3082 71.7029 58.9694 72.0796 58.4368 72.3975L57.5164 72.9379ZM56.1738 70.6237L57.1508 72.3021L58.0712 71.7617C58.3816 71.5758 58.577 71.3612 58.6574 71.1196C58.7409 70.8748 58.711 70.6284 58.5691 70.3821C58.4131 70.1198 58.2067 69.9593 57.9514 69.8989C57.6945 69.8353 57.4172 69.8925 57.1193 70.0705L56.1738 70.6237Z" fill="#720C68"/>
<mask id="mask14_1227_2" style="mask-type:luminance" maskUnits="userSpaceOnUse" x="65" y="57" width="11" height="11">
<path d="M65.0728 57.0566H75.1585V67.2291H65.0728V57.0566Z" fill="white"/>
</mask>
<g mask="url(#mask14_1227_2)">
<mask id="mask15_1227_2" style="mask-type:luminance" maskUnits="userSpaceOnUse" x="54" y="46" width="25" height="26">
<path d="M54.3677 61.0255L67.0348 46.6584L78.3387 56.7975L65.6732 71.1646L54.3677 61.0255Z" fill="white"/>
</mask>
<g mask="url(#mask15_1227_2)">
<mask id="mask16_1227_2" style="mask-type:luminance" maskUnits="userSpaceOnUse" x="54" y="46" width="25" height="26">
<path d="M54.3677 61.0255L67.0348 46.6584L78.3387 56.7975L65.6732 71.1646L54.3677 61.0255Z" fill="white"/>
</mask>
<g mask="url(#mask16_1227_2)">
<mask id="mask17_1227_2" style="mask-type:luminance" maskUnits="userSpaceOnUse" x="62" y="53" width="14" height="15">
<path d="M62.1558 62.2627L69.6271 53.7893L75.9874 59.4923L68.5161 67.9672L62.1558 62.2627Z" fill="white"/>
</mask>
<g mask="url(#mask17_1227_2)">
<path d="M66.0081 62.374C66.0884 63.6551 65.1555 65.4321 67.2026 66.6751C69.2907 67.9403 71.0336 65.0268 72.1415 63.6885C72.7324 62.9764 75.7723 60.5986 74.8489 58.7628C74.0404 57.1575 72.4945 57.2242 70.4332 57.5771C68.591 57.8902 66.8653 56.9016 65.7559 58.1842C64.7158 59.3875 65.9592 61.5888 66.0081 62.374Z" fill="#5D5D5D"/>
</g>
</g>
</g>
</g>
<mask id="mask18_1227_2" style="mask-type:luminance" maskUnits="userSpaceOnUse" x="58" y="61" width="6" height="6">
<path d="M58.6187 61.9395H63.8632V66.0084H58.6187V61.9395Z" fill="white"/>
</mask>
<g mask="url(#mask18_1227_2)">
<mask id="mask19_1227_2" style="mask-type:luminance" maskUnits="userSpaceOnUse" x="54" y="46" width="25" height="26">
<path d="M54.3677 61.0255L67.0348 46.6584L78.3387 56.7975L65.6732 71.1646L54.3677 61.0255Z" fill="white"/>
</mask>
<g mask="url(#mask19_1227_2)">
<mask id="mask20_1227_2" style="mask-type:luminance" maskUnits="userSpaceOnUse" x="54" y="46" width="25" height="26">
<path d="M54.3677 61.0255L67.0348 46.6584L78.3387 56.7975L65.6732 71.1646L54.3677 61.0255Z" fill="white"/>
</mask>
<g mask="url(#mask20_1227_2)">
<path d="M61.3063 62.2957C62.7026 62.2972 63.8073 63.0506 63.7758 63.9805C63.7427 64.9087 62.586 65.6605 61.1913 65.6589C59.795 65.6573 58.6903 64.9024 58.7218 63.9741C58.7549 63.0459 59.9117 62.2941 61.3063 62.2957Z" fill="#5D5D5D"/>
</g>
</g>
</g>
<mask id="mask21_1227_2" style="mask-type:luminance" maskUnits="userSpaceOnUse" x="58" y="56" width="6" height="5">
<path d="M58.2134 56.2429H63.8614V60.7188H58.2134V56.2429Z" fill="white"/>
</mask>
<g mask="url(#mask21_1227_2)">
<mask id="mask22_1227_2" style="mask-type:luminance" maskUnits="userSpaceOnUse" x="54" y="46" width="25" height="26">
<path d="M54.3672 61.0255L67.0343 46.6584L78.3382 56.7975L65.6727 71.1646L54.3672 61.0255Z" fill="white"/>
</mask>
<g mask="url(#mask22_1227_2)">
<mask id="mask23_1227_2" style="mask-type:luminance" maskUnits="userSpaceOnUse" x="54" y="46" width="25" height="26">
<path d="M54.3677 61.0255L67.0348 46.6584L78.3387 56.7975L65.6732 71.1646L54.3677 61.0255Z" fill="white"/>
</mask>
<g mask="url(#mask23_1227_2)">
<path d="M61.8493 56.6881C63.266 57.3588 64.0603 58.6351 63.6222 59.5348C63.1825 60.436 61.6775 60.6219 60.2592 59.9496C58.8425 59.2773 58.0482 58.0025 58.4879 57.1013C58.926 56.2001 60.431 56.0157 61.8493 56.6881Z" fill="#5D5D5D"/>
</g>
</g>
</g>
<mask id="mask24_1227_2" style="mask-type:luminance" maskUnits="userSpaceOnUse" x="62" y="50" width="6" height="7">
<path d="M62.6519 50.9529H67.0896V56.6495H62.6519V50.9529Z" fill="white"/>
</mask>
<g mask="url(#mask24_1227_2)">
<mask id="mask25_1227_2" style="mask-type:luminance" maskUnits="userSpaceOnUse" x="54" y="46" width="25" height="26">
<path d="M54.3677 61.025L67.0348 46.658L78.3387 56.7971L65.6732 71.1641L54.3677 61.025Z" fill="white"/>
</mask>
<g mask="url(#mask25_1227_2)">
<mask id="mask26_1227_2" style="mask-type:luminance" maskUnits="userSpaceOnUse" x="54" y="46" width="25" height="26">
<path d="M54.3687 61.025L67.0357 46.658L78.3397 56.7971L65.6742 71.1641L54.3687 61.025Z" fill="white"/>
</mask>
<g mask="url(#mask26_1227_2)">
<path d="M66.1893 52.7483C66.9915 54.0691 66.9867 55.5712 66.1767 56.1021C65.3667 56.6329 64.0587 55.9908 63.255 54.67C62.4529 53.3491 62.4576 51.8471 63.2676 51.3162C64.0776 50.7853 65.3856 51.4259 66.1893 52.7483Z" fill="#5D5D5D"/>
</g>
</g>
</g>
<mask id="mask27_1227_2" style="mask-type:luminance" maskUnits="userSpaceOnUse" x="68" y="50" width="5" height="7">
<path d="M68.7031 50.1389H72.7374V56.2424H68.7031V50.1389Z" fill="white"/>
</mask>
<g mask="url(#mask27_1227_2)">
<mask id="mask28_1227_2" style="mask-type:luminance" maskUnits="userSpaceOnUse" x="54" y="46" width="25" height="26">
<path d="M54.3677 61.0255L67.0348 46.6584L78.3387 56.7975L65.6732 71.1646L54.3677 61.0255Z" fill="white"/>
</mask>
<g mask="url(#mask28_1227_2)">
<mask id="mask29_1227_2" style="mask-type:luminance" maskUnits="userSpaceOnUse" x="54" y="46" width="25" height="26">
<path d="M54.3687 61.0255L67.0357 46.6584L78.3397 56.7975L65.6742 71.1646L54.3687 61.0255Z" fill="white"/>
</mask>
<g mask="url(#mask29_1227_2)">
<path d="M72.3893 52.8816C72.5831 54.3693 71.9638 55.7044 71.0057 55.8634C70.0491 56.0239 69.1146 54.9479 68.9208 53.4601C68.7269 51.9724 69.3462 50.6373 70.3044 50.4768C71.2625 50.3178 72.1955 51.3939 72.3893 52.8816Z" fill="#5D5D5D"/>
</g>
</g>
</g>
<path d="M21.5778 2.18939C21.6439 2.17667 21.7133 2.18144 21.7858 2.2021C21.8567 2.21959 21.915 2.25773 21.9623 2.31654L24.6098 5.76883C24.6854 5.86737 24.7169 5.95638 24.7043 6.03585C24.6917 6.11215 24.6508 6.18049 24.5846 6.2393C24.5168 6.2997 24.4396 6.33785 24.3513 6.35374C24.2883 6.36646 24.219 6.36328 24.1433 6.34103C24.0708 6.3156 24.0109 6.27586 23.9605 6.22023L23.3112 5.35557L21.1113 5.77518L20.8087 6.81786C20.7867 6.90369 20.7473 6.96727 20.6889 7.0086C20.6291 7.05151 20.5692 7.07853 20.5061 7.09125C20.4258 7.10396 20.3438 7.09443 20.2603 7.06582C20.1799 7.03721 20.1153 6.98793 20.0649 6.91959C20.0145 6.85283 20.005 6.77018 20.0334 6.67163L21.2563 2.45641C21.2768 2.36741 21.313 2.30701 21.3634 2.27204C21.417 2.23389 21.4895 2.20687 21.5778 2.18939ZM21.7984 3.35922L21.3193 5.04404L22.8511 4.75158L21.7984 3.35922Z" fill="#720C68"/>
<path d="M29.2237 1.48861C29.2064 1.36146 29.2379 1.26291 29.3183 1.1898C29.3971 1.11827 29.4853 1.07854 29.583 1.069C29.687 1.05628 29.7847 1.07536 29.873 1.12622C29.9612 1.17708 30.0133 1.2645 30.0306 1.38689L30.2764 3.49768C30.3269 3.90458 30.2827 4.27174 30.1441 4.59758C30.0054 4.92023 29.7911 5.18567 29.5011 5.3923C29.2111 5.59575 28.855 5.72291 28.4358 5.77377C28.0229 5.82463 27.651 5.78489 27.32 5.65297C26.9875 5.52264 26.7165 5.31601 26.5069 5.03626C26.3004 4.75334 26.1728 4.40684 26.1224 3.99994L25.8765 1.87644C25.8608 1.75882 25.8891 1.66504 25.9648 1.5967C26.0404 1.52517 26.1287 1.48226 26.2295 1.46954C26.3335 1.45683 26.4328 1.4759 26.5258 1.52676C26.6172 1.57445 26.6723 1.65869 26.6897 1.78107L26.9355 3.89822C26.9812 4.28922 27.1325 4.58963 27.3894 4.80103C27.6494 5.00924 27.9693 5.09031 28.3475 5.04262C28.7289 5.0013 29.0236 4.84553 29.23 4.5785C29.4349 4.31148 29.5153 3.98405 29.4696 3.59304L29.2237 1.48861Z" fill="#720C68"/>
<path d="M32.8353 0.781996C32.9818 0.774049 33.1016 0.837627 33.1946 0.97273L34.7578 3.19796L36.0879 0.832858C36.1336 0.766101 36.1888 0.71206 36.2518 0.673913C36.318 0.635766 36.3858 0.616693 36.4535 0.616693C36.5544 0.613514 36.6442 0.642124 36.7246 0.705702C36.8081 0.76928 36.8538 0.864647 36.8632 0.991803L37.0271 4.6984C37.035 4.81761 36.9956 4.91138 36.9074 4.97814C36.8223 5.04172 36.7325 5.07669 36.6363 5.07987C36.5307 5.08463 36.4362 5.0592 36.3527 5.00357C36.2723 4.94476 36.2282 4.85575 36.2203 4.73654L36.1131 2.37144L35.155 4.0499C35.1203 4.12302 35.0699 4.17706 35.0037 4.21521C34.9407 4.25017 34.8745 4.26925 34.8083 4.27243C34.7358 4.27719 34.6633 4.25971 34.5877 4.22156C34.5152 4.18342 34.4584 4.13255 34.4175 4.06898L33.3206 2.50496L33.4278 4.8637C33.4357 4.98291 33.3978 5.07669 33.3143 5.14344C33.2292 5.20702 33.1394 5.24199 33.0433 5.24517C32.9424 5.24994 32.8479 5.22451 32.7596 5.16887C32.6745 5.11007 32.6288 5.02106 32.6209 4.90185L32.457 1.20161C32.4476 1.08399 32.4838 0.985445 32.5642 0.909152C32.643 0.829679 32.7344 0.786764 32.8353 0.781996Z" fill="#720C68"/>
<path d="M39.1956 0.969104C39.1956 0.838769 39.235 0.743403 39.3154 0.683003C39.3989 0.624194 39.4935 0.593994 39.5991 0.593994C39.6999 0.593994 39.7913 0.625783 39.8764 0.689361C39.9647 0.74976 40.0088 0.845127 40.0088 0.975462L39.9836 4.70749C39.9836 4.82193 39.9394 4.91094 39.8512 4.97452C39.7661 5.03491 39.6747 5.06352 39.5738 5.06352C39.4683 5.06352 39.3737 5.03491 39.2902 4.97452C39.2098 4.91094 39.1704 4.82034 39.1704 4.70113L39.1956 0.969104Z" fill="#720C68"/>
<path d="M45.7775 4.21315C45.7775 4.26083 45.7681 4.30852 45.7523 4.35938C45.735 4.41024 45.705 4.45793 45.6641 4.49925C45.5159 4.65661 45.3378 4.79648 45.1282 4.91887C44.9218 5.03808 44.7059 5.1255 44.479 5.18589C44.252 5.2447 44.0283 5.26855 43.8108 5.25583C43.3569 5.2304 42.9661 5.11119 42.6383 4.89979C42.3137 4.68363 42.071 4.39594 41.9071 4.03513C41.7464 3.67115 41.6818 3.25948 41.7117 2.80172C41.7369 2.34873 41.8519 1.95931 42.0584 1.63189C42.2633 1.30128 42.5406 1.05174 42.8905 0.881667C43.2387 0.708417 43.6359 0.633713 44.0818 0.659144C44.3876 0.676628 44.687 0.748153 44.977 0.875309C45.2701 1.00247 45.5143 1.18366 45.7082 1.41572C45.7996 1.52221 45.8374 1.62871 45.8216 1.73361C45.809 1.83534 45.7618 1.9164 45.683 1.97521C45.6026 2.03561 45.508 2.06104 45.3993 2.0515C45.289 2.03879 45.1866 1.97521 45.0904 1.86077C44.9517 1.69546 44.7894 1.57308 44.605 1.49202C44.4238 1.41254 44.2363 1.36804 44.044 1.3585C43.7619 1.34261 43.5082 1.39347 43.2813 1.51109C43.0544 1.6303 42.8731 1.80673 42.7392 2.03879C42.6037 2.27243 42.528 2.54741 42.5123 2.8653C42.4996 3.17524 42.5453 3.45498 42.6509 3.70453C42.7597 3.95566 42.9173 4.15593 43.1237 4.30852C43.3333 4.45793 43.5776 4.5374 43.8549 4.55011C44.0598 4.56283 44.2662 4.52945 44.4727 4.44839C44.6823 4.36892 44.8588 4.2513 45.0022 4.09871L45.04 3.38664L44.0251 3.32942C43.8943 3.32624 43.7998 3.28809 43.7415 3.21498C43.6863 3.13868 43.6611 3.0608 43.6658 2.97974C43.669 2.88755 43.7036 2.80649 43.7667 2.73814C43.8329 2.66662 43.9321 2.63324 44.0629 2.63642L45.4434 2.71271C45.6073 2.72225 45.7145 2.76357 45.7649 2.83987C45.8185 2.91298 45.8437 3.00517 45.8406 3.11961L45.7775 4.21315Z" fill="#720C68"/>
<path d="M52.3134 3.78168C52.2582 4.23626 52.1148 4.62409 51.8847 4.94516C51.6578 5.26782 51.3631 5.50147 51.0022 5.65087C50.6445 5.79869 50.241 5.8432 49.7919 5.78439C49.3412 5.72876 48.9567 5.5873 48.6384 5.35842C48.3232 5.12636 48.0915 4.82436 47.945 4.45561C47.7968 4.08686 47.7511 3.67678 47.8063 3.2222C47.8599 2.76126 48.0033 2.37025 48.2349 2.05236C48.465 1.73447 48.7644 1.50241 49.13 1.353C49.4956 1.20042 49.9022 1.15273 50.3529 1.20678C50.8021 1.26717 51.1819 1.4134 51.4939 1.64546C51.8043 1.87911 52.0313 2.17793 52.1747 2.54191C52.3212 2.90749 52.3669 3.32074 52.3134 3.78168ZM49.8739 5.07867C50.167 5.11682 50.4286 5.08344 50.6555 4.97695C50.8856 4.86728 51.0747 4.70197 51.2228 4.48104C51.3694 4.25693 51.4624 3.9899 51.5002 3.67996C51.538 3.36207 51.5128 3.07915 51.4245 2.82801C51.3363 2.57847 51.1929 2.37502 50.9959 2.21766C50.8021 2.0619 50.5578 1.96335 50.2647 1.92521C49.9779 1.89183 49.7163 1.92839 49.4767 2.03329C49.2404 2.13501 49.0481 2.29714 48.8968 2.51648C48.7487 2.73741 48.6573 3.00603 48.6194 3.32392C48.5816 3.63386 48.6068 3.9152 48.6951 4.16951C48.7865 4.42064 48.9346 4.62568 49.1363 4.78621C49.3412 4.94834 49.587 5.04529 49.8739 5.07867Z" fill="#720C68"/>
<path d="M53.7921 5.20011C53.7827 5.06024 53.8331 4.96169 53.9434 4.90129C54.0522 4.84248 54.1672 4.82341 54.2901 4.84407C54.3784 4.86156 54.454 4.8997 54.517 4.95851C54.5801 5.01891 54.6132 5.09521 54.6179 5.18739C54.6384 5.34475 54.7093 5.47667 54.8322 5.58158C54.9536 5.68807 55.0986 5.77231 55.2672 5.83589C55.439 5.89947 55.5981 5.94715 55.7463 5.97576C55.8676 5.99801 55.9984 6.01232 56.1371 6.02027C56.2789 6.0298 56.4207 6.02344 56.5594 6.00119C56.6981 5.97576 56.8147 5.92808 56.9124 5.85496C57.0133 5.78344 57.0763 5.68012 57.1015 5.54343C57.1267 5.39561 57.0858 5.2764 56.9818 5.18739C56.8762 5.09521 56.7312 5.01414 56.5468 4.9458C56.3656 4.87904 56.1749 4.81864 55.9732 4.76778C55.7463 4.7042 55.5162 4.63268 55.2861 4.55161C55.0592 4.47214 54.8574 4.37201 54.6809 4.2528C54.5076 4.13041 54.3752 3.97941 54.2838 3.80139C54.1956 3.6202 54.1767 3.39767 54.2271 3.13383C54.2681 2.90177 54.3658 2.71262 54.517 2.56798C54.6715 2.42016 54.8527 2.31049 55.0592 2.23738C55.2688 2.16585 55.4894 2.12612 55.721 2.11658C55.9558 2.10386 56.1812 2.11976 56.3955 2.16108C56.6351 2.20877 56.8777 2.28506 57.1267 2.38996C57.3742 2.49169 57.5932 2.63474 57.7823 2.81594C57.9746 2.99872 58.1006 3.2276 58.1605 3.50258C58.1637 3.6345 58.1133 3.73464 58.0092 3.80139C57.9084 3.86974 57.8012 3.89358 57.6878 3.87133C57.6121 3.85861 57.5444 3.83 57.486 3.78232C57.4262 3.73623 57.3868 3.67901 57.3663 3.61066C57.3411 3.45807 57.2654 3.33569 57.1393 3.24191C57.0164 3.14495 56.8762 3.07025 56.717 3.01939C56.561 2.96852 56.4097 2.92879 56.2631 2.89859C56.1749 2.88269 56.0646 2.87157 55.9354 2.8668C55.8093 2.85885 55.6801 2.8668 55.5508 2.89223C55.4248 2.91448 55.3129 2.95899 55.2167 3.02574C55.1238 3.08932 55.0655 3.1831 55.0402 3.30549C55.015 3.45013 55.0497 3.57092 55.1474 3.66788C55.2483 3.76166 55.3901 3.83954 55.5761 3.90312C55.7604 3.96352 55.9621 4.02392 56.1812 4.0875C56.416 4.15584 56.6477 4.22737 56.8746 4.30366C57.1015 4.37995 57.3032 4.47532 57.4797 4.58976C57.6562 4.70102 57.7855 4.84407 57.8706 5.02209C57.9541 5.19693 57.9714 5.42104 57.921 5.69602C57.8706 5.97258 57.7603 6.18557 57.5932 6.33815C57.4293 6.49074 57.2339 6.59882 57.007 6.6624C56.78 6.72916 56.5421 6.76413 56.2947 6.76413C56.0504 6.76413 55.8219 6.74187 55.6076 6.70055C55.4311 6.66558 55.242 6.61154 55.0402 6.53525C54.8385 6.45895 54.6447 6.35882 54.4603 6.23643C54.2791 6.11881 54.1278 5.97258 54.0065 5.79774C53.8835 5.62449 53.8126 5.42581 53.7921 5.20011Z" fill="#720C68"/>
</svg>
