<svg width="200" height="200" viewBox="0 0 200 200" fill="none" xmlns="http://www.w3.org/2000/svg">
<mask id="mask0_598_193" style="mask-type:luminance" maskUnits="userSpaceOnUse" x="0" y="0" width="195" height="197">
<path d="M0 0H194.784V196.455H0V0Z" fill="white"/>
</mask>
<g mask="url(#mask0_598_193)">
<mask id="mask1_598_193" style="mask-type:luminance" maskUnits="userSpaceOnUse" x="0" y="0" width="195" height="197">
<path d="M97.3918 0C43.6018 0 0 43.9799 0 98.2277C0 152.479 43.6018 196.455 97.3918 196.455C151.178 196.455 194.784 152.479 194.784 98.2277C194.784 43.9799 151.178 0 97.3918 0Z" fill="white"/>
</mask>
<g mask="url(#mask1_598_193)">
<path d="M97.3919 0C43.6018 0 0 43.9799 0 98.2277C0 152.479 43.6018 196.455 97.3919 196.455C151.178 196.455 194.784 152.479 194.784 98.2277C194.784 43.9799 151.178 0 97.3919 0Z" stroke="white" stroke-width="6"/>
</g>
</g>
<mask id="mask2_598_193" style="mask-type:luminance" maskUnits="userSpaceOnUse" x="40" y="38" width="116" height="119">
<path d="M40.643 38.3728H155.386V156.627H40.643V38.3728Z" fill="white"/>
</mask>
<g mask="url(#mask2_598_193)">
<path d="M153.999 156.48C153.436 156.48 152.915 156.115 152.738 155.547C149.346 144.607 142.731 127.998 130.447 110.947C129.584 109.953 119.061 97.8737 116.094 92.8908C112.95 87.6098 110.393 82.313 110.905 70.9564C111.374 60.5138 109.251 53.0235 104.405 48.0486C99.8109 43.3279 92.7271 41.0749 83.3465 41.3292C79.7061 41.4325 76.2469 42.6882 73.6033 44.8697C73.2606 45.1518 72.9415 45.4419 72.6539 45.732C72.5908 45.7955 72.5238 45.8512 72.449 45.8988C72.2638 46.022 67.8749 48.9665 63.8642 50.997C63.218 51.3983 58.2105 54.3587 51.702 54.2395C50.981 54.2275 50.2837 54.1004 49.6257 53.862C47.8449 53.2262 46.2848 53.3692 45.2289 54.2673C44.0824 55.2368 43.6293 56.9733 43.9839 59.0237C44.0312 59.2979 44.0273 59.58 43.9682 59.8462C43.7948 60.625 43.0896 64.7457 46.009 69.2319C49.4563 74.5287 56.4849 78.248 66.8978 80.2865C67.5006 80.3461 70.814 80.7792 72.8902 83.211C74.1392 84.6733 74.6947 86.529 74.5371 88.7224V100.274C74.5371 101.009 73.9422 101.609 73.2133 101.609C72.4844 101.609 71.8895 101.009 71.8895 100.274V88.6708C71.8895 88.635 71.8895 88.6032 71.8935 88.5714C72.0077 87.0654 71.6768 85.8853 70.8849 84.9555C69.3759 83.1872 66.6417 82.9448 66.6141 82.9408C66.5629 82.9369 66.5117 82.9289 66.4605 82.921C55.2833 80.7434 47.6558 76.6307 43.7909 70.6981C40.4184 65.5007 41.1197 60.5853 41.364 59.3813C40.8794 56.413 41.6634 53.8103 43.5269 52.2248C45.3038 50.7149 47.8528 50.393 50.5161 51.3467C50.9062 51.4857 51.3198 51.5612 51.7532 51.5692C57.7614 51.6884 62.4616 48.736 62.5089 48.7042C62.5483 48.6804 62.5877 48.6605 62.6271 48.6367C66.1729 46.8485 70.1875 44.2101 70.8809 43.7451C71.204 43.4273 71.5546 43.1094 71.9289 42.7994C75.0256 40.2444 79.056 38.7742 83.2795 38.6589C93.4245 38.3768 101.166 40.908 106.3 46.177C111.685 51.7083 114.057 59.8542 113.553 71.0796C113.072 81.709 115.346 86.4376 118.363 91.5159C121.271 96.3995 132.365 109.099 132.476 109.226C132.503 109.258 132.527 109.29 132.551 109.326C145.071 126.686 151.812 143.61 155.264 154.748C155.48 155.455 155.094 156.202 154.397 156.421C154.263 156.465 154.129 156.48 153.999 156.48ZM94.7404 83.2985C96.8403 83.1912 100.717 82.6945 103.093 80.6004C107.549 76.6705 110.141 61.8569 107.427 55.8408C107.127 55.1653 106.339 54.8713 105.677 55.1772C105.011 55.4832 104.716 56.2739 105.019 56.9455C107.237 61.8688 104.944 75.4228 101.351 78.5897C98.5777 81.0375 91.0133 81.2441 87.1799 79.6149C85.9034 79.0745 84.8397 78.3632 84.0162 77.501C80.892 74.2347 81.4081 69.0094 82.393 65.2026C83.8311 59.6316 86.5495 54.2593 90.249 49.6698C90.71 49.0976 90.6272 48.2552 90.0559 47.7903C89.4886 47.3254 88.6573 47.4128 88.1964 47.985C84.2566 52.8725 81.3647 58.5906 79.8282 64.5351C78.1735 70.9445 78.9615 76.0705 82.1094 79.3566C83.1849 80.4812 84.5442 81.3991 86.1516 82.0786C88.0466 82.8812 90.706 83.3342 93.4599 83.3342C93.8854 83.3302 94.3149 83.3223 94.7404 83.2985ZM79.4067 52.1811C79.9228 51.6606 79.9228 50.8142 79.4067 50.2937C78.8906 49.7731 78.0514 49.7731 77.5353 50.2937C76.4873 51.3467 75.4275 51.8672 74.3795 51.8314C72.7326 51.7798 71.5034 50.4009 71.468 50.3612C70.9913 49.8089 70.16 49.7453 69.6084 50.2221C69.0529 50.7029 68.9898 51.5453 69.4626 52.1056C69.5454 52.201 71.4365 54.3904 74.2613 54.4977C74.3401 54.5017 74.411 54.5057 74.4859 54.5057C76.2233 54.5057 77.8741 53.7229 79.4067 52.1811Z" fill="white"/>
</g>
<mask id="mask3_598_193" style="mask-type:luminance" maskUnits="userSpaceOnUse" x="49" y="88" width="67" height="69">
<path d="M49.7203 88.7271H115.279V156.628H49.7203V88.7271Z" fill="white"/>
</mask>
<g mask="url(#mask3_598_193)">
<path d="M73.7334 156.482C73.5876 156.482 73.4418 156.458 73.296 156.41C72.6066 156.164 72.2441 155.405 72.4844 154.709C73.1306 152.838 73.6112 150.914 73.9106 148.991C74.151 147.457 73.6703 144.008 73.036 142.733C71.7398 140.122 69.5769 138.767 67.6267 137.786C65.6213 136.772 61.193 136.411 57.7141 136.411C56.6425 136.411 54.7002 135.878 53.7231 132.31C53.6286 131.964 53.4276 131.484 53.0218 131.154C50.918 129.469 50.0709 125.146 49.9251 124.295C48.9402 121.021 52.7145 118.637 55.1808 117.711C57.9111 116.273 59.1561 111.425 59.4043 109.668C59.4082 109.629 59.4161 109.589 59.424 109.549C60.2356 106.08 62.9541 103.219 66.3541 102.258C68.0679 101.773 69.6202 101.844 71.1213 101.912C71.6453 101.936 72.1811 101.964 72.7169 101.964C74.5134 101.964 76.834 101.3 77.5904 100.072C77.6653 99.9529 83.1337 91.0481 83.1337 91.0481C83.6025 90.2772 84.3866 89.7686 85.273 89.6493C86.1634 89.5301 87.0499 89.8162 87.7039 90.4321C89.8117 92.415 93.2629 97.2588 92.7153 107.439C92.672 108.27 93.0226 109.072 93.6806 109.637C107.486 121.518 113.12 143.102 115.247 154.908C115.377 155.635 114.9 156.327 114.183 156.458C113.466 156.593 112.777 156.108 112.647 155.385C110.582 143.929 105.145 123.012 91.9667 111.671C90.6745 110.558 89.985 108.969 90.0756 107.3C90.2411 104.157 90.1741 96.4124 85.8994 92.3872C85.8049 92.2958 85.6985 92.2918 85.6276 92.2997C85.5567 92.3077 85.4543 92.3435 85.3873 92.4547C85.3873 92.4547 79.9188 101.36 79.844 101.483C78.3114 103.974 74.6474 104.634 72.7208 104.634C72.1259 104.634 71.5546 104.606 71.007 104.582C69.5966 104.519 68.3792 104.459 67.0751 104.833C64.6048 105.528 62.6271 107.602 62.0203 110.113C61.8943 110.924 60.7084 117.918 56.3076 120.131C56.2643 120.155 56.217 120.175 56.1697 120.194C54.8263 120.691 52.0329 122.229 52.4703 123.56C52.49 123.628 52.5096 123.695 52.5215 123.763C52.8051 125.479 53.6601 128.261 54.6726 129.068C55.4369 129.683 55.9924 130.558 56.2761 131.607C56.5598 132.64 57.0877 133.748 57.7181 133.748C60.0662 133.748 65.8498 133.907 68.8125 135.402C71.0149 136.514 73.753 138.215 75.4038 141.545C76.3691 143.492 76.83 147.497 76.5306 149.412C76.2036 151.495 75.6875 153.573 74.9901 155.591C74.7932 156.14 74.281 156.482 73.7334 156.482ZM71.401 116.098C71.9171 115.577 71.9171 114.731 71.401 114.21C70.8849 113.69 70.0457 113.69 69.5296 114.21C68.7337 115.013 67.93 115.402 67.1578 115.386C65.9286 115.351 64.9949 114.31 64.9634 114.278C64.4866 113.725 63.6553 113.662 63.1038 114.139C62.5483 114.62 62.4813 115.462 62.958 116.022C63.1274 116.221 64.6758 117.965 67.0357 118.053C67.1027 118.057 67.1657 118.057 67.2287 118.057C68.7101 118.061 70.1127 117.401 71.401 116.098Z" fill="white"/>
</g>
<mask id="mask4_598_193" style="mask-type:luminance" maskUnits="userSpaceOnUse" x="41" y="0" width="112" height="33">
<path d="M41.5728 0H152.908V32.2617H41.5728V0Z" fill="white"/>
</mask>
<g mask="url(#mask4_598_193)">
<mask id="mask5_598_193" style="mask-type:luminance" maskUnits="userSpaceOnUse" x="41" y="0" width="112" height="33">
<path d="M57.5683 0H136.869C145.702 0 152.864 7.22402 152.864 16.1329C152.864 25.0417 145.702 32.2617 136.869 32.2617H57.5683C48.7353 32.2617 41.5728 25.0417 41.5728 16.1329C41.5728 7.22402 48.7353 0 57.5683 0Z" fill="white"/>
</mask>
<g mask="url(#mask5_598_193)">
<path d="M41.5728 0H152.908V32.2617H41.5728V0Z" fill="#720C68"/>
</g>
</g>
<mask id="mask6_598_193" style="mask-type:luminance" maskUnits="userSpaceOnUse" x="44" y="159" width="95" height="42">
<path d="M44.4291 159.35H138.894V200H44.4291V159.35Z" fill="white"/>
</mask>
<g mask="url(#mask6_598_193)">
<mask id="mask7_598_193" style="mask-type:luminance" maskUnits="userSpaceOnUse" x="44" y="159" width="95" height="42">
<path d="M118.742 200H64.6915C53.5616 200 44.5394 190.901 44.5394 179.675C44.5394 168.45 53.5616 159.35 64.6915 159.35H118.742C129.872 159.35 138.894 168.45 138.894 179.675C138.894 190.901 129.872 200 118.742 200Z" fill="white"/>
</mask>
<g mask="url(#mask7_598_193)">
<path d="M138.894 200H44.5867V159.35H138.894V200Z" fill="#720C68"/>
</g>
</g>
<mask id="mask8_598_193" style="mask-type:luminance" maskUnits="userSpaceOnUse" x="125" y="132" width="52" height="42">
<path d="M125.073 132.079H176.716V173.361H125.073V132.079Z" fill="white"/>
</mask>
<g mask="url(#mask8_598_193)">
<mask id="mask9_598_193" style="mask-type:luminance" maskUnits="userSpaceOnUse" x="125" y="132" width="52" height="42">
<path d="M156.252 173.361H145.678C134.375 173.361 125.211 164.122 125.211 152.722C125.211 141.322 134.375 132.079 145.678 132.079H156.252C167.556 132.079 176.716 141.322 176.716 152.722C176.716 164.122 167.556 173.361 156.252 173.361Z" fill="white"/>
</mask>
<g mask="url(#mask9_598_193)">
<path d="M176.716 173.361H125.231V132.079H176.716V173.361Z" fill="#720C68"/>
</g>
</g>
<mask id="mask10_598_193" style="mask-type:luminance" maskUnits="userSpaceOnUse" x="27" y="151" width="47" height="48">
<path d="M27.5313 151.796H73.9264V198.589H27.5313V151.796Z" fill="white"/>
</mask>
<g mask="url(#mask10_598_193)">
<mask id="mask11_598_193" style="mask-type:luminance" maskUnits="userSpaceOnUse" x="28" y="152" width="46" height="47">
<path d="M51.6586 198.24L28.4453 174.831L50.3743 152.714L73.5836 176.126L51.6586 198.24Z" fill="white"/>
</mask>
<g mask="url(#mask11_598_193)">
<path d="M51.6586 198.24L28.4453 174.831L50.3743 152.714L73.5836 176.126L51.6586 198.24Z" fill="#720C68"/>
</g>
</g>
<mask id="mask12_598_193" style="mask-type:luminance" maskUnits="userSpaceOnUse" x="124" y="125" width="76" height="72">
<path d="M124.356 125.348H200V196.555H124.356V125.348Z" fill="white"/>
</mask>
<g mask="url(#mask12_598_193)">
<mask id="mask13_598_193" style="mask-type:luminance" maskUnits="userSpaceOnUse" x="124" y="126" width="76" height="71">
<path d="M199.72 138.878L136.368 196.281L124.986 183.505L188.342 126.099L199.72 138.878Z" fill="white"/>
</mask>
<g mask="url(#mask13_598_193)">
<path d="M199.72 138.878L136.384 196.265L125.006 183.489L188.342 126.099L199.72 138.878Z" fill="#720C68"/>
</g>
</g>
<path d="M46.4382 179.578L45.2562 181.597C45.0986 181.883 44.8819 182.03 44.6101 182.042C44.3343 182.062 44.09 182.01 43.8694 181.883C43.637 181.744 43.4676 181.553 43.3651 181.311C43.2587 181.065 43.2784 180.81 43.4282 180.548L48.4081 171.965C48.5538 171.711 48.7587 171.564 49.0227 171.52C49.2945 171.48 49.5585 171.532 49.8106 171.679L53.057 173.586C53.9395 174.107 54.6014 174.711 55.0427 175.398C55.4839 176.09 55.7046 176.809 55.7046 177.56C55.7125 178.315 55.4997 179.066 55.0584 179.817C54.436 180.898 53.5613 181.549 52.4267 181.772C51.2999 182.002 50.0707 181.724 48.739 180.93L46.4382 179.578ZM49.7949 173.793L47.3522 177.989L49.653 179.34C50.4292 179.809 51.1265 179.984 51.749 179.865C52.3794 179.737 52.8719 179.368 53.2304 178.752C53.6165 178.096 53.7229 177.449 53.5456 176.813C53.3643 176.169 52.9034 175.621 52.1588 175.176L49.7949 173.793Z" fill="#CBCBCB"/>
<path d="M65.4718 190.36C65.7633 190.475 65.9524 190.662 66.0391 190.916C66.1337 191.171 66.1376 191.409 66.0549 191.632C65.98 191.83 65.8342 191.989 65.6136 192.109C65.393 192.224 65.1251 192.22 64.8099 192.093L57.9862 189.422C57.6473 189.283 57.4109 189.073 57.277 188.787C57.1509 188.512 57.1391 188.23 57.2455 187.944L60.7125 178.964C60.8149 178.69 61.0119 178.495 61.2956 178.376C61.5871 178.249 61.9023 178.257 62.2411 178.392L69.0649 181.062C69.3682 181.181 69.5613 181.348 69.648 181.571C69.7307 181.793 69.7307 182.016 69.648 182.238C69.5613 182.441 69.4037 182.612 69.1752 182.747C68.9546 182.874 68.6945 182.882 68.403 182.763L62.3987 180.41L61.2326 183.43L66.9216 185.655C67.2132 185.775 67.4023 185.953 67.489 186.196C67.5717 186.43 67.5717 186.657 67.489 186.879C67.4023 187.094 67.2526 187.257 67.0319 187.372C66.8192 187.479 66.567 187.475 66.2755 187.356L60.5864 185.131L59.4675 188.008L65.4718 190.36Z" fill="#CBCBCB"/>
<path d="M82.5478 184.548C82.8827 184.624 83.1191 184.779 83.257 185.009C83.391 185.244 83.4343 185.478 83.3831 185.709C83.3397 185.943 83.2018 186.138 82.9733 186.297C82.7409 186.456 82.4572 186.499 82.1223 186.424L78.7656 185.677L76.8745 194.387C76.7997 194.725 76.6303 194.943 76.3702 195.039C76.1063 195.142 75.8502 195.17 75.598 195.118C75.3538 195.062 75.141 194.935 74.9519 194.737C74.7628 194.534 74.7037 194.264 74.7786 193.926L76.6854 185.216L73.3445 184.469C72.9978 184.385 72.7653 184.23 72.6511 184.008C72.5447 183.777 72.5132 183.543 72.5565 183.308C72.6077 183.078 72.7338 182.879 72.9347 182.72C73.1435 182.553 73.4233 182.51 73.77 182.593L82.5478 184.548Z" fill="#CBCBCB"/>
<path d="M93.946 194.866C93.8514 194.516 93.9302 194.238 94.1824 194.023C94.4345 193.801 94.7182 193.685 95.0334 193.673C95.2855 193.673 95.5061 193.733 95.6952 193.848C95.8922 193.956 96.0183 194.13 96.0735 194.373C96.2192 194.766 96.4832 195.068 96.8614 195.279C97.2396 195.493 97.6573 195.628 98.1222 195.692C98.5949 195.756 99.0283 195.787 99.4302 195.787C99.7532 195.779 100.108 195.748 100.486 195.692C100.864 195.628 101.227 195.529 101.573 195.39C101.92 195.255 102.196 195.068 102.409 194.834C102.629 194.591 102.732 194.285 102.724 193.912C102.712 193.511 102.539 193.22 102.204 193.038C101.877 192.859 101.463 192.736 100.959 192.672C100.455 192.601 99.9187 192.553 99.3514 192.529C98.7289 192.497 98.0985 192.442 97.4603 192.354C96.8299 192.271 96.2508 192.124 95.7268 191.909C95.1988 191.699 94.7694 191.385 94.4345 190.971C94.1075 190.55 93.9341 189.986 93.9145 189.287C93.9026 188.651 94.0484 188.102 94.3557 187.634C94.6709 187.157 95.0806 186.771 95.5849 186.473C96.0971 186.179 96.6566 185.949 97.2554 185.79C97.8543 185.631 98.4413 185.547 99.0204 185.535C99.6508 185.516 100.317 185.575 101.022 185.71C101.735 185.837 102.385 186.088 102.976 186.457C103.563 186.819 104.008 187.332 104.316 187.999C104.418 188.349 104.351 188.643 104.111 188.873C103.878 189.108 103.606 189.231 103.291 189.239C103.09 189.239 102.897 189.199 102.708 189.112C102.527 189.028 102.401 188.905 102.33 188.746C102.172 188.357 101.904 188.075 101.526 187.904C101.156 187.725 100.754 187.614 100.313 187.57C99.8714 187.53 99.4617 187.514 99.0835 187.522C98.8313 187.522 98.5358 187.554 98.201 187.618C97.8621 187.673 97.5391 187.761 97.2239 187.888C96.9087 188.015 96.6447 188.19 96.4359 188.412C96.2232 188.635 96.1207 188.913 96.1207 189.239C96.1286 189.632 96.2941 189.93 96.6093 190.129C96.9245 190.32 97.3381 190.447 97.8543 190.51C98.3664 190.574 98.9259 190.618 99.5247 190.638C100.163 190.693 100.801 190.749 101.432 190.812C102.062 190.876 102.637 191.011 103.165 191.21C103.689 191.401 104.111 191.699 104.426 192.1C104.741 192.505 104.906 193.077 104.93 193.816C104.938 194.571 104.773 195.195 104.426 195.692C104.087 196.181 103.642 196.574 103.086 196.868C102.539 197.154 101.944 197.369 101.306 197.504C100.663 197.643 100.053 197.719 99.4774 197.742C99.0047 197.75 98.4846 197.715 97.9173 197.631C97.35 197.548 96.7984 197.401 96.2626 197.186C95.7268 196.975 95.2461 196.677 94.8285 196.296C94.4069 195.915 94.1114 195.438 93.946 194.866Z" fill="#CBCBCB"/>
<path d="M117.177 183.526C117.437 183.487 117.697 183.522 117.949 183.638C118.209 183.745 118.375 183.956 118.438 184.273L120.25 193.969C120.313 194.299 120.242 194.569 120.045 194.78C119.856 194.994 119.628 195.121 119.368 195.161C119.104 195.217 118.847 195.185 118.595 195.066C118.351 194.939 118.201 194.712 118.138 194.382L117.429 190.615L112.04 191.648L112.749 195.415C112.812 195.765 112.749 196.043 112.56 196.242C112.37 196.433 112.154 196.552 111.913 196.592C111.649 196.647 111.385 196.607 111.125 196.48C110.873 196.353 110.716 196.131 110.653 195.813L108.84 186.117C108.777 185.799 108.836 185.541 109.014 185.338C109.183 185.14 109.404 185.016 109.676 184.973C109.936 184.921 110.196 184.953 110.448 185.068C110.708 185.187 110.873 185.402 110.936 185.72L111.709 189.884L117.098 188.851L116.326 184.687C116.263 184.369 116.318 184.11 116.499 183.908C116.688 183.709 116.913 183.582 117.177 183.526Z" fill="#CBCBCB"/>
<path d="M135.753 183.599C136.171 184.743 136.309 185.832 136.163 186.857C136.013 187.886 135.611 188.796 134.949 189.591C134.295 190.385 133.409 191.001 132.286 191.435C131.159 191.86 130.084 191.999 129.055 191.848C128.023 191.689 127.109 191.276 126.313 190.608C125.525 189.933 124.923 189.019 124.501 187.874C124.072 186.73 123.934 185.641 124.091 184.6C124.241 183.563 124.651 182.645 125.321 181.85C125.994 181.055 126.889 180.447 128.015 180.022C129.138 179.589 130.206 179.45 131.214 179.609C132.231 179.76 133.137 180.177 133.925 180.865C134.713 181.544 135.32 182.454 135.753 183.599ZM131.624 189.654C132.349 189.38 132.916 188.979 133.326 188.446C133.744 187.906 133.992 187.286 134.067 186.587C134.138 185.887 134.027 185.148 133.736 184.362C133.44 183.579 133.035 182.947 132.522 182.47C132.006 181.993 131.419 181.691 130.757 181.564C130.096 181.437 129.402 181.512 128.677 181.787C127.952 182.065 127.377 182.47 126.959 183.01C126.538 183.551 126.286 184.171 126.203 184.87C126.132 185.569 126.239 186.313 126.534 187.095C126.826 187.882 127.231 188.51 127.747 188.987C128.271 189.464 128.866 189.766 129.528 189.893C130.198 190.012 130.899 189.933 131.624 189.654Z" fill="#CBCBCB"/>
<path d="M143.789 182.344L144.971 184.362C145.129 184.648 145.148 184.919 145.034 185.173C144.916 185.419 144.75 185.602 144.53 185.729C144.297 185.868 144.049 185.928 143.789 185.904C143.525 185.884 143.32 185.741 143.175 185.475L138.195 176.892C138.049 176.638 138.021 176.379 138.116 176.113C138.203 175.851 138.368 175.644 138.62 175.493L141.867 173.586C142.749 173.069 143.592 172.783 144.404 172.728C145.211 172.676 145.94 172.835 146.594 173.204C147.256 173.578 147.808 174.138 148.249 174.889C148.868 175.97 148.994 177.063 148.627 178.163C148.269 179.256 147.422 180.198 146.09 180.993L143.789 182.344ZM140.432 176.558L142.875 180.754L145.176 179.403C145.952 178.938 146.441 178.402 146.642 177.798C146.85 177.186 146.776 176.57 146.421 175.954C146.031 175.298 145.515 174.897 144.877 174.746C144.234 174.587 143.541 174.73 142.796 175.175L140.432 176.558Z" fill="#CBCBCB"/>
<mask id="mask14_598_193" style="mask-type:luminance" maskUnits="userSpaceOnUse" x="162" y="142" width="26" height="27">
<path d="M162.682 142.64H187.897V168.071H162.682V142.64Z" fill="white"/>
</mask>
<g mask="url(#mask14_598_193)">
<mask id="mask15_598_193" style="mask-type:luminance" maskUnits="userSpaceOnUse" x="135" y="116" width="61" height="62">
<path d="M135.919 152.562L167.587 116.645L195.847 141.993L164.183 177.91L135.919 152.562Z" fill="white"/>
</mask>
<g mask="url(#mask15_598_193)">
<mask id="mask16_598_193" style="mask-type:luminance" maskUnits="userSpaceOnUse" x="135" y="116" width="61" height="62">
<path d="M135.919 152.562L167.587 116.645L195.847 141.993L164.183 177.91L135.919 152.562Z" fill="white"/>
</mask>
<g mask="url(#mask16_598_193)">
<mask id="mask17_598_193" style="mask-type:luminance" maskUnits="userSpaceOnUse" x="155" y="134" width="35" height="36">
<path d="M155.39 155.654L174.068 134.47L189.969 148.728L171.291 169.915L155.39 155.654Z" fill="white"/>
</mask>
<g mask="url(#mask17_598_193)">
<path d="M165.019 155.932C165.219 159.135 162.887 163.578 168.005 166.685C173.225 169.848 177.583 162.564 180.352 159.219C181.83 157.438 189.43 151.494 187.121 146.904C185.1 142.891 181.235 143.058 176.081 143.94C171.476 144.723 167.162 142.251 164.388 145.458C161.788 148.466 164.896 153.97 165.019 155.932Z" fill="#CBCBCB"/>
</g>
</g>
</g>
</g>
<mask id="mask18_598_193" style="mask-type:luminance" maskUnits="userSpaceOnUse" x="146" y="154" width="14" height="12">
<path d="M146.545 154.848H159.656V165.02H146.545V154.848Z" fill="white"/>
</mask>
<g mask="url(#mask18_598_193)">
<mask id="mask19_598_193" style="mask-type:luminance" maskUnits="userSpaceOnUse" x="135" y="116" width="61" height="62">
<path d="M135.919 152.563L167.587 116.646L195.847 141.993L164.183 177.911L135.919 152.563Z" fill="white"/>
</mask>
<g mask="url(#mask19_598_193)">
<mask id="mask20_598_193" style="mask-type:luminance" maskUnits="userSpaceOnUse" x="135" y="116" width="61" height="62">
<path d="M135.919 152.563L167.587 116.646L195.847 141.993L164.183 177.911L135.919 152.563Z" fill="white"/>
</mask>
<g mask="url(#mask20_598_193)">
<path d="M153.266 155.738C156.757 155.742 159.519 157.625 159.44 159.95C159.357 162.27 156.465 164.15 152.979 164.146C149.488 164.142 146.726 162.255 146.805 159.934C146.888 157.613 149.779 155.734 153.266 155.738Z" fill="#CBCBCB"/>
</g>
</g>
</g>
<mask id="mask21_598_193" style="mask-type:luminance" maskUnits="userSpaceOnUse" x="145" y="140" width="15" height="12">
<path d="M145.536 140.606H159.656V151.796H145.536V140.606Z" fill="white"/>
</mask>
<g mask="url(#mask21_598_193)">
<mask id="mask22_598_193" style="mask-type:luminance" maskUnits="userSpaceOnUse" x="135" y="116" width="61" height="62">
<path d="M135.919 152.563L167.587 116.646L195.847 141.993L164.183 177.911L135.919 152.563Z" fill="white"/>
</mask>
<g mask="url(#mask22_598_193)">
<mask id="mask23_598_193" style="mask-type:luminance" maskUnits="userSpaceOnUse" x="135" y="116" width="61" height="62">
<path d="M135.919 152.563L167.587 116.646L195.847 141.993L164.183 177.911L135.919 152.563Z" fill="white"/>
</mask>
<g mask="url(#mask23_598_193)">
<path d="M154.621 141.719C158.163 143.396 160.149 146.586 159.054 148.836C157.954 151.089 154.192 151.553 150.646 149.873C147.104 148.192 145.119 145.005 146.218 142.752C147.313 140.499 151.076 140.038 154.621 141.719Z" fill="#CBCBCB"/>
</g>
</g>
</g>
<mask id="mask24_598_193" style="mask-type:luminance" maskUnits="userSpaceOnUse" x="156" y="127" width="12" height="15">
<path d="M156.631 127.382H167.725V141.624H156.631V127.382Z" fill="white"/>
</mask>
<g mask="url(#mask24_598_193)">
<mask id="mask25_598_193" style="mask-type:luminance" maskUnits="userSpaceOnUse" x="135" y="116" width="61" height="62">
<path d="M135.919 152.563L167.587 116.646L195.847 141.993L164.183 177.911L135.919 152.563Z" fill="white"/>
</mask>
<g mask="url(#mask25_598_193)">
<mask id="mask26_598_193" style="mask-type:luminance" maskUnits="userSpaceOnUse" x="135" y="116" width="61" height="62">
<path d="M135.919 152.563L167.587 116.646L195.847 141.993L164.183 177.911L135.919 152.563Z" fill="white"/>
</mask>
<g mask="url(#mask26_598_193)">
<path d="M165.472 131.872C167.477 135.174 167.465 138.929 165.44 140.257C163.415 141.584 160.145 139.979 158.136 136.676C156.13 133.374 156.142 129.619 158.167 128.292C160.192 126.965 163.462 128.566 165.472 131.872Z" fill="#CBCBCB"/>
</g>
</g>
</g>
<mask id="mask27_598_193" style="mask-type:luminance" maskUnits="userSpaceOnUse" x="171" y="125" width="11" height="16">
<path d="M171.76 125.348H181.845V140.606H171.76V125.348Z" fill="white"/>
</mask>
<g mask="url(#mask27_598_193)">
<mask id="mask28_598_193" style="mask-type:luminance" maskUnits="userSpaceOnUse" x="135" y="116" width="61" height="62">
<path d="M135.919 152.563L167.587 116.646L195.847 141.993L164.183 177.911L135.919 152.563Z" fill="white"/>
</mask>
<g mask="url(#mask28_598_193)">
<mask id="mask29_598_193" style="mask-type:luminance" maskUnits="userSpaceOnUse" x="135" y="116" width="61" height="62">
<path d="M135.919 152.563L167.587 116.646L195.847 141.993L164.183 177.911L135.919 152.563Z" fill="white"/>
</mask>
<g mask="url(#mask29_598_193)">
<path d="M180.971 132.202C181.455 135.922 179.907 139.259 177.512 139.657C175.12 140.058 172.784 137.368 172.299 133.649C171.815 129.929 173.363 126.592 175.758 126.19C178.154 125.793 180.486 128.483 180.971 132.202Z" fill="#CBCBCB"/>
</g>
</g>
</g>
<path d="M53.9436 5.47213C54.1091 5.44034 54.2825 5.45226 54.4637 5.50391C54.641 5.54762 54.7868 5.64299 54.905 5.79001L61.5238 14.4207C61.7129 14.6671 61.7917 14.8896 61.7602 15.0883C61.7287 15.279 61.6262 15.4499 61.4608 15.5969C61.2914 15.7479 61.0983 15.8432 60.8777 15.883C60.7201 15.9148 60.5467 15.9068 60.3576 15.8512C60.1764 15.7876 60.0267 15.6883 59.9006 15.5492L58.2774 13.3876L52.7775 14.4366L52.021 17.0433C51.9659 17.2579 51.8674 17.4168 51.7216 17.5201C51.5719 17.6274 51.4222 17.695 51.2646 17.7267C51.0636 17.7585 50.8588 17.7347 50.65 17.6632C50.449 17.5916 50.2875 17.4685 50.1614 17.2976C50.0354 17.1307 50.0117 16.9241 50.0826 16.6777L53.1399 6.13969C53.1911 5.91717 53.2818 5.76617 53.4078 5.67875C53.5418 5.58339 53.723 5.51584 53.9436 5.47213ZM54.4952 8.3967L53.2975 12.6087L57.127 11.8776L54.4952 8.3967Z" fill="#CBCBCB"/>
<path d="M73.0577 3.72214C73.0144 3.40426 73.0931 3.15789 73.2941 2.97511C73.4911 2.79629 73.7117 2.69695 73.956 2.67311C74.216 2.64132 74.4603 2.68901 74.6809 2.81616C74.9015 2.94332 75.0315 3.16187 75.0749 3.46783L75.6895 8.74479C75.8155 9.76203 75.7052 10.6799 75.3585 11.4945C75.0118 12.3012 74.476 12.9648 73.7511 13.4813C73.0262 13.99 72.1358 14.3078 71.0878 14.435C70.0556 14.5622 69.1258 14.4628 68.2984 14.133C67.4671 13.8072 66.7895 13.2906 66.2655 12.5912C65.7494 11.8839 65.4302 11.0177 65.3042 10.0004L64.6896 4.6917C64.6502 4.39766 64.7211 4.16321 64.9102 3.99235C65.0993 3.81354 65.3199 3.70625 65.5721 3.67446C65.8321 3.64267 66.0803 3.69036 66.3128 3.81751C66.5413 3.93672 66.6792 4.14732 66.7225 4.45329L67.3371 9.74614C67.4514 10.7236 67.8296 11.4747 68.4718 12.0031C69.1218 12.5237 69.9216 12.7263 70.8672 12.6071C71.8206 12.5038 72.5573 12.1144 73.0734 11.4468C73.5856 10.7793 73.7866 9.96071 73.6723 8.9832L73.0577 3.72214Z" fill="#CBCBCB"/>
<path d="M82.0865 1.95535C82.4529 1.93549 82.7523 2.09443 82.9847 2.43219L86.893 7.99524L90.2182 2.08251C90.3325 1.91562 90.4704 1.78052 90.6279 1.68515C90.7934 1.58978 90.9628 1.5421 91.1322 1.5421C91.3844 1.53415 91.609 1.60568 91.8099 1.76462C92.0187 1.92357 92.133 2.16198 92.1566 2.47987L92.5663 11.7463C92.586 12.0444 92.4875 12.2788 92.2669 12.4457C92.0542 12.6046 91.8296 12.6921 91.5893 12.7C91.3253 12.7119 91.0889 12.6483 90.8801 12.5093C90.6792 12.3622 90.5688 12.1397 90.5492 11.8417L90.2812 5.92897L87.8858 10.1251C87.7992 10.3079 87.6731 10.443 87.5076 10.5384C87.35 10.6258 87.1846 10.6735 87.0191 10.6814C86.8379 10.6933 86.6566 10.6496 86.4675 10.5542C86.2863 10.4589 86.1445 10.3317 86.042 10.1728L83.2999 6.26275L83.5678 12.1596C83.5875 12.4576 83.493 12.6921 83.2842 12.8589C83.0714 13.0179 82.8468 13.1053 82.6065 13.1133C82.3544 13.1252 82.118 13.0616 81.8974 12.9225C81.6846 12.7755 81.5703 12.553 81.5506 12.255L81.1409 3.00439C81.1173 2.71034 81.2079 2.46398 81.4088 2.27324C81.6058 2.07456 81.8343 1.96728 82.0865 1.95535Z" fill="#CBCBCB"/>
<path d="M97.9864 2.42337C97.9864 2.09753 98.0849 1.85912 98.2858 1.70812C98.4946 1.56109 98.731 1.4856 98.995 1.4856C99.2471 1.4856 99.4756 1.56507 99.6884 1.72401C99.909 1.87501 100.019 2.11343 100.019 2.43926L99.9563 11.7693C99.9563 12.0554 99.846 12.2779 99.6253 12.4369C99.4126 12.5879 99.1841 12.6594 98.9319 12.6594C98.668 12.6594 98.4316 12.5879 98.2228 12.4369C98.0218 12.2779 97.9233 12.0514 97.9233 11.7534L97.9864 2.42337Z" fill="#CBCBCB"/>
<path d="M114.446 10.5333C114.446 10.6526 114.422 10.7718 114.383 10.8989C114.339 11.0261 114.265 11.1453 114.162 11.2486C113.792 11.642 113.347 11.9917 112.823 12.2976C112.307 12.5956 111.767 12.8142 111.199 12.9652C110.632 13.1122 110.073 13.1718 109.529 13.14C108.394 13.0765 107.417 12.7784 106.598 12.2499C105.786 11.7095 105.179 10.9903 104.77 10.0883C104.368 9.17834 104.206 8.14918 104.281 7.00478C104.344 5.8723 104.632 4.89876 105.148 4.0802C105.66 3.25369 106.353 2.62983 107.228 2.20465C108.099 1.77153 109.092 1.58477 110.207 1.64835C110.971 1.69206 111.72 1.87087 112.444 2.18876C113.177 2.50665 113.788 2.95964 114.272 3.53979C114.501 3.80602 114.596 4.07225 114.556 4.33451C114.525 4.58882 114.406 4.79148 114.209 4.9385C114.009 5.0895 113.772 5.15307 113.5 5.12923C113.225 5.09744 112.968 4.9385 112.728 4.6524C112.381 4.23914 111.976 3.93318 111.515 3.73052C111.062 3.53184 110.593 3.42058 110.112 3.39674C109.407 3.357 108.773 3.48416 108.205 3.7782C107.638 4.07623 107.185 4.5173 106.85 5.09744C106.511 5.68156 106.322 6.369 106.283 7.16372C106.251 7.93858 106.365 8.63793 106.629 9.26179C106.901 9.88962 107.295 10.3903 107.811 10.7718C108.335 11.1453 108.946 11.344 109.639 11.3757C110.151 11.4075 110.668 11.3241 111.184 11.1214C111.708 10.9228 112.149 10.6287 112.507 10.2472L112.602 8.46707L110.065 8.32402C109.738 8.31607 109.501 8.2207 109.356 8.03792C109.218 7.84718 109.155 7.65248 109.167 7.44982C109.174 7.21935 109.261 7.0167 109.419 6.84583C109.584 6.66702 109.832 6.58357 110.159 6.59152L113.611 6.78225C114.02 6.8061 114.288 6.90941 114.414 7.10014C114.548 7.28293 114.611 7.5134 114.603 7.7995L114.446 10.5333Z" fill="#CBCBCB"/>
<path d="M130.781 9.45431C130.643 10.5908 130.285 11.5603 129.709 12.363C129.142 13.1696 128.405 13.7538 127.503 14.1273C126.609 14.4968 125.6 14.6081 124.477 14.4611C123.351 14.322 122.389 13.9683 121.593 13.3961C120.806 12.816 120.226 12.061 119.86 11.1391C119.49 10.2172 119.375 9.19205 119.513 8.0556C119.647 6.90325 120.006 5.92574 120.585 5.13102C121.16 4.3363 121.909 3.75615 122.823 3.38263C123.737 3.00117 124.753 2.88196 125.88 3.01706C127.003 3.16806 127.952 3.53363 128.732 4.11378C129.509 4.6979 130.076 5.44494 130.434 6.35489C130.801 7.26882 130.915 8.30196 130.781 9.45431ZM124.682 12.6968C125.415 12.7921 126.069 12.7087 126.636 12.4425C127.212 12.1683 127.684 11.755 128.055 11.2027C128.421 10.6424 128.654 9.97485 128.748 9.2C128.843 8.40528 128.78 7.69797 128.559 7.07014C128.338 6.44629 127.98 5.93766 127.487 5.54428C127.003 5.15486 126.392 4.9085 125.659 4.81313C124.942 4.72969 124.288 4.82108 123.689 5.08334C123.098 5.33765 122.618 5.74296 122.24 6.29132C121.869 6.84365 121.641 7.51519 121.546 8.30991C121.452 9.08476 121.515 9.78809 121.735 10.4239C121.964 11.0517 122.334 11.5643 122.838 11.9656C123.351 12.3709 123.965 12.6133 124.682 12.6968Z" fill="#CBCBCB"/>
<path d="M134.479 13.0007C134.455 12.6511 134.581 12.4047 134.857 12.2537C135.129 12.1067 135.417 12.059 135.724 12.1107C135.945 12.1544 136.134 12.2497 136.291 12.3968C136.449 12.5477 136.532 12.7385 136.544 12.969C136.595 13.3623 136.772 13.6921 137.079 13.9544C137.383 14.2206 137.745 14.4312 138.167 14.5902C138.596 14.7491 138.994 14.8683 139.364 14.9399C139.668 14.9955 139.995 15.0313 140.341 15.0511C140.696 15.075 141.051 15.0591 141.397 15.0034C141.744 14.9399 142.036 14.8207 142.28 14.6379C142.532 14.4591 142.69 14.2008 142.753 13.859C142.816 13.4895 142.713 13.1915 142.453 12.969C142.189 12.7385 141.827 12.5358 141.366 12.365C140.913 12.1981 140.436 12.0471 139.932 11.9199C139.364 11.761 138.789 11.5822 138.214 11.3795C137.647 11.1808 137.142 10.9305 136.701 10.6325C136.268 10.3265 135.937 9.94901 135.708 9.50396C135.488 9.05097 135.44 8.49467 135.566 7.83505C135.669 7.2549 135.913 6.78204 136.291 6.42044C136.677 6.0509 137.131 5.77672 137.647 5.59393C138.171 5.41512 138.722 5.31578 139.301 5.29194C139.888 5.26015 140.452 5.29988 140.988 5.4032C141.586 5.52241 142.193 5.71314 142.816 5.9754C143.434 6.22971 143.982 6.58733 144.455 7.04032C144.935 7.49729 145.25 8.06949 145.4 8.75692C145.408 9.08673 145.282 9.33707 145.022 9.50396C144.77 9.67483 144.502 9.73443 144.218 9.6788C144.029 9.64701 143.86 9.57549 143.714 9.45628C143.564 9.34104 143.466 9.198 143.415 9.02713C143.351 8.64566 143.162 8.3397 142.847 8.10525C142.54 7.86286 142.189 7.6761 141.791 7.54895C141.401 7.42179 141.023 7.32245 140.657 7.24695C140.436 7.20722 140.16 7.1794 139.837 7.16748C139.522 7.14761 139.199 7.16748 138.876 7.23106C138.561 7.28669 138.281 7.39795 138.041 7.56484C137.808 7.72379 137.662 7.95823 137.599 8.2642C137.536 8.6258 137.623 8.92779 137.867 9.17018C138.119 9.40462 138.474 9.59933 138.939 9.75827C139.4 9.90927 139.904 10.0603 140.452 10.2192C141.039 10.3901 141.618 10.5689 142.185 10.7596C142.753 10.9504 143.257 11.1888 143.698 11.4749C144.139 11.753 144.463 12.1107 144.675 12.5557C144.884 12.9928 144.927 13.5531 144.801 14.2405C144.675 14.9319 144.399 15.4644 143.982 15.8458C143.572 16.2273 143.084 16.4975 142.516 16.6565C141.949 16.8234 141.354 16.9108 140.735 16.9108C140.125 16.9108 139.554 16.8551 139.018 16.7518C138.576 16.6644 138.104 16.5293 137.599 16.3386C137.095 16.1478 136.61 15.8975 136.15 15.5915C135.696 15.2975 135.318 14.9319 135.015 14.4948C134.708 14.0617 134.53 13.565 134.479 13.0007Z" fill="#CBCBCB"/>
</svg>
