<svg width="40" height="40" viewBox="0 0 40 40" fill="none" xmlns="http://www.w3.org/2000/svg">
<path d="M28.6523 1.30859H33.9258L34.3945 1.34766L34.6875 1.42578L35 1.58203L35.2148 1.71875L35.4688 1.95312L35.625 2.12891L35.7812 2.38281L35.8789 2.59766L35.957 2.85156L35.9961 3.04688L36.0156 3.49609V23.75L36.1133 23.7891L36.3477 23.9258L36.7383 24.1992L36.9922 24.3945L37.2656 24.6289L37.4609 24.8047L37.7539 25.0781L37.7734 25.1367H37.8125L37.9492 25.293L38.125 25.4883L38.3398 25.7617L38.6133 26.1328L38.8867 26.5625L39.1211 26.9922L39.375 27.5195L39.5898 28.0859L39.7656 28.6719L39.9219 29.4336L39.9609 29.6875H40V31.582L39.9609 31.6211L39.8633 32.207L39.7461 32.7344L39.5898 33.2617L39.4336 33.6719L39.2773 34.0234L39.1016 34.3945L38.8672 34.8047L38.7305 35.0195L38.5742 35.2539L38.3398 35.5664L38.1836 35.7617L37.9688 36.0156L37.6562 36.3477L37.5195 36.4844L37.3633 36.6211L37.168 36.7969L36.9727 36.9531L36.582 37.2461L36.1914 37.5L35.7422 37.7539L35.3125 37.9688L34.9414 38.125L34.5117 38.2812L33.9648 38.4375L33.3008 38.5742L32.6758 38.6523L32.4023 38.6719H31.5625L30.918 38.6133L30.3516 38.5156L29.7266 38.3594L29.1406 38.1641L28.5547 37.9102L28.125 37.6953L27.793 37.5L27.3828 37.2266L27.0703 36.9922L26.7578 36.7383L26.4648 36.4648L26.0156 36.0156L25.8398 35.8008L25.6445 35.5664L25.4297 35.2734L25.2344 34.9805L25.0195 34.6289L24.7461 34.1016L24.5508 33.6719L24.3555 33.125L24.2188 32.6562L24.1016 32.1094L24.0234 31.6016L23.9844 31.1719V30.1367L24.0625 29.4336L24.1797 28.8281L24.3359 28.2617L24.5117 27.7539L24.7266 27.2656L24.8828 26.9531L25.0977 26.5625L25.3711 26.1328L25.6445 25.7617L25.8203 25.5469L25.9961 25.3516L26.1328 25.1953L26.3086 25L26.4844 24.8242H26.5234V24.7852L26.7383 24.6094L26.9531 24.4141L27.2656 24.1797L27.5977 23.9453L28.0859 23.6523L28.5352 23.418L28.9258 23.2422L29.3945 23.0664L29.9023 22.9102L30.5273 22.7734L31.0352 22.6953L31.4844 22.6562L31.9922 22.6367L31.9727 21.3477L28.5352 21.3281L28.3203 21.25L28.125 21.0742L28.0078 20.8594L27.9883 20.7812V20.5469L28.0664 20.332L28.1836 20.1758L28.3789 20.0391L28.5742 19.9805H31.9727V18.6719H28.6328L28.4375 18.6328L28.2812 18.5547L28.1445 18.4375L28.0273 18.2422L27.9883 18.125V17.8711L28.0664 17.6562L28.2422 17.4609L28.4375 17.3438L28.4961 17.3242L28.7891 17.3047H31.9531L31.9727 17.168L31.9922 15.9961H28.5352L28.3203 15.918L28.125 15.7422L28.0078 15.5078L27.9883 15.4492V15.2148L28.0664 15L28.1836 14.8438L28.3398 14.7266L28.457 14.668L28.5547 14.6484H31.9727V13.3594L31.9531 13.3398H28.5938L28.3398 13.2617L28.1641 13.125L28.0273 12.9102L27.9883 12.7734V12.5391L28.0664 12.3242L28.1836 12.168L28.3594 12.0508L28.4961 11.9922L28.7109 11.9727H31.0547L31.9727 11.9922V10.6641H28.5547L28.3594 10.6055L28.1836 10.4688L28.0664 10.3125L27.9883 10.1172V9.86328L28.0859 9.62891L28.2227 9.47266L28.3594 9.375L28.5352 9.31641H31.9727V8.10547L31.9922 8.00781H28.6523L28.4375 7.96875L28.2812 7.89062L28.1055 7.71484L28.0078 7.51953L27.9883 7.44141V7.20703L28.0859 6.95312L28.2031 6.81641L28.3984 6.69922L28.4961 6.66016L28.7109 6.64062H31.9531L31.9727 6.52344V5.35156L28.5547 5.33203L28.3398 5.25391L28.1836 5.13672L28.0664 4.98047L27.9883 4.78516V4.55078L28.0664 4.31641L28.2422 4.12109L28.457 4.00391L28.5742 3.98438H31.9727V3.51562L31.9922 2.67578H28.7305L28.4375 2.63672L28.2617 2.53906L28.1641 2.46094L28.0469 2.28516L27.9883 2.12891V1.875L28.0859 1.62109L28.2617 1.44531L28.457 1.34766L28.6523 1.30859ZM33.3398 2.67578V22.7539L33.4375 22.793L33.9062 22.8906L34.4531 23.0469L34.668 23.1055L34.6484 3.20312L34.5703 2.98828L34.4336 2.83203L34.2578 2.71484L34.1211 2.67578H33.3398ZM31.582 24.0039L30.9961 24.0625L30.332 24.1992L29.8242 24.3555L29.4141 24.5117L29.1016 24.6484L28.6719 24.8828L28.3203 25.0977L27.9688 25.3516L27.7539 25.5273L27.4805 25.7617L27.0508 26.1914L26.9141 26.3477L26.7578 26.543L26.4844 26.9141L26.3477 27.1289L26.1328 27.5L25.8594 28.0664L25.6836 28.5352L25.5469 28.9844L25.4492 29.4336L25.3711 29.9609L25.3516 30.2344V31.1328L25.4102 31.6602L25.5078 32.168L25.625 32.6172L25.7812 33.0664L25.9766 33.5156L26.1719 33.9062L26.4453 34.3555L26.6797 34.668L26.875 34.9219L27.0898 35.1562L27.2266 35.3125L27.4609 35.5469L27.6758 35.7227L27.8516 35.8789L28.2227 36.1523L28.5547 36.3672L28.9844 36.6016L29.3555 36.7773L29.8633 36.9727L30.2344 37.0898L30.7617 37.207L31.3086 37.2852L31.543 37.3047H32.4414L32.9883 37.2461L33.4961 37.1484L34.0625 36.9922L34.5312 36.8164L35 36.6016L35.4297 36.3672L35.8398 36.0938L36.1523 35.8594L36.4062 35.6445L36.6016 35.4688L36.9727 35.0977L37.1484 34.8828L37.2266 34.7852V34.7461H37.2656L37.5 34.4141L37.7148 34.082L37.9492 33.6523L38.1445 33.2422L38.3008 32.832L38.457 32.2852L38.5742 31.7383L38.6328 31.25L38.6523 30.9766V30.332L38.5938 29.7266L38.5156 29.2773L38.3789 28.7305L38.2031 28.2227L37.9883 27.7344L37.7734 27.3242L37.5 26.8945L37.3047 26.6211L37.1289 26.4062L36.9531 26.2109L36.8164 26.0547L36.4648 25.7031L36.0352 25.3516L35.7617 25.1562L35.3906 24.9219L35.0391 24.7266L34.5898 24.5117L34.0625 24.3164L33.5742 24.1797L33.0859 24.082L32.6367 24.0234L32.3438 24.0039H31.582Z" fill="white"/>
<path d="M8.49609 1.32812H8.82812L9.00391 1.40625L9.16016 1.52344L9.33594 1.79688L9.62891 2.42188L9.94141 3.16406L10.1562 3.73047L10.332 4.23828L10.5469 4.90234L10.7617 5.70312L10.9375 6.46484L11.0938 7.30469L11.2109 8.14453L11.2891 8.92578L11.3281 9.57031L11.3477 10.3125L11.3672 24.5117L11.6797 25.0781L12.168 25.957L12.4219 26.4062L12.6758 26.875L12.9492 27.3633L13.2031 27.8125L13.457 28.2812L13.6328 28.5938L14.0234 29.2969L14.0625 29.3555L14.5703 29.4727L15.0391 29.6289L15.3906 29.7852L15.7227 29.9609L16.0156 30.1562L16.25 30.332L16.5234 30.5664L16.8359 30.8789L17.0117 31.0938L17.2266 31.3867L17.4609 31.7773L17.6758 32.2266L17.8516 32.7539L17.9492 33.2031L18.0078 33.7305V34.2969L17.9492 34.7852L17.832 35.2734L17.6562 35.8008L17.4609 36.2109L17.2461 36.5625L17.0898 36.7773L16.8945 37.0312L16.6211 37.3242L16.3477 37.5781L16.0938 37.7734L15.7422 38.0078L15.2148 38.2812L14.8047 38.4375L14.2773 38.5742L13.75 38.6523L13.418 38.6719H13.1641L12.7148 38.6328L12.207 38.5352L11.6992 38.3789L11.25 38.1836L10.957 38.0273L10.6055 37.793L10.3516 37.5977L10.0586 37.3242L9.80469 37.0703L9.58984 36.7969L9.35547 36.4648L9.16016 36.1133L9.02344 35.8203V35.7812H8.98438L8.94531 35.8984L8.75 36.2891L8.55469 36.6016L8.28125 36.9727L8.20312 37.0703H8.16406L8.125 37.1484L7.77344 37.5L7.5 37.7148L7.22656 37.9102L6.81641 38.1445L6.44531 38.3203L6.05469 38.457L5.60547 38.5742L5.09766 38.6523L4.80469 38.6719H4.51172L4.04297 38.6328L3.53516 38.5352L3.02734 38.3789L2.57812 38.1836L2.1875 37.9688L1.85547 37.7344L1.64062 37.5586L1.40625 37.3438L1.15234 37.0898L0.976562 36.875L0.722656 36.5234L0.46875 36.0742L0.292969 35.6641L0.136719 35.1953L0 34.5898V33.418L0.0390625 33.2617L0.15625 32.7344L0.3125 32.2656L0.488281 31.875L0.664062 31.5625L0.820312 31.3281L0.976562 31.1133L1.19141 30.8594L1.34766 30.6836L1.50391 30.5469L1.73828 30.332L2.08984 30.0781L2.48047 29.8438L2.85156 29.668L3.10547 29.5703H3.16406L3.20312 29.4922L3.37891 29.1602L3.63281 28.7109L3.94531 28.1445L4.53125 27.0898L4.80469 26.6016L5.11719 26.0352L5.37109 25.5859L5.625 25.1172L5.87891 24.668L5.95703 24.5312L5.97656 24.4336V10.3125L5.99609 9.60938L6.05469 8.76953L6.13281 8.04688L6.25 7.22656L6.40625 6.40625L6.58203 5.64453L6.81641 4.80469L7.12891 3.84766L7.42188 3.08594L7.71484 2.40234L7.98828 1.81641L8.10547 1.60156L8.22266 1.46484L8.37891 1.36719L8.49609 1.32812ZM8.65234 3.67188L8.51562 4.02344L8.33984 4.51172L8.08594 5.29297L7.85156 6.17188L7.65625 7.05078L7.51953 7.89062L7.42188 8.69141L7.36328 9.49219L7.34375 9.92188V24.4141L7.55859 24.6484L7.69531 24.8047L7.87109 25L8.00781 25.1562L8.18359 25.3516L8.32031 25.5078L8.49609 25.7031L8.63281 25.8594L8.80859 26.0547L8.94531 26.2109L9.12109 26.4062L9.25781 26.5625L9.43359 26.7578L9.57031 26.9141L9.74609 27.1094L9.88281 27.2656L10.0586 27.4609L10.1953 27.6172L10.3711 27.8125L10.5078 27.9688L10.6836 28.1641L10.8203 28.3203L11.0156 28.5352L11.1523 28.6914L11.3867 28.9648L11.6211 29.2188L11.8945 29.5312L12.0898 29.4922L12.5 29.3945L12.4609 29.2578L12.207 28.8086L11.9531 28.3398L11.7773 28.0273L10.8984 26.4453L10.6445 25.9961L10.3906 25.5273L10.1367 25.0781L10.0391 24.8633L10 24.6094L9.98047 9.74609L9.92188 8.84766L9.84375 8.125L9.70703 7.22656L9.53125 6.36719L9.33594 5.60547L9.12109 4.88281L8.84766 4.08203L8.69141 3.69141L8.65234 3.67188ZM6.77734 25.8398L6.66016 26.0352L6.58203 26.1914L6.32812 26.6406L6.15234 26.9727L5.89844 27.4219L5.58594 27.9883L5.33203 28.4375L5.07812 28.9062L4.88281 29.2383L4.86328 29.3164L5.48828 29.3945L5.56641 29.375L5.70312 29.2383L5.83984 29.082L6.05469 28.8477V28.8086H6.09375L6.23047 28.6523L6.46484 28.3789L6.67969 28.1445V28.1055H6.71875L6.85547 27.9492L7.08984 27.6758L7.30469 27.4414V27.4023H7.34375L7.48047 27.2461L7.57812 27.1289V27.0898H7.61719L7.75391 26.9141L7.67578 26.7969L7.44141 26.543L7.30469 26.3867L7.07031 26.1133L6.81641 25.8398H6.77734ZM8.63281 27.9492L8.45703 28.1445L8.32031 28.3008L8.08594 28.5742L7.89062 28.7891L7.75391 28.9453L7.53906 29.1797L7.40234 29.3359L7.20703 29.5508L6.93359 29.8633L6.95312 29.9219L7.32422 30.1562L7.57812 30.3516L7.87109 30.6055L8.14453 30.8789L8.16406 30.918H8.20312L8.24219 30.9961L8.45703 31.2695L8.67188 31.6016L8.80859 31.8359L8.96484 32.168L9.02344 32.207L9.16016 31.9141L9.33594 31.582L9.49219 31.3477L9.72656 31.0352V30.9961H9.76562L9.86328 30.8789V30.8398L9.92188 30.8203L10.0586 30.6641L10.332 30.4102L10.6445 30.1758L10.5859 30.0781L10.5273 30H10.4883L10.4492 29.9219L10.2734 29.7266L10.1367 29.5703L9.92188 29.3359L9.74609 29.1211L9.47266 28.8281L9.33594 28.6719L9.16016 28.4766L8.98438 28.2617L8.84766 28.125L8.71094 27.9688L8.63281 27.9492ZM4.57031 30.6641L4.12109 30.7031L3.71094 30.8008L3.37891 30.918L3.06641 31.0742L2.83203 31.2109L2.59766 31.3867L2.40234 31.5625L2.28516 31.6602L2.14844 31.8164L1.95312 32.0703L1.75781 32.3828L1.60156 32.6953L1.46484 33.0859L1.38672 33.418L1.34766 33.7695V34.2578L1.40625 34.668L1.50391 35.0391L1.66016 35.4297L1.85547 35.7812L2.07031 36.0742L2.24609 36.2695L2.51953 36.543L2.87109 36.7969L3.18359 36.9727L3.49609 37.1094L3.78906 37.207L4.17969 37.2852L4.35547 37.3047H4.98047L5.37109 37.2461L5.72266 37.1484L6.09375 36.9922L6.42578 36.8164L6.75781 36.582L6.99219 36.3672L7.1875 36.1719L7.44141 35.8398L7.61719 35.5273L7.77344 35.1953L7.89062 34.8242L7.96875 34.4141L7.98828 34.1406V33.8281L7.94922 33.4766L7.89062 33.1836L7.79297 32.8516L7.63672 32.5L7.48047 32.207L7.28516 31.9336L7.10938 31.7188H7.07031L7.03125 31.6406L6.79688 31.4258L6.50391 31.2109L6.19141 31.0352L5.85938 30.8789L5.48828 30.7617L5.19531 30.7031L4.6875 30.6641H4.57031ZM13.2617 30.6641L12.793 30.7031L12.3047 30.8203L11.9141 30.9766L11.6211 31.1328L11.3867 31.2891L11.1719 31.4648L10.9375 31.6797V31.7188L10.8789 31.7383L10.7422 31.8945L10.5078 32.2266L10.2734 32.6758L10.1367 33.0664L10.0586 33.3984L10.0195 33.7109V34.3164L10.0781 34.707L10.1953 35.1172L10.332 35.4297L10.5078 35.7617L10.7031 36.0352L10.8789 36.2305L11.0156 36.3867L11.2109 36.5625L11.5625 36.8164L12.0117 37.0508L12.3242 37.168L12.7344 37.2656L13.0078 37.3047H13.6328L14.0234 37.2461L14.3164 37.168L14.6875 37.0312L15.0586 36.8359L15.3125 36.6602L15.5078 36.5039L15.7031 36.3281L15.9375 36.0742L16.1719 35.7422L16.3477 35.4102L16.5039 35L16.6016 34.6094L16.6406 34.375L16.6602 33.9062L16.6211 33.4961L16.5234 33.0469L16.3867 32.6758L16.2305 32.3633L16.0547 32.0703L15.8008 31.7578L15.5273 31.4844L15.1953 31.2305L14.8242 31.0156L14.4727 30.8594L14.0625 30.7422L13.7109 30.6836L13.2617 30.6641Z" fill="white"/>
<path d="M19.6875 1.30859H20L20.4297 1.34766L20.8789 1.44531L21.1914 1.54297L21.4844 1.66016L21.8164 1.81641L22.168 2.03125L22.4414 2.22656L22.6367 2.38281L22.8516 2.57812L23.0078 2.71484L23.1641 2.87109L23.3008 3.02734L23.5352 3.30078L23.7695 3.61328L24.082 4.08203L24.3164 4.49219L24.5508 4.94141L24.8047 5.50781L25 6.03516L25.1758 6.58203L25.332 7.16797L25.4688 7.8125L25.5859 8.57422L25.6641 9.39453L25.6836 9.72656V10.9375L25.625 11.7383L25.5273 12.5L25.4297 13.0469L25.2734 13.7305L25.0781 14.3945L24.8633 15L24.6484 15.5078L24.4336 15.957L24.1992 16.3867L23.9062 16.8555L23.6523 17.207L23.4766 17.4219L23.3008 17.6172L23.1641 17.7734L22.8516 18.0859H22.8125V18.125L22.5977 18.3008L22.4805 18.3984L22.4219 18.6719L21.875 21.9531V22.1289L22.3242 26.6211V27.0898L22.2266 27.5781L22.1094 27.8711L21.9336 28.2031L21.7578 28.4375L21.582 28.6328L21.3867 28.8086L21.0547 29.0234L20.7617 29.1602L20.4688 29.2578L20.0391 29.3359H19.6289L19.1992 29.2578L18.8477 29.1406L18.5156 28.9648L18.2812 28.7891L18.0859 28.6133L17.9492 28.4766L17.7734 28.2422L17.6367 28.0273L17.5 27.7148L17.4023 27.4023L17.3438 27.0117V26.6992L17.5977 24.1406L17.793 22.1875V21.9141L17.3047 18.9648L17.2266 18.4766L17.1875 18.3789L16.9922 18.2227L16.6992 17.9492L16.3672 17.6172L16.1914 17.4023L15.9961 17.168L15.7617 16.8359L15.5078 16.4258L15.3125 16.0742L15.1172 15.7031L14.9023 15.2148L14.6484 14.5508L14.4336 13.8477L14.2578 13.1055L14.1602 12.5781L14.0625 11.8555L14.0039 11.1914L13.9844 10.8008V9.84375L14.0234 9.19922L14.082 8.61328L14.1797 7.96875L14.2969 7.36328L14.4727 6.66016L14.7266 5.87891L14.9609 5.29297L15.293 4.60938L15.5664 4.12109L15.8398 3.71094L16.0547 3.41797L16.3086 3.10547L16.5234 2.87109L16.9141 2.48047L17.1289 2.30469L17.4219 2.08984L17.793 1.85547L18.0859 1.69922L18.4766 1.54297L18.8477 1.42578L19.2578 1.34766L19.6875 1.30859ZM19.5508 2.67578L19.1992 2.73438L18.7891 2.87109L18.4766 3.02734L18.2227 3.18359L18.0078 3.33984L17.7344 3.57422L17.3633 3.94531L17.1484 4.21875L16.9531 4.47266L16.7188 4.84375L16.5234 5.17578L16.3672 5.48828L16.1914 5.85938L16.0156 6.30859L15.7812 7.01172L15.625 7.61719L15.5273 8.125L15.4492 8.61328L15.3906 9.08203L15.3516 9.70703V10.9766L15.3906 11.5625L15.4883 12.3242L15.5859 12.8516L15.7227 13.4375L15.9375 14.1406L16.1523 14.707L16.4062 15.2539L16.6016 15.625L16.8555 16.0352L17.0898 16.3672L17.2656 16.582L17.4414 16.7773L17.5781 16.9336L17.7344 17.0898L17.9492 17.2656L18.2031 17.4609L18.6133 17.6953L18.9258 17.832L19.2773 17.9297L19.5117 17.9688L19.7266 17.9883H19.9609L20.3711 17.9297L20.6641 17.8516L21.0547 17.6953L21.3672 17.5195L21.6992 17.2852L21.9727 17.0508L22.2852 16.7383L22.4609 16.5234L22.5391 16.4258V16.3867H22.5781L22.793 16.0742L23.0273 15.7031L23.2812 15.2344L23.5156 14.7266L23.7695 14.043L23.9453 13.457L24.082 12.8711L24.1992 12.2461L24.2773 11.6211L24.3164 11.0938L24.3359 10.6055V10.0391L24.2969 9.29688L24.2188 8.57422L24.1016 7.87109L23.9258 7.12891L23.7109 6.44531L23.5547 6.03516L23.3594 5.58594L23.125 5.11719L22.832 4.62891L22.5977 4.29688L22.4219 4.08203L22.207 3.82812L21.9141 3.53516L21.6406 3.32031L21.3672 3.125L21.0547 2.94922L20.6641 2.79297L20.3711 2.71484L20.1172 2.67578H19.5508ZM18.7109 19.1797L19.1602 21.8555V22.168L19.043 23.3203L18.8867 24.8828L18.7695 26.0742L18.7109 26.6406V27.0312L18.7695 27.2461L18.8867 27.4805L19.0234 27.6562L19.2578 27.832L19.4727 27.9297L19.6484 27.9688H20.0195L20.293 27.8906L20.5273 27.7539L20.7031 27.5977L20.8398 27.4023L20.9375 27.168L20.9766 26.9141L20.957 26.543L20.7031 24.043L20.5078 22.0898V21.9141L20.957 19.2188V19.1797L20.4297 19.2773L20.0977 19.3164H19.5703L19.1211 19.2578L18.7109 19.1797Z" fill="white"/>
<path d="M31.8164 29.9805H32.1875L32.5195 30.0391L32.793 30.1367L33.125 30.3125L33.3398 30.4883L33.5547 30.7031L33.6914 30.8984L33.8281 31.1328L33.9258 31.3672V31.4062L34.1211 31.4648L34.4141 31.6211L34.6484 31.7969L34.8828 32.0312L35.0781 32.3047L35.2148 32.5977L35.3125 32.9297L35.3516 33.2422L35.332 33.5938L35.2734 33.8867L35.1562 34.1992L34.9805 34.4922L34.8047 34.707L34.668 34.8438L34.3945 35.0391L34.082 35.1953L33.7695 35.293L33.4961 35.332H30.4688L30.1367 35.2734L29.8242 35.1562L29.5312 35L29.2773 34.7852L29.1211 34.6289L28.9258 34.3555L28.7695 34.0234L28.6719 33.6523L28.6523 33.5156V33.125L28.7305 32.7344L28.8672 32.4023L29.0234 32.1484L29.1992 31.9336L29.3555 31.7773L29.6094 31.6016L29.9219 31.4453L30.0586 31.3867L30.293 30.918L30.4492 30.7031L30.625 30.5078L30.8203 30.3516L31.0352 30.2148L31.2891 30.0977L31.543 30.0195L31.8164 29.9805ZM31.9336 31.3281L31.7578 31.3672L31.5625 31.4844L31.4453 31.6211L31.3672 31.7969L31.3086 32.168L31.1914 32.4023L31.1328 32.4609V32.5L31.0547 32.5391L30.8008 32.6367L30.4492 32.6953L30.293 32.7734L30.2344 32.8125V32.8516H30.1953V32.8906H30.1562L30.0391 33.125L30.0195 33.1836V33.457L30.0977 33.6719L30.2539 33.8477L30.4492 33.9453L30.6445 33.9844H33.3594L33.5547 33.9453L33.7305 33.8477L33.8281 33.7695L33.9453 33.5742L33.9844 33.4375V33.2227L33.9258 33.0469L33.8477 32.9102L33.75 32.8125L33.5938 32.7148L33.4766 32.6758L33.1641 32.6367L32.9297 32.5195L32.793 32.3828L32.6953 32.1875L32.6367 31.8164L32.5 31.543L32.3242 31.4062L32.0703 31.3281H31.9336Z" fill="white"/>
<path d="M4.64844 31.9727L5.07812 32.0117L5.39062 32.1094L5.70312 32.2656L5.95703 32.4414L6.09375 32.5586L6.23047 32.7148L6.42578 33.0078L6.5625 33.3008L6.64062 33.5742L6.67969 33.8086V34.1797L6.60156 34.5703L6.48438 34.8828L6.28906 35.1953L6.05469 35.4492L5.87891 35.6055L5.625 35.7617L5.37109 35.8789L5.09766 35.957L4.92188 35.9961H4.41406L4.0625 35.918L3.73047 35.7812L3.45703 35.6055L3.22266 35.3906L3.04688 35.1953L2.89062 34.9414L2.77344 34.6875L2.69531 34.4336L2.65625 34.1992V33.7695L2.71484 33.4766L2.8125 33.1836L2.98828 32.8711L3.18359 32.6172L3.32031 32.4805L3.61328 32.2656L3.92578 32.1094L4.25781 32.0117L4.64844 31.9727ZM4.53125 33.3398L4.33594 33.418L4.17969 33.5352L4.0625 33.7109L4.02344 33.8477V34.1406L4.10156 34.3359L4.27734 34.5312L4.47266 34.6289L4.72656 34.6484L4.90234 34.6094L5.09766 34.4922L5.23438 34.3359L5.3125 34.1211V33.8477L5.21484 33.6133L5.13672 33.5156L4.96094 33.3984L4.80469 33.3398H4.53125Z" fill="white"/>
<path d="M13.3008 31.9727L13.75 32.0117L14.0625 32.1094L14.375 32.2656L14.5703 32.4023L14.8047 32.6172L14.9414 32.7734L15.1367 33.0859L15.2539 33.3789L15.332 33.7109L15.3516 33.8867V34.082L15.293 34.4727L15.1953 34.7656L15.0586 35.0391L14.9023 35.2539L14.7266 35.4492L14.5703 35.5859L14.2969 35.7617L13.9844 35.8984L13.5938 35.9961H13.0859L12.7344 35.918L12.4414 35.8008L12.207 35.6641L12.0117 35.5078L11.7773 35.2734L11.6016 35.0195L11.4453 34.707L11.3672 34.4531L11.3281 34.2383V33.7305L11.4258 33.3203L11.6016 32.9492L11.7578 32.7344L11.9336 32.5391L12.1094 32.3828L12.3828 32.207L12.6953 32.0703L12.9297 32.0117L13.3008 31.9727ZM13.2031 33.3398L13.0273 33.3984L12.8516 33.5352L12.7344 33.7109L12.6758 33.9258V34.0625L12.7539 34.3164L12.8516 34.4531L13.0078 34.5703L13.1445 34.6289L13.3984 34.6484L13.5547 34.6094L13.7109 34.5312L13.8477 34.4141L13.9258 34.2773L13.9844 34.1016V33.8867L13.9258 33.7109L13.8281 33.5547L13.6719 33.418L13.4766 33.3398H13.2031Z" fill="white"/>
<path d="M31.9336 25.9766L32.2852 25.9961L32.5781 26.0742L32.8906 26.2305L33.1445 26.4258L33.2812 26.5625L33.457 26.8164L33.5938 27.1094L33.6523 27.3242L33.6719 27.4609V27.8711L33.6133 28.1445L33.4961 28.4375L33.3594 28.6523L33.1836 28.8477L32.9883 29.0234L32.7148 29.1797L32.4609 29.2773L32.168 29.3359H31.8164L31.4648 29.2578L31.1914 29.1406L30.918 28.9453L30.6836 28.7109L30.5078 28.4375L30.4102 28.2227L30.332 27.9297L30.3125 27.7734V27.5391L30.3711 27.207L30.4688 26.9531L30.5859 26.7383L30.7227 26.5625L30.9766 26.3086L31.2695 26.1328L31.5234 26.0352L31.6992 25.9961L31.9336 25.9766ZM31.8945 27.3438L31.7773 27.4219L31.6992 27.5195L31.6797 27.5781V27.7344L31.7383 27.8516L31.8359 27.9492L32.0312 27.9883L32.207 27.9102L32.2852 27.8125L32.3242 27.7148L32.3047 27.5391L32.1875 27.3828L32.1094 27.3438H31.8945Z" fill="white"/>
<path d="M35.4297 27.9883H35.8984L36.2109 28.0664L36.4453 28.1641L36.6602 28.3008L36.8555 28.4766L37.0312 28.6719L37.1875 28.9453L37.2852 29.1992L37.3242 29.3359L37.3438 29.4922V29.8633L37.2656 30.1953L37.168 30.4297L36.9727 30.7227L36.8555 30.8594L36.582 31.0742L36.2695 31.2305L35.9961 31.3086L35.8594 31.3281H35.4297L35.1172 31.25L34.8438 31.1328L34.5703 30.9375L34.375 30.7422L34.1992 30.4883L34.082 30.2344L34.0039 29.9609L33.9844 29.8047V29.5117L34.0625 29.1211L34.2188 28.7891L34.4141 28.5352L34.6094 28.3398L34.8828 28.1641L35.0977 28.0664L35.4297 27.9883ZM35.6055 29.3359L35.4688 29.3945L35.3711 29.5117L35.3516 29.5508V29.7461L35.4102 29.8633L35.4883 29.9414L35.6055 29.9805H35.7422L35.8984 29.8828L35.9766 29.7656L35.9961 29.6484L35.9375 29.4727L35.8008 29.3555L35.7422 29.3359H35.6055Z" fill="white"/>
<path d="M28.0859 27.9883H28.5742L28.8867 28.0664L29.2188 28.2227L29.4922 28.4375L29.6875 28.6523L29.8438 28.9062L29.9609 29.2188L30 29.4141V29.9023L29.9219 30.2344L29.7656 30.5469L29.5898 30.7812L29.4141 30.957L29.1406 31.1328L28.8867 31.25L28.6719 31.3086L28.5352 31.3281H28.0859L27.7734 31.25L27.4609 31.0938L27.2656 30.957L27.1094 30.8203L26.9141 30.5664L26.7578 30.2539L26.6797 30L26.6406 29.6484L26.6797 29.3164L26.7773 29.0039L26.9141 28.75L27.1289 28.4766L27.3047 28.3203L27.5195 28.1836L27.7148 28.0859L27.9883 28.0078L28.0859 27.9883ZM28.2617 29.3359L28.1055 29.4141L28.0469 29.4922L28.0078 29.6094L28.0273 29.7852L28.1055 29.9023L28.2617 29.9805H28.3984L28.5547 29.9023L28.6523 29.7461V29.5703L28.5547 29.4141L28.418 29.3359H28.2617Z" fill="white"/>
<path d="M20.5273 5.3125H21.8164L21.8555 5.37109V6.64062L21.8359 6.66016L20.5664 6.67969L20.4883 6.66016V5.33203L20.5273 5.3125Z" fill="white"/>
<path d="M20.5078 13.3203H21.8164L21.8555 13.3594V14.6289L21.7969 14.668H20.5078L20.4883 14.6484V13.3398L20.5078 13.3203Z" fill="white"/>
<path d="M8.00781 21.3086H9.31641L9.33594 21.3281V22.6562L9.19922 22.6758H8.04688L7.98828 22.6562V21.3281L8.00781 21.3086Z" fill="white"/>
<path d="M20.4883 7.98828H21.8164L21.8555 8.02734V9.29688L21.8164 9.33594H20.5078L20.4883 9.31641V7.98828Z" fill="white"/>
<path d="M20.5078 10.6445H21.3281L21.8359 10.6641L21.8555 10.7617V11.9531L21.8359 11.9922H20.5078L20.4883 11.9727V10.6641L20.5078 10.6445Z" fill="white"/>
<path d="M17.832 13.3203H19.1602L19.1797 13.3398V14.6484L19.1406 14.668H17.832V13.3203Z" fill="white"/>
<path d="M17.832 7.98828H19.1602L19.1797 8.00781V9.31641L19.1602 9.33594H17.8516L17.832 9.31641V7.98828Z" fill="white"/>
<path d="M17.8516 5.3125H18.9453L19.1797 5.33203V6.66016L17.9297 6.67969L17.832 6.66016L17.8125 5.50781L17.832 5.33203L17.8516 5.3125Z" fill="white"/>
<path d="M17.8516 10.6445H18.5938L19.1602 10.6641L19.1797 10.6836V11.9922H17.832V10.6641L17.8516 10.6445Z" fill="white"/>
</svg>
