<svg width="56" height="56" viewBox="0 0 56 56" fill="none" xmlns="http://www.w3.org/2000/svg">
<path d="M3 19.6667H53M14.1111 3V8.55556M41.8889 3V8.55556M11.3333 30.7778H16.8889M11.3333 41.8889H16.8889M25.2222 30.7778H30.7778M25.2222 41.8889H30.7778M39.1111 30.7778H44.6667M39.1111 41.8889H44.6667M11.8889 53H44.1111C47.2225 53 48.7783 53 49.9667 52.3944C51.0119 51.8619 51.8619 51.0119 52.3944 49.9667C53 48.7783 53 47.2225 53 44.1111V17.4444C53 14.333 53 12.7773 52.3944 11.5889C51.8619 10.5436 51.0119 9.69369 49.9667 9.16108C48.7783 8.55556 47.2225 8.55556 44.1111 8.55556H11.8889C8.7775 8.55556 7.22178 8.55556 6.03339 9.16108C4.98803 9.69369 4.13814 10.5436 3.60553 11.5889C3 12.7773 3 14.333 3 17.4444V44.1111C3 47.2225 3 48.7783 3.60553 49.9667C4.13814 51.0119 4.98803 51.8619 6.03339 52.3944C7.22178 53 8.77747 53 11.8889 53Z" stroke="#720C68" stroke-width="5.33333" stroke-linecap="round" stroke-linejoin="round"/>
</svg>
