<svg width="49" height="51" viewBox="0 0 49 51" fill="none" xmlns="http://www.w3.org/2000/svg">
<path d="M6.40039 19.3198H42.4004M14.4004 6.78381V10.9625M34.4004 6.78381V10.9625M12.4004 27.6772H16.4004M12.4004 36.0345H16.4004M22.4004 27.6772H26.4004M22.4004 36.0345H26.4004M32.4004 27.6772H36.4004M32.4004 36.0345H36.4004M12.8004 44.3919H36.0004C38.2406 44.3919 39.3608 44.3919 40.2164 43.9364C40.969 43.5359 41.581 42.8965 41.9644 42.1103C42.4004 41.2165 42.4004 40.0463 42.4004 37.706V17.6484C42.4004 15.3081 42.4004 14.1379 41.9644 13.2441C41.581 12.4578 40.969 11.8186 40.2164 11.4179C39.3608 10.9625 38.2406 10.9625 36.0004 10.9625H12.8004C10.5602 10.9625 9.44007 10.9625 8.58443 11.4179C7.83177 11.8186 7.21985 12.4578 6.83637 13.2441C6.40039 14.1379 6.40039 15.3081 6.40039 17.6484V37.706C6.40039 40.0463 6.40039 41.2165 6.83637 42.1103C7.21985 42.8965 7.83177 43.5359 8.58443 43.9364C9.44007 44.3919 10.5602 44.3919 12.8004 44.3919Z" stroke="#720C68" stroke-width="5.33333" stroke-linecap="round" stroke-linejoin="round"/>
</svg>
