<svg width="32" height="32" viewBox="0 0 32 32" fill="none" xmlns="http://www.w3.org/2000/svg">
<g clip-path="url(#clip0_1395_299)">
<path d="M10 8H8V12H10V8Z" fill="#760D6C"/>
<path d="M10 14H8V18H10V14Z" fill="#760D6C"/>
<path d="M16 8H14V12H16V8Z" fill="#760D6C"/>
<path d="M16 14H14V18H16V14Z" fill="#760D6C"/>
<path d="M10 20H8V24H10V20Z" fill="#760D6C"/>
<path d="M16 20H14V24H16V20Z" fill="#760D6C"/>
<path d="M30 14C30 13.4696 29.7893 12.9609 29.4142 12.5858C29.0391 12.2107 28.5304 12 28 12H22V4C22 3.46957 21.7893 2.96086 21.4142 2.58579C21.0391 2.21071 20.5304 2 20 2H4C3.46957 2 2.96086 2.21071 2.58579 2.58579C2.21071 2.96086 2 3.46957 2 4V30H30V14ZM4 4H20V28H4V4ZM22 28V14H28V28H22Z" fill="#760D6C"/>
</g>
<defs>
<clipPath id="clip0_1395_299">
<rect width="32" height="32" fill="white"/>
</clipPath>
</defs>
</svg>
