<svg width="40" height="40" viewBox="0 0 40 40" fill="none" xmlns="http://www.w3.org/2000/svg">
<g clip-path="url(#clip0_611_43)">
<path d="M31.2495 18.125C31.2454 17.3023 31.1277 16.4841 30.8995 15.6937C31.4306 15.214 31.8493 14.623 32.1259 13.963C32.4024 13.3029 32.53 12.59 32.4995 11.875C32.4995 9.45622 31.0995 7.49997 29.3745 7.49997C28.924 7.50414 28.484 7.63637 28.1058 7.88122C28.1183 7.75622 28.1245 7.62497 28.1245 7.49997C28.1254 6.54277 27.812 5.61175 27.2325 4.84988C26.6531 4.088 25.8395 3.53739 24.9169 3.28259C23.9942 3.02779 23.0134 3.08289 22.1251 3.43943C21.2368 3.79597 20.49 4.43424 19.9995 5.25622C19.509 4.43424 18.7623 3.79597 17.874 3.43943C16.9857 3.08289 16.0049 3.02779 15.0822 3.28259C14.1595 3.53739 13.346 4.088 12.7665 4.84988C12.1871 5.61175 11.8737 6.54277 11.8745 7.49997C11.8745 7.62497 11.8808 7.75622 11.8933 7.88122C11.5151 7.63637 11.0751 7.50414 10.6245 7.49997C8.89953 7.49997 7.49953 9.45622 7.49953 11.875C7.46906 12.59 7.59664 13.3029 7.8732 13.963C8.14975 14.623 8.56848 15.214 9.09953 15.6937C8.87141 16.4841 8.75363 17.3023 8.74953 18.125C8.78413 19.8062 9.25367 21.4498 10.1124 22.8957C10.9711 24.3415 12.1898 25.5402 13.6495 26.375C13.5595 27.2831 13.4164 28.1612 13.2577 29.0712C12.5327 32.4637 12.0864 35.9098 11.9233 39.375H28.0758C27.9126 35.9098 27.4664 32.4637 26.7414 29.0712C26.5827 28.1612 26.4395 27.2831 26.3495 26.375C27.8093 25.5402 29.0279 24.3415 29.8867 22.8957C30.7454 21.4498 31.2149 19.8062 31.2495 18.125Z" fill="#F3EEE8"/>
<path d="M31.875 9.25C31.657 8.7584 31.309 8.33561 30.8684 8.02723C30.4279 7.71884 29.9115 7.53655 29.375 7.5L30.625 5C30.625 5 31.8438 6.21875 31.875 9.25Z" fill="#F3EEE8"/>
<path d="M23.7498 0.625C24.2538 0.946159 24.6813 1.37397 25.002 1.87828C25.3227 2.38258 25.5289 2.9511 25.6061 3.54375C25.0261 3.26806 24.392 3.12502 23.7498 3.12502C23.1076 3.12502 22.4735 3.26806 21.8936 3.54375C21.9707 2.9511 22.1769 2.38258 22.4976 1.87828C22.8183 1.37397 23.2458 0.946159 23.7498 0.625Z" fill="#F3EEE8"/>
<path d="M16.2498 0.625C16.7538 0.946159 17.1813 1.37397 17.502 1.87828C17.8227 2.38258 18.0289 2.9511 18.1061 3.54375C17.5261 3.26806 16.892 3.12502 16.2498 3.12502C15.6076 3.12502 14.9735 3.26806 14.3936 3.54375C14.4707 2.9511 14.6769 2.38258 14.9976 1.87828C15.3183 1.37397 15.7458 0.946159 16.2498 0.625Z" fill="#F3EEE8"/>
<path d="M9.375 5L10.625 7.5C10.0885 7.53655 9.57211 7.71884 9.13156 8.02723C8.69101 8.33561 8.34298 8.7584 8.125 9.25C8.15625 6.21875 9.375 5 9.375 5Z" fill="#F3EEE8"/>
<path d="M10.625 13.75C11.3154 13.75 11.875 12.9105 11.875 11.875C11.875 10.8395 11.3154 10 10.625 10C9.93464 10 9.375 10.8395 9.375 11.875C9.375 12.9105 9.93464 13.75 10.625 13.75Z" fill="#F3EEE8"/>
<path d="M16.25 9.375C17.2855 9.375 18.125 8.53553 18.125 7.5C18.125 6.46447 17.2855 5.625 16.25 5.625C15.2145 5.625 14.375 6.46447 14.375 7.5C14.375 8.53553 15.2145 9.375 16.25 9.375Z" fill="#F3EEE8"/>
<path d="M23.75 9.375C24.7855 9.375 25.625 8.53553 25.625 7.5C25.625 6.46447 24.7855 5.625 23.75 5.625C22.7145 5.625 21.875 6.46447 21.875 7.5C21.875 8.53553 22.7145 9.375 23.75 9.375Z" fill="#F3EEE8"/>
<path d="M29.375 13.75C30.0654 13.75 30.625 12.9105 30.625 11.875C30.625 10.8395 30.0654 10 29.375 10C28.6846 10 28.125 10.8395 28.125 11.875C28.125 12.9105 28.6846 13.75 29.375 13.75Z" fill="#F3EEE8"/>
<path d="M23.75 17.5C25.8188 17.5 27.5 18.9 27.5 20.625C27.5 22.35 25.8188 23.75 23.75 23.75C21.9312 23.75 20.4187 22.675 20.075 21.2438C20.05 21.2438 20.025 21.25 20 21.25C19.975 21.25 19.95 21.2438 19.925 21.2438C19.5812 22.675 18.0687 23.75 16.25 23.75C14.1813 23.75 12.5 22.35 12.5 20.625C12.5 18.9 14.1813 17.5 16.25 17.5C16.25 16.5054 16.6451 15.5516 17.3483 14.8483C18.0516 14.1451 19.0054 13.75 20 13.75C20.9946 13.75 21.9484 14.1451 22.6517 14.8483C23.3549 15.5516 23.75 16.5054 23.75 17.5Z" fill="#F3EEE8"/>
<path d="M26.7418 29.6963C26.6655 29.2588 26.5943 28.8319 26.5293 28.4038C26.4705 28.0138 26.4224 27.6213 26.3786 27.2263C25.6317 27.819 24.7034 28.1363 23.7499 28.125C21.9311 28.125 20.4186 27.05 20.0749 25.6188C20.0499 25.6188 20.0249 25.625 19.9999 25.625C19.9749 25.625 19.9499 25.6188 19.9249 25.6188C19.5811 27.05 18.0686 28.125 16.2499 28.125C15.2964 28.1362 14.3682 27.8189 13.6211 27.2263V27.23C13.5305 28.0563 13.403 28.8638 13.258 29.6963C12.6244 32.7051 12.1984 35.754 11.983 38.8213V38.8663C11.9736 39.0306 11.9668 39.205 11.958 39.3731H28.0474C27.8541 36.1195 27.4177 32.8848 26.7418 29.6963Z" fill="#F3EEE8"/>
<path d="M24.375 34.375V37.5L23.125 38.75H18.75L17.5 37.5V35.625H19.375C19.3715 35.7901 19.4015 35.9542 19.463 36.1075C19.5246 36.2607 19.6166 36.3999 19.7333 36.5167C19.8501 36.6334 19.9893 36.7254 20.1425 36.787C20.2958 36.8485 20.4599 36.8785 20.625 36.875C21.0182 36.8438 21.3969 36.7126 21.7251 36.4938C22.0532 36.2751 22.32 35.976 22.5 35.625V33.125C22.32 32.774 22.0532 32.4749 21.7251 32.2562C21.3969 32.0374 21.0182 31.9062 20.625 31.875C20.4599 31.8715 20.2958 31.9015 20.1425 31.963C19.9893 32.0246 19.8501 32.1166 19.7333 32.2333C19.6166 32.3501 19.5246 32.4893 19.463 32.6425C19.4015 32.7958 19.3715 32.9599 19.375 33.125H17.5V31.25L18.75 30H23.125L24.375 31.25V34.375Z" fill="#F3EEE8"/>
<path d="M24.375 34.375C24.375 34.375 25.625 36.875 27.5 36.875C29.375 36.875 32.5 36.25 33.75 36.25C35 36.25 35 38.125 35 38.125C35.0035 38.2901 34.9735 38.4542 34.912 38.6075C34.8504 38.7607 34.7584 38.8999 34.6417 39.0167C34.5249 39.1334 34.3857 39.2254 34.2325 39.287C34.0792 39.3485 33.9151 39.3785 33.75 39.375C32.5 39.375 26.25 38.75 26.25 38.75L24.375 36.875V34.375Z" fill="#F3EEE8"/>
<path d="M27.5 31.875C25.625 31.875 24.375 34.375 24.375 34.375V31.875L26.25 30C26.25 30 32.5 29.375 33.75 29.375C33.9151 29.3715 34.0792 29.4015 34.2325 29.4631C34.3857 29.5246 34.5249 29.6166 34.6417 29.7334C34.7584 29.8501 34.8504 29.9893 34.912 30.1426C34.9735 30.2958 35.0035 30.4599 35 30.625C35 30.625 35 32.5 33.75 32.5C32.5 32.5 29.375 31.875 27.5 31.875Z" fill="#F3EEE8"/>
<path d="M29.375 13.75C28.8338 13.75 28.375 13.2275 28.2019 12.5C28.1518 12.7046 28.126 12.9144 28.125 13.125C28.125 14.1625 28.6875 15 29.375 15C30.0625 15 30.625 14.1625 30.625 13.125C30.624 12.9144 30.5982 12.7046 30.5481 12.5C30.375 13.2275 29.9162 13.75 29.375 13.75Z" fill="#F3EEE8"/>
<path d="M23.75 8.125C23.3632 8.1248 22.986 8.00441 22.6706 7.78048C22.3551 7.55654 22.1171 7.24013 21.9894 6.875C21.8856 7.15834 21.8517 7.46254 21.8907 7.76177C21.9296 8.06099 22.0402 8.3464 22.213 8.59375C22.3858 8.8411 22.6158 9.04309 22.8834 9.18255C23.151 9.32202 23.4483 9.39484 23.75 9.39484C24.0517 9.39484 24.349 9.32202 24.6166 9.18255C24.8842 9.04309 25.1142 8.8411 25.287 8.59375C25.4598 8.3464 25.5704 8.06099 25.6093 7.76177C25.6483 7.46254 25.6144 7.15834 25.5106 6.875C25.3829 7.24013 25.1449 7.55654 24.8294 7.78048C24.514 8.00441 24.1368 8.1248 23.75 8.125Z" fill="#F3EEE8"/>
<path d="M16.25 8.125C15.8632 8.1248 15.486 8.00441 15.1706 7.78048C14.8551 7.55654 14.6171 7.24013 14.4894 6.875C14.3856 7.15834 14.3517 7.46254 14.3907 7.76177C14.4296 8.06099 14.5402 8.3464 14.713 8.59375C14.8858 8.8411 15.1158 9.04309 15.3834 9.18255C15.651 9.32202 15.9483 9.39484 16.25 9.39484C16.5517 9.39484 16.849 9.32202 17.1166 9.18255C17.3842 9.04309 17.6142 8.8411 17.787 8.59375C17.9598 8.3464 18.0704 8.06099 18.1093 7.76177C18.1483 7.46254 18.1144 7.15834 18.0106 6.875C17.8829 7.24013 17.6449 7.55654 17.3294 7.78048C17.014 8.00441 16.6368 8.1248 16.25 8.125Z" fill="#F3EEE8"/>
<path d="M16.25 19.375C16.25 18.3804 16.6451 17.4266 17.3483 16.7233C18.0516 16.0201 19.0054 15.625 20 15.625C20.9946 15.625 21.9484 16.0201 22.6517 16.7233C23.3549 17.4266 23.75 18.3804 23.75 19.375C24.4965 19.3408 25.2362 19.5309 25.8738 19.9208C26.5114 20.3106 27.0177 20.8824 27.3275 21.5625C27.4414 21.263 27.4998 20.9454 27.5 20.625C27.5 18.9 25.8188 17.5 23.75 17.5C23.75 16.5054 23.3549 15.5516 22.6517 14.8483C21.9484 14.1451 20.9946 13.75 20 13.75C19.0054 13.75 18.0516 14.1451 17.3483 14.8483C16.6451 15.5516 16.25 16.5054 16.25 17.5C14.1813 17.5 12.5 18.9 12.5 20.625C12.5002 20.9454 12.5586 21.263 12.6725 21.5625C12.9823 20.8824 13.4886 20.3106 14.1262 19.9208C14.7638 19.5309 15.5035 19.3408 16.25 19.375Z" fill="#F3EEE8"/>
<path d="M10.625 9.37497C11.0755 9.37914 11.5156 9.51137 11.8938 9.75622C11.8813 9.63122 11.875 9.49997 11.875 9.37497C11.8742 8.41777 12.1875 7.48675 12.767 6.72488C13.3465 5.963 14.16 5.41239 15.0827 5.15759C16.0053 4.90279 16.9861 4.95789 17.8745 5.31443C18.7628 5.67097 19.5095 6.30924 20 7.13122C20.4905 6.30924 21.2372 5.67097 22.1255 5.31443C23.0139 4.95789 23.9947 4.90279 24.9173 5.15759C25.84 5.41239 26.6535 5.963 27.233 6.72488C27.8125 7.48675 28.1258 8.41777 28.125 9.37497C28.125 9.49997 28.1188 9.63122 28.1063 9.75622C28.4844 9.51137 28.9245 9.37914 29.375 9.37497C30.8656 9.37497 32.1119 10.8375 32.4231 12.7956C32.4725 12.4912 32.4982 12.1834 32.5 11.875C32.5 9.45622 31.1 7.49997 29.375 7.49997C28.9245 7.50414 28.4844 7.63637 28.1063 7.88122C28.1188 7.75622 28.125 7.62497 28.125 7.49997C28.1258 6.54277 27.8125 5.61175 27.233 4.84988C26.6535 4.088 25.84 3.53739 24.9173 3.28259C23.9947 3.02779 23.0139 3.08289 22.1255 3.43943C21.2372 3.79597 20.4905 4.43424 20 5.25622C19.5095 4.43424 18.7628 3.79597 17.8745 3.43943C16.9861 3.08289 16.0053 3.02779 15.0827 3.28259C14.16 3.53739 13.3465 4.088 12.767 4.84988C12.1875 5.61175 11.8742 6.54277 11.875 7.49997C11.875 7.62497 11.8813 7.75622 11.8938 7.88122C11.5156 7.63637 11.0755 7.50414 10.625 7.49997C8.9 7.49997 7.5 9.45622 7.5 11.875C7.50184 12.1834 7.52754 12.4912 7.57688 12.7956C7.88813 10.8375 9.13437 9.37497 10.625 9.37497Z" fill="#F3EEE8"/>
<path d="M23.75 9.375C23.3632 9.3748 22.986 9.25441 22.6706 9.03048C22.3551 8.80654 22.1171 8.49013 21.9894 8.125C21.8856 8.40834 21.8517 8.71254 21.8907 9.01177C21.9296 9.31099 22.0402 9.5964 22.213 9.84375C22.3858 10.0911 22.6158 10.2931 22.8834 10.4326C23.151 10.572 23.4483 10.6448 23.75 10.6448C24.0517 10.6448 24.349 10.572 24.6166 10.4326C24.8842 10.2931 25.1142 10.0911 25.287 9.84375C25.4598 9.5964 25.5704 9.31099 25.6093 9.01177C25.6483 8.71254 25.6144 8.40834 25.5106 8.125C25.3829 8.49013 25.1449 8.80654 24.8294 9.03048C24.514 9.25441 24.1368 9.3748 23.75 9.375Z" fill="#F3EEE8"/>
<path d="M16.25 9.375C15.8632 9.3748 15.486 9.25441 15.1706 9.03048C14.8551 8.80654 14.6171 8.49013 14.4894 8.125C14.3856 8.40834 14.3517 8.71254 14.3907 9.01177C14.4296 9.31099 14.5402 9.5964 14.713 9.84375C14.8858 10.0911 15.1158 10.2931 15.3834 10.4326C15.651 10.572 15.9483 10.6448 16.25 10.6448C16.5517 10.6448 16.849 10.572 17.1166 10.4326C17.3842 10.2931 17.6142 10.0911 17.787 9.84375C17.9598 9.5964 18.0704 9.31099 18.1093 9.01177C18.1483 8.71254 18.1144 8.40834 18.0106 8.125C17.8829 8.49013 17.6449 8.80654 17.3294 9.03048C17.014 9.25441 16.6368 9.3748 16.25 9.375Z" fill="#F3EEE8"/>
<path d="M29.375 12.5C28.8338 12.5 28.375 11.9775 28.2019 11.25C28.1518 11.4546 28.126 11.6644 28.125 11.875C28.125 12.9125 28.6875 13.75 29.375 13.75C30.0625 13.75 30.625 12.9125 30.625 11.875C30.624 11.6644 30.5982 11.4546 30.5481 11.25C30.375 11.9775 29.9162 12.5 29.375 12.5Z" fill="#F3EEE8"/>
<path d="M10.625 12.5C10.0838 12.5 9.625 11.9775 9.45188 11.25C9.40176 11.4546 9.37596 11.6644 9.375 11.875C9.375 12.9125 9.9375 13.75 10.625 13.75C11.3125 13.75 11.875 12.9125 11.875 11.875C11.874 11.6644 11.8482 11.4546 11.7981 11.25C11.625 11.9775 11.1662 12.5 10.625 12.5Z" fill="#F3EEE8"/>
<path d="M10.625 13.75C10.0838 13.75 9.625 13.2275 9.45188 12.5C9.40176 12.7046 9.37596 12.9144 9.375 13.125C9.375 14.1625 9.9375 15 10.625 15C11.3125 15 11.875 14.1625 11.875 13.125C11.874 12.9144 11.8482 12.7046 11.7981 12.5C11.625 13.2275 11.1662 13.75 10.625 13.75Z" fill="#F3EEE8"/>
<path d="M23.75 23.75C21.9312 23.75 20.4187 22.675 20.075 21.2438C20.05 21.2438 20.025 21.25 20 21.25C19.975 21.25 19.95 21.2438 19.925 21.2438C19.5812 22.675 18.0687 23.75 16.25 23.75C15.5035 23.7842 14.7638 23.5941 14.1262 23.2043C13.4886 22.8144 12.9823 22.2426 12.6725 21.5625C12.5586 21.862 12.5002 22.1797 12.5 22.5C12.5 24.225 14.1813 25.625 16.25 25.625C18.0687 25.625 19.5812 24.55 19.925 23.1188C19.95 23.1188 19.975 23.125 20 23.125C20.025 23.125 20.05 23.1188 20.075 23.1188C20.4187 24.55 21.9312 25.625 23.75 25.625C25.8188 25.625 27.5 24.225 27.5 22.5C27.4998 22.1797 27.4414 21.862 27.3275 21.5625C27.0177 22.2426 26.5114 22.8144 25.8738 23.2043C25.2362 23.5941 24.4965 23.7842 23.75 23.75Z" fill="#F3EEE8"/>
<path d="M27.5 38.125C29.375 38.125 32.5 37.5 33.75 37.5C34.455 37.5 34.7625 38.0962 34.8962 38.6162C34.955 38.4586 34.99 38.293 35 38.125C35 38.125 35 36.25 33.75 36.25C32.5 36.25 29.375 36.875 27.5 36.875C25.625 36.875 24.375 34.375 24.375 34.375V35.625C24.375 35.625 25.625 38.125 27.5 38.125Z" fill="#F3EEE8"/>
<path d="M27.5 31.875C29.375 31.875 32.5 32.5 33.75 32.5C35 32.5 35 30.625 35 30.625C34.99 30.457 34.955 30.2915 34.8962 30.1338C34.7625 30.6538 34.455 31.25 33.75 31.25C32.5 31.25 29.375 30.625 27.5 30.625C25.625 30.625 24.375 33.125 24.375 33.125V34.375C24.375 34.375 25.625 31.875 27.5 31.875Z" fill="#F3EEE8"/>
<path d="M20.625 31.875C20.4599 31.8715 20.2958 31.9015 20.1425 31.9631C19.9893 32.0246 19.8501 32.1166 19.7333 32.2334C19.6166 32.3501 19.5246 32.4893 19.463 32.6426C19.4015 32.7958 19.3715 32.9599 19.375 33.125H17.5V34.375H19.375C19.3715 34.2099 19.4015 34.0458 19.463 33.8926C19.5246 33.7393 19.6166 33.6001 19.7333 33.4834C19.8501 33.3666 19.9893 33.2746 20.1425 33.2131C20.2958 33.1515 20.4599 33.1215 20.625 33.125C21.0182 33.1562 21.3969 33.2874 21.7251 33.5062C22.0532 33.725 22.32 34.0241 22.5 34.375V33.125C22.32 32.7741 22.0532 32.475 21.7251 32.2562C21.3969 32.0374 21.0182 31.9062 20.625 31.875Z" fill="#F3EEE8"/>
<path d="M24.375 34.375C24.489 34.5906 24.6154 34.7993 24.7537 35C25.24 34.2863 26.1681 33.2125 27.3669 33.1357C27.2956 32.71 27.2231 32.3013 27.1506 31.9044C25.4713 32.1832 24.375 34.375 24.375 34.375Z" fill="#F3EEE8"/>
<path d="M28.0212 38.9219C26.995 38.8244 26.25 38.75 26.25 38.75L24.375 36.875V37.5L23.125 38.75H18.75L17.5 37.5V38.75L18.125 39.375H23.75L24.375 38.75V38.125L25.625 39.375H28.0475C28.0394 39.2206 28.03 39.0725 28.0212 38.9219Z" fill="#F3EEE8"/>
<path d="M22.6881 18.3191C23.0887 17.9182 22.961 17.141 22.4029 16.5832C21.8447 16.0255 21.0675 15.8983 20.6668 16.2992C20.2662 16.7001 20.3939 17.4773 20.952 18.0351C21.5102 18.5928 22.2874 18.72 22.6881 18.3191Z" fill="#F3EEE8"/>
<path d="M15.9342 21.5747C16.1355 21.3732 16.0715 20.9829 15.7912 20.7028C15.5109 20.4227 15.1205 20.3589 14.9192 20.5603C14.7179 20.7618 14.7819 21.1521 15.0622 21.4322C15.3425 21.7123 15.7329 21.7761 15.9342 21.5747Z" fill="#F3EEE8"/>
<path d="M24.375 33.125C24.375 32.7798 24.0952 32.5 23.75 32.5C23.4048 32.5 23.125 32.7798 23.125 33.125V35.625C23.125 35.9702 23.4048 36.25 23.75 36.25C24.0952 36.25 24.375 35.9702 24.375 35.625V33.125Z" fill="#F3EEE8"/>
<path d="M34.0582 30.9494C34.2595 30.748 34.1955 30.3576 33.9152 30.0775C33.6349 29.7974 33.2445 29.7336 33.0432 29.9351C32.8419 30.1365 32.9059 30.5269 33.1862 30.807C33.4665 31.0871 33.8569 31.1509 34.0582 30.9494Z" fill="#F3EEE8"/>
<path d="M34.0582 38.4491C34.2595 38.2476 34.1955 37.8573 33.9152 37.5772C33.6349 37.297 33.2445 37.2333 33.0432 37.4347C32.8419 37.6361 32.9059 38.0265 33.1862 38.3066C33.4665 38.5867 33.8569 38.6505 34.0582 38.4491Z" fill="#F3EEE8"/>
<path d="M32.3951 30.3838C32.4958 30.283 32.4639 30.0877 32.3238 29.9476C32.1836 29.8076 31.9883 29.7758 31.8875 29.8766C31.7868 29.9775 31.8187 30.1727 31.9588 30.3128C32.099 30.4528 32.2943 30.4846 32.3951 30.3838Z" fill="#F3EEE8"/>
<path d="M20 22.5563C20.4368 23.1342 21.0044 23.6004 21.6563 23.9166C22.3082 24.2327 23.0257 24.3898 23.75 24.375C26.1619 24.375 28.125 22.6931 28.125 20.625C28.125 18.7269 26.4719 17.1544 24.3356 16.9081C24.1939 15.8588 23.6764 14.8965 22.8791 14.1996C22.0818 13.5028 21.0589 13.1188 20 13.1188C18.9411 13.1188 17.9182 13.5028 17.1209 14.1996C16.3236 14.8965 15.8061 15.8588 15.6644 16.9081C13.5281 17.1544 11.875 18.7269 11.875 20.625C11.875 22.6931 13.8381 24.375 16.25 24.375C16.9743 24.3898 17.6918 24.2327 18.3437 23.9166C18.9956 23.6004 19.5632 23.1342 20 22.5563ZM19.3169 21.0981C19.035 22.2725 17.7456 23.125 16.25 23.125C14.5269 23.125 13.125 22.0038 13.125 20.625C13.125 19.2463 14.5269 18.125 16.25 18.125C16.4158 18.125 16.5747 18.0592 16.6919 17.9419C16.8092 17.8247 16.875 17.6658 16.875 17.5C16.875 16.6712 17.2042 15.8763 17.7903 15.2903C18.3763 14.7042 19.1712 14.375 20 14.375C20.8288 14.375 21.6237 14.7042 22.2097 15.2903C22.7958 15.8763 23.125 16.6712 23.125 17.5C23.125 17.6658 23.1908 17.8247 23.3081 17.9419C23.4253 18.0592 23.5842 18.125 23.75 18.125C25.4731 18.125 26.875 19.2463 26.875 20.625C26.875 22.0038 25.4731 23.125 23.75 23.125C22.2544 23.125 20.965 22.2725 20.6831 21.0981C20.6504 20.9615 20.5726 20.8399 20.4622 20.7529C20.3519 20.6659 20.2155 20.6187 20.075 20.6188C20.0494 20.6188 20.0244 20.6188 19.9975 20.6231C19.9706 20.6275 19.9406 20.6188 19.925 20.6188C19.7845 20.6187 19.6481 20.6659 19.5378 20.7529C19.4274 20.8399 19.3496 20.9615 19.3169 21.0981Z" fill="#A2128F"/>
<path d="M13.75 7.5C13.75 7.99445 13.8966 8.4778 14.1713 8.88893C14.446 9.30005 14.8365 9.62048 15.2933 9.8097C15.7501 9.99892 16.2528 10.0484 16.7377 9.95196C17.2227 9.8555 17.6681 9.6174 18.0178 9.26777C18.3674 8.91814 18.6055 8.47268 18.702 7.98773C18.7984 7.50277 18.7489 7.00011 18.5597 6.54329C18.3705 6.08648 18.05 5.69603 17.6389 5.42133C17.2278 5.14662 16.7445 5 16.25 5C15.587 5 14.9511 5.26339 14.4822 5.73223C14.0134 6.20107 13.75 6.83696 13.75 7.5ZM17.5 7.5C17.5 7.74723 17.4267 7.9889 17.2893 8.19446C17.152 8.40002 16.9568 8.56024 16.7284 8.65485C16.4999 8.74946 16.2486 8.77421 16.0061 8.72598C15.7637 8.67775 15.5409 8.5587 15.3661 8.38388C15.1913 8.20907 15.0722 7.98634 15.024 7.74386C14.9758 7.50139 15.0005 7.25005 15.0952 7.02165C15.1898 6.79324 15.35 6.59801 15.5555 6.46066C15.7611 6.32331 16.0028 6.25 16.25 6.25C16.5815 6.25 16.8995 6.3817 17.1339 6.61612C17.3683 6.85054 17.5 7.16848 17.5 7.5Z" fill="#A2128F"/>
<path d="M10.625 9.375C9.57313 9.375 8.75 10.4731 8.75 11.875C8.75 13.2769 9.57313 14.375 10.625 14.375C11.6769 14.375 12.5 13.2769 12.5 11.875C12.5 10.4731 11.6769 9.375 10.625 9.375ZM10.625 13.125C10.375 13.125 10 12.625 10 11.875C10 11.125 10.375 10.625 10.625 10.625C10.875 10.625 11.25 11.125 11.25 11.875C11.25 12.625 10.875 13.125 10.625 13.125Z" fill="#A2128F"/>
<path d="M31.25 11.875C31.25 10.4731 30.4269 9.375 29.375 9.375C28.3231 9.375 27.5 10.4731 27.5 11.875C27.5 13.2769 28.3231 14.375 29.375 14.375C30.4269 14.375 31.25 13.2769 31.25 11.875ZM29.375 13.125C29.125 13.125 28.75 12.625 28.75 11.875C28.75 11.125 29.125 10.625 29.375 10.625C29.625 10.625 30 11.125 30 11.875C30 12.625 29.625 13.125 29.375 13.125Z" fill="#A2128F"/>
<path d="M23.75 5C23.2555 5 22.7722 5.14662 22.3611 5.42133C21.95 5.69603 21.6295 6.08648 21.4403 6.54329C21.2511 7.00011 21.2016 7.50277 21.298 7.98773C21.3945 8.47268 21.6326 8.91814 21.9822 9.26777C22.3319 9.6174 22.7773 9.8555 23.2623 9.95196C23.7472 10.0484 24.2499 9.99892 24.7067 9.8097C25.1635 9.62048 25.554 9.30005 25.8287 8.88893C26.1034 8.4778 26.25 7.99445 26.25 7.5C26.25 6.83696 25.9866 6.20107 25.5178 5.73223C25.0489 5.26339 24.413 5 23.75 5ZM23.75 8.75C23.5028 8.75 23.2611 8.67669 23.0555 8.53934C22.85 8.40199 22.6898 8.20676 22.5952 7.97835C22.5005 7.74995 22.4758 7.49861 22.524 7.25614C22.5723 7.01366 22.6913 6.79093 22.8661 6.61612C23.0409 6.4413 23.2637 6.32225 23.5061 6.27402C23.7486 6.22579 23.9999 6.25054 24.2284 6.34515C24.4568 6.43976 24.652 6.59998 24.7893 6.80554C24.9267 7.0111 25 7.25277 25 7.5C25 7.83152 24.8683 8.14946 24.6339 8.38388C24.3995 8.6183 24.0815 8.75 23.75 8.75Z" fill="#A2128F"/>
<path d="M13.643 30.4156C13.7224 29.9931 13.7993 29.5825 13.8712 29.1793C14.0243 28.3231 14.1793 27.3993 14.2718 26.435C14.2831 26.3181 14.2612 26.2004 14.2087 26.0954C14.1562 25.9904 14.0752 25.9023 13.9749 25.8412C12.6073 25.0616 11.4648 23.9411 10.6587 22.5889C9.85261 21.2367 9.41033 19.6988 9.37492 18.125C9.3797 17.3596 9.48948 16.5986 9.70117 15.8631C9.73477 15.7439 9.73222 15.6174 9.69383 15.4997C9.65544 15.382 9.58295 15.2783 9.48554 15.2018C9.02984 14.7801 8.67192 14.2638 8.43687 13.6891C8.20183 13.1144 8.09536 12.4952 8.12492 11.875C8.11428 11.0648 8.30362 10.2645 8.67617 9.54497C9.35679 8.2731 10.5593 7.7806 11.5612 8.4106C11.6603 8.47295 11.7751 8.50618 11.8922 8.50648C12.0094 8.50679 12.1242 8.47416 12.2237 8.41232C12.3232 8.35048 12.4034 8.26192 12.4549 8.15675C12.5065 8.05157 12.5275 7.93401 12.5155 7.81747C12.505 7.71197 12.4998 7.606 12.4999 7.49997C12.5018 6.68092 12.7718 5.885 13.2687 5.23385C13.7655 4.5827 14.4619 4.11213 15.2514 3.89403C16.0409 3.67593 16.88 3.72231 17.6407 4.02608C18.4013 4.32984 19.0416 4.87429 19.4637 5.57622C19.5231 5.66375 19.603 5.7354 19.6965 5.78492C19.79 5.83445 19.8941 5.86034 19.9999 5.86034C20.1057 5.86034 20.2099 5.83445 20.3034 5.78492C20.3968 5.7354 20.4768 5.66375 20.5362 5.57622C20.9582 4.87429 21.5985 4.32984 22.3592 4.02608C23.1198 3.72231 23.959 3.67593 24.7485 3.89403C25.538 4.11213 26.2343 4.5827 26.7312 5.23385C27.228 5.885 27.498 6.68092 27.4999 7.49997C27.5 7.606 27.4948 7.71197 27.4843 7.81747C27.4723 7.93401 27.4933 8.05157 27.5449 8.15675C27.5965 8.26192 27.6766 8.35048 27.7761 8.41232C27.8756 8.47416 27.9905 8.50679 28.1076 8.50648C28.2248 8.50618 28.3395 8.47295 28.4387 8.4106C29.4424 7.78122 30.643 8.2731 31.3243 9.54622C31.6965 10.2654 31.8856 11.0653 31.8749 11.875C31.9045 12.4952 31.798 13.1144 31.563 13.6891C31.3279 14.2638 30.97 14.7801 30.5143 15.2018C30.4169 15.2783 30.3444 15.382 30.306 15.4997C30.2676 15.6174 30.2651 15.7439 30.2987 15.8631C30.5104 16.5986 30.6201 17.3596 30.6249 18.125C30.5895 19.6988 30.1472 21.2367 29.3411 22.5889C28.535 23.9411 27.3925 25.0616 26.0249 25.8412C25.9248 25.9023 25.8438 25.9903 25.7913 26.0952C25.7388 26.2 25.7169 26.3176 25.728 26.4343C25.7793 26.9743 25.8568 27.5593 25.9643 28.225L27.1987 28.025C27.1193 27.5343 27.0587 27.1031 27.0112 26.6962C28.4733 25.7875 29.6845 24.527 30.5341 23.0297C31.3838 21.5325 31.8447 19.8462 31.8749 18.125C31.8723 17.3774 31.7806 16.6328 31.6018 15.9068C32.6164 14.8133 33.1631 13.3662 33.1249 11.875C33.1316 10.916 32.916 9.96849 32.4949 9.10685C32.4249 5.95872 31.1199 4.61435 31.0668 4.5581C30.9968 4.48827 30.9111 4.43606 30.817 4.40576C30.7229 4.37546 30.6229 4.36793 30.5253 4.38379C30.4276 4.39965 30.3352 4.43846 30.2555 4.49701C30.1758 4.55556 30.1111 4.63219 30.0668 4.7206L28.968 6.9181C28.8855 6.92997 28.803 6.93247 28.718 6.95247C28.6298 6.15972 28.3527 5.39971 27.9098 4.7363C27.467 4.07289 26.8714 3.52545 26.173 3.13997C26.0485 2.52058 25.8005 1.93262 25.4438 1.41117C25.0871 0.88973 24.629 0.445493 24.0968 0.104971C23.9941 0.0364471 23.8734 -0.00012207 23.7499 -0.00012207C23.6264 -0.00012207 23.5057 0.0364471 23.403 0.104971C22.8707 0.445373 22.4124 0.88947 22.0553 1.41079C21.6983 1.93211 21.4499 2.51997 21.3249 3.13935C20.8255 3.41326 20.3773 3.77145 19.9999 4.1981C19.6223 3.77025 19.1736 3.41081 18.6737 3.1356C18.5483 2.51701 18.2999 1.92994 17.9431 1.40931C17.5863 0.888673 17.1285 0.445102 16.5968 0.104971C16.4941 0.0364471 16.3734 -0.00012207 16.2499 -0.00012207C16.1264 -0.00012207 16.0057 0.0364471 15.903 0.104971C15.3699 0.445785 14.911 0.890603 14.5537 1.41283C14.1964 1.93506 13.9481 2.52397 13.8237 3.14435C13.1266 3.53 12.5319 4.07695 12.0895 4.73947C11.647 5.40198 11.3697 6.1608 11.2805 6.95247C11.198 6.9331 11.1155 6.92997 11.0305 6.9181L9.93742 4.7206C9.89309 4.63219 9.82842 4.55556 9.74872 4.49701C9.66902 4.43846 9.57656 4.39965 9.47895 4.38379C9.38133 4.36793 9.28134 4.37546 9.1872 4.40576C9.09306 4.43606 9.00745 4.48827 8.93742 4.5581C8.88117 4.61435 7.58117 5.95685 7.50929 9.10622C7.08687 9.96777 6.86974 10.9155 6.87492 11.875C6.83677 13.3662 7.38342 14.8133 8.39804 15.9068C8.21924 16.6328 8.12755 17.3774 8.12492 18.125C8.15509 19.8461 8.6159 21.5322 9.46529 23.0295C10.3147 24.5267 11.5256 25.7873 12.9874 26.6962C12.898 27.4818 12.7693 28.2437 12.6412 28.9587C12.5693 29.36 12.493 29.7668 12.4143 30.1856C11.7967 33.2058 11.4242 36.271 11.3005 39.3512C11.2973 39.4353 11.3111 39.5191 11.3411 39.5977C11.3711 39.6763 11.4166 39.748 11.475 39.8086C11.5333 39.8692 11.6033 39.9173 11.6807 39.9502C11.7582 39.9831 11.8414 40 11.9255 40H16.2499V38.75H12.578C12.7261 35.9493 13.0821 33.1635 13.643 30.4156ZM30.6824 6.28247C30.8407 6.64789 30.9631 7.02779 31.048 7.41685C30.8175 7.25933 30.5677 7.13185 30.3049 7.03747L30.6824 6.28247ZM23.7499 1.40372C24.1418 1.7293 24.4584 2.13592 24.678 2.5956C24.0643 2.47997 23.4343 2.47997 22.8205 2.5956C23.0405 2.13579 23.3576 1.72916 23.7499 1.40372ZM16.2499 1.40372C16.6421 1.72922 16.9588 2.13612 17.178 2.59622C16.5643 2.4806 15.9343 2.4806 15.3205 2.59622C15.5405 2.13619 15.8575 1.72934 16.2499 1.40372ZM9.69492 7.03685C9.43243 7.13126 9.18295 7.25852 8.95242 7.4156C9.03742 7.02705 9.15965 6.64759 9.31742 6.28247L9.69492 7.03685Z" fill="#A2128F"/>
<path d="M33.75 35.625C32.8719 35.6669 31.9968 35.7575 31.1287 35.8963C29.927 36.0845 28.7154 36.2026 27.5 36.25C26.4475 36.25 25.5187 35.0807 25.0931 34.3788C25.4481 33.7994 26.3681 32.5 27.5 32.5C28.7154 32.5475 29.927 32.6656 31.1287 32.8538C31.9968 32.9926 32.8719 33.0832 33.75 33.125C35.2331 33.125 35.625 31.49 35.625 30.625C35.6323 30.3768 35.5887 30.1298 35.4971 29.899C35.4054 29.6682 35.2676 29.4586 35.092 29.2831C34.9164 29.1075 34.7068 28.9696 34.476 28.878C34.2453 28.7863 33.9982 28.7428 33.75 28.75C32.4838 28.75 26.4444 29.3525 26.1875 29.3782C26.0441 29.3926 25.91 29.4562 25.8081 29.5582L24.6875 30.6788L23.5669 29.5582C23.4497 29.441 23.2907 29.3751 23.125 29.375H21.25V30.625H22.8662L23.75 31.5088V37.2413L22.8662 38.125H19.0087L18.125 37.2413V36.25H18.8544C18.9679 36.626 19.2038 36.9532 19.5246 37.1797C19.8455 37.4061 20.2328 37.5189 20.625 37.5C21.1351 37.4695 21.6283 37.3061 22.0559 37.0263C22.4834 36.7464 22.8304 36.3597 23.0625 35.9044C23.1047 35.8174 23.1261 35.7218 23.125 35.625V33.125C23.1261 33.0283 23.1047 32.9327 23.0625 32.8457C22.8304 32.3904 22.4834 32.0037 22.0559 31.7238C21.6283 31.444 21.1351 31.2806 20.625 31.25C20.2328 31.2312 19.8455 31.344 19.5246 31.5704C19.2038 31.7969 18.9679 32.1241 18.8544 32.5H18.125V31.5088L19.0087 30.625H20V29.375H18.75C18.5843 29.3751 18.4253 29.441 18.3081 29.5582L17.0581 30.8082C16.9409 30.9254 16.875 31.0843 16.875 31.25V33.125C16.875 33.2908 16.9408 33.4498 17.0581 33.567C17.1753 33.6842 17.3342 33.75 17.5 33.75H19.375C19.5389 33.7481 19.6956 33.6827 19.8122 33.5675C19.9288 33.4523 19.9961 33.2964 20 33.1325C19.9909 33.0479 20.0007 32.9623 20.0288 32.8819C20.0569 32.8016 20.1025 32.7285 20.1623 32.6679C20.2222 32.6074 20.2947 32.5609 20.3748 32.5319C20.4548 32.5028 20.5403 32.492 20.625 32.5C20.8818 32.5226 21.1295 32.6066 21.347 32.745C21.5646 32.8833 21.7457 33.072 21.875 33.295V35.455C21.7457 35.6781 21.5646 35.8668 21.347 36.0051C21.1295 36.1435 20.8818 36.2275 20.625 36.25C20.5409 36.2583 20.456 36.2478 20.3764 36.2193C20.2968 36.1908 20.2245 36.1451 20.1648 36.0853C20.105 36.0255 20.0592 35.9532 20.0307 35.8737C20.0022 35.7941 19.9917 35.7092 20 35.625C20 35.4593 19.9342 35.3003 19.8169 35.1831C19.6997 35.0659 19.5408 35 19.375 35H17.5C17.3342 35 17.1753 35.0659 17.0581 35.1831C16.9408 35.3003 16.875 35.4593 16.875 35.625V37.5C16.875 37.6658 16.9409 37.8247 17.0581 37.9419L18.3081 39.1919C18.4253 39.3091 18.5843 39.375 18.75 39.375H23.125C23.2907 39.375 23.4497 39.3091 23.5669 39.1919L24.6875 38.0713L25.8081 39.1919C25.9096 39.295 26.0437 39.3597 26.1875 39.375C26.4444 39.3975 32.4838 40 33.75 40C33.9982 40.0073 34.2453 39.9638 34.476 39.8721C34.7068 39.7805 34.9164 39.6426 35.092 39.467C35.2676 39.2914 35.4054 39.0818 35.4971 38.8511C35.5887 38.6203 35.6323 38.3732 35.625 38.125C35.625 37.26 35.2331 35.625 33.75 35.625ZM26.5337 30.6C27.6544 30.4894 32.6756 30 33.75 30C33.8341 29.9917 33.9191 30.0021 33.9987 30.0305C34.0784 30.059 34.1507 30.1048 34.2105 30.1646C34.2703 30.2244 34.3161 30.2967 34.3445 30.3763C34.373 30.4559 34.3834 30.5409 34.375 30.625C34.375 30.6375 34.34 31.875 33.75 31.875C32.9277 31.8306 32.1083 31.7438 31.295 31.615C30.0383 31.4184 28.7711 31.2965 27.5 31.25C27.0233 31.2755 26.5565 31.3961 26.1271 31.6047C25.6978 31.8134 25.3145 32.1059 25 32.465V32.1338L26.5337 30.6ZM33.75 38.75C32.6756 38.75 27.6544 38.2607 26.5337 38.15L25 36.6163V36.285C25.3145 36.6442 25.6978 36.9367 26.1271 37.1454C26.5565 37.354 27.0233 37.4746 27.5 37.5C28.7711 37.4536 30.0383 37.3317 31.295 37.135C32.1083 37.0063 32.9277 36.9195 33.75 36.875C34.34 36.875 34.375 38.1144 34.375 38.1175C34.3841 38.2022 34.3743 38.2878 34.3462 38.3681C34.3181 38.4485 34.2725 38.5216 34.2127 38.5822C34.1528 38.6427 34.0803 38.6892 34.0002 38.7182C33.9202 38.7473 33.8347 38.7581 33.75 38.75Z" fill="#A2128F"/>
</g>
<defs>
<clipPath id="clip0_611_43">
<rect width="40" height="40" fill="white"/>
</clipPath>
</defs>
</svg>
