<svg width="26" height="26" viewBox="4 5 28 26" fill="none" xmlns="http://www.w3.org/2000/svg">
<path d="M14.0625 5.625C12.8584 5.625 11.8125 6.31055 11.1445 7.24219C10.4766 8.17383 10.125 9.38232 10.125 10.6875C10.125 11.9927 10.4766 13.2012 11.1445 14.1328C11.8125 15.0645 12.8584 15.75 14.0625 15.75C15.2666 15.75 16.3125 15.0645 16.9805 14.1328C17.6484 13.2012 18 11.9927 18 10.6875C18 9.38232 17.6484 8.17383 16.9805 7.24219C16.3125 6.31055 15.2666 5.625 14.0625 5.625ZM18 10.6875C18 11.9927 18.3516 13.2012 19.0195 14.1328C19.6875 15.0645 20.7334 15.75 21.9375 15.75C23.1416 15.75 24.1875 15.0645 24.8555 14.1328C25.5234 13.2012 25.875 11.9927 25.875 10.6875C25.875 9.38232 25.5234 8.17383 24.8555 7.24219C24.1875 6.31055 23.1416 5.625 21.9375 5.625C20.7334 5.625 19.6875 6.31055 19.0195 7.24219C18.3516 8.17383 18 9.38232 18 10.6875ZM14.0625 7.875C14.4141 7.875 14.8008 8.05078 15.1523 8.54297C15.5039 9.03516 15.75 9.81738 15.75 10.6875C15.75 11.5576 15.5039 12.3398 15.1523 12.832C14.8008 13.3242 14.4141 13.5 14.0625 13.5C13.7109 13.5 13.3242 13.3242 12.9727 12.832C12.6211 12.3398 12.375 11.5576 12.375 10.6875C12.375 9.81738 12.6211 9.03516 12.9727 8.54297C13.3242 8.05078 13.7109 7.875 14.0625 7.875ZM21.9375 7.875C22.2891 7.875 22.6758 8.05078 23.0273 8.54297C23.3789 9.03516 23.625 9.81738 23.625 10.6875C23.625 11.5576 23.3789 12.3398 23.0273 12.832C22.6758 13.3242 22.2891 13.5 21.9375 13.5C21.5859 13.5 21.1992 13.3242 20.8477 12.832C20.4961 12.3398 20.25 11.5576 20.25 10.6875C20.25 9.81738 20.4961 9.03516 20.8477 8.54297C21.1992 8.05078 21.5859 7.875 21.9375 7.875ZM8.4375 13.5C7.2334 13.5 6.1875 14.1855 5.51953 15.1172C4.85156 16.0488 4.5 17.2573 4.5 18.5625C4.5 19.8677 4.85156 21.0762 5.51953 22.0078C6.1875 22.9395 7.2334 23.625 8.4375 23.625C9.6416 23.625 10.6875 22.9395 11.3555 22.0078C12.0234 21.0762 12.375 19.8677 12.375 18.5625C12.375 17.2573 12.0234 16.0488 11.3555 15.1172C10.6875 14.1855 9.6416 13.5 8.4375 13.5ZM27.5625 13.5C26.3584 13.5 25.3125 14.1855 24.6445 15.1172C23.9766 16.0488 23.625 17.2573 23.625 18.5625C23.625 19.8677 23.9766 21.0762 24.6445 22.0078C25.3125 22.9395 26.3584 23.625 27.5625 23.625C28.7666 23.625 29.8125 22.9395 30.4805 22.0078C31.1484 21.0762 31.5 19.8677 31.5 18.5625C31.5 17.2573 31.1484 16.0488 30.4805 15.1172C29.8125 14.1855 28.7666 13.5 27.5625 13.5ZM8.4375 15.75C8.78906 15.75 9.17578 15.9258 9.52734 16.418C9.87891 16.9102 10.125 17.6924 10.125 18.5625C10.125 19.4326 9.87891 20.2148 9.52734 20.707C9.17578 21.1992 8.78906 21.375 8.4375 21.375C8.08594 21.375 7.69922 21.1992 7.34766 20.707C6.99609 20.2148 6.75 19.4326 6.75 18.5625C6.75 17.6924 6.99609 16.9102 7.34766 16.418C7.69922 15.9258 8.08594 15.75 8.4375 15.75ZM27.5625 15.75C27.9141 15.75 28.3008 15.9258 28.6523 16.418C29.0039 16.9102 29.25 17.6924 29.25 18.5625C29.25 19.4326 29.0039 20.2148 28.6523 20.707C28.3008 21.1992 27.9141 21.375 27.5625 21.375C27.2109 21.375 26.8242 21.1992 26.4727 20.707C26.1211 20.2148 25.875 19.4326 25.875 18.5625C25.875 17.6924 26.1211 16.9102 26.4727 16.418C26.8242 15.9258 27.2109 15.75 27.5625 15.75ZM18 18C16.5015 18 15.4556 18.9756 14.9414 19.8281C14.4272 20.6807 14.1152 21.3926 13.8164 21.6914C13.6406 21.8672 12.5552 22.2759 11.4258 22.8516C10.8589 23.1416 10.2876 23.5283 9.80859 24.1172C9.32959 24.7061 9 25.5234 9 26.4375C9 28.5996 10.7754 30.375 12.9375 30.375C13.9131 30.375 14.9282 30.063 15.9258 29.7773C16.9233 29.4917 18 29.25 18 29.25C18 29.25 19.0767 29.4917 20.0742 29.7773C21.0718 30.063 22.0869 30.375 23.0625 30.375C25.2246 30.375 27 28.5996 27 26.4375C27 25.5454 26.6704 24.728 26.1914 24.1523C25.7124 23.5767 25.1367 23.2207 24.5742 22.9219C23.4492 22.3242 22.3418 21.8496 22.1836 21.6914C21.9155 21.4233 21.6123 20.6895 21.0938 19.8281C20.5752 18.9668 19.5073 18 18 18ZM18 20.25C18.7427 20.25 18.8262 20.4302 19.1602 20.9883C19.4941 21.5464 19.749 22.4912 20.5664 23.3086C21.4937 24.2358 22.667 24.438 23.5195 24.8906C23.9458 25.1191 24.2754 25.3608 24.4688 25.5938C24.6621 25.8267 24.75 26.042 24.75 26.4375C24.75 27.3823 24.0073 28.125 23.0625 28.125C22.7373 28.125 21.687 27.8745 20.707 27.5977C19.7271 27.3208 18.9185 27 18 27C17.0815 27 16.2729 27.3208 15.293 27.5977C14.313 27.8745 13.2627 28.125 12.9375 28.125C11.9927 28.125 11.25 27.3823 11.25 26.4375C11.25 25.9849 11.3423 25.752 11.5312 25.5234C11.7202 25.2949 12.063 25.0708 12.4805 24.8555C13.3198 24.4292 14.4844 24.2578 15.4336 23.3086C16.2598 22.4824 16.5103 21.5068 16.8398 20.9531C17.1694 20.3994 17.2485 20.25 18 20.25Z" fill="#A2128F"/>
</svg>
