<svg width="50" height="51" viewBox="0 0 50 51" fill="none" xmlns="http://www.w3.org/2000/svg">
<g clip-path="url(#clip0_873_439)">
<path d="M48.2712 42.0936L39.9788 33.6163C39.5164 34.3434 39.0169 35.0442 38.4835 35.716L35.4248 32.589C35.5566 32.4132 35.6871 32.2359 35.8147 32.0556C35.9007 31.934 35.9853 31.8123 36.0669 31.6893C36.0813 31.6702 36.0941 31.6497 36.1072 31.6307C36.1902 31.5061 36.2734 31.3801 36.3537 31.2541C36.5286 30.9815 36.6963 30.706 36.8569 30.4247C38.5756 27.4279 39.5632 23.9403 39.5632 20.2225C39.5632 16.5048 38.5756 13.0172 36.8569 10.0205C35.1381 7.02664 32.6898 4.5238 29.7613 2.76672C26.8298 1.00964 23.4183 0 19.7815 0C16.1449 0 12.7333 1.00964 9.80188 2.76672C9.68151 2.83852 9.5625 2.91182 9.44349 2.98799C9.29155 3.08324 9.13961 3.18146 8.99048 3.28107C8.72536 3.45835 8.46305 3.64159 8.20648 3.83207C8.1204 3.89504 8.03588 3.95959 7.95126 4.02405C7.86247 4.09297 7.77358 4.1618 7.68468 4.23072C7.60298 4.29667 7.51982 4.36261 7.43812 4.42995C7.27753 4.56184 7.11849 4.69522 6.96218 4.83297C6.15952 5.53185 5.41127 6.29677 4.72753 7.11741C4.59278 7.27711 4.46231 7.4384 4.33329 7.60396C4.26742 7.68748 4.20282 7.7725 4.13841 7.85602C4.07098 7.94689 4.00366 8.03777 3.93633 8.12854C3.87328 8.21495 3.81023 8.30145 3.74854 8.38934C3.56221 8.65163 3.38306 8.91978 3.20955 9.19091C3.11201 9.34336 3.01603 9.49869 2.92286 9.65402C2.84835 9.77558 2.77665 9.89724 2.70641 10.0204C0.98763 13.0171 0 16.5048 0 20.2225C0 23.9403 0.98763 27.4278 2.70632 30.4247C4.4251 33.4184 6.87338 35.9214 9.80188 37.6783C12.7333 39.4354 16.1449 40.4451 19.7815 40.4451C23.4183 40.4451 26.8298 39.4354 29.7612 37.6783C29.9446 37.5685 30.1253 37.4556 30.3045 37.3399C30.3947 37.2828 30.4836 37.2241 30.5725 37.1641C30.6958 37.0821 30.8191 36.997 30.9409 36.912C30.9596 36.8988 30.9796 36.8856 30.9982 36.871C31.1186 36.7875 31.2376 36.701 31.3566 36.6131C31.5329 36.4827 31.7064 36.3493 31.8784 36.2145L34.937 39.3413C34.2799 39.8865 33.5944 40.3972 32.8832 40.87L41.1758 49.3474C42.1548 50.3482 43.4392 50.8493 44.7235 50.8493C46.0078 50.8493 47.2923 50.3482 48.2712 49.3473C50.2308 47.3441 50.2308 44.0968 48.2712 42.0936ZM27.6569 32.1069C27.6168 32.1362 27.5767 32.164 27.5351 32.1904C27.4893 32.2242 27.4419 32.2549 27.3946 32.2856C27.3517 32.3149 27.3085 32.3427 27.2656 32.3707C27.2097 32.4073 27.1539 32.4425 27.0979 32.4761C27.0449 32.5099 26.9933 32.5421 26.9403 32.5743C26.827 32.6433 26.7137 32.7091 26.5991 32.7751C26.5904 32.7809 26.5819 32.7854 26.5719 32.7912C26.4786 32.8439 26.3841 32.8952 26.2894 32.945C26.2521 32.967 26.2148 32.9875 26.1762 33.0066C26.1017 33.0461 26.0257 33.0842 25.9498 33.1224C25.805 33.1957 25.6587 33.266 25.5111 33.3333C23.7608 34.1364 21.8214 34.5833 19.7816 34.5833C17.7419 34.5833 15.8025 34.1364 14.0522 33.3333C10.9042 31.8914 8.36716 29.2976 6.95664 26.0796C6.17099 24.2905 5.73381 22.3078 5.73381 20.2225C5.73381 18.1373 6.17099 16.1546 6.95654 14.3653C7.17727 13.8627 7.42519 13.3748 7.69906 12.9043C7.73064 12.8501 7.76211 12.7973 7.79505 12.7431C7.88394 12.5922 7.97711 12.4427 8.07464 12.2962C8.12769 12.2127 8.18209 12.1306 8.23941 12.0485C8.30683 11.9459 8.37698 11.8448 8.45023 11.7452C8.56049 11.5914 8.67377 11.4389 8.78986 11.2894C9.4536 10.4381 10.2104 9.66435 11.0433 8.98583C11.1895 8.86715 11.3386 8.75135 11.4891 8.63852C11.5866 8.56374 11.6855 8.49193 11.7858 8.42311C11.8661 8.36451 11.9464 8.3088 12.0281 8.25457C12.1715 8.15496 12.3177 8.05972 12.4653 7.96884C12.5183 7.93508 12.5699 7.9029 12.6229 7.87062C13.083 7.59075 13.5604 7.3372 14.0521 7.11156C15.8024 6.30849 17.7418 5.86158 19.7815 5.86158C21.8213 5.86158 23.7608 6.30849 25.511 7.11156C28.6588 8.55351 31.196 11.1472 32.6065 14.3652C33.3921 16.1545 33.8293 18.1372 33.8293 20.2224C33.8293 22.3077 33.3921 24.2904 32.6065 26.0796C32.5406 26.2306 32.4719 26.3801 32.4002 26.528C32.3629 26.6057 32.3256 26.6834 32.2869 26.7596C32.2683 26.7992 32.2482 26.8373 32.2267 26.8755C32.1779 26.9722 32.1278 27.0689 32.0762 27.1642C32.0705 27.1744 32.0662 27.1832 32.0605 27.192C31.9973 27.3092 31.9314 27.425 31.864 27.5408C31.8325 27.595 31.801 27.6477 31.768 27.702C31.7351 27.7592 31.7006 27.8163 31.6648 27.8734C31.6376 27.9174 31.6104 27.9614 31.5816 28.0053C31.5515 28.0536 31.5214 28.102 31.4884 28.1489C31.4627 28.1914 31.4354 28.2324 31.4067 28.2734C31.3795 28.3144 31.3522 28.3554 31.3236 28.3965C31.3092 28.4214 31.292 28.4463 31.2734 28.4698C31.242 28.5181 31.2075 28.568 31.1731 28.6163C30.9122 28.9871 30.6341 29.3432 30.3389 29.6846C30.2859 29.7476 30.2314 29.8091 30.1769 29.8707C30.1067 29.9499 30.0364 30.029 29.9647 30.1052C29.8816 30.1946 29.7956 30.2839 29.7095 30.3719C29.6236 30.4598 29.5361 30.5477 29.4487 30.6327C29.3742 30.706 29.2967 30.7777 29.2193 30.8496C29.1591 30.9054 29.0989 30.961 29.0372 31.0152C28.7033 31.3171 28.355 31.6014 27.9923 31.8681C27.945 31.9033 27.8962 31.9384 27.8489 31.9707C27.826 31.9898 27.8016 32.0074 27.7772 32.022C27.7372 32.0512 27.697 32.0791 27.6569 32.1069Z" fill="#720C68"/>
</g>
<defs>
<clipPath id="clip0_873_439">
<rect width="49.7409" height="50.8493" fill="white"/>
</clipPath>
</defs>
</svg>
