<svg width="64" height="64" viewBox="0 0 64 64" fill="none" xmlns="http://www.w3.org/2000/svg">
<g clip-path="url(#clip0_756_557)">
<path d="M62.109 52.9799L51.4394 42.3101C50.8444 43.2254 50.2018 44.1074 49.5154 44.9529L45.5799 41.0173C45.7495 40.7959 45.9174 40.5728 46.0816 40.3459C46.1923 40.1927 46.3011 40.0396 46.4061 39.8848C46.4246 39.8608 46.4411 39.835 46.4579 39.811C46.5648 39.6543 46.6718 39.4956 46.7751 39.337C47.0001 38.994 47.2159 38.6473 47.4225 38.2931C49.6339 34.5214 50.9046 30.1317 50.9046 25.4525C50.9046 20.7733 49.6339 16.3838 47.4225 12.612C45.211 8.84388 42.0609 5.69375 38.2929 3.48225C34.521 1.27075 30.1315 0 25.4523 0C20.7731 0 16.3835 1.27075 12.6118 3.48225C12.4569 3.57262 12.3038 3.66488 12.1506 3.76075C11.9551 3.88063 11.7596 4.00425 11.5678 4.12962C11.2266 4.35275 10.8891 4.58337 10.559 4.82312C10.4483 4.90237 10.3395 4.98363 10.2306 5.06475C10.1164 5.1515 10.002 5.23812 9.88763 5.32487C9.7825 5.40788 9.6755 5.49087 9.57038 5.57562C9.36375 5.74162 9.15913 5.9095 8.958 6.08287C7.92525 6.9625 6.9625 7.92525 6.08275 8.95813C5.90938 9.15913 5.7415 9.36213 5.5755 9.5705C5.49075 9.67563 5.40763 9.78262 5.32475 9.88775C5.238 10.0021 5.15138 10.1165 5.06475 10.2308C4.98363 10.3395 4.9025 10.4484 4.82313 10.559C4.58338 10.8891 4.35288 11.2266 4.12963 11.5679C4.00413 11.7598 3.88063 11.9552 3.76075 12.1508C3.66488 12.3038 3.57263 12.4569 3.48225 12.6119C1.27075 16.3836 0 20.7733 0 25.4525C0 30.1317 1.27075 34.5213 3.48213 38.2931C5.69363 42.0611 8.84375 45.2114 12.6118 47.4227C16.3835 49.6342 20.7731 50.905 25.4523 50.905C30.1315 50.905 34.521 49.6342 38.2928 47.4227C38.5288 47.2845 38.7613 47.1424 38.9918 46.9967C39.1079 46.9249 39.2223 46.851 39.3366 46.7755C39.4953 46.6723 39.6539 46.5652 39.8106 46.4582C39.8346 46.4416 39.8604 46.425 39.8844 46.4066C40.0393 46.3015 40.1924 46.1926 40.3455 46.082C40.5724 45.9179 40.7955 45.75 41.0169 45.5804L44.9523 49.5158C44.1068 50.202 43.2248 50.8448 42.3098 51.4399L52.9795 62.1096C54.2391 63.3693 55.8918 64 57.5443 64C59.1968 64 60.8494 63.3693 62.109 62.1095C64.6303 59.5882 64.6303 55.5011 62.109 52.9799ZM35.5853 40.4104C35.5336 40.4473 35.482 40.4823 35.4285 40.5155C35.3695 40.558 35.3086 40.5966 35.2478 40.6354C35.1925 40.6723 35.137 40.7072 35.0818 40.7424C35.0098 40.7885 34.938 40.8328 34.866 40.8751C34.7978 40.9176 34.7314 40.9581 34.6631 40.9987C34.5174 41.0855 34.3716 41.1684 34.2241 41.2514C34.213 41.2587 34.202 41.2644 34.1891 41.2716C34.0691 41.338 33.9475 41.4026 33.8258 41.4652C33.7778 41.493 33.7298 41.5188 33.68 41.5428C33.5841 41.5925 33.4864 41.6405 33.3888 41.6885C33.2024 41.7808 33.0143 41.8692 32.8243 41.954C30.5723 42.9647 28.0769 43.5272 25.4524 43.5272C22.8279 43.5272 20.3325 42.9647 18.0805 41.954C14.0301 40.1391 10.7658 36.8746 8.95088 32.8244C7.94 30.5725 7.3775 28.077 7.3775 25.4525C7.3775 22.828 7.94 20.3325 8.95075 18.0805C9.23475 17.4479 9.55375 16.8337 9.90613 16.2416C9.94675 16.1734 9.98725 16.107 10.0296 16.0387C10.144 15.8488 10.2639 15.6606 10.3894 15.4762C10.4576 15.3711 10.5276 15.2679 10.6014 15.1645C10.6881 15.0354 10.7784 14.9081 10.8726 14.7828C11.0145 14.5891 11.1603 14.3972 11.3096 14.2091C12.1636 13.1376 13.1374 12.1637 14.209 11.3097C14.3971 11.1604 14.589 11.0146 14.7826 10.8726C14.9081 10.7785 15.0354 10.6881 15.1644 10.6015C15.2678 10.5278 15.371 10.4576 15.4761 10.3894C15.6606 10.264 15.8488 10.1441 16.0386 10.0297C16.1069 9.98725 16.1733 9.94675 16.2415 9.90613C16.8335 9.55387 17.4478 9.23475 18.0804 8.95075C20.3324 7.94 22.8278 7.3775 25.4523 7.3775C28.0768 7.3775 30.5723 7.94 32.8241 8.95075C36.8744 10.7656 40.1389 14.0301 41.9538 18.0804C42.9645 20.3324 43.527 22.8279 43.527 25.4524C43.527 28.0769 42.9645 30.5724 41.9538 32.8244C41.8689 33.0144 41.7805 33.2025 41.6883 33.3887C41.6403 33.4865 41.5923 33.5842 41.5425 33.6802C41.5185 33.73 41.4926 33.778 41.465 33.826C41.4023 33.9478 41.3378 34.0695 41.2714 34.1894C41.264 34.2023 41.2585 34.2134 41.2511 34.2244C41.1699 34.3719 41.0851 34.5176 40.9984 34.6634C40.9578 34.7316 40.9173 34.798 40.8749 34.8662C40.8325 34.9382 40.7881 35.0101 40.742 35.082C40.707 35.1374 40.672 35.1928 40.635 35.248C40.5963 35.3089 40.5575 35.3698 40.5151 35.4287C40.482 35.4823 40.4469 35.5339 40.41 35.5855C40.375 35.6371 40.3399 35.6888 40.303 35.7404C40.2845 35.7718 40.2624 35.8031 40.2385 35.8326C40.198 35.8935 40.1536 35.9562 40.1094 36.0171C39.7738 36.4837 39.4159 36.932 39.036 37.3616C38.9679 37.441 38.8978 37.5184 38.8276 37.5959C38.7373 37.6955 38.6469 37.7951 38.5546 37.891C38.4476 38.0035 38.337 38.116 38.2263 38.2267C38.1158 38.3374 38.0031 38.448 37.8906 38.555C37.7948 38.6473 37.6951 38.7375 37.5955 38.828C37.518 38.8981 37.4406 38.9681 37.3613 39.0364C36.9316 39.4164 36.4834 39.7741 36.0168 40.1099C35.9559 40.1541 35.8931 40.1984 35.8323 40.239C35.8028 40.263 35.7714 40.2851 35.74 40.3035C35.6885 40.3403 35.6368 40.3754 35.5853 40.4104Z" fill="#720C68"/>
</g>
<defs>
<clipPath id="clip0_756_557">
<rect width="64" height="64" fill="white"/>
</clipPath>
</defs>
</svg>
