<svg width="40" height="40" viewBox="0 0 40 40" fill="none" xmlns="http://www.w3.org/2000/svg">
<g clip-path="url(#clip0_611_91)">
<path d="M38.1375 21.3315L40 19.4691L36.369 15.8381C37.864 13.8535 37.7094 11.0126 35.9031 9.20639L30.7937 4.09695C29.8362 3.13945 28.5633 2.6121 27.2091 2.6121C26.0944 2.6121 25.0352 2.97015 24.1613 3.63046L20.5309 0L18.6684 1.86242L22.2637 5.45765L21.0431 6.67827L17.4478 3.08296L15.5855 4.9453L19.1807 8.54061L17.9602 9.76115L14.3649 6.16593L12.5025 8.02834L16.0977 11.6236L14.8771 12.8442L11.2819 9.24897L9.41948 11.1114L13.0503 14.7422C11.8352 16.3553 11.7096 18.5339 12.6753 20.2632L1.92402 29.903C0.728478 30.9749 0.0459796 32.4494 0.00222973 34.0546C-0.0415202 35.6599 0.559807 37.1692 1.69527 38.3047C2.79215 39.4017 4.23777 40 5.78206 40C5.83628 40 5.89089 39.9992 5.94534 39.9978C7.55057 39.9541 9.02503 39.2716 10.097 38.076L19.7358 27.3259C20.4834 27.7453 21.3298 27.9684 22.2105 27.9684C23.3251 27.9684 24.3844 27.6103 25.2583 26.95L28.8887 30.5804L30.7512 28.718L27.1559 25.1228L28.3765 23.9021L31.9717 27.4974L33.8341 25.635L30.2389 22.0397L31.4594 20.8192L35.0547 24.4145L36.9171 22.5521L33.3219 18.9568L34.5424 17.7362L38.1375 21.3315ZM23.9327 24.6211C23.4727 25.0812 22.8611 25.3345 22.2105 25.3345C21.5599 25.3345 20.9483 25.0811 20.4883 24.6211L19.505 23.6378L8.13589 36.3177C7.55167 36.9692 6.74831 37.3411 5.87347 37.365C4.9966 37.3876 4.17621 37.0612 3.55754 36.4424C2.93886 35.8237 2.61121 35.0012 2.63496 34.1265C2.65879 33.2518 3.03074 32.4483 3.6823 31.8641L16.362 20.4951L15.3788 19.5118C14.4292 18.5622 14.4292 17.0169 15.3788 16.0673L25.4868 5.95929C25.9469 5.49921 26.5584 5.24593 27.209 5.24593C27.8595 5.24593 28.4711 5.49929 28.9312 5.95929L34.0406 11.0687C34.9902 12.0183 34.9902 13.5635 34.0406 14.5131L23.9327 24.6211Z" fill="#A2128F"/>
<path d="M28.002 7.4721L26.1396 9.33447L30.666 13.8608L32.5283 11.9984L28.002 7.4721Z" fill="#A2128F"/>
<path d="M21.836 13.6373L19.9736 15.4996L24.4999 20.0259L26.3623 18.1636L21.836 13.6373Z" fill="#A2128F"/>
<path d="M18.753 16.7203L16.8906 18.5826L21.417 23.109L23.2794 21.2466L18.753 16.7203Z" fill="#A2128F"/>
<path d="M24.919 10.5545L23.0566 12.4169L27.583 16.9432L29.4453 15.0808L24.919 10.5545Z" fill="#A2128F"/>
</g>
<defs>
<clipPath id="clip0_611_91">
<rect width="40" height="40" fill="white"/>
</clipPath>
</defs>
</svg>
