<?xml version="1.0" encoding="iso-8859-1"?>
<!-- Generator: Adobe Illustrator 19.1.0, SVG Export Plug-In . SVG Version: 6.00 Build 0)  -->
<svg version="1.1" id="Capa_1" xmlns="http://www.w3.org/2000/svg" xmlns:xlink="http://www.w3.org/1999/xlink" x="0px" y="0px"
	 viewBox="0 0 161.584 161.584" style="enable-background:new 0 0 161.584 161.584;" xml:space="preserve">
<g>
	<path d="M61.115,138.351c-0.356,0-0.584-0.005-0.657-0.007c-21.324,0-38.708-17.85-38.708-39.792
		c0-8.299,2.886-16.938,7.921-23.713l0.286-0.472c1.937-2.968,11.669-18.097,15.726-28.685
		c6.537-17.057,17.725-24.781,35.192-24.296c0.828,0.023,1.481,0.712,1.458,1.541c-0.023,0.829-0.759,1.484-1.541,1.458
		c-16.269-0.457-26.208,6.453-32.308,22.371C44.423,57.355,35.22,71.792,32.496,75.964L32.2,76.455
		c-0.025,0.042-0.052,0.082-0.081,0.12c-4.683,6.277-7.369,14.288-7.369,21.978c0,20.287,16.038,36.792,35.75,36.792
		c4.57,0.131,16.672-0.873,18.75-6.862l0.001-4.346c0-0.828,0.672-1.5,1.5-1.5c0,0,0,0,0,0c0.828,0,1.5,0.672,1.5,1.5l-0.001,4.583
		c0,0.148-0.022,0.295-0.065,0.436C79.538,137.853,64.513,138.351,61.115,138.351z"/>
	<path d="M56.438,79.194c-0.823,0-1.621-0.209-2.337-0.648c-2.563-1.574-2.969-5.42-0.923-8.756
		c2.048-3.337,5.661-4.718,8.224-3.145c2.563,1.575,2.968,5.421,0.921,8.756l0,0C60.848,77.804,58.56,79.194,56.438,79.194z
		 M59.074,69.007c-1.011,0-2.384,0.794-3.34,2.351c-1.226,1.999-1.018,4.045-0.065,4.63c0.952,0.583,2.869-0.158,4.096-2.157
		c0,0,0,0,0,0c1.227-1.999,1.019-4.044,0.065-4.63C59.62,69.071,59.362,69.007,59.074,69.007z"/>
	<path d="M76.333,120.553c-0.384,0-0.768-0.146-1.061-0.439c-1.434-1.434-4.37-3.884-4.4-3.908c-0.636-0.53-0.722-1.476-0.192-2.113
		c0.531-0.636,1.475-0.723,2.113-0.192c0.125,0.104,3.07,2.561,4.6,4.092c0.586,0.585,0.586,1.536,0,2.121
		C77.101,120.407,76.717,120.553,76.333,120.553z"/>
	<path d="M40.689,60.157c-0.54,0-1.062-0.292-1.33-0.803c-0.891-1.697-2.175-2.764-3.715-3.086
		c-1.458-0.306-2.814,0.109-3.457,0.623c-1.337,1.07-2.465,1.11-3.18,0.958c-1.359-0.293-1.982-1.396-2.094-1.614
		c-2.572-5.022,5.358-14.162,9.912-18.292c5.744-5.212,11.978-2.63,14.472-0.538c0.634,0.532,0.717,1.479,0.185,2.113
		c-0.531,0.632-1.474,0.717-2.108,0.189l0,0c-0.215-0.177-5.316-4.275-10.533,0.458c-6.754,6.128-10.299,12.668-9.256,14.706
		c0-0.01,0.043,0.039,0.066,0.049c0.036,0,0.273-0.06,0.662-0.371c1.481-1.185,3.813-1.662,5.946-1.216
		c1.705,0.357,4.088,1.45,5.757,4.628c0.385,0.733,0.103,1.64-0.631,2.025C41.162,60.102,40.924,60.157,40.689,60.157z"/>
	<path d="M48.374,94.104c-4.041,0-8.129-1.669-8.322-1.749c-2.113-0.799-3.515-1.607-4.642-2.256
		c-1.359-0.783-2.34-1.349-4.102-1.652c-2.721-0.469-5.265,2.463-5.29,2.494c-0.538,0.628-1.483,0.705-2.113,0.169
		c-0.629-0.536-0.709-1.478-0.176-2.109c0.148-0.175,3.671-4.271,8.088-3.51c2.287,0.394,3.586,1.143,5.09,2.009
		c1.087,0.626,2.32,1.336,4.249,2.066c0.087,0.035,4.681,1.901,8.358,1.476c5.091-0.592,9.026-1.936,11.685-6.569
		c0.023-0.04,0.048-0.08,0.075-0.118c0.031-0.045,3.35-4.881,3.854-12.485c0.237-3.578,1.211-16.112,3.776-27.167
		c2.915-12.562,6.78-18.671,11.815-18.671c0.014,0,0.027,0,0.041,0c0.828,0.005,1.496,0.681,1.49,1.51
		c-0.005,0.825-0.676,1.49-1.5,1.49c-0.009,0-0.019,0-0.028,0c-6.398,0-11.181,21.639-12.601,43.037
		c-0.537,8.097-3.906,13.296-4.352,13.952c-3.488,6.03-8.986,7.429-13.909,8.001C49.371,94.079,48.873,94.104,48.374,94.104z"/>
	<path d="M80.667,140.219c-9.673,0-15.314-2.178-15.55-2.271c-0.771-0.303-1.149-1.174-0.846-1.945
		c0.304-0.77,1.173-1.148,1.943-0.847c0.088,0.034,5.43,2.062,14.452,2.062c0.829,0,1.5,0.671,1.5,1.5
		S81.496,140.219,80.667,140.219z"/>
	<path d="M55.167,110.387c-0.179,0-0.361-0.033-0.539-0.101l-48-18.5c-0.773-0.298-1.158-1.166-0.86-1.939
		c0.298-0.773,1.163-1.158,1.939-0.86l48,18.5c0.773,0.298,1.158,1.166,0.86,1.939C56.337,110.022,55.769,110.387,55.167,110.387z"
		/>
	<path d="M1.499,128.387c-0.692,0-1.313-0.481-1.465-1.185c-0.174-0.81,0.341-1.608,1.151-1.782l48.833-10.5
		c0.81-0.178,1.607,0.341,1.782,1.151s-0.341,1.608-1.151,1.782l-48.833,10.5C1.709,128.376,1.603,128.387,1.499,128.387z"/>
	<path d="M100.443,138.352c-3.356,0-18.395-0.494-21.043-9.196c-0.043-0.141-0.065-0.288-0.065-0.436l-0.001-4.583
		c0-0.829,0.671-1.5,1.5-1.5c0.829,0,1.5,0.671,1.5,1.5l0.001,4.346c2.078,5.988,14.167,6.981,18.708,6.863
		c19.754,0,35.792-16.505,35.792-36.792c0-7.69-2.686-15.701-7.369-21.978c-0.029-0.039-0.056-0.079-0.081-0.12l-0.323-0.534
		c-2.697-4.129-11.899-18.566-15.961-29.165c-6.1-15.917-16.048-22.821-32.308-22.371c-0.799,0.031-1.518-0.63-1.541-1.458
		c-0.022-0.828,0.63-1.518,1.458-1.541c17.459-0.479,28.654,7.239,35.192,24.296c4.057,10.587,13.789,25.716,15.699,28.642
		l0.312,0.514c5.035,6.776,7.922,15.415,7.922,23.714c0,21.941-17.383,39.792-38.75,39.792
		C101.016,138.346,100.793,138.352,100.443,138.352z"/>
	<path d="M105.147,79.193c-2.123,0-4.41-1.389-5.885-3.793c-2.046-3.334-1.642-7.181,0.921-8.755
		c2.562-1.574,6.176-0.193,8.224,3.144c2.046,3.337,1.641,7.183-0.922,8.756C106.768,78.985,105.969,79.193,105.147,79.193z
		 M102.51,69.007c-0.288,0-0.547,0.064-0.758,0.194c-0.953,0.585-1.161,2.631,0.066,4.63c0,0,0,0,0,0
		c1.227,2,3.141,2.74,4.096,2.157c0.953-0.585,1.16-2.631-0.066-4.63C104.895,69.801,103.521,69.007,102.51,69.007z"/>
	<path d="M85.251,120.553c-0.384,0-0.768-0.146-1.061-0.439c-0.586-0.585-0.586-1.536,0-2.121c1.53-1.531,4.476-3.988,4.6-4.092
		c0.637-0.531,1.583-0.444,2.113,0.192c0.53,0.637,0.444,1.583-0.192,2.113c-0.03,0.024-2.966,2.474-4.4,3.908
		C86.019,120.407,85.635,120.553,85.251,120.553z"/>
	<path d="M120.895,60.157c-0.235,0-0.473-0.056-0.696-0.172c-0.733-0.385-1.016-1.292-0.631-2.025
		c1.668-3.178,4.052-4.271,5.757-4.628c2.133-0.445,4.465,0.032,5.946,1.216c0.387,0.31,0.629,0.372,0.678,0.367
		c0.006-0.006,0.052-0.054,0.073-0.088c1.02-1.995-2.525-8.535-9.279-14.663c-5.264-4.775-10.315-0.64-10.528-0.462
		c-0.636,0.533-1.581,0.45-2.113-0.185c-0.533-0.635-0.45-1.581,0.185-2.113c2.495-2.093,8.728-4.673,14.472,0.538
		c4.553,4.13,12.484,13.27,9.91,18.294c-0.11,0.216-0.734,1.318-2.093,1.611c-0.71,0.154-1.842,0.111-3.179-0.958
		c-0.642-0.514-1.999-0.928-3.457-0.623c-1.54,0.322-2.825,1.389-3.715,3.086C121.957,59.865,121.435,60.157,120.895,60.157z"/>
	<path d="M113.211,94.104c-0.499,0-0.997-0.025-1.487-0.083c-4.922-0.572-10.421-1.971-13.909-8.001
		c-0.446-0.656-3.815-5.855-4.352-13.952c-1.42-21.397-6.203-43.037-12.601-43.037c-0.009,0-0.021,0-0.028,0
		c-0.824,0-1.495-0.665-1.5-1.49c-0.005-0.829,0.662-1.504,1.49-1.51c0.013,0,0.027,0,0.041,0c5.036,0,8.9,6.108,11.815,18.671
		c2.564,11.055,3.539,23.589,3.776,27.167c0.508,7.657,3.821,12.438,3.854,12.485c0.027,0.038,0.052,0.078,0.075,0.118
		c2.658,4.634,6.594,5.977,11.685,6.569c3.674,0.425,8.271-1.44,8.317-1.459c1.97-0.746,3.202-1.456,4.29-2.083
		c1.504-0.866,2.803-1.615,5.09-2.009c4.421-0.766,7.94,3.335,8.088,3.51c0.535,0.633,0.455,1.58-0.178,2.114
		c-0.632,0.534-1.576,0.455-2.112-0.176c-0.062-0.072-2.593-2.956-5.289-2.492c-1.762,0.304-2.743,0.87-4.102,1.652
		c-1.127,0.649-2.529,1.457-4.685,2.272C121.335,92.437,117.251,94.104,113.211,94.104z"/>
	<path d="M80.917,140.219c-0.829,0-1.5-0.671-1.5-1.5s0.671-1.5,1.5-1.5c9.053,0,14.4-2.042,14.453-2.062
		c0.771-0.301,1.64,0.08,1.942,0.85c0.302,0.77-0.076,1.639-0.846,1.942C96.232,138.042,90.591,140.219,80.917,140.219z"/>
	<path d="M106.418,110.387c-0.603,0-1.17-0.365-1.4-0.961c-0.298-0.773,0.087-1.641,0.86-1.939l48-18.5
		c0.773-0.298,1.641,0.086,1.939,0.86c0.298,0.773-0.087,1.641-0.86,1.939l-48,18.5
		C106.779,110.354,106.597,110.387,106.418,110.387z"/>
	<path d="M160.086,128.387c-0.104,0-0.21-0.011-0.317-0.034l-48.833-10.5c-0.81-0.174-1.325-0.972-1.151-1.782
		c0.174-0.81,0.973-1.325,1.782-1.151l48.833,10.5c0.81,0.174,1.325,0.972,1.151,1.782
		C161.4,127.905,160.778,128.387,160.086,128.387z"/>
</g>
<g>
</g>
<g>
</g>
<g>
</g>
<g>
</g>
<g>
</g>
<g>
</g>
<g>
</g>
<g>
</g>
<g>
</g>
<g>
</g>
<g>
</g>
<g>
</g>
<g>
</g>
<g>
</g>
<g>
</g>
</svg>
