<svg width="40" height="40" viewBox="0 0 40 40" fill="none" xmlns="http://www.w3.org/2000/svg">
<path d="M20.0599 2.54821C19.9702 2.48602 19.8252 2.48008 19.7358 2.54258L15.3252 5.65164C15.2358 5.71446 15.1883 5.67352 15.1883 5.56446V3.41102C15.1883 3.30196 15.0499 3.24414 14.9405 3.24414H12.0752C11.9661 3.24414 11.9217 3.30196 11.9217 3.41102V7.85227C11.9217 7.96133 11.8274 8.10071 11.7377 8.16321L0.918933 15.7723C0.829558 15.8351 0.834558 15.9113 0.94362 15.9113H5.75206C5.86112 15.9113 5.94706 15.9485 5.94706 16.0576V37.3004C5.94754 37.3535 5.96877 37.4042 6.00621 37.4418C6.04364 37.4794 6.09431 37.5009 6.14737 37.5016H33.6149C33.7239 37.5016 33.8311 37.4098 33.8311 37.3004V16.0576C33.8311 15.9485 33.9008 15.9113 34.0102 15.9113H39.0492C39.1586 15.9113 39.1742 15.8351 39.0846 15.7729L20.0599 2.54821ZM27.4549 14.912C27.8512 14.912 28.2313 15.0694 28.5116 15.3496C28.7918 15.6299 28.9492 16.01 28.9492 16.4063C28.9492 16.8027 28.7918 17.1828 28.5116 17.463C28.2313 17.7433 27.8512 17.9007 27.4549 17.9007C27.0585 17.9007 26.6784 17.7433 26.3982 17.463C26.1179 17.1828 25.9605 16.8027 25.9605 16.4063C25.9605 16.01 26.1179 15.6299 26.3982 15.3496C26.6784 15.0694 27.0585 14.912 27.4549 14.912ZM20.3933 23.7473C20.6813 23.7473 20.9575 23.8617 21.1612 24.0653C21.3648 24.269 21.4792 24.5452 21.4792 24.8332C21.4792 25.1212 21.3648 25.3974 21.1612 25.6011C20.9575 25.8047 20.6813 25.9191 20.3933 25.9191C20.1053 25.9191 19.8291 25.8047 19.6254 25.6011C19.4218 25.3974 19.3074 25.1212 19.3074 24.8332C19.3074 24.5452 19.4218 24.269 19.6254 24.0653C19.8291 23.8617 20.1053 23.7473 20.3933 23.7473ZM13.1617 14.9091C13.5581 14.9091 13.9382 15.0666 14.2184 15.3468C14.4987 15.6271 14.6561 16.0072 14.6561 16.4035C14.6561 16.7999 14.4987 17.18 14.2184 17.4602C13.9382 17.7405 13.5581 17.8979 13.1617 17.8979C12.7654 17.8979 12.3853 17.7405 12.1051 17.4602C11.8248 17.18 11.6674 16.7999 11.6674 16.4035C11.6674 16.0072 11.8248 15.6271 12.1051 15.3468C12.3853 15.0666 12.7654 14.9091 13.1617 14.9091ZM30.7346 26.426C30.5281 26.426 30.3301 26.3441 30.1841 26.1981C30.0381 26.0522 29.956 25.8543 29.9558 25.6479L29.9549 20.8923C29.9548 20.8708 29.9462 20.8503 29.9311 20.8351C29.9159 20.82 29.8954 20.8114 29.8739 20.8113H29.7089C29.6875 20.8114 29.667 20.82 29.6518 20.8351C29.6366 20.8503 29.6281 20.8708 29.628 20.8923V34.2351C29.628 34.5015 29.5222 34.7569 29.3338 34.9453C29.1455 35.1336 28.89 35.2395 28.6236 35.2395C28.3572 35.2395 28.1018 35.1336 27.9134 34.9453C27.7251 34.7569 27.6192 34.5015 27.6192 34.2351V26.3841C27.6192 26.327 27.5927 26.3029 27.5361 26.3029H27.3742C27.3177 26.3029 27.2911 26.3266 27.2911 26.3841V34.2351C27.2911 34.5015 27.1853 34.7569 26.9969 34.9453C26.8086 35.1336 26.5531 35.2395 26.2867 35.2395C26.0204 35.2395 25.7649 35.1336 25.5765 34.9453C25.3882 34.7569 25.2824 34.5015 25.2824 34.2351V20.8923C25.2823 20.8708 25.2737 20.8503 25.2586 20.8351C25.2434 20.82 25.2229 20.8114 25.2014 20.8113H25.0364C25.015 20.8114 24.9945 20.82 24.9793 20.8351C24.9641 20.8503 24.9556 20.8708 24.9555 20.8923L24.3164 24.757C24.2933 24.8445 24.2633 24.901 24.2274 24.9654C24.0567 25.2701 22.4592 28.3888 22.4592 28.3888C22.4374 28.4279 22.4199 28.5407 22.4199 28.5407C22.4199 28.5407 22.4167 34.3173 22.4121 34.362C22.3611 34.8182 21.948 35.2398 21.4449 35.2398C20.9124 35.2398 20.5255 34.796 20.5177 34.3101L20.5167 31.8482C20.5167 31.8268 20.5081 31.8062 20.4929 31.7911C20.4778 31.7759 20.4572 31.7673 20.4358 31.7673H20.3142C20.2928 31.7673 20.2723 31.7759 20.2571 31.7911C20.2419 31.8062 20.2334 31.8268 20.2333 31.8482L20.233 34.2973C20.2252 34.7832 19.7452 35.2398 19.2127 35.2398C18.6802 35.2398 18.2571 34.7807 18.2492 34.2948V28.4454C18.2492 28.4007 18.2311 28.3329 18.2086 28.2941L16.4483 24.9895C16.391 24.8888 16.3489 24.7802 16.3233 24.6673C16.3202 24.6588 15.1502 20.8479 15.1502 20.8479C15.1433 20.832 15.1086 20.7651 15.0274 20.7651H14.863C14.8167 20.7645 14.7896 20.8038 14.8017 20.8482L17.1314 28.4723C17.1439 28.5166 17.1314 28.5945 17.0502 28.5945H15.4158C15.3696 28.5945 15.3358 28.632 15.3358 28.6782L15.3361 34.2348C15.3361 34.5011 15.2303 34.7566 15.0419 34.945C14.8536 35.1333 14.5981 35.2391 14.3317 35.2391C14.0654 35.2391 13.8099 35.1333 13.6215 34.945C13.4332 34.7566 13.3274 34.5011 13.3274 34.2348L13.3271 28.6782C13.3271 28.656 13.3182 28.6347 13.3025 28.619C13.2868 28.6033 13.2655 28.5945 13.2433 28.5945H13.0802C13.058 28.5945 13.0367 28.6033 13.021 28.619C13.0053 28.6347 12.9964 28.656 12.9964 28.6782L12.9961 34.2348C12.9961 34.5011 12.8903 34.7566 12.7019 34.945C12.5136 35.1333 12.2581 35.2391 11.9917 35.2391C11.7254 35.2391 11.4699 35.1333 11.2815 34.945C11.0932 34.7566 10.9874 34.5011 10.9874 34.2348L10.9877 28.6782C10.9877 28.632 10.9539 28.5945 10.9077 28.5945H9.27331C9.19206 28.5945 9.17956 28.5166 9.19206 28.4723L11.5217 20.8482C11.5339 20.8038 11.5071 20.7641 11.4605 20.7651H11.4602H11.2961C11.2698 20.7654 11.2441 20.7734 11.2223 20.7881C11.2005 20.8028 11.1834 20.8236 11.1733 20.8479L10.0092 24.6423C9.94456 24.8347 9.80729 24.9943 9.62667 25.0871C9.44606 25.1798 9.23637 25.1984 9.04226 25.1388C8.84816 25.0793 8.68497 24.9463 8.58745 24.7682C8.48994 24.5901 8.4658 24.381 8.52018 24.1854L9.68706 20.3745C9.86518 19.756 10.2983 18.3479 11.5224 18.3479H14.8055C16.1189 18.3479 16.4586 19.756 16.6364 20.3745C16.6364 20.3745 17.8155 24.2298 17.8202 24.2523C18.0133 24.5907 18.8327 26.2848 18.8327 26.2848C18.8459 26.3052 18.8638 26.3222 18.8849 26.3344C18.906 26.3467 18.9296 26.3537 18.9539 26.3551H21.6824C21.778 26.3551 21.8292 26.3245 21.8746 26.2463L22.8264 24.272C22.9636 23.3154 23.3971 20.2901 23.3971 20.2363C23.3971 19.1704 24.2167 18.3507 25.2417 18.3507H29.6689C30.6936 18.3507 31.5136 19.1704 31.5139 20.2363L31.5142 25.6473C31.5138 25.8538 31.4315 26.0518 31.2854 26.1978C31.1392 26.3438 30.9411 26.4259 30.7346 26.426Z" fill="#A2128F"/>
</svg>
