<svg width="26" height="26" viewBox="0 0 26 26" fill="none" xmlns="http://www.w3.org/2000/svg">
<path d="M13.0389 1.65631C12.9806 1.61589 12.8863 1.61203 12.8282 1.65265L9.96132 3.67354C9.90322 3.71437 9.87235 3.68776 9.87235 3.61687V2.21714C9.87235 2.14625 9.78237 2.10867 9.71127 2.10867H7.84882C7.77793 2.10867 7.74908 2.14625 7.74908 2.21714V5.10395C7.74908 5.17484 7.68774 5.26543 7.62944 5.30606L0.597257 10.252C0.539164 10.2928 0.542414 10.3423 0.613304 10.3423H3.73879C3.80968 10.3423 3.86554 10.3665 3.86554 10.4374V24.2452C3.86585 24.2797 3.87965 24.3127 3.90399 24.3372C3.92832 24.3616 3.96125 24.3756 3.99574 24.376H21.8496C21.9205 24.376 21.9902 24.3163 21.9902 24.2452V10.4374C21.9902 10.3665 22.0355 10.3423 22.1066 10.3423H25.382C25.4531 10.3423 25.4632 10.2928 25.4049 10.2524L13.0389 1.65631ZM17.8456 9.69275C18.1032 9.69275 18.3503 9.79508 18.5325 9.97725C18.7146 10.1594 18.817 10.4065 18.817 10.6641C18.817 10.9217 18.7146 11.1688 18.5325 11.3509C18.3503 11.5331 18.1032 11.6354 17.8456 11.6354C17.588 11.6354 17.3409 11.5331 17.1588 11.3509C16.9766 11.1688 16.8743 10.9217 16.8743 10.6641C16.8743 10.4065 16.9766 10.1594 17.1588 9.97725C17.3409 9.79508 17.588 9.69275 17.8456 9.69275ZM13.2556 15.4357C13.4428 15.4357 13.6223 15.5101 13.7547 15.6424C13.8871 15.7748 13.9615 15.9544 13.9615 16.1416C13.9615 16.3288 13.8871 16.5083 13.7547 16.6407C13.6223 16.773 13.4428 16.8474 13.2556 16.8474C13.0684 16.8474 12.8889 16.773 12.7565 16.6407C12.6241 16.5083 12.5497 16.3288 12.5497 16.1416C12.5497 15.9544 12.6241 15.7748 12.7565 15.6424C12.8889 15.5101 13.0684 15.4357 13.2556 15.4357ZM8.55508 9.69092C8.8127 9.69092 9.05977 9.79326 9.24193 9.97542C9.42409 10.1576 9.52643 10.4046 9.52643 10.6623C9.52643 10.9199 9.42409 11.1669 9.24193 11.3491C9.05977 11.5313 8.8127 11.6336 8.55508 11.6336C8.29747 11.6336 8.0504 11.5313 7.86824 11.3491C7.68608 11.1669 7.58374 10.9199 7.58374 10.6623C7.58374 10.4046 7.68608 10.1576 7.86824 9.97542C8.0504 9.79326 8.29747 9.69092 8.55508 9.69092ZM19.9774 17.1769C19.8432 17.1769 19.7145 17.1236 19.6196 17.0288C19.5247 16.9339 19.4713 16.8053 19.4712 16.6711L19.4706 13.58C19.4706 13.566 19.465 13.5527 19.4551 13.5428C19.4453 13.533 19.4319 13.5274 19.418 13.5273H19.3108C19.2968 13.5274 19.2835 13.533 19.2736 13.5428C19.2638 13.5527 19.2582 13.566 19.2581 13.58V22.2528C19.2581 22.4259 19.1894 22.592 19.0669 22.7144C18.9445 22.8368 18.7784 22.9056 18.6053 22.9056C18.4322 22.9056 18.2661 22.8368 18.1437 22.7144C18.0212 22.592 17.9525 22.4259 17.9525 22.2528V17.1497C17.9525 17.1125 17.9352 17.0969 17.8984 17.0969H17.7932C17.7564 17.0969 17.7392 17.1123 17.7392 17.1497V22.2528C17.7392 22.4259 17.6704 22.592 17.548 22.7144C17.4255 22.8368 17.2595 22.9056 17.0863 22.9056C16.9132 22.9056 16.7471 22.8368 16.6247 22.7144C16.5023 22.592 16.4335 22.4259 16.4335 22.2528V13.58C16.4334 13.566 16.4279 13.5527 16.418 13.5428C16.4082 13.533 16.3948 13.5274 16.3809 13.5273H16.2736C16.2597 13.5274 16.2463 13.533 16.2365 13.5428C16.2266 13.5527 16.2211 13.566 16.221 13.58L15.8056 16.092C15.7906 16.1489 15.7711 16.1856 15.7477 16.2275C15.6368 16.4255 14.5985 18.4527 14.5985 18.4527C14.5842 18.4781 14.5729 18.5514 14.5729 18.5514C14.5729 18.5514 14.5708 22.3062 14.5678 22.3352C14.5347 22.6318 14.2661 22.9058 13.9391 22.9058C13.593 22.9058 13.3415 22.6174 13.3364 22.3015L13.3358 20.7013C13.3358 20.6874 13.3302 20.674 13.3204 20.6642C13.3105 20.6543 13.2972 20.6488 13.2832 20.6487H13.2042C13.1903 20.6488 13.1769 20.6543 13.1671 20.6642C13.1572 20.674 13.1517 20.6874 13.1516 20.7013L13.1514 22.2932C13.1463 22.6091 12.8343 22.9058 12.4882 22.9058C12.1421 22.9058 11.867 22.6074 11.862 22.2916V18.4895C11.862 18.4604 11.8502 18.4164 11.8356 18.3912L10.6913 16.2431C10.6541 16.1777 10.6267 16.1071 10.6101 16.0337C10.6081 16.0282 9.84757 13.5511 9.84757 13.5511C9.8431 13.5407 9.82055 13.4973 9.76774 13.4973H9.6609C9.63083 13.4969 9.61316 13.5225 9.62108 13.5513L11.1354 18.5069C11.1435 18.5358 11.1354 18.5864 11.0826 18.5864H10.0202C9.99016 18.5864 9.96823 18.6107 9.96823 18.6408L9.96843 22.2526C9.96843 22.4257 9.89965 22.5918 9.77722 22.7142C9.65478 22.8366 9.48873 22.9054 9.31558 22.9054C9.14244 22.9054 8.97639 22.8366 8.85395 22.7142C8.73152 22.5918 8.66274 22.4257 8.66274 22.2526L8.66254 18.6408C8.66254 18.6264 8.6568 18.6125 8.64659 18.6023C8.63638 18.5921 8.62254 18.5864 8.6081 18.5864H8.50207C8.48763 18.5864 8.47378 18.5921 8.46358 18.6023C8.45337 18.6125 8.44763 18.6264 8.44763 18.6408L8.44743 22.2526C8.44743 22.4257 8.37865 22.5918 8.25621 22.7142C8.13378 22.8366 7.96773 22.9054 7.79458 22.9054C7.62144 22.9054 7.45539 22.8366 7.33295 22.7142C7.21052 22.5918 7.14174 22.4257 7.14174 22.2526L7.14194 18.6408C7.14194 18.6107 7.12001 18.5864 7.08994 18.5864H6.0276C5.97479 18.5864 5.96666 18.5358 5.97479 18.5069L7.48908 13.5513C7.49701 13.5225 7.47954 13.4967 7.44927 13.4973H7.44907H7.34243C7.32532 13.4975 7.30864 13.5027 7.29445 13.5122C7.28026 13.5218 7.26919 13.5353 7.2626 13.5511L6.50596 16.0174C6.46391 16.1425 6.37469 16.2463 6.25729 16.3066C6.13989 16.3669 6.00359 16.3789 5.87742 16.3402C5.75125 16.3015 5.64518 16.2151 5.5818 16.0993C5.51841 15.9836 5.50272 15.8476 5.53807 15.7205L6.29654 13.2434C6.41232 12.8414 6.69385 11.9261 7.48949 11.9261H9.62352C10.4773 11.9261 10.6981 12.8414 10.8136 13.2434C10.8136 13.2434 11.58 15.7493 11.5831 15.7639C11.7086 15.9839 12.2412 17.0851 12.2412 17.0851C12.2498 17.0984 12.2614 17.1094 12.2751 17.1174C12.2888 17.1253 12.3042 17.1299 12.32 17.1308H14.0935C14.1556 17.1308 14.189 17.1109 14.2184 17.0601L14.8371 15.7767C14.9263 15.155 15.208 13.1885 15.208 13.1536C15.208 12.4607 15.7408 11.9279 16.4071 11.9279H19.2848C19.9508 11.9279 20.4838 12.4607 20.484 13.1536L20.4842 16.6707C20.4839 16.805 20.4304 16.9337 20.3354 17.0285C20.2404 17.1234 20.1117 17.1768 19.9774 17.1769Z" fill="#A2128F"/>
</svg>
