<svg width="32" height="32" viewBox="0 0 32 32" fill="none" xmlns="http://www.w3.org/2000/svg">
<path fill-rule="evenodd" clip-rule="evenodd" d="M14.5951 1.6665H17.405C18.9154 1.66648 20.1498 1.66645 21.1242 1.79746C22.1429 1.93441 23.0259 2.23078 23.7309 2.9357C24.4358 3.64064 24.7322 4.52376 24.8691 5.54236C24.9365 6.04329 24.9691 6.61289 24.9851 7.25337C26.3961 7.48098 27.5523 7.92906 28.4785 8.85509C29.4762 9.8529 29.919 11.1182 30.1293 12.6814C30.3334 14.2004 30.3334 16.1412 30.3334 18.5916V18.742C30.3334 21.1924 30.3334 23.1332 30.1293 24.6521C29.919 26.2153 29.4762 27.4806 28.4785 28.4785C27.4806 29.4762 26.2153 29.919 24.6521 30.1293C23.1332 30.3334 21.1923 30.3334 18.7419 30.3334H13.2582C10.8079 30.3334 8.867 30.3334 7.34806 30.1293C5.78483 29.919 4.51956 29.4762 3.52174 28.4785C2.52392 27.4806 2.0811 26.2153 1.87094 24.6521C1.66671 23.1332 1.66672 21.1924 1.66675 18.742V18.5916C1.66672 16.1412 1.66671 14.2004 1.87094 12.6814C2.0811 11.1182 2.52392 9.8529 3.52174 8.85509C4.44776 7.92906 5.60411 7.48098 7.01507 7.25337C7.03096 6.61289 7.0637 6.04329 7.13104 5.54236C7.26799 4.52376 7.56436 3.64064 8.26928 2.9357C8.97422 2.23078 9.85732 1.93441 10.8759 1.79746C11.8504 1.66645 13.0847 1.66648 14.5951 1.6665ZM7.00008 9.28801C6.02543 9.48368 5.40775 9.7975 4.93595 10.2693C4.37167 10.8336 4.03344 11.6064 3.8531 12.9479C3.66887 14.3181 3.66675 16.1244 3.66675 18.6668C3.66675 21.2092 3.66887 23.0154 3.8531 24.3856C4.03344 25.727 4.37167 26.5 4.93595 27.0642C5.50023 27.6285 6.2731 27.9668 7.61455 28.147C8.98476 28.3313 10.791 28.3334 13.3334 28.3334H18.6667C21.2091 28.3334 23.0154 28.3313 24.3857 28.147C25.727 27.9668 26.4999 27.6285 27.0642 27.0642C27.6285 26.5 27.9667 25.727 28.147 24.3856C28.3313 23.0154 28.3334 21.2092 28.3334 18.6668C28.3334 16.1244 28.3313 14.3181 28.147 12.9479C27.9667 11.6064 27.6285 10.8336 27.0642 10.2693C26.5925 9.7975 25.9747 9.48368 25.0001 9.28801V10.8352C25.0001 10.8967 25.0001 10.9575 25.0002 11.0175C25.0013 12.0656 25.0022 12.8958 24.6539 13.6394C24.3055 14.383 23.6673 14.9138 22.8614 15.584C22.8153 15.6224 22.7685 15.6612 22.7213 15.7006L21.7117 16.542C20.5298 17.5268 19.5719 18.325 18.7265 18.8688C17.8458 19.4352 16.9882 19.793 16.0001 19.793C15.0119 19.793 14.1543 19.4352 13.2737 18.8688C12.4282 18.325 11.4704 17.5268 10.2886 16.542L9.27891 15.7006C9.23166 15.6612 9.18494 15.6224 9.13876 15.584C8.33288 14.9138 7.69456 14.383 7.34626 13.6394C6.99795 12.8958 6.99883 12.0656 6.99995 11.0175C7.00002 10.9575 7.00008 10.8967 7.00008 10.8352V9.28801ZM11.1424 3.77962C10.3456 3.88676 9.95488 4.07853 9.6835 4.34992C9.41211 4.6213 9.22034 5.01202 9.1132 5.80885C9.0022 6.63444 9.00008 7.73356 9.00008 9.33317V10.8352C9.00008 12.1569 9.02218 12.5023 9.15743 12.7911C9.2927 13.0799 9.5439 13.318 10.5593 14.1641L11.5188 14.9637C12.7627 16.0004 13.6263 16.7177 14.3555 17.1866C15.0613 17.6406 15.5399 17.793 16.0001 17.793C16.4602 17.793 16.9389 17.6406 17.6446 17.1866C18.3738 16.7177 19.2374 16.0004 20.4814 14.9637L21.4409 14.1641C22.4562 13.318 22.7074 13.0799 22.8427 12.7911C22.9779 12.5023 23.0001 12.1569 23.0001 10.8352V9.33317C23.0001 7.73356 22.9979 6.63444 22.887 5.80885C22.7798 5.01202 22.5881 4.6213 22.3166 4.34992C22.0453 4.07853 21.6546 3.88676 20.8577 3.77962C20.0322 3.66862 18.933 3.6665 17.3334 3.6665H14.6667C13.0671 3.6665 11.968 3.66862 11.1424 3.77962ZM12.3334 7.99984C12.3334 7.44756 12.7811 6.99984 13.3334 6.99984H18.6667C19.219 6.99984 19.6667 7.44756 19.6667 7.99984C19.6667 8.55213 19.219 8.99984 18.6667 8.99984H13.3334C12.7811 8.99984 12.3334 8.55213 12.3334 7.99984ZM13.6667 11.9998C13.6667 11.4476 14.1145 10.9998 14.6667 10.9998H17.3334C17.8857 10.9998 18.3334 11.4476 18.3334 11.9998C18.3334 12.5521 17.8857 12.9998 17.3334 12.9998H14.6667C14.1145 12.9998 13.6667 12.5521 13.6667 11.9998Z" fill="#760D6C"/>
</svg>
