<svg width="50" height="52" viewBox="0 0 50 52" fill="none" xmlns="http://www.w3.org/2000/svg">
<g clip-path="url(#clip0_873_428)">
<path d="M37.9518 28.9736C36.3228 32.3487 34.1155 35.7111 31.8585 38.7303C29.7175 41.5766 27.4282 44.3031 25.0005 46.898C22.5728 44.3032 20.2835 41.5767 18.1425 38.7303C15.8855 35.7111 13.6782 32.3487 12.0492 28.9736C10.4015 25.5635 9.45646 22.3695 9.45646 19.63C9.45646 15.4156 11.0941 11.3738 14.0092 8.3938C16.9243 5.41377 20.878 3.7396 25.0005 3.7396C29.123 3.7396 33.0767 5.41377 35.9918 8.3938C38.9069 11.3738 40.5445 15.4156 40.5445 19.63C40.5445 22.3695 39.5964 25.5635 37.9518 28.9736ZM25.0005 51.4108C25.0005 51.4108 43.6534 33.3403 43.6534 19.63C43.6534 14.5727 41.6881 9.72259 38.1901 6.14656C34.692 2.57052 29.9475 0.561523 25.0005 0.561523C20.0535 0.561523 15.309 2.57052 11.8109 6.14656C8.31286 9.72259 6.34766 14.5727 6.34766 19.63C6.34766 33.3403 25.0005 51.4108 25.0005 51.4108Z" fill="#720C68"/>
<path d="M25.0003 25.9862C23.3512 25.9862 21.7698 25.3166 20.6037 24.1246C19.4377 22.9325 18.7826 21.3158 18.7826 19.6301C18.7826 17.9443 19.4377 16.3276 20.6037 15.1356C21.7698 13.9436 23.3512 13.2739 25.0003 13.2739C26.6493 13.2739 28.2307 13.9436 29.3968 15.1356C30.5628 16.3276 31.2179 17.9443 31.2179 19.6301C31.2179 21.3158 30.5628 22.9325 29.3968 24.1246C28.2307 25.3166 26.6493 25.9862 25.0003 25.9862ZM25.0003 29.1643C27.4738 29.1643 29.846 28.1598 31.595 26.3718C33.3441 24.5838 34.3267 22.1587 34.3267 19.6301C34.3267 17.1014 33.3441 14.6764 31.595 12.8883C29.846 11.1003 27.4738 10.0958 25.0003 10.0958C22.5267 10.0958 20.1545 11.1003 18.4055 12.8883C16.6564 14.6764 15.6738 17.1014 15.6738 19.6301C15.6738 22.1587 16.6564 24.5838 18.4055 26.3718C20.1545 28.1598 22.5267 29.1643 25.0003 29.1643Z" fill="#720C68"/>
</g>
<defs>
<clipPath id="clip0_873_428">
<rect width="49.7409" height="50.8493" fill="white" transform="translate(0.129883 0.561523)"/>
</clipPath>
</defs>
</svg>
