<svg width="64" height="64" viewBox="0 0 64 64" fill="none" xmlns="http://www.w3.org/2000/svg">
<g clip-path="url(#clip0_756_546)">
<path d="M48.664 35.76C46.568 40.008 43.728 44.24 40.824 48.04C38.0692 51.6225 35.1236 55.0541 32 58.32C28.8763 55.0542 25.9307 51.6225 23.176 48.04C20.272 44.24 17.432 40.008 15.336 35.76C13.216 31.468 12 27.448 12 24C12 18.6957 14.1071 13.6086 17.8579 9.85786C21.6086 6.10714 26.6957 4 32 4C37.3043 4 42.3914 6.10714 46.1421 9.85786C49.8929 13.6086 52 18.6957 52 24C52 27.448 50.78 31.468 48.664 35.76ZM32 64C32 64 56 41.256 56 24C56 17.6348 53.4714 11.5303 48.9706 7.02944C44.4697 2.52856 38.3652 0 32 0C25.6348 0 19.5303 2.52856 15.0294 7.02944C10.5286 11.5303 8 17.6348 8 24C8 41.256 32 64 32 64Z" fill="#720C68"/>
<path d="M32 32C29.8783 32 27.8434 31.1571 26.3431 29.6569C24.8429 28.1566 24 26.1217 24 24C24 21.8783 24.8429 19.8434 26.3431 18.3431C27.8434 16.8429 29.8783 16 32 16C34.1217 16 36.1566 16.8429 37.6569 18.3431C39.1571 19.8434 40 21.8783 40 24C40 26.1217 39.1571 28.1566 37.6569 29.6569C36.1566 31.1571 34.1217 32 32 32ZM32 36C35.1826 36 38.2348 34.7357 40.4853 32.4853C42.7357 30.2348 44 27.1826 44 24C44 20.8174 42.7357 17.7652 40.4853 15.5147C38.2348 13.2643 35.1826 12 32 12C28.8174 12 25.7652 13.2643 23.5147 15.5147C21.2643 17.7652 20 20.8174 20 24C20 27.1826 21.2643 30.2348 23.5147 32.4853C25.7652 34.7357 28.8174 36 32 36Z" fill="#720C68"/>
</g>
<defs>
<clipPath id="clip0_756_546">
<rect width="64" height="64" fill="white"/>
</clipPath>
</defs>
</svg>
