<svg width="40" height="40" viewBox="0 0 40 40" fill="none" xmlns="http://www.w3.org/2000/svg">
<path d="M32.4998 23.75C32.5006 23.5501 32.4534 23.3529 32.3623 23.175C31.8614 21.3494 30.9304 19.6704 29.6473 18.2785C28.3641 16.8866 26.7662 15.8224 24.9873 15.175C24.9997 15.1175 25.0039 15.0586 24.9998 15V12.5C24.9998 12.1685 24.8681 11.8505 24.6337 11.6161C24.3993 11.3817 24.0813 11.25 23.7498 11.25V9.8L26.0248 11.05C26.5298 11.3434 27.1032 11.4986 27.6873 11.5C28.2763 11.4941 28.8537 11.3347 29.3623 11.0375C29.9408 10.6819 30.4182 10.1836 30.7487 9.59042C31.0793 8.99723 31.2518 8.32905 31.2498 7.65C31.2629 6.96206 31.0956 6.28268 30.7644 5.67955C30.4333 5.07642 29.9498 4.57061 29.3623 4.2125C28.8566 3.91459 28.2804 3.75748 27.6935 3.75748C27.1066 3.75748 26.5304 3.91459 26.0248 4.2125L25.6248 4.4375C25.3389 4.6024 25.1298 4.87369 25.0431 5.19217C24.9565 5.51065 24.9993 5.85048 25.1623 6.1375C25.2429 6.28178 25.3513 6.40864 25.4813 6.51075C25.6112 6.61285 25.7602 6.68817 25.9194 6.73234C26.0787 6.77652 26.2451 6.78867 26.4091 6.7681C26.5731 6.74753 26.7314 6.69464 26.8748 6.6125L27.2623 6.375C27.3887 6.29896 27.5335 6.25878 27.681 6.25878C27.8286 6.25878 27.9733 6.29896 28.0998 6.375C28.3063 6.51005 28.4746 6.69598 28.5884 6.91491C28.7023 7.13383 28.7578 7.37838 28.7498 7.625C28.7578 7.87162 28.7023 8.11617 28.5884 8.33509C28.4746 8.55402 28.3063 8.73995 28.0998 8.875C27.9749 8.95522 27.8295 8.99787 27.681 8.99787C27.5326 8.99787 27.3872 8.95522 27.2623 8.875L23.7498 6.925V3.75C23.7498 3.41848 23.6181 3.10054 23.3837 2.86612C23.1493 2.6317 22.8313 2.5 22.4998 2.5H17.4998C17.1683 2.5 16.8503 2.6317 16.6159 2.86612C16.3815 3.10054 16.2498 3.41848 16.2498 3.75V6.25H14.9998C14.6683 6.25 14.3503 6.3817 14.1159 6.61612C13.8815 6.85054 13.7498 7.16848 13.7498 7.5C13.7498 7.83152 13.8815 8.14946 14.1159 8.38388C14.3503 8.6183 14.6683 8.75 14.9998 8.75H16.2498V11.25C15.9183 11.25 15.6003 11.3817 15.3659 11.6161C15.1315 11.8505 14.9998 12.1685 14.9998 12.5V15C14.9939 15.0582 14.9939 15.1168 14.9998 15.175C12.8074 15.9663 10.8981 17.3885 9.51229 19.2625C9.31994 19.5299 9.24092 19.8625 9.29242 20.1878C9.34391 20.5132 9.52176 20.8051 9.78729 21C10.0532 21.1937 10.3847 21.2747 10.7099 21.2256C11.0352 21.1764 11.328 21.0011 11.5248 20.7375C12.6314 19.25 14.1538 18.1235 15.8998 17.5H24.0998C26.3872 18.3329 28.261 20.0229 29.3248 22.2125C27.3742 22.026 25.4068 22.1313 23.4873 22.525C22.1204 22.8294 20.7884 23.2734 19.5123 23.85C18.3827 24.3667 17.201 24.7606 15.9873 25.025C13.9524 25.4306 11.8619 25.4729 9.81229 25.15C9.85552 24.7803 9.91811 24.4131 9.99979 24.05C10.0465 23.8884 10.0601 23.719 10.0398 23.552C10.0194 23.385 9.96562 23.2238 9.88152 23.0781C9.79743 22.9324 9.68479 22.8052 9.55035 22.7041C9.41591 22.603 9.26244 22.53 9.09914 22.4896C8.93584 22.4492 8.76606 22.4422 8.59997 22.4689C8.43389 22.4957 8.27492 22.5557 8.13259 22.6454C7.99025 22.7351 7.86748 22.8526 7.77164 22.9908C7.67579 23.1291 7.60884 23.2853 7.57479 23.45C6.85537 26.3327 7.24993 29.3808 8.67965 31.9853C10.1094 34.5899 12.469 36.5592 15.2873 37.5C15.4169 37.5399 15.5516 37.561 15.6873 37.5625H24.3123C24.4479 37.561 24.5826 37.5399 24.7123 37.5C25.7013 37.1364 26.6385 36.6447 27.4998 36.0375C27.7623 35.8625 28.0123 35.675 28.2498 35.4875C28.7521 35.0896 29.2204 34.6506 29.6498 34.175C31.6381 32.0141 32.7442 29.1864 32.7498 26.25C32.7549 25.4102 32.6711 24.5722 32.4998 23.75ZM18.7498 5H21.2498V11.25H18.7498V5ZM17.4998 15V13.75H22.4998V15H17.4998ZM27.8248 32.5C27.4861 32.8743 27.1183 33.2212 26.7248 33.5375C26.5248 33.6875 26.3373 33.825 26.1248 33.9625C25.4958 34.3916 24.8155 34.7401 24.0998 35H15.8998C14.3298 34.4314 12.9413 33.4517 11.8792 32.1632C10.8172 30.8747 10.1206 29.3247 9.86229 27.675C10.7609 27.8028 11.6671 27.8697 12.5748 27.875C13.8966 27.884 15.2159 27.7583 16.5123 27.5C17.8746 27.1938 19.2023 26.7498 20.4748 26.175C21.6109 25.6639 22.7962 25.2702 24.0123 25C26.0345 24.5944 28.1127 24.5521 30.1498 24.875C30.2135 25.3306 30.2469 25.79 30.2498 26.25C30.2478 28.5626 29.3831 30.7912 27.8248 32.5Z" fill="#A2128F"/>
</svg>
