<svg width="32" height="32" viewBox="0 0 32 32" fill="none" xmlns="http://www.w3.org/2000/svg">
<g clip-path="url(#clip0_1396_4)">
<path d="M25.9999 12.0002H23.3333V8.66683C23.3333 6.72191 22.5606 4.85665 21.1854 3.48138C19.8101 2.10611 17.9448 1.3335 15.9999 1.3335H14.6666C12.7217 1.3335 10.8564 2.10611 9.48114 3.48138C8.10587 4.85665 7.33325 6.72191 7.33325 8.66683V12.0002H4.66659C4.31296 12.0002 3.97382 12.1406 3.72378 12.3907C3.47373 12.6407 3.33325 12.9799 3.33325 13.3335V29.3335C3.33325 29.6871 3.47373 30.0263 3.72378 30.2763C3.97382 30.5264 4.31296 30.6668 4.66659 30.6668H25.9999C26.3535 30.6668 26.6927 30.5264 26.9427 30.2763C27.1928 30.0263 27.3333 29.6871 27.3333 29.3335V13.3335C27.3333 12.9799 27.1928 12.6407 26.9427 12.3907C26.6927 12.1406 26.3535 12.0002 25.9999 12.0002ZM9.99992 8.66683C9.99992 7.42915 10.4916 6.24217 11.3668 5.367C12.2419 4.49183 13.4289 4.00016 14.6666 4.00016H15.9999C17.2376 4.00016 18.4246 4.49183 19.2998 5.367C20.1749 6.24217 20.6666 7.42915 20.6666 8.66683V12.0002H9.99992V8.66683ZM9.33325 23.3335C8.93769 23.3335 8.55101 23.2162 8.22211 22.9964C7.89321 22.7767 7.63687 22.4643 7.48549 22.0989C7.33412 21.7334 7.29451 21.3313 7.37168 20.9433C7.44885 20.5554 7.63933 20.199 7.91904 19.9193C8.19874 19.6396 8.55511 19.4491 8.94307 19.3719C9.33103 19.2948 9.73317 19.3344 10.0986 19.4857C10.4641 19.6371 10.7764 19.8935 10.9962 20.2224C11.216 20.5513 11.3333 20.9379 11.3333 21.3335C11.3426 21.5986 11.2972 21.8629 11.2 22.1097C11.1028 22.3566 10.9558 22.5808 10.7682 22.7684C10.5806 22.956 10.3564 23.103 10.1095 23.2002C9.86264 23.2974 9.5984 23.3428 9.33325 23.3335ZM15.3333 23.3335C14.9377 23.3335 14.551 23.2162 14.2221 22.9964C13.8932 22.7767 13.6369 22.4643 13.4855 22.0989C13.3341 21.7334 13.2945 21.3313 13.3717 20.9433C13.4489 20.5554 13.6393 20.199 13.919 19.9193C14.1987 19.6396 14.5551 19.4491 14.9431 19.3719C15.331 19.2948 15.7332 19.3344 16.0986 19.4857C16.4641 19.6371 16.7764 19.8935 16.9962 20.2224C17.216 20.5513 17.3333 20.9379 17.3333 21.3335C17.3426 21.5986 17.2972 21.8629 17.2 22.1097C17.1028 22.3566 16.9558 22.5808 16.7682 22.7684C16.5806 22.956 16.3564 23.103 16.1095 23.2002C15.8626 23.2974 15.5984 23.3428 15.3333 23.3335ZM21.3333 23.3335C20.9377 23.3335 20.551 23.2162 20.2221 22.9964C19.8932 22.7767 19.6369 22.4643 19.4855 22.0989C19.3341 21.7334 19.2945 21.3313 19.3717 20.9433C19.4489 20.5554 19.6393 20.199 19.919 19.9193C20.1987 19.6396 20.5551 19.4491 20.9431 19.3719C21.331 19.2948 21.7332 19.3344 22.0986 19.4857C22.4641 19.6371 22.7764 19.8935 22.9962 20.2224C23.216 20.5513 23.3333 20.9379 23.3333 21.3335C23.3426 21.5986 23.2972 21.8629 23.2 22.1097C23.1028 22.3566 22.9558 22.5808 22.7682 22.7684C22.5806 22.956 22.3564 23.103 22.1095 23.2002C21.8626 23.2974 21.5984 23.3428 21.3333 23.3335Z" fill="#760D6C"/>
</g>
<defs>
<clipPath id="clip0_1396_4">
<rect width="32" height="32" fill="white"/>
</clipPath>
</defs>
</svg>
