<svg width="32" height="32" viewBox="0 0 32 32" fill="none" xmlns="http://www.w3.org/2000/svg">
<path d="M16.0057 16.625C17.449 16.6237 18.8473 16.1221 19.9623 15.2055C21.0772 14.2889 21.84 13.0142 22.1205 11.5984C22.401 10.1825 22.182 8.71324 21.5008 7.44077C20.8196 6.16831 19.7183 5.17137 18.3845 4.61981C17.0507 4.06824 15.5669 3.99616 14.1859 4.41584C12.8049 4.83552 11.6121 5.72101 10.8108 6.92145C10.0094 8.1219 9.64903 9.56304 9.79101 10.9994C9.93299 12.4357 10.5686 13.7784 11.5894 14.7988C12.169 15.379 12.8575 15.8391 13.6154 16.1525C14.3732 16.4659 15.1856 16.6265 16.0057 16.625ZM12.5919 6.9725C13.3817 6.1827 14.4208 5.69116 15.5323 5.58164C16.6438 5.47211 17.7589 5.75139 18.6876 6.37187C19.6163 6.99235 20.3011 7.91565 20.6253 8.98445C20.9495 10.0532 20.8931 11.2014 20.4657 12.2333C20.0383 13.2651 19.2663 14.1169 18.2813 14.6434C17.2963 15.1699 16.1592 15.3385 15.0638 15.1206C13.9684 14.9027 12.9824 14.3117 12.2739 13.4483C11.5654 12.5849 11.1781 11.5025 11.1782 10.3856C11.1774 9.75164 11.3019 9.12374 11.5445 8.53801C11.7871 7.95227 12.1431 7.42025 12.5919 6.9725Z" fill="#A2128F"/>
<path d="M16.0054 17.6144C10.7179 17.6144 6.41602 21.9156 6.41602 27.2031C6.41602 27.2962 6.43435 27.3884 6.46997 27.4744C6.50558 27.5603 6.55779 27.6385 6.6236 27.7043C6.68942 27.7701 6.76755 27.8223 6.85354 27.8579C6.93953 27.8935 7.03169 27.9119 7.12477 27.9119H24.8854C25.0734 27.9119 25.2536 27.8372 25.3866 27.7043C25.5195 27.5714 25.5941 27.3911 25.5941 27.2031C25.5941 21.9156 21.2923 17.6144 16.0054 17.6144ZM7.86414 26.4944C8.22414 22.3194 11.7391 19.0319 16.0054 19.0319C20.2716 19.0319 23.786 22.3194 24.146 26.4944H7.86414Z" fill="#A2128F"/>
</svg>
