<svg width="40" height="40" viewBox="0 0 40 40" fill="none" xmlns="http://www.w3.org/2000/svg">
<g clip-path="url(#clip0_654_679)">
<path d="M39.5057 8.36916C38.7512 7.61471 32.3786 1.24204 31.6309 0.494303C30.9721 -0.164605 29.9037 -0.164605 29.2448 0.494303C28.5859 1.15321 28.5859 2.22149 29.2448 2.8804L30.2017 3.83728L25.6002 8.43869C23.6526 6.49103 23.2556 6.09408 21.6102 4.44869C20.9514 3.78978 19.883 3.78978 19.2241 4.44869C18.5652 5.10759 18.5652 6.17588 19.2241 6.83478L21.0641 8.67479L5.55286 24.1861C4.89396 24.845 4.89396 25.9133 5.55286 26.5722L8.29732 29.3166L0.494181 37.1198C-0.164727 37.7787 -0.164727 38.847 0.494181 39.5059C1.15301 40.1648 2.22137 40.1649 2.88028 39.5059L10.6834 31.7027L13.4279 34.4472C14.0867 35.106 15.1551 35.1061 15.814 34.4472L31.3254 18.9357L33.1654 20.7758C33.8242 21.4347 34.8926 21.4348 35.5515 20.7758C36.2104 20.1168 36.2104 19.0486 35.5515 18.3897C33.9067 16.7448 33.5084 16.3465 31.5615 14.3996L36.1629 9.79831L37.1198 10.7552C37.7786 11.4141 38.847 11.4142 39.5059 10.7552C40.1646 10.0964 40.1647 9.02807 39.5057 8.36916ZM14.6208 30.868L9.13209 25.3792L11.3599 23.1514L12.7915 24.583C13.4504 25.2419 14.5187 25.2419 15.1776 24.583C15.8366 23.9241 15.8366 22.8558 15.1776 22.1969L13.746 20.7653L15.0981 19.4131L16.5298 20.8447C17.1886 21.5036 18.257 21.5038 18.9159 20.8447C19.5748 20.1858 19.5748 19.1175 18.9159 18.4586L17.4842 17.027L18.8363 15.6749L20.268 17.1065C20.9268 17.7654 21.9952 17.7656 22.6541 17.1065C23.313 16.4476 23.313 15.3793 22.6541 14.7204L21.2224 13.2888L23.4504 11.0608C24.0019 11.6123 28.3881 15.9985 28.9392 16.5496L14.6208 30.868ZM29.1753 12.0136L27.9864 10.8247L32.5878 6.22338L33.7767 7.41228L29.1753 12.0136Z" fill="#A2128F"/>
</g>
<defs>
<clipPath id="clip0_654_679">
<rect width="40" height="40" fill="white"/>
</clipPath>
</defs>
</svg>
