<svg width="26" height="26" viewBox="0 0 26 26" fill="none" xmlns="http://www.w3.org/2000/svg">
<g clip-path="url(#clip0_873_471)">
<path d="M25.6787 5.44C25.1883 4.9496 21.0461 0.807368 20.5601 0.32134C20.1318 -0.10695 19.4374 -0.10695 19.0091 0.32134C18.5808 0.749629 18.5808 1.44401 19.0091 1.8723L19.6311 2.49427L16.6402 5.48519C15.3742 4.21921 15.1162 3.96119 14.0467 2.89169C13.6184 2.4634 12.924 2.4634 12.4957 2.89169C12.0674 3.31998 12.0674 4.01436 12.4957 4.44265L13.6917 5.63865L3.60936 15.721C3.18107 16.1493 3.18107 16.8437 3.60936 17.272L5.39326 19.0559L0.321217 24.1279C-0.107072 24.5562 -0.107072 25.2506 0.321217 25.6789C0.749456 26.1071 1.44389 26.1072 1.87218 25.6789L6.94422 20.6068L8.72812 22.3907C9.15636 22.819 9.85079 22.819 10.2791 22.3907L20.3615 12.3083L21.5575 13.5043C21.9858 13.9326 22.6802 13.9327 23.1085 13.5043C23.5368 13.076 23.5368 12.3816 23.1085 11.9533C22.0393 10.8842 21.7804 10.6253 20.515 9.35981L23.5059 6.36894L24.1279 6.99091C24.5561 7.4192 25.2505 7.4193 25.6788 6.99091C26.107 6.56267 26.107 5.86829 25.6787 5.44ZM9.50355 20.0643L5.93586 16.4965L7.38394 15.0484L8.3145 15.979C8.74274 16.4072 9.43718 16.4073 9.86547 15.979C10.2938 15.5507 10.2938 14.8563 9.86547 14.428L8.9349 13.4975L9.81377 12.6186L10.7443 13.5491C11.1726 13.9774 11.867 13.9775 12.2953 13.5491C12.7236 13.1208 12.7236 12.4264 12.2953 11.9982L11.3647 11.0676L12.2436 10.1887L13.1742 11.1193C13.6024 11.5476 14.2969 11.5477 14.7251 11.1193C15.1534 10.691 15.1534 9.99661 14.7251 9.56832L13.7946 8.63775L15.2428 7.18957C15.6012 7.54803 18.4522 10.3991 18.8105 10.7573L9.50355 20.0643ZM18.964 7.8089L18.1912 7.03611L21.182 4.04524L21.9548 4.81803L18.964 7.8089Z" fill="#A2128F"/>
</g>
<defs>
<clipPath id="clip0_873_471">
<rect width="26" height="26" fill="white"/>
</clipPath>
</defs>
</svg>
