<svg width="100" height="101" viewBox="0 0 100 101" fill="none" xmlns="http://www.w3.org/2000/svg">
<mask id="mask0_657_3" style="mask-type:luminance" maskUnits="userSpaceOnUse" x="0" y="0" width="98" height="100">
<path d="M0 0.941895H97.3918V99.1701H0V0.941895Z" fill="white"/>
</mask>
<g mask="url(#mask0_657_3)">
<mask id="mask1_657_3" style="mask-type:luminance" maskUnits="userSpaceOnUse" x="0" y="0" width="98" height="100">
<path d="M48.6959 0.941895C21.8009 0.941895 0 22.932 0 50.056C0 77.182 21.8009 99.1701 48.6959 99.1701C75.589 99.1701 97.3918 77.182 97.3918 50.056C97.3918 22.932 75.589 0.941895 48.6959 0.941895Z" fill="white"/>
</mask>
<g mask="url(#mask1_657_3)">
<path d="M48.6959 0.941895C21.8009 0.941895 0 22.932 0 50.056C0 77.182 21.8009 99.1701 48.6959 99.1701C75.589 99.1701 97.3919 77.182 97.3919 50.056C97.3919 22.932 75.589 0.941895 48.6959 0.941895Z" stroke="#DF86C6" stroke-width="6"/>
</g>
</g>
<mask id="mask2_657_3" style="mask-type:luminance" maskUnits="userSpaceOnUse" x="20" y="20" width="58" height="60">
<path d="M20.3215 20.1279H77.6928V79.2556H20.3215V20.1279Z" fill="white"/>
</mask>
<g mask="url(#mask2_657_3)">
<path d="M76.9995 79.1824C76.7178 79.1824 76.4577 78.9996 76.3691 78.7155C74.673 73.2458 71.3655 64.9409 65.2234 56.4155C64.792 55.9188 59.5304 49.8789 58.047 47.3874C56.4751 44.7469 55.1966 42.0985 55.4527 36.4202C55.6871 31.1988 54.6253 27.4537 52.2023 24.9662C49.9054 22.6059 46.3636 21.4793 41.6732 21.6065C39.853 21.6582 38.1235 22.286 36.8017 23.3767C36.6303 23.5178 36.4707 23.6629 36.3269 23.8079C36.2954 23.8397 36.2619 23.8675 36.2245 23.8913C36.1319 23.9529 33.9374 25.4252 31.9321 26.4404C31.609 26.6411 29.1053 28.1213 25.851 28.0617C25.4905 28.0557 25.1418 27.9921 24.8129 27.8729C23.9225 27.555 23.1424 27.6265 22.6145 28.0756C22.0412 28.5604 21.8147 29.4286 21.992 30.4538C22.0156 30.5909 22.0136 30.7319 21.9841 30.8651C21.8974 31.2545 21.5448 33.3148 23.0045 35.5579C24.7282 38.2063 28.2425 40.066 33.4489 41.0852C33.7503 41.115 35.407 41.3316 36.4451 42.5475C37.0696 43.2787 37.3473 44.2065 37.2685 45.3032V51.0789C37.2685 51.4465 36.9711 51.7465 36.6067 51.7465C36.2422 51.7465 35.9448 51.4465 35.9448 51.0789V45.2774C35.9448 45.2595 35.9448 45.2436 35.9467 45.2277C36.0039 44.4747 35.8384 43.8847 35.4424 43.4197C34.688 42.5356 33.3209 42.4144 33.3071 42.4124C33.2815 42.4104 33.2559 42.4065 33.2302 42.4025C27.6416 41.3137 23.8279 39.2574 21.8954 36.291C20.2092 33.6923 20.5598 31.2346 20.682 30.6326C20.4397 29.1484 20.8317 27.8471 21.7635 27.0543C22.6519 26.2994 23.9264 26.1384 25.2581 26.6153C25.4531 26.6848 25.6599 26.7225 25.8766 26.7265C28.8807 26.7861 31.2308 25.3099 31.2544 25.294C31.2741 25.2821 31.2938 25.2722 31.3135 25.2603C33.0864 24.3662 35.0938 23.0469 35.4405 22.8145C35.602 22.6555 35.7773 22.4966 35.9645 22.3416C37.5128 21.0641 39.528 20.329 41.6397 20.2714C46.7122 20.1303 50.5831 21.3959 53.1499 24.0304C55.8427 26.7961 57.0286 30.869 56.7765 36.4818C56.5361 41.7965 57.6728 44.1608 59.1817 46.7C60.6355 49.1418 66.1827 55.4916 66.2379 55.5552C66.2517 55.5711 66.2635 55.587 66.2753 55.6049C72.5357 64.2853 75.9062 72.7471 77.6318 78.3162C77.7401 78.6698 77.5471 79.0433 77.1984 79.1526C77.1314 79.1745 77.0645 79.1824 76.9995 79.1824ZM47.3702 42.5912C48.4201 42.5376 50.3585 42.2892 51.5464 41.2422C53.7743 39.2772 55.0705 31.8704 53.7133 28.8623C53.5635 28.5246 53.1696 28.3776 52.8386 28.5305C52.5057 28.6835 52.358 29.0789 52.5097 29.4147C53.6187 31.8763 52.4722 38.6534 50.6757 40.2369C49.2889 41.4607 45.5067 41.5641 43.5899 40.7495C42.9517 40.4793 42.4198 40.1236 42.0081 39.6925C40.446 38.0593 40.704 35.4467 41.1965 33.5433C41.9155 30.7578 43.2748 28.0716 45.1245 25.7768C45.355 25.4907 45.3136 25.0695 45.028 24.8371C44.7443 24.6046 44.3287 24.6483 44.0982 24.9344C42.1283 27.3782 40.6824 30.2372 39.9141 33.2095C39.0868 36.4142 39.4807 38.9772 41.0547 40.6203C41.5925 41.1826 42.2721 41.6415 43.0758 41.9813C44.0233 42.3826 45.353 42.6091 46.73 42.6091C46.9427 42.6071 47.1574 42.6032 47.3702 42.5912ZM39.7033 27.0325C39.9614 26.7722 39.9614 26.349 39.7033 26.0888C39.4453 25.8285 39.0257 25.8285 38.7676 26.0888C38.2436 26.6153 37.7137 26.8755 37.1897 26.8576C36.3663 26.8318 35.7517 26.1424 35.734 26.1225C35.4956 25.8464 35.08 25.8146 34.8042 26.053C34.5264 26.2934 34.4949 26.7146 34.7313 26.9947C34.7727 27.0424 35.7182 28.1372 37.1306 28.1908C37.17 28.1928 37.2055 28.1948 37.2429 28.1948C38.1117 28.1948 38.937 27.8034 39.7033 27.0325Z" fill="#A2128F"/>
</g>
<mask id="mask3_657_3" style="mask-type:luminance" maskUnits="userSpaceOnUse" x="24" y="45" width="34" height="35">
<path d="M24.8601 45.3052H57.6393V79.2559H24.8601V45.3052Z" fill="white"/>
</mask>
<g mask="url(#mask3_657_3)">
<path d="M36.8667 79.1825C36.7938 79.1825 36.7209 79.1705 36.648 79.1467C36.3033 79.0235 36.1221 78.644 36.2422 78.2963C36.5653 77.3605 36.8056 76.3989 36.9553 75.4373C37.0755 74.6704 36.8352 72.9458 36.518 72.3081C35.8699 71.0027 34.7884 70.3252 33.8133 69.8345C32.8107 69.3278 30.5965 69.147 28.8571 69.147C28.3212 69.147 27.3501 68.8808 26.8616 67.0967C26.8143 66.9238 26.7138 66.6834 26.5109 66.5185C25.459 65.6761 25.0355 63.5144 24.9626 63.0892C24.4701 61.4521 26.3573 60.26 27.5904 59.7971C28.9556 59.0779 29.578 56.6539 29.7021 55.7758C29.7041 55.7559 29.7081 55.736 29.712 55.7162C30.1178 53.9817 31.477 52.5512 33.1771 52.0704C34.034 51.828 34.8101 51.8637 35.5606 51.8975C35.8226 51.9094 36.0905 51.9233 36.3584 51.9233C37.2567 51.9233 38.417 51.5915 38.7952 50.9776C38.8326 50.918 41.5669 46.4656 41.5669 46.4656C41.8013 46.0801 42.1933 45.8258 42.6365 45.7662C43.0817 45.7066 43.5249 45.8496 43.8519 46.1576C44.9058 47.149 46.6315 49.571 46.3577 54.6612C46.336 55.0764 46.5113 55.4778 46.8403 55.7599C53.7428 61.7005 56.5598 72.4928 57.6235 78.3957C57.6885 78.7593 57.4502 79.105 57.0916 79.1705C56.7331 79.2381 56.3884 78.9957 56.3234 78.6341C55.2911 72.9061 52.5727 62.4475 45.9834 56.7771C45.3372 56.2208 44.9925 55.4261 45.0378 54.5916C45.1206 53.0201 45.0871 49.1478 42.9497 47.1351C42.9024 47.0894 42.8493 47.0874 42.8138 47.0914C42.7783 47.0954 42.7271 47.1133 42.6936 47.1689C42.6936 47.1689 39.9594 51.6213 39.922 51.6829C39.1557 52.9287 37.3237 53.2585 36.3604 53.2585C36.063 53.2585 35.7773 53.2446 35.5035 53.2327C34.7983 53.2009 34.1896 53.1711 33.5375 53.3578C32.3024 53.7055 31.3135 54.7426 31.0102 55.9983C30.9471 56.4036 30.3542 59.9004 28.1538 61.0071C28.1321 61.019 28.1085 61.0289 28.0849 61.0389C27.4131 61.2872 26.0165 62.0561 26.2351 62.7217C26.245 62.7555 26.2548 62.7892 26.2607 62.823C26.4026 63.6813 26.83 65.0721 27.3363 65.4754C27.7185 65.7834 27.9962 66.2205 28.138 66.745C28.2799 67.2616 28.5438 67.8159 28.859 67.8159C30.0331 67.8159 32.9249 67.8954 34.4063 68.6424C35.5074 69.1987 36.8765 70.0491 37.7019 71.714C38.1845 72.6876 38.415 74.6903 38.2653 75.6479C38.1018 76.689 37.8437 77.7281 37.4951 78.7374C37.3966 79.0116 37.1405 79.1825 36.8667 79.1825ZM35.7005 58.9904C35.9586 58.7302 35.9586 58.307 35.7005 58.0467C35.4424 57.7864 35.0228 57.7864 34.7648 58.0467C34.3669 58.448 33.965 58.6428 33.5789 58.6348C32.9643 58.6169 32.4974 58.0964 32.4817 58.0805C32.2433 57.8043 31.8277 57.7725 31.5519 58.0109C31.2741 58.2513 31.2406 58.6726 31.479 58.9527C31.5637 59.052 32.3379 59.9242 33.5178 59.968C33.5513 59.9699 33.5829 59.9699 33.6144 59.9699C34.3551 59.9719 35.0563 59.6421 35.7005 58.9904Z" fill="#DD81CE"/>
</g>
<mask id="mask4_657_3" style="mask-type:luminance" maskUnits="userSpaceOnUse" x="20" y="0" width="57" height="18">
<path d="M20.7864 0.941895H76.4538V17.0729H20.7864V0.941895Z" fill="white"/>
</mask>
<g mask="url(#mask4_657_3)">
<mask id="mask5_657_3" style="mask-type:luminance" maskUnits="userSpaceOnUse" x="20" y="0" width="57" height="18">
<path d="M28.7842 0.941895H68.4343C72.8508 0.941895 76.4321 4.55392 76.4321 9.00837C76.4321 13.4628 72.8508 17.0729 68.4343 17.0729H28.7842C24.3677 17.0729 20.7864 13.4628 20.7864 9.00837C20.7864 4.55392 24.3677 0.941895 28.7842 0.941895Z" fill="white"/>
</mask>
<g mask="url(#mask5_657_3)">
<path d="M20.7864 0.941895H76.4538V17.0729H20.7864V0.941895Z" fill="white"/>
</g>
</g>
<mask id="mask6_657_3" style="mask-type:luminance" maskUnits="userSpaceOnUse" x="22" y="80" width="48" height="21">
<path d="M22.2146 80.6172H69.4469V100.942H22.2146V80.6172Z" fill="white"/>
</mask>
<g mask="url(#mask6_657_3)">
<mask id="mask7_657_3" style="mask-type:luminance" maskUnits="userSpaceOnUse" x="22" y="80" width="48" height="21">
<path d="M59.3708 100.942H32.3458C26.7808 100.942 22.2697 96.3925 22.2697 90.7797C22.2697 85.167 26.7808 80.6172 32.3458 80.6172H59.3708C64.9358 80.6172 69.4468 85.167 69.4468 90.7797C69.4468 96.3925 64.9358 100.942 59.3708 100.942Z" fill="white"/>
</mask>
<g mask="url(#mask7_657_3)">
<path d="M69.4468 100.942H22.2934V80.6172H69.4468V100.942Z" fill="white"/>
</g>
</g>
<mask id="mask8_657_3" style="mask-type:luminance" maskUnits="userSpaceOnUse" x="62" y="66" width="27" height="22">
<path d="M62.5364 66.9819H88.3579V87.623H62.5364V66.9819Z" fill="white"/>
</mask>
<g mask="url(#mask8_657_3)">
<mask id="mask9_657_3" style="mask-type:luminance" maskUnits="userSpaceOnUse" x="62" y="66" width="27" height="22">
<path d="M78.1262 87.623H72.839C67.1874 87.623 62.6054 83.0036 62.6054 77.3034C62.6054 71.6033 67.1874 66.9819 72.839 66.9819H78.1262C83.7779 66.9819 88.3579 71.6033 88.3579 77.3034C88.3579 83.0036 83.7779 87.623 78.1262 87.623Z" fill="white"/>
</mask>
<g mask="url(#mask9_657_3)">
<path d="M88.358 87.623H62.6153V66.9819H88.358V87.623Z" fill="white"/>
</g>
</g>
<mask id="mask10_657_3" style="mask-type:luminance" maskUnits="userSpaceOnUse" x="13" y="76" width="24" height="25">
<path d="M13.7657 76.8403H36.9632V100.237H13.7657V76.8403Z" fill="white"/>
</mask>
<g mask="url(#mask10_657_3)">
<mask id="mask11_657_3" style="mask-type:luminance" maskUnits="userSpaceOnUse" x="14" y="77" width="23" height="24">
<path d="M25.8293 100.063L14.2227 88.3584L25.1871 77.2998L36.7918 89.0061L25.8293 100.063Z" fill="white"/>
</mask>
<g mask="url(#mask11_657_3)">
<path d="M25.8293 100.063L14.2227 88.3584L25.1871 77.2998L36.7918 89.0061L25.8293 100.063Z" fill="white"/>
</g>
</g>
<mask id="mask12_657_3" style="mask-type:luminance" maskUnits="userSpaceOnUse" x="62" y="63" width="38" height="37">
<path d="M62.1779 63.6162H100V99.2199H62.1779V63.6162Z" fill="white"/>
</mask>
<g mask="url(#mask12_657_3)">
<mask id="mask13_657_3" style="mask-type:luminance" maskUnits="userSpaceOnUse" x="62" y="63" width="38" height="37">
<path d="M99.8601 70.3808L68.1841 99.0823L62.4931 92.6947L94.1711 63.9912L99.8601 70.3808Z" fill="white"/>
</mask>
<g mask="url(#mask13_657_3)">
<path d="M99.8602 70.3808L68.1921 99.0744L62.5031 92.6868L94.1712 63.9912L99.8602 70.3808Z" fill="white"/>
</g>
</g>
<path d="M23.2191 90.732L22.6281 91.7413C22.5493 91.8844 22.441 91.9579 22.305 91.9638C22.1672 91.9738 22.045 91.9479 21.9347 91.8844C21.8185 91.8148 21.7338 91.7195 21.6826 91.5983C21.6294 91.4751 21.6392 91.3479 21.7141 91.2168L24.204 86.9253C24.2769 86.7981 24.3794 86.7246 24.5113 86.7027C24.6473 86.6829 24.7792 86.7087 24.9053 86.7822L26.5285 87.7359C26.9698 87.9962 27.3007 88.2982 27.5213 88.6419C27.742 88.9876 27.8523 89.3472 27.8523 89.7227C27.8562 90.1002 27.7499 90.4757 27.5292 90.8512C27.218 91.3916 26.7807 91.7175 26.2133 91.8287C25.6499 91.944 25.0353 91.8049 24.3695 91.4075L23.2191 90.732ZM24.8974 87.8392L23.6761 89.9373L24.8265 90.6128C25.2146 90.8472 25.5633 90.9347 25.8745 90.8751C26.1897 90.8115 26.4359 90.6267 26.6152 90.3188C26.8082 89.9909 26.8614 89.6671 26.7728 89.3492C26.6822 89.0273 26.4517 88.7531 26.0794 88.5306L24.8974 87.8392Z" fill="#720C68"/>
<path d="M32.7359 96.1225C32.8817 96.1801 32.9762 96.2735 33.0196 96.4007C33.0668 96.5278 33.0688 96.647 33.0274 96.7583C32.99 96.8576 32.9171 96.9371 32.8068 96.9967C32.6965 97.0543 32.5625 97.0523 32.4049 96.9888L28.9931 95.6536C28.8237 95.5841 28.7055 95.4788 28.6385 95.3357C28.5755 95.1986 28.5696 95.0576 28.6227 94.9145L30.3562 90.4243C30.4075 90.2872 30.506 90.1899 30.6478 90.1303C30.7936 90.0667 30.9512 90.0707 31.1206 90.1382L34.5324 91.4733C34.6841 91.533 34.7806 91.6164 34.824 91.7277C34.8654 91.8389 34.8654 91.9502 34.824 92.0614C34.7806 92.1628 34.7018 92.2482 34.5876 92.3158C34.4773 92.3793 34.3473 92.3833 34.2015 92.3237L31.1994 91.1475L30.6163 92.6575L33.4608 93.7701C33.6066 93.8297 33.7011 93.9191 33.7445 94.0403C33.7858 94.1575 33.7858 94.2708 33.7445 94.382C33.7011 94.4893 33.6263 94.5708 33.516 94.6284C33.4096 94.6821 33.2835 94.6801 33.1377 94.6205L30.2932 93.5078L29.7338 94.9463L32.7359 96.1225Z" fill="#720C68"/>
<path d="M41.2739 93.2169C41.4414 93.2546 41.5596 93.3321 41.6285 93.4473C41.6955 93.5646 41.7171 93.6818 41.6915 93.797C41.6699 93.9142 41.6009 94.0116 41.4867 94.0911C41.3704 94.1705 41.2286 94.1924 41.0612 94.1546L39.3828 93.7811L38.4373 98.1362C38.3998 98.3051 38.3151 98.4144 38.1851 98.4621C38.0531 98.5137 37.9251 98.5276 37.799 98.5018C37.6769 98.474 37.5705 98.4104 37.476 98.3111C37.3814 98.2097 37.3518 98.0746 37.3893 97.9058L38.3427 93.5507L36.6722 93.1771C36.4989 93.1354 36.3827 93.0579 36.3255 92.9467C36.2723 92.8314 36.2566 92.7142 36.2783 92.597C36.3039 92.4817 36.3669 92.3824 36.4674 92.3029C36.5718 92.2195 36.7116 92.1976 36.885 92.2394L41.2739 93.2169Z" fill="#720C68"/>
<path d="M46.973 98.3749C46.9257 98.2001 46.9651 98.061 47.0912 97.9537C47.2172 97.8425 47.3591 97.7848 47.5167 97.7789C47.6427 97.7789 47.753 97.8087 47.8476 97.8663C47.9461 97.9199 48.0091 98.0074 48.0367 98.1286C48.1096 98.3252 48.2416 98.4762 48.4307 98.5815C48.6198 98.6888 48.8286 98.7564 49.0611 98.7882C49.2975 98.82 49.5141 98.8359 49.7151 98.8359C49.8766 98.8319 50.0539 98.816 50.243 98.7882C50.4321 98.7564 50.6133 98.7067 50.7867 98.6372C50.96 98.5696 51.0979 98.4762 51.2043 98.359C51.3146 98.2378 51.3658 98.0848 51.3619 97.8981C51.356 97.6974 51.2693 97.5524 51.1019 97.461C50.9384 97.3716 50.7315 97.31 50.4794 97.2782C50.2272 97.2424 49.9593 97.2186 49.6757 97.2067C49.3644 97.1908 49.0492 97.163 48.7301 97.1192C48.4149 97.0775 48.1254 97.004 47.8634 96.8967C47.5994 96.7914 47.3847 96.6345 47.2172 96.4278C47.0537 96.2172 46.9671 95.9351 46.9572 95.5854C46.9513 95.2675 47.0242 94.9934 47.1778 94.7589C47.3354 94.5205 47.5403 94.3278 47.7924 94.1788C48.0485 94.0317 48.3283 93.9165 48.6277 93.837C48.9271 93.7576 49.2206 93.7158 49.5102 93.7099C49.8254 93.6999 50.1583 93.7297 50.5109 93.7973C50.8675 93.8609 51.1925 93.986 51.488 94.1708C51.7815 94.3516 52.0041 94.6079 52.1577 94.9417C52.209 95.1165 52.1755 95.2636 52.0553 95.3788C51.9391 95.496 51.8032 95.5576 51.6456 95.5616C51.5451 95.5616 51.4486 95.5417 51.354 95.498C51.2634 95.4563 51.2004 95.3947 51.1649 95.3152C51.0861 95.1205 50.9522 94.9794 50.7631 94.894C50.5779 94.8046 50.377 94.749 50.1563 94.7271C49.9357 94.7073 49.7308 94.6993 49.5417 94.7033C49.4156 94.7033 49.2679 94.7192 49.1005 94.751C48.931 94.7788 48.7695 94.8225 48.6119 94.8861C48.4543 94.9496 48.3224 95.0371 48.2179 95.1483C48.1116 95.2596 48.0604 95.3987 48.0604 95.5616C48.0643 95.7583 48.147 95.9073 48.3046 96.0066C48.4622 96.102 48.6691 96.1656 48.9271 96.1974C49.1832 96.2292 49.4629 96.251 49.7623 96.2609C50.0815 96.2888 50.4006 96.3166 50.7158 96.3484C51.031 96.3802 51.3186 96.4477 51.5825 96.547C51.8445 96.6424 52.0553 96.7914 52.2129 96.9921C52.3705 97.1947 52.4532 97.4808 52.4651 97.8504C52.469 98.2279 52.3863 98.5398 52.2129 98.7882C52.0435 99.0326 51.8209 99.2292 51.5431 99.3763C51.2693 99.5193 50.9719 99.6266 50.6527 99.6942C50.3316 99.7637 50.0263 99.8015 49.7387 99.8134C49.5023 99.8173 49.2423 99.7995 48.9586 99.7577C48.675 99.716 48.3992 99.6425 48.1313 99.5352C47.8634 99.4299 47.623 99.2809 47.4142 99.0902C47.2034 98.8994 47.0557 98.661 46.973 98.3749Z" fill="#720C68"/>
<path d="M58.5885 92.706C58.7185 92.6862 58.8485 92.7041 58.9746 92.7617C59.1046 92.8153 59.1874 92.9206 59.2189 93.0796L60.125 97.9274C60.1565 98.0923 60.1211 98.2274 60.0226 98.3327C59.928 98.44 59.8138 98.5036 59.6838 98.5234C59.5518 98.5513 59.4237 98.5354 59.2977 98.4758C59.1755 98.4122 59.1007 98.2989 59.0692 98.134L58.7146 96.2505L56.0198 96.7671L56.3743 98.6506C56.4059 98.8254 56.3743 98.9645 56.2798 99.0639C56.1852 99.1592 56.0769 99.2188 55.9567 99.2387C55.8247 99.2665 55.6927 99.2466 55.5627 99.1831C55.4367 99.1195 55.3579 99.0082 55.3263 98.8493L54.4202 94.0015C54.3887 93.8425 54.4182 93.7134 54.5069 93.612C54.5916 93.5127 54.7019 93.4511 54.8378 93.4293C54.9678 93.4034 55.0978 93.4193 55.2239 93.4769C55.3539 93.5365 55.4367 93.6438 55.4682 93.8028L55.8543 95.885L58.5491 95.3684L58.163 93.2862C58.1315 93.1273 58.1591 92.9981 58.2497 92.8968C58.3442 92.7974 58.4565 92.7339 58.5885 92.706Z" fill="#720C68"/>
<path d="M67.8766 92.7419C68.0854 93.3141 68.1543 93.8585 68.0814 94.3711C68.0066 94.8857 67.8056 95.3407 67.4747 95.738C67.1477 96.1354 66.7045 96.4434 66.143 96.6599C65.5797 96.8725 65.0419 96.942 64.5277 96.8666C64.0116 96.7871 63.5546 96.5804 63.1567 96.2467C62.7627 95.9089 62.4613 95.4519 62.2505 94.8797C62.0358 94.3075 61.9669 93.7631 62.0457 93.2426C62.1205 92.724 62.3254 92.2651 62.6603 91.8677C62.9971 91.4704 63.4443 91.1664 64.0077 90.9538C64.5691 90.7372 65.1029 90.6677 65.6072 90.7472C66.1155 90.8227 66.5685 91.0313 66.9625 91.375C67.3565 91.7147 67.6599 92.1697 67.8766 92.7419ZM65.8121 95.7698C66.1746 95.6327 66.4582 95.4321 66.6631 95.1658C66.8719 94.8956 66.996 94.5857 67.0334 94.236C67.0689 93.8863 67.0137 93.5168 66.868 93.1234C66.7202 92.732 66.5173 92.4161 66.2612 92.1777C66.0032 91.9392 65.7097 91.7883 65.3787 91.7247C65.0478 91.6611 64.7011 91.6988 64.3386 91.8359C63.9762 91.975 63.6886 92.1777 63.4797 92.4479C63.269 92.7181 63.1429 93.028 63.1015 93.3777C63.0661 93.7274 63.1193 94.0989 63.267 94.4903C63.4128 94.8837 63.6157 95.1976 63.8737 95.436C64.1357 95.6745 64.4332 95.8255 64.7641 95.889C65.099 95.9486 65.4496 95.9089 65.8121 95.7698Z" fill="#720C68"/>
<path d="M71.8946 92.1146L72.4856 93.1239C72.5644 93.267 72.5742 93.4021 72.5171 93.5292C72.458 93.6524 72.3752 93.7438 72.2649 93.8074C72.1487 93.8769 72.0246 93.9067 71.8946 93.8948C71.7626 93.8849 71.6602 93.8133 71.5873 93.6802L69.0973 89.3887C69.0244 89.2615 69.0107 89.1324 69.0579 88.9993C69.1013 88.8681 69.184 88.7648 69.3101 88.6893L70.9333 87.7357C71.3745 87.4774 71.7961 87.3343 72.2019 87.3065C72.6057 87.2807 72.9702 87.3602 73.2972 87.5449C73.6281 87.7317 73.9039 88.0118 74.1245 88.3873C74.4338 88.9278 74.4968 89.4741 74.3136 90.0245C74.1344 90.5708 73.7108 91.0417 73.045 91.4391L71.8946 92.1146ZM70.2162 89.2218L71.4376 91.3199L72.588 90.6444C72.9761 90.4119 73.2203 90.1437 73.3208 89.8417C73.4252 89.5357 73.3878 89.2278 73.2105 88.9198C73.0155 88.592 72.7574 88.3913 72.4383 88.3158C72.1172 88.2363 71.7705 88.3079 71.3982 88.5304L70.2162 89.2218Z" fill="#720C68"/>
<mask id="mask14_657_3" style="mask-type:luminance" maskUnits="userSpaceOnUse" x="81" y="72" width="13" height="13">
<path d="M81.3411 72.2632H93.9485V84.9788H81.3411V72.2632Z" fill="white"/>
</mask>
<g mask="url(#mask14_657_3)">
<mask id="mask15_657_3" style="mask-type:luminance" maskUnits="userSpaceOnUse" x="67" y="59" width="31" height="31">
<path d="M67.9596 77.2235L83.7937 59.2646L97.9237 71.9385L82.0917 89.8974L67.9596 77.2235Z" fill="white"/>
</mask>
<g mask="url(#mask15_657_3)">
<mask id="mask16_657_3" style="mask-type:luminance" maskUnits="userSpaceOnUse" x="67" y="59" width="31" height="31">
<path d="M67.9596 77.2235L83.7937 59.2646L97.9237 71.9385L82.0917 89.8974L67.9596 77.2235Z" fill="white"/>
</mask>
<g mask="url(#mask16_657_3)">
<mask id="mask17_657_3" style="mask-type:luminance" maskUnits="userSpaceOnUse" x="77" y="68" width="18" height="18">
<path d="M77.6948 78.7694L87.0341 68.1777L94.9846 75.3064L85.6453 85.9001L77.6948 78.7694Z" fill="white"/>
</mask>
<g mask="url(#mask17_657_3)">
<path d="M82.5093 78.9083C82.6097 80.5097 81.4435 82.7309 84.0024 84.2846C86.6126 85.8661 88.7913 82.2243 90.1761 80.5514C90.9148 79.6613 94.7148 76.689 93.5604 74.3942C92.5498 72.3876 90.6174 72.471 88.0407 72.9121C85.7379 73.3035 83.5809 72.0677 82.1941 73.671C80.8939 75.1751 82.4482 77.9268 82.5093 78.9083Z" fill="#5D5D5D"/>
</g>
</g>
</g>
</g>
<mask id="mask18_657_3" style="mask-type:luminance" maskUnits="userSpaceOnUse" x="73" y="78" width="7" height="6">
<path d="M73.2724 78.3667H79.8282V83.4529H73.2724V78.3667Z" fill="white"/>
</mask>
<g mask="url(#mask18_657_3)">
<mask id="mask19_657_3" style="mask-type:luminance" maskUnits="userSpaceOnUse" x="67" y="59" width="31" height="31">
<path d="M67.9596 77.2235L83.7937 59.2646L97.9237 71.9385L82.0917 89.8974L67.9596 77.2235Z" fill="white"/>
</mask>
<g mask="url(#mask19_657_3)">
<mask id="mask20_657_3" style="mask-type:luminance" maskUnits="userSpaceOnUse" x="67" y="59" width="31" height="31">
<path d="M67.9596 77.2235L83.7937 59.2646L97.9237 71.9385L82.0917 89.8974L67.9596 77.2235Z" fill="white"/>
</mask>
<g mask="url(#mask20_657_3)">
<path d="M76.6331 78.8106C78.3784 78.8125 79.7593 79.7543 79.7199 80.9166C79.6785 82.0769 78.2326 83.0166 76.4893 83.0147C74.7439 83.0127 73.363 82.0689 73.4024 80.9086C73.4438 79.7483 74.8897 78.8086 76.6331 78.8106Z" fill="#5D5D5D"/>
</g>
</g>
</g>
<mask id="mask21_657_3" style="mask-type:luminance" maskUnits="userSpaceOnUse" x="72" y="71" width="8" height="6">
<path d="M72.7681 71.2451H79.8282V76.84H72.7681V71.2451Z" fill="white"/>
</mask>
<g mask="url(#mask21_657_3)">
<mask id="mask22_657_3" style="mask-type:luminance" maskUnits="userSpaceOnUse" x="67" y="59" width="31" height="31">
<path d="M67.9596 77.223L83.7937 59.2642L97.9237 71.9381L82.0917 89.8969L67.9596 77.223Z" fill="white"/>
</mask>
<g mask="url(#mask22_657_3)">
<mask id="mask23_657_3" style="mask-type:luminance" maskUnits="userSpaceOnUse" x="67" y="59" width="31" height="31">
<path d="M67.9596 77.223L83.7937 59.2642L97.9237 71.9381L82.0917 89.8969L67.9596 77.223Z" fill="white"/>
</mask>
<g mask="url(#mask23_657_3)">
<path d="M77.3107 71.8007C79.0816 72.6391 80.0745 74.2345 79.5268 75.3591C78.9772 76.4856 77.096 76.7181 75.3231 75.8776C73.5521 75.0372 72.5593 73.4438 73.1089 72.3173C73.6565 71.1907 75.5378 70.9603 77.3107 71.8007Z" fill="#5D5D5D"/>
</g>
</g>
</g>
<mask id="mask24_657_3" style="mask-type:luminance" maskUnits="userSpaceOnUse" x="78" y="64" width="6" height="8">
<path d="M78.3153 64.6338H83.8626V71.7545H78.3153V64.6338Z" fill="white"/>
</mask>
<g mask="url(#mask24_657_3)">
<mask id="mask25_657_3" style="mask-type:luminance" maskUnits="userSpaceOnUse" x="67" y="59" width="31" height="31">
<path d="M67.9596 77.2249L83.7937 59.2661L97.9237 71.94L82.0917 89.8988L67.9596 77.2249Z" fill="white"/>
</mask>
<g mask="url(#mask25_657_3)">
<mask id="mask26_657_3" style="mask-type:luminance" maskUnits="userSpaceOnUse" x="67" y="59" width="31" height="31">
<path d="M67.9596 77.2249L83.7937 59.2661L97.9237 71.94L82.0917 89.8988L67.9596 77.2249Z" fill="white"/>
</mask>
<g mask="url(#mask26_657_3)">
<path d="M82.7358 66.8798C83.7385 68.5308 83.7326 70.4084 82.72 71.072C81.7075 71.7356 80.0725 70.9329 79.0679 69.2819C78.0652 67.6308 78.0711 65.7533 79.0836 65.0897C80.0961 64.4261 81.7312 65.2268 82.7358 66.8798Z" fill="#5D5D5D"/>
</g>
</g>
</g>
<mask id="mask27_657_3" style="mask-type:luminance" maskUnits="userSpaceOnUse" x="85" y="63" width="6" height="9">
<path d="M85.8798 63.6162H90.9227V71.2456H85.8798V63.6162Z" fill="white"/>
</mask>
<g mask="url(#mask27_657_3)">
<mask id="mask28_657_3" style="mask-type:luminance" maskUnits="userSpaceOnUse" x="67" y="59" width="31" height="31">
<path d="M67.9596 77.2235L83.7937 59.2646L97.9237 71.9385L82.0917 89.8974L67.9596 77.2235Z" fill="white"/>
</mask>
<g mask="url(#mask28_657_3)">
<mask id="mask29_657_3" style="mask-type:luminance" maskUnits="userSpaceOnUse" x="67" y="59" width="31" height="31">
<path d="M67.9596 77.2235L83.7937 59.2646L97.9237 71.9385L82.0917 89.8974L67.9596 77.2235Z" fill="white"/>
</mask>
<g mask="url(#mask29_657_3)">
<path d="M90.4854 67.0431C90.7277 68.9028 89.9535 70.5717 88.7558 70.7704C87.5601 70.971 86.3919 69.626 86.1496 67.7663C85.9073 65.9066 86.6815 64.2377 87.8792 64.037C89.0769 63.8384 90.2431 65.1834 90.4854 67.0431Z" fill="#5D5D5D"/>
</g>
</g>
</g>
<path d="M26.9718 3.6782C27.0546 3.66231 27.1412 3.66827 27.2318 3.6941C27.3205 3.71595 27.3934 3.76363 27.4525 3.83715L30.7619 8.15251C30.8565 8.27569 30.8959 8.38695 30.8801 8.48629C30.8643 8.58166 30.8131 8.66709 30.7304 8.74061C30.6457 8.81611 30.5492 8.86379 30.4388 8.88366C30.36 8.89955 30.2734 8.89558 30.1788 8.86776C30.0882 8.83597 30.0133 8.7863 29.9503 8.71676L29.1387 7.63594L26.3887 8.16046L26.0105 9.46381C25.9829 9.57109 25.9337 9.65057 25.8608 9.70223C25.7859 9.75587 25.7111 9.78965 25.6323 9.80554C25.5318 9.82143 25.4294 9.80951 25.325 9.77375C25.2245 9.73799 25.1438 9.6764 25.0807 9.59096C25.0177 9.50752 25.0059 9.4042 25.0413 9.28102L26.57 4.01199C26.5956 3.90072 26.6409 3.82523 26.7039 3.78152C26.7709 3.73383 26.8615 3.70006 26.9718 3.6782ZM27.2476 5.1405L26.6488 7.24652L28.5635 6.88095L27.2476 5.1405Z" fill="#720C68"/>
<path d="M36.5288 2.80273C36.5072 2.64378 36.5466 2.5206 36.647 2.4292C36.7455 2.3398 36.8558 2.29013 36.978 2.27821C37.108 2.26231 37.2301 2.28615 37.3404 2.34973C37.4508 2.41331 37.5158 2.52258 37.5374 2.67557L37.8447 5.31406C37.9078 5.82269 37.8526 6.28164 37.6793 6.68894C37.5059 7.09226 37.238 7.42406 36.8755 7.68234C36.5131 7.93666 36.0679 8.0956 35.5439 8.15918C35.0278 8.22276 34.5629 8.17309 34.1492 8.00818C33.7336 7.84526 33.3947 7.58698 33.1327 7.2373C32.8747 6.88364 32.7151 6.45052 32.6521 5.94189L32.3448 3.28751C32.3251 3.14048 32.3605 3.02326 32.4551 2.93783C32.5496 2.84842 32.66 2.79478 32.786 2.77888C32.916 2.76299 33.0402 2.78683 33.1564 2.85041C33.2706 2.91001 33.3396 3.01531 33.3612 3.1683L33.6686 5.81474C33.7257 6.30349 33.9148 6.679 34.2359 6.94325C34.5609 7.20352 34.9608 7.30485 35.4336 7.24524C35.9103 7.19359 36.2787 6.99888 36.5367 6.66509C36.7928 6.33131 36.8933 5.92203 36.8361 5.43327L36.5288 2.80273Z" fill="#720C68"/>
<path d="M41.0432 1.91933C41.2264 1.90939 41.3761 1.98887 41.4924 2.15775L43.4465 4.93929L45.1091 1.98291C45.1662 1.89946 45.2352 1.83191 45.314 1.78423C45.3967 1.73654 45.4814 1.7127 45.5661 1.7127C45.6922 1.70873 45.8045 1.74449 45.9049 1.82396C46.0093 1.90343 46.0665 2.02264 46.0783 2.18159L46.2832 6.81484C46.293 6.96385 46.2438 7.08108 46.1335 7.16452C46.0271 7.24399 45.9148 7.2877 45.7946 7.29168C45.6626 7.29764 45.5445 7.26585 45.44 7.19631C45.3396 7.1228 45.2844 7.01154 45.2746 6.86252L45.1406 3.90614L43.9429 6.00422C43.8996 6.09561 43.8365 6.16317 43.7538 6.21085C43.675 6.25456 43.5923 6.2784 43.5095 6.28237C43.4189 6.28834 43.3283 6.26648 43.2338 6.2188C43.1431 6.17111 43.0722 6.10754 43.021 6.02806L41.65 4.07304L41.7839 7.02147C41.7938 7.17048 41.7465 7.2877 41.6421 7.37115C41.5357 7.45062 41.4234 7.49433 41.3033 7.49831C41.1772 7.50427 41.059 7.47248 40.9487 7.40294C40.8423 7.32943 40.7852 7.21817 40.7753 7.06915L40.5705 2.44385C40.5586 2.29682 40.6039 2.17364 40.7044 2.07827C40.8029 1.97893 40.9172 1.92529 41.0432 1.91933Z" fill="#720C68"/>
<path d="M48.9932 2.15346C48.9932 1.99054 49.0424 1.87133 49.1429 1.79583C49.2473 1.72232 49.3655 1.68457 49.4975 1.68457C49.6235 1.68457 49.7378 1.72431 49.8442 1.80378C49.9545 1.87928 50.0096 1.99849 50.0096 2.16141L49.9781 6.82645C49.9781 6.9695 49.923 7.08076 49.8127 7.16023C49.7063 7.23573 49.592 7.2715 49.4659 7.2715C49.334 7.2715 49.2158 7.23573 49.1114 7.16023C49.0109 7.08076 48.9617 6.96751 48.9617 6.8185L48.9932 2.15346Z" fill="#720C68"/>
<path d="M57.2229 6.20834C57.2229 6.26795 57.2111 6.32755 57.1914 6.39113C57.1697 6.45471 57.1323 6.51431 57.0811 6.56597C56.8959 6.76267 56.6733 6.93751 56.4113 7.09049C56.1533 7.2395 55.8834 7.34878 55.5997 7.42428C55.3161 7.49779 55.0363 7.52759 54.7645 7.5117C54.1972 7.47991 53.7086 7.3309 53.2989 7.06665C52.8931 6.79644 52.5897 6.43683 52.3848 5.98582C52.1839 5.53084 52.1032 5.01626 52.1406 4.44405C52.1721 3.87781 52.3159 3.39104 52.574 2.98176C52.83 2.5685 53.1767 2.25657 53.6141 2.04398C54.0494 1.82742 54.5458 1.73404 55.1033 1.76582C55.4855 1.78768 55.8598 1.87709 56.2222 2.03603C56.5886 2.19498 56.8939 2.42147 57.1362 2.71155C57.2505 2.84467 57.2978 2.97778 57.2781 3.10891C57.2623 3.23607 57.2032 3.3374 57.1047 3.41091C57.0043 3.48641 56.8861 3.5182 56.7501 3.50628C56.6123 3.49038 56.4842 3.41091 56.364 3.26786C56.1907 3.06123 55.9878 2.90824 55.7573 2.80692C55.5308 2.70758 55.2964 2.65194 55.056 2.64002C54.7034 2.62016 54.3863 2.68373 54.1026 2.83076C53.8189 2.97977 53.5924 3.20031 53.425 3.49038C53.2555 3.78244 53.161 4.12616 53.1413 4.52353C53.1255 4.91095 53.1827 5.26063 53.3146 5.57256C53.4506 5.88648 53.6476 6.13682 53.9056 6.32755C54.1676 6.51431 54.4729 6.61366 54.8196 6.62955C55.0757 6.64544 55.3338 6.60372 55.5918 6.50239C55.8538 6.40305 56.0745 6.25603 56.2537 6.06529L56.301 5.1752L55.0324 5.10368C54.8689 5.0997 54.7507 5.05202 54.6778 4.96062C54.6089 4.86526 54.5773 4.7679 54.5833 4.66658C54.5872 4.55134 54.6305 4.45001 54.7093 4.36458C54.7921 4.27517 54.9162 4.23345 55.0797 4.23742L56.8053 4.33279C57.0102 4.34471 57.1441 4.39637 57.2072 4.49174C57.2741 4.58313 57.3057 4.69836 57.3017 4.84142L57.2229 6.20834Z" fill="#720C68"/>
<path d="M65.3905 5.66882C65.3216 6.23705 65.1423 6.72183 64.8547 7.12317C64.5711 7.52649 64.2027 7.81856 63.7516 8.00532C63.3044 8.19009 62.8001 8.24572 62.2387 8.17221C61.6753 8.10267 61.1947 7.92584 60.7967 7.63974C60.4028 7.34967 60.1132 6.97217 59.93 6.51123C59.7448 6.05029 59.6877 5.53769 59.7566 4.96946C59.8236 4.39329 60.0029 3.90453 60.2924 3.50717C60.5801 3.1098 60.9543 2.81973 61.4113 2.63297C61.8684 2.44223 62.3766 2.38263 62.94 2.45018C63.5014 2.52568 63.9762 2.70847 64.3662 2.99854C64.7543 3.2906 65.0379 3.66413 65.2172 4.11911C65.4004 4.57607 65.4575 5.09264 65.3905 5.66882ZM62.3411 7.29006C62.7075 7.33775 63.0345 7.29602 63.3182 7.16291C63.6058 7.02582 63.8422 6.81919 64.0274 6.54302C64.2106 6.26288 64.3268 5.92909 64.3741 5.54167C64.4214 5.1443 64.3898 4.79065 64.2795 4.47673C64.1692 4.1648 63.9899 3.91049 63.7437 3.7138C63.5014 3.51909 63.1961 3.39591 62.8297 3.34822C62.4712 3.3065 62.1442 3.3522 61.8447 3.48332C61.5492 3.61048 61.3089 3.81314 61.1198 4.08732C60.9346 4.36348 60.8204 4.69926 60.7731 5.09662C60.7258 5.48405 60.7573 5.83571 60.8677 6.1536C60.9819 6.46752 61.1671 6.72382 61.4192 6.92449C61.6753 7.12714 61.9826 7.24834 62.3411 7.29006Z" fill="#720C68"/>
<path d="M67.2395 7.4418C67.2277 7.26696 67.2907 7.14377 67.4286 7.06827C67.5646 6.99476 67.7084 6.97092 67.862 6.99675C67.9723 7.0186 68.0669 7.06629 68.1457 7.1398C68.2245 7.2153 68.2658 7.31067 68.2718 7.4259C68.2974 7.6226 68.386 7.7875 68.5397 7.91863C68.6913 8.05175 68.8726 8.15705 69.0834 8.23652C69.2981 8.316 69.497 8.3756 69.6822 8.41136C69.8339 8.43918 69.9974 8.45706 70.1707 8.46699C70.348 8.47891 70.5253 8.47097 70.6987 8.44315C70.872 8.41136 71.0178 8.35176 71.1399 8.26036C71.266 8.17096 71.3448 8.04182 71.3763 7.87095C71.4078 7.68617 71.3566 7.53716 71.2266 7.4259C71.0946 7.31067 70.9134 7.20934 70.6829 7.12391C70.4564 7.04046 70.218 6.96496 69.9659 6.90138C69.6822 6.82191 69.3946 6.7325 69.107 6.63118C68.8233 6.53184 68.5712 6.40667 68.3506 6.25765C68.1339 6.10467 67.9684 5.91592 67.8541 5.6934C67.7438 5.4669 67.7202 5.18875 67.7832 4.85894C67.8344 4.56886 67.9566 4.33243 68.1457 4.15163C68.3387 3.96686 68.5653 3.82977 68.8233 3.73837C69.0853 3.64897 69.3611 3.59929 69.6507 3.58737C69.9442 3.57148 70.2259 3.59135 70.4938 3.643C70.7932 3.70261 71.0966 3.79798 71.4078 3.92911C71.7171 4.05626 71.9909 4.23508 72.2273 4.46157C72.4676 4.69006 72.6252 4.97616 72.7001 5.31988C72.704 5.48478 72.641 5.60995 72.511 5.6934C72.3849 5.77883 72.251 5.80863 72.1091 5.78082C72.0146 5.76492 71.9299 5.72916 71.857 5.66956C71.7821 5.61194 71.7329 5.54041 71.7073 5.45498C71.6757 5.26425 71.5812 5.11126 71.4236 4.99404C71.2699 4.87284 71.0946 4.77946 70.8957 4.71589C70.7006 4.65231 70.5115 4.60264 70.3283 4.56489C70.218 4.54502 70.0801 4.53111 69.9186 4.52515C69.761 4.51522 69.5995 4.52515 69.4379 4.55694C69.2803 4.58476 69.1405 4.64039 69.0203 4.72383C68.9041 4.80331 68.8312 4.92053 68.7997 5.07351C68.7682 5.25431 68.8115 5.40531 68.9336 5.52651C69.0597 5.64373 69.237 5.74108 69.4695 5.82055C69.6999 5.89605 69.9521 5.97155 70.2259 6.05103C70.5194 6.13646 70.809 6.22587 71.0927 6.32123C71.3763 6.4166 71.6285 6.53581 71.8491 6.67886C72.0697 6.81794 72.2313 6.99675 72.3376 7.21927C72.442 7.43782 72.4637 7.71796 72.4007 8.06168C72.3376 8.40739 72.1997 8.67362 71.9909 8.86436C71.7861 9.05509 71.5418 9.19019 71.2581 9.26967C70.9745 9.35311 70.677 9.39682 70.3677 9.39682C70.0624 9.39682 69.7768 9.36901 69.5089 9.31735C69.2882 9.27364 69.0518 9.20609 68.7997 9.11072C68.5475 9.01535 68.3052 8.89018 68.0748 8.7372C67.8482 8.59018 67.6591 8.40739 67.5074 8.18884C67.3538 7.97228 67.2651 7.72392 67.2395 7.4418Z" fill="#720C68"/>
</svg>
