<svg width="40" height="40" viewBox="0 0 40 40" style="color: white" fill="none" xmlns="http://www.w3.org/2000/svg">
<path d="M37.1341 10.3656L29.6341 2.86562C29.518 2.74948 29.3801 2.65735 29.2283 2.5945C29.0766 2.53165 28.914 2.4993 28.7497 2.4993C28.5855 2.4993 28.4228 2.53165 28.2711 2.5945C28.1194 2.65735 27.9815 2.74948 27.8653 2.86562C27.7492 2.98176 27.6571 3.11963 27.5942 3.27137C27.5314 3.42311 27.499 3.58575 27.499 3.74999C27.499 3.91424 27.5314 4.07687 27.5942 4.22861C27.6571 4.38035 27.7492 4.51823 27.8653 4.63437L30.7325 7.49999L26.2497 11.9828L20.8841 6.61562C20.6495 6.38107 20.3314 6.2493 19.9997 6.2493C19.668 6.2493 19.3499 6.38107 19.1153 6.61562C18.8808 6.85017 18.749 7.16829 18.749 7.49999C18.749 7.8317 18.8808 8.14982 19.1153 8.38437L20.1075 9.37499L6.98253 22.5C6.74937 22.7313 6.56452 23.0066 6.43872 23.31C6.31291 23.6134 6.24867 23.9388 6.24972 24.2672V31.9828L2.86534 35.3656C2.74921 35.4818 2.65708 35.6196 2.59423 35.7714C2.53137 35.9231 2.49902 36.0858 2.49902 36.25C2.49902 36.4142 2.53137 36.5769 2.59423 36.7286C2.65708 36.8804 2.74921 37.0182 2.86534 37.1344C3.09989 37.3689 3.41801 37.5007 3.74972 37.5007C3.91396 37.5007 4.0766 37.4683 4.22834 37.4055C4.38008 37.3426 4.51796 37.2505 4.63409 37.1344L8.01691 33.75H15.7325C16.061 33.751 16.3863 33.6868 16.6897 33.561C16.9931 33.4352 17.2684 33.2503 17.4997 33.0172L30.6247 19.8922L31.6153 20.8844C31.7315 21.0005 31.8694 21.0926 32.0211 21.1555C32.1728 21.2183 32.3355 21.2507 32.4997 21.2507C32.664 21.2507 32.8266 21.2183 32.9783 21.1555C33.1301 21.0926 33.268 21.0005 33.3841 20.8844C33.5002 20.7682 33.5924 20.6304 33.6552 20.4786C33.7181 20.3269 33.7504 20.1642 33.7504 20C33.7504 19.8357 33.7181 19.6731 33.6552 19.5214C33.5924 19.3696 33.5002 19.2318 33.3841 19.1156L28.0169 13.75L32.4997 9.26718L35.3653 12.1344C35.5999 12.3689 35.918 12.5007 36.2497 12.5007C36.5814 12.5007 36.8995 12.3689 37.1341 12.1344C37.3686 11.8998 37.5004 11.5817 37.5004 11.25C37.5004 10.9183 37.3686 10.6002 37.1341 10.3656ZM15.7325 31.25H8.74972V24.2672L11.5622 21.4547L14.7403 24.6344C14.8565 24.7505 14.9944 24.8426 15.1461 24.9055C15.2978 24.9683 15.4605 25.0007 15.6247 25.0007C15.789 25.0007 15.9516 24.9683 16.1033 24.9055C16.2551 24.8426 16.393 24.7505 16.5091 24.6344C16.6252 24.5182 16.7174 24.3804 16.7802 24.2286C16.8431 24.0769 16.8754 23.9142 16.8754 23.75C16.8754 23.5858 16.8431 23.4231 16.7802 23.2714C16.7174 23.1196 16.6252 22.9818 16.5091 22.8656L13.3294 19.6875L15.3122 17.7047L18.4903 20.8844C18.7249 21.1189 19.043 21.2507 19.3747 21.2507C19.7064 21.2507 20.0245 21.1189 20.2591 20.8844C20.4936 20.6498 20.6254 20.3317 20.6254 20C20.6254 19.6683 20.4936 19.3502 20.2591 19.1156L17.0794 15.9375L21.8747 11.1422L28.8575 18.125L15.7325 31.25Z" fill="white"/>
</svg>
